<svg width="221mm" height="221mm" version="1.1" viewBox="0 0 221 221" xmlns="http://www.w3.org/2000/svg">
 <circle id="background" cx="110" cy="110" r="110" stroke="var(--color-background-border)" strokeWidth='1' fill="var(--color-background)"/>
 <path d="m110 220.5a110.5 110.5 0 1 1 110.5-110.5 110.63 110.63 0 0 1-110.5 110.5zm0-220a109.5 109.5 0 1 0 109.5 109.5 109.62 109.62 0 0 0-109.5-109.5z" fill="#fff"/>
 <path d="m110.48 174.44c0-12.29 5.1-23.22 13-30.27-16.79-1.73-37.1 1-45.2 7.54-4.14 3.33-7.83 10.08-11.07 18.31a31.54 31.54 0 0 1 4.15-0.31c18.79 0 34 17.25 34 38.54a43 43 0 0 1-1.58 11.57c2 0.11 4.1 0.18 6.17 0.18a109.51 109.51 0 0 0 40-7.55 29.68 29.68 0 0 1-5.52 0.53c-18.71 0.02-33.95-17.26-33.95-38.54z" fill="#fdffe9"/>
 <path d="m162 188.77c0-0.22-0.11-0.43-0.17-0.64-0.28-1.06-0.56-2.12-0.86-3.17l-0.3-1.08c-0.26-0.89-0.51-1.78-0.77-2.67l-0.39-1.28c-0.25-0.8-0.49-1.6-0.74-2.38l-0.45-1.4c-0.24-0.73-0.47-1.45-0.72-2.16-0.16-0.48-0.33-1-0.49-1.43-0.24-0.68-0.48-1.35-0.72-2-0.18-0.48-0.35-1-0.53-1.42-0.24-0.64-0.49-1.26-0.73-1.87s-0.37-0.91-0.56-1.36l-0.75-1.74c-0.19-0.43-0.38-0.87-0.58-1.29s-0.51-1.07-0.77-1.6-0.39-0.8-0.6-1.19-0.53-1-0.8-1.48-0.4-0.72-0.6-1.06-0.58-0.92-0.87-1.37c-0.19-0.29-0.38-0.61-0.58-0.89-0.32-0.46-0.65-0.88-1-1.3-0.17-0.22-0.33-0.45-0.5-0.65a18.58 18.58 0 0 0-1.52-1.63 15.1 15.1 0 0 0-1.62-1.3l-0.46-0.32c-0.56-0.37-1.15-0.73-1.79-1.07l-0.16-0.09c-0.71-0.37-1.47-0.72-2.26-1.05l-0.49-0.2c-0.76-0.3-1.54-0.59-2.37-0.86l-0.16-0.06c-0.92-0.29-1.89-0.57-2.88-0.82l-0.29-0.07c-1-0.24-2-0.47-3-0.67h-0.05c-2.22-0.44-4.56-0.78-7-1-7.92 7.05-13 18-13 30.27 0 21.28 15.24 38.54 34 38.54a29.68 29.68 0 0 0 5.52-0.53 108.59 108.59 0 0 0 14.59-7c0.38-0.32 0.77-0.62 1.14-1-1.07-5.1-2.32-10.48-3.72-15.71z" fill="#019678"/>
 <path d="m71.38 169.71a30.2 30.2 0 0 0-4.17 0.32c-0.23 0.59-0.46 1.21-0.7 1.82-0.11 0.32-0.23 0.63-0.34 0.94-0.23 0.62-0.46 1.25-0.68 1.88l-0.3 0.87c-0.75 2.19-1.48 4.45-2.18 6.76l-0.21 0.7c-0.22 0.75-0.44 1.49-0.65 2.24-0.06 0.21-0.12 0.43-0.19 0.65-0.69 2.46-1.36 4.94-2 7.43l-0.12 0.46-0.6 2.42c0 0.15-0.07 0.31-0.11 0.47-0.62 2.54-1.2 5.07-1.74 7.54 0 0.1-0.05 0.2-0.07 0.3-0.14 0.62-0.27 1.24-0.4 1.85a109.43 109.43 0 0 0 46.9 13.46 43 43 0 0 0 1.58-11.57c0.01-21.25-15.23-38.54-34.02-38.54z" fill="#ec1b34"/>
 <path d="m143.22 26.86c5.55 2.14 3.78 40.36 3.78 40.36l-29.69-10.92s21.09-31.3 25.91-29.44z" fill="#fdffe9"/>
 <path d="m126.66 53.35a200 200 0 0 1 13.73-17.43 178.85 178.85 0 0 1 0.83 22.8z" fill="#ec1b34"/>
 <ellipse transform="rotate(-6.31)" cx="99.008" cy="117.48" rx="65" ry="52.12" fill="#fdffe9"/>
 <path d="m55.26 39.17c-4.75 3.57 7.62 39.81 7.62 39.81l25.45-18.72s-28.95-24.18-33.07-21.09z" fill="#fdffe9"/>
 <path d="m66.25 71.37a208.48 208.48 0 0 1-5.76-24.29c4.59 2.77 15.15 8.93 21.75 14.14z" fill="#ec1b34"/>
 <path d="m79.41 123.58a38 38 0 0 0 18.44-68.26c-30.74 6.43-52.73 29.78-51.32 55.37a38 38 0 0 0 32.88 12.89z" fill="#fbae17"/>
 <path d="m125.83 129.14h-1.06c-6-0.45-12.81-5.16-13.58-14.42a1.0032 1.0032 0 1 1 2-0.16c0.66 8.09 6.55 12.2 11.73 12.59a9.51 9.51 0 0 0 10.33-7.55 1.0018 1.0018 0 1 1 1.95 0.46 11.33 11.33 0 0 1-11.37 9.08z" fill="#171717"/>
 <path d="m99.47 132.06a11.3 11.3 0 0 1-10.31-6.73 1 1 0 1 1 1.79-0.88 9.49 9.49 0 0 0 11.73 5.11c5-1.51 9.82-6.8 8.7-14.84a1 1 0 0 1 0.86-1.13 1 1 0 0 1 1.12 0.85c1.29 9.21-4.33 15.29-10.09 17a13.15 13.15 0 0 1-3.8 0.62z" fill="#171717"/>
 <ellipse transform="rotate(-6.31)" cx="129.01" cy="120.85" rx="9.19" ry="8.81" fill="#ffb0d2"/>
 <ellipse transform="rotate(-6.31)" cx="69.005" cy="120.85" rx="9.19" ry="8.81" fill="#ffb0d2"/>
 <path d="m128.17 95.71a1.27 1.27 0 0 1-1.25-1.11 10.252 10.252 0 0 1 20.38-2.26 1.24 1.24 0 0 1-1.1 1.38 1.23 1.23 0 0 1-1.38-1.1 7.7517 7.7517 0 0 0-15.41 1.7 1.25 1.25 0 0 1-1.11 1.38z" fill="#171717"/>
 <path d="m74.49 101.64a1.25 1.25 0 0 1-1.24-1.11 10.252 10.252 0 0 1 20.38-2.25 1.26 1.26 0 0 1-1.11 1.38 1.25 1.25 0 0 1-1.38-1.11 7.77 7.77 0 0 0-8.55-6.85 7.75 7.75 0 0 0-6.85 8.56 1.26 1.26 0 0 1-1.11 1.38z" fill="#171717"/>
 <path d="m126.3 116.72a1.11 1.11 0 0 0-0.25-2.2 1.11 1.11 0 0 0 0.25 2.2z" fill="#f399c0"/>
 <path d="m130.79 118.82a1.11 1.11 0 0 0-0.24-2.2 1.11 1.11 0 0 0 0.24 2.2z" fill="#f399c0"/>
 <path d="m123 119.68a1.1021 1.1021 0 0 0-0.25-2.19 1.1021 1.1021 0 0 0 0.25 2.19z" fill="#f399c0"/>
 <path d="m126.88 122a1.11 1.11 0 0 0-0.25-2.2 1.11 1.11 0 0 0 0.25 2.2z" fill="#f399c0"/>
 <path d="m98.46 119.8a1.11 1.11 0 0 0-0.24-2.2 1.11 1.11 0 0 0 0.24 2.2z" fill="#f399c0"/>
 <path d="m103 121.9a1.11 1.11 0 0 0-0.24-2.2 1.11 1.11 0 0 0 0.24 2.2z" fill="#f399c0"/>
 <path d="m95.15 122.76a1.11 1.11 0 0 0-0.25-2.2 1.11 1.11 0 0 0 0.25 2.2z" fill="#f399c0"/>
 <path d="m99.05 125.05a1.11 1.11 0 0 0-0.25-2.2 1.11 1.11 0 0 0 0.25 2.2z" fill="#f399c0"/>
 <path d="m131.23 112.76 25.2-7.55-24.7 9a0.78 0.78 0 1 1-0.54-1.46z" fill="#f072ab"/>
 <path d="m132.72 120.49 22.77 4.27-23-2.73a0.78021 0.78021 0 0 1 0.18-1.55z" fill="#f072ab"/>
 <path d="m131.83 116.7 39.43-3.7-39.26 5.25a0.78 0.78 0 0 1-0.88-0.67 0.77 0.77 0 0 1 0.67-0.87z" fill="#f072ab"/>
 <path d="m93.23 118.5-26.08-3.42 26.24 1.92a0.78 0.78 0 1 1-0.11 1.55z" fill="#f072ab"/>
 <path d="m94.2 126.26-21.86 7.74 21.29-9.15a0.78 0.78 0 1 1 0.62 1.43z" fill="#f072ab"/>
 <path d="m93.83 122.47-39.46 3.41 39.3-5a0.7808 0.7808 0 1 1 0.19 1.55z" fill="#f072ab"/>
 <path d="m121 111.1c0.41 3.71-3.26 7.15-8.2 7.7s-9.28-2-9.69-5.72 17.43-5.68 17.89-1.98z" fill="#171717"/>
</svg>
