<svg width="220mm" height="220mm" version="1.1" viewBox="0 0 220 220" xmlns="http://www.w3.org/2000/svg">
 <circle cx="110" cy="110" r="110" stroke="var(--color-background-border)" strokeWidth='1' fill="var(--color-background)"/>
 <path d="m110 220.5a110.5 110.5 0 1 1 110.5-110.5 110.63 110.63 0 0 1-110.5 110.5zm0-220a109.5 109.5 0 1 0 109.5 109.5 109.62 109.62 0 0 0-109.5-109.5z" fill="#fff"/>
 <path d="m180.26 188.63c-42.73 23.34-94.14 2.43-140.79 5.82a112 112 0 0 0 14.53 10.26c18.86 0.09 38.28 3.11 57.43 4.74l-17.68 3.47-14.28 2.8h0.05l10.63-2.08 21.29-4.18c17.05 1.45 33.88 1.77 49.89-2.12a110.46 110.46 0 0 0 20-13.6q-0.48-2.51-1.07-5.11z" fill="#ec1b34"/>
 <path d="m170.08 158.77a85.81 85.81 0 0 0-4.67-8.29c-34.48 13.13-73.3 4.16-110.89 1.41a99.18 99.18 0 0 0-5 9.87c40.63 1.32 83.48 14.01 120.56-2.99z" fill="#ec1b34"/>
 <path d="m157.74 140.69a47.63 47.63 0 0 0-15.74-11.07c-17.47-7.45-44.67-6-63 0a39 39 0 0 0-16.79 11.52c32.5 3.12 65.51 8.94 95.53-0.45zm-75.37-7.69c18.71-5.11 43.23-6.17 60.23 0.17-19.32 3.88-39.74 2.07-60.23-0.17z" fill="#ec1b34"/>
 <path d="m159.66 142.8c-0.62-0.72-1.26-1.43-1.92-2.11 0.65 0.69 1.26 1.39 1.92 2.11z" fill="#ec1b34"/>
 <path d="m177.57 178.19c-0.93-3.17-2-6.35-3.17-9.49-39.46 19.49-85.8 3.94-129.09 3.92-1.22 3.6-2.32 7.22-3.28 10.8 45.17-1.77 94.35 16.84 135.54-5.23z" fill="#ec1b34"/>
 <path d="m180.25 188.59c-0.37-1.67-0.78-3.36-1.21-5.05v-0.19q-0.65-2.53-1.4-5.09a0.64 0.64 0 0 0 0-0.07c-41.19 22.07-90.37 3.46-135.54 5.23v0.18c-0.47 1.77-0.92 3.51-1.33 5.24l-0.06 0.25c-0.43 1.79-0.82 3.57-1.19 5.3l0.07 0.06c46.65-3.39 98.06 17.52 140.79-5.82z" fill="#fdffe9"/>
 <path d="m165.41 150.48c-0.55-0.86-1.13-1.71-1.72-2.55-0.55-0.77-1.11-1.53-1.69-2.27l-0.39-0.49c-0.48-0.62-1-1.22-1.48-1.81l-0.41-0.48c-0.62-0.72-1.26-1.43-1.92-2.11-30 9.39-63 3.57-95.5 0.45-0.7 0.77-1.37 1.58-2 2.4l-0.17 0.22c-0.59 0.74-1.16 1.51-1.73 2.29l-0.24 0.32c-1.2 1.7-2.34 3.48-3.43 5.32l-0.13 0.2c37.51 2.67 76.33 11.64 110.81-1.49z" fill="#fdffe9"/>
 <path d="m111.41 209.45c-19.15-1.63-38.57-4.65-57.43-4.74l1.96 1.12c0.59 0.34 1.19 0.66 1.78 1l2 1.05 1.45 0.72c1.58 0.78 3.17 1.54 4.8 2.25l0.4 0.18c1 0.41 1.91 0.8 2.87 1.18l0.59 0.24q4.72 1.85 9.65 3.28l14.28-2.8z" fill="#fdffe9"/>
 <path d="m174.4 168.7c0-0.11-0.09-0.22-0.13-0.32-0.2-0.53-0.41-1-0.61-1.57-0.11-0.28-0.22-0.57-0.34-0.85-0.25-0.62-0.51-1.25-0.78-1.87-0.07-0.17-0.14-0.34-0.22-0.51-0.7-1.63-1.45-3.24-2.23-4.82-37.06 17-79.94 4.32-120.59 3a1.42 1.42 0 0 0-0.08 0.18c-0.33 0.75-0.66 1.51-1 2.27l-0.13 0.3c-1.1 2.67-2.11 5.38-3 8.11 43.3 0.01 89.64 15.57 129.11-3.92z" fill="#fdffe9"/>
 <path d="m142.6 133.21c-17-6.34-41.52-5.28-60.23-0.17 20.49 2.2 40.91 4.01 60.23 0.17z" fill="#fdffe9"/>
 <path d="m111.42 209.47-21.29 4.18-10.64 2.08c2.05 0.59 4.11 1.12 6.2 1.59 1.15 0.27 2.27 0.5 3.36 0.72h0.21c1.05 0.2 2.07 0.38 3.08 0.53l0.41 0.07a141 141 0 0 0 18.91 1.36 109.49 109.49 0 0 0 46.7-11.16l0.32-0.15c0.81-0.41 1.63-0.82 2.43-1.25l0.21-0.1c-16.02 3.9-32.85 3.58-49.9 2.13z" fill="#fdffe9"/>
 <path d="m133.49 67.11a67.13 67.13 0 0 1 15.69-9.75c18.63-8 43.71-2.07 36.58 22.08-1.73 5.83-10.07 11.44-9.6 18.88s1.33 15.67-4.68 19.78-14.63 4.11-24.54-4.89-13.1-13.57-13.8-15.88 1.06-2.33 1.06-2.33l-0.36-14z" fill="#b7b9bd" fill-rule="evenodd"/>
 <path d="m142.76 76.59c18.59-25 44.24-9.07 34.55 4.7-2.6 3.69-5.8 7.38-5.42 13.46 0.29 4.56 1.47 13-2.8 15.88-6.63 4.53-14.11 0.19-19.3-4.52-1.94-1.76-8.34-7.69-11.22-11.6z" fill="#a7a9ac" fill-rule="evenodd"/>
 <path d="m86.51 67.11a67.13 67.13 0 0 0-15.69-9.75c-18.63-8-43.71-2.07-36.58 22.08 1.73 5.83 10.07 11.44 9.6 18.88s-1.33 15.67 4.68 19.78 14.63 4.11 24.54-4.89 13.1-13.57 13.8-15.88-1.06-2.33-1.06-2.33l0.36-13.93z" fill="#b7b9bd" fill-rule="evenodd"/>
 <path d="m77.24 76.59c-18.59-25-44.24-9.07-34.55 4.7 2.6 3.69 5.8 7.38 5.42 13.46-0.29 4.56-1.47 13 2.8 15.88 6.63 4.53 14.11 0.19 19.3-4.52 1.94-1.76 8.34-7.69 11.22-11.6z" fill="#a7a9ac" fill-rule="evenodd"/>
 <path d="m108.62 139a30.3 30.3 0 0 1-22.23 9.73c-16.91 0-30.61-13.95-30.61-31.15a31.25 31.25 0 0 1 14.46-26.47c3.41-18.86 19.64-33.14 39.16-33.14s35.74 14.28 39.15 33.14a31.24 31.24 0 0 1 14.45 26.43c0 17.2-13.71 31.15-30.62 31.15a30.3 30.3 0 0 1-22.21-9.69z" fill="#b7b9bd" fill-rule="evenodd"/>
 <path d="m95.89 146.63c2.79-6.74 9.73-13.86 6.94-20.49-1.62-3.86-8.55-8.63-5.33-12.5 5.54-6.64 24.37-6.07 25.72-0.3 4.63 3.77 1.71 20.5 0.46 25.6-2.58 10.45-11.11 19.29-20.21 24.56a36.7 36.7 0 0 1-16 5.2c-2.63 0.16-5.11-0.66-7.66-0.66-3.75 0-6.69 4.58-10.38 1.25-3.49-3.17 0.46-6.23 3.81-6.6-3.12-1.05-5.72-6.2-2.46-8.31 2.66-1.72 4.81 1.09 7.07 2.08a10.74 10.74 0 0 0 9.67-0.64 18 18 0 0 0 8.37-9.19z" fill="#afb1b5"/>
 <path d="m101.66 124.25a5 5 0 0 1 0.76-3.82 8.39 8.39 0 0 1 3-2.67 16.57 16.57 0 0 1 7.69-1.87 15.27 15.27 0 0 1 7.72 1.82 8.34 8.34 0 0 1 3 2.74 6.13 6.13 0 0 1 0.91 3.8 7.26 7.26 0 0 0-4.57-5.2 17.34 17.34 0 0 0-7-1.24 19.42 19.42 0 0 0-7.06 1.29c-2.11 0.9-4.24 2.5-4.45 5.15z" fill="#9ea0a3"/>
 <path d="m104 131.58a4.59 4.59 0 0 1 0.58-3.35 7.24 7.24 0 0 1 2.56-2.42 13.62 13.62 0 0 1 6.67-1.73 12.69 12.69 0 0 1 6.71 1.68 7.27 7.27 0 0 1 2.5 2.49 5.49 5.49 0 0 1 0.7 3.33 6.5 6.5 0 0 0-3.83-4.66 13.88 13.88 0 0 0-6.06-1.15 15.38 15.38 0 0 0-6.08 1.2 5.71 5.71 0 0 0-3.75 4.61z" fill="#9ea0a3"/>
 <path d="m102.19 137.8c-0.11-1.09 2.78-4.7 3.84-5.13a13.41 13.41 0 0 1 6.69-0.73 12.39 12.39 0 0 1 6.25 2.55 7.21 7.21 0 0 1 2.07 2.75 5.47 5.47 0 0 1 0.22 3.31 6.39 6.39 0 0 0-3.06-5 13.82 13.82 0 0 0-5.7-2 15.22 15.22 0 0 0-6.05 0.31 5.57 5.57 0 0 0-4.26 3.94z" fill="#9ea0a3"/>
 <path d="m98.79 144.64a4.44 4.44 0 0 1 1.39-3 7.2 7.2 0 0 1 3-1.64 13.57 13.57 0 0 1 6.73 0 12.47 12.47 0 0 1 5.91 3.27 7 7 0 0 1 1.73 3 5.33 5.33 0 0 1-0.17 3.31 6.33 6.33 0 0 0-2.45-5.35 13.69 13.69 0 0 0-5.43-2.6 15.23 15.23 0 0 0-6-0.4 5.56 5.56 0 0 0-4.71 3.41z" fill="#9ea0a3"/>
 <path d="m96.71 150.48a5.47 5.47 0 0 1 0.34-1.29 4.05 4.05 0 0 1 0.82-1.1 4.27 4.27 0 0 1 1.14-0.8 4.7 4.7 0 0 1 1.29-0.49 11.13 11.13 0 0 1 5.41 0 10 10 0 0 1 4.78 2.58 9.79 9.79 0 0 1 0.86 1.09 12.25 12.25 0 0 1 0.58 1.28c0.08 0.46 0.11 0.92 0.15 1.36s-0.17 0.89-0.27 1.31a5 5 0 0 0-2-4.28 11 11 0 0 0-4.4-2.05 12.48 12.48 0 0 0-4.86-0.3 4.54 4.54 0 0 0-3.84 2.69z" fill="#9ea0a3"/>
 <path d="m91.88 156.29a4.56 4.56 0 0 1 0.31-1.12 3.36 3.36 0 0 1 0.72-1 3.73 3.73 0 0 1 1-0.67 3.93 3.93 0 0 1 1.12-0.43 9.55 9.55 0 0 1 4.72 0 8.74 8.74 0 0 1 4.17 2.22 9.78 9.78 0 0 1 0.75 0.95 7.87 7.87 0 0 1 0.52 1.1c0.08 0.4 0.1 0.81 0.14 1.19s-0.14 0.77-0.23 1.14a4.26 4.26 0 0 0-1.78-3.72 9.88 9.88 0 0 0-3.85-1.76 11.5 11.5 0 0 0-4.25-0.26 3.94 3.94 0 0 0-3.34 2.36z" fill="#9ea0a3"/>
 <path d="m125.77 99.15c5.38-6 15.83-1.23 17.21 3.59-5.92-2.68-10.54-6-16.63-3 0 0.04-1.04-0.07-0.58-0.59z" fill="#171717"/>
 <path d="m128.83 90.14c0.36 0 0.67 0.08 0.69 0.26l0.6 6.71c0 0.17-0.27 0.34-0.64 0.38-0.37 0-0.68-0.09-0.69-0.26l-0.6-6.72c0-0.17 0.27-0.34 0.64-0.37zm5.89 0.4c0.36 0.05 0.65 0.22 0.62 0.4l-0.81 6.69c0 0.17-0.33 0.28-0.7 0.24-0.36-0.05-0.64-0.23-0.62-0.4l0.81-6.69c0-0.18 0.33-0.28 0.7-0.24zm6.27 1.61c0.33 0.16 0.55 0.42 0.47 0.57l-2.9 6.1c-0.07 0.15-0.4 0.15-0.73 0-0.34-0.15-0.55-0.41-0.47-0.57l2.89-6.09c0.08-0.16 0.41-0.16 0.74 0z" fill="#171717" fill-rule="evenodd"/>
 <path d="m94.23 99.15c-5.38-6-15.83-1.23-17.21 3.59 5.92-2.68 10.54-6 16.63-3 0 0.04 1.04-0.07 0.58-0.59z" fill="#171717"/>
 <path d="m91.17 90.14c0.37 0 0.66 0.2 0.64 0.37l-0.6 6.72c0 0.17-0.32 0.29-0.69 0.26-0.37 0-0.65-0.21-0.64-0.38l0.6-6.71c0-0.18 0.33-0.3 0.69-0.26zm-5.89 0.4c0.37 0 0.68 0.06 0.7 0.24l0.81 6.69c0 0.17-0.26 0.35-0.62 0.4-0.37 0-0.68-0.07-0.7-0.24l-0.81-6.69c0-0.18 0.26-0.35 0.62-0.4zm-6.28 1.61c0.33-0.16 0.66-0.16 0.74 0l2.89 6.09c0.08 0.16-0.13 0.42-0.47 0.57-0.33 0.16-0.66 0.16-0.73 0l-2.9-6.1c-0.08-0.15 0.14-0.41 0.47-0.57z" fill="#171717" fill-rule="evenodd"/>
 <ellipse cx="136.05" cy="113.44" rx="7.64" ry="5.94" fill="#ffb0d2"/>
 <ellipse cx="83.95" cy="113.44" rx="7.64" ry="5.94" fill="#ffb0d2"/>
</svg>
