<svg width="220mm" height="220mm" version="1.1" viewBox="0 0 220 220" xmlns="http://www.w3.org/2000/svg">
 <circle cx="110" cy="110" r="110" stroke="var(--color-background-border)" strokeWidth='1' fill="var(--color-background)"/>
 <path d="m41.16 154.86c3.07 4.89 6.54 10.09 10.54 16 7.23-4.18 14.52-8.32 21.78-12.47-3.8-5.14-7.57-10.35-11.09-15.66-7.07 4.04-14.17 8.07-21.23 12.13z" fill="#fdffe9"/>
 <path d="m45.13 98.72a55.8 55.8 0 0 1 0.65-13.1c-8.19 5.07-16.55 10-25 14.82a62 62 0 0 0 3.32 19.79 2.77 2.77 0 0 1 0.1 0.26c7.42-4.23 14.84-8.47 22.18-12.79a63.45 63.45 0 0 1-1.25-8.98z" fill="#fdffe9"/>
 <path d="m98.79 72.34q8.25-6.75 15.77-14.19a56.25 56.25 0 0 0-15.14-13.15 227.25 227.25 0 0 1-17.68 15.62c0.76 0.21 1.52 0.45 2.27 0.72a30.43 30.43 0 0 1 14.78 11z" fill="#fdffe9"/>
 <path d="m75.76 201.15c4.22 5 8.36 10.17 11.91 15.24 6.84-4 13.75-8 20.68-11.95-3.62-5.24-7.57-10.35-11.56-15.39-7.03 4.01-14.06 8.02-21.03 12.1z" fill="#fdffe9"/>
 <path d="m73.48 158.38c-7.26 4.15-14.55 8.29-21.78 12.47l3.4 5c2.18 3.2 5 6.73 8.08 10.47 7.2-4.2 14.46-8.33 21.71-12.46q-1.33-1.77-2.61-3.53c-2.86-3.96-5.83-7.94-8.8-11.95z" fill="#ec1b34"/>
 <path d="m87.67 216.39c0.36 0.51 0.7 1 1.05 1.53a110.48 110.48 0 0 0 21.28 2.08c2.51 0 5-0.11 7.47-0.28a119.14 119.14 0 0 0-9.12-15.28c-6.93 3.95-13.84 7.91-20.68 11.95z" fill="#ec1b34"/>
 <path d="m46.4 107.7c-7.34 4.32-14.76 8.56-22.18 12.79a160.68 160.68 0 0 0 7.48 17.72c7-4 14.1-8 21.12-12.09a80.57 80.57 0 0 1-6.42-18.42z" fill="#ec1b34"/>
 <path d="m105.76 86.53 18-11.2a39.87 39.87 0 0 0-5.5-12l-15.26 16.31a69.61 69.61 0 0 1 2.76 6.89z" fill="#f399c0"/>
 <path d="m118.25 63.25a60.52 60.52 0 0 0-3.69-5.1q-7.5 7.46-15.77 14.19a42.58 42.58 0 0 1 4.21 7.26z" fill="#f399c0"/>
 <path d="m67.7 37.47c-16 0.61-26.4 8.33-35.77 21.83a60.65 60.65 0 0 0-7.72 16.92c19.21-11.57 37.62-23.88 53.7-38.36a65.16 65.16 0 0 0-10.21-0.39z" fill="#f399c0"/>
 <path d="m63.18 186.32c3.89 4.67 8.27 9.69 12.58 14.83 7-4.08 14-8.09 21-12.1-4-5.11-8.11-10.15-11.9-15.19-7.22 4.14-14.48 8.26-21.68 12.46z" fill="#f399c0"/>
 <path d="m52.07 70.15c7.09-9.51 18.46-12.65 29.67-9.5a227.25 227.25 0 0 0 17.68-15.65 54.8 54.8 0 0 0-21.51-7.17c-16.08 14.48-34.49 26.79-53.7 38.36a82.26 82.26 0 0 0-3.41 24.22c8.43-4.85 16.79-9.75 25-14.82a35.82 35.82 0 0 1 6.27-15.44z" fill="#ec1b34"/>
 <path d="m37.88 149.5c1 1.76 2.13 3.54 3.28 5.36 7.06-4.06 14.16-8.09 21.23-12.14-2.56-3.88-5-7.82-7.14-11.84z" fill="#f399c0"/>
 <path d="m52.82 126.12c-7 4.05-14.08 8.06-21.12 12.09 1.88 3.8 3.92 7.49 6.15 11.26l17.38-18.63c-0.85-1.56-1.65-3.14-2.41-4.72z" fill="#f399c0"/>
 <path d="m105.76 86.53c-8.53 6.26-10.65 19.08-8.91 29.21s6.1 19 14.61 24.77c10.73 7.25 24.64 10.24 37 6.47 19.44-5.9 28.75-29.77 22.12-49s-27.89-30-46.83-22.66z" fill="#f399c0"/>
 <path d="m151.55 150.6a76.2 76.2 0 0 1 12.23 14.4c6.16 9.69 7.48 18.43 4.84 24.74-0.64 1.51 1.37 2.9 2.88 2.22 11.1-5 16.87-18.61 18-29.09 0.07-0.51 0.1-1 0.13-1.55a39.23 39.23 0 0 0-11.36-30.19c-4.33-4.3-10.28-7.65-16.32-6.74-4.8 0.74-8.89 4.08-12.24 7.35a14.36 14.36 0 0 0-3.69 5.83c-1.88 6.11 1.98 9.7 5.53 13.03z" fill="#fdffe9"/>
 <path d="m168.62 189.72c-0.64 1.51 1.37 2.9 2.88 2.22 11.1-5 16.87-18.61 18-29.09 0.07-0.51 0.1-1 0.13-1.55-8.61-2.92-18.64-1.75-25.88 3.68 6.19 9.69 7.51 18.43 4.87 24.74z" fill="#171717"/>
 <path d="m160.72 139.15a4.66 4.66 0 0 1 1.53 1.53 1.58 1.58 0 0 1-0.33 2 1.53 1.53 0 0 1-1.51 0 4.64 4.64 0 0 1-1.25-1 6.87 6.87 0 0 1-1.47-1.8 2.34 2.34 0 0 1 0-2.24c0.39-0.64 2.4 1.06 3.03 1.51z" fill="#171717"/>
 <path d="m131.91 125.82a10.16 10.16 0 0 1-6-2c-4.29-3.16-6.13-9.76-1.34-16.27a0.76 0.76 0 0 1 1.05-0.16 0.74 0.74 0 0 1 0.16 1c-4.4 6-2.56 11.54 1 14.17s9.19 2.66 13.48-3.17a0.75 0.75 0 0 1 1-0.16 0.76 0.76 0 0 1 0.16 1.05c-2.83 4-6.31 5.54-9.51 5.54z" fill="#171717"/>
 <path d="m114.83 112.68c0.24-0.38 1.89 0.31 3.5 0.61a9.86 9.86 0 0 0 3.23 0.1c0.27 0 0.56 0.68 0.65 1.55s-0.17 1.6-0.56 1.62a9.26 9.26 0 0 1-4.13-1.18c-1.73-0.98-2.92-2.38-2.69-2.7z" fill="#171717"/>
 <path d="m116.47 123.07c-0.33-0.34 0.86-1.78 2.24-2.91a32.69 32.69 0 0 1 3-2.27c0.29-0.16 0.87 0.34 1.28 1.11s0.52 1.52 0.25 1.67-1.77 0.76-3.37 1.4-3.11 1.29-3.4 1z" fill="#171717"/>
 <path d="m123.82 128.59c-0.78-0.41 1-5.34 1.16-5.56s0.83-0.06 1.61 0.35 1.3 0.92 1.18 1.14-3.18 4.48-3.95 4.07z" fill="#171717"/>
 <path d="m131 131.63c-0.41-0.08-0.72-1.44-1.11-2.91a15.55 15.55 0 0 1-0.52-3.31c0-0.33 0.76-0.53 1.62-0.41s1.55 0.37 1.54 0.6-0.21 1.47-0.4 3-0.66 3.11-1.13 3.03z" fill="#171717"/>
 <path d="m139 129.69c-0.41 0.27-1.5-1.13-2.14-2.65s-1.19-3-1.24-3.13c-0.06-0.27 0.56-0.66 1.4-0.91s1.6-0.18 1.67 0.12 0.24 1.81 0.34 3.36 0.27 2.97-0.03 3.21z" fill="#171717"/>
 <path d="m164.05 91.86c-8.05-11.86-18.05-13.86-18.05-13.86 0-2 9.05-32.59 9.05-32.59l-0.27 24.32 16.4-14.22-4.67 21.57 20.79-11.48s-21.62 28.65-23.25 26.26z" fill="#ffbd17"/>
 <circle cx="154.93" cy="46.69" r="2.31" fill="#ffbd17"/>
 <circle cx="186.2" cy="66.28" r="2.31" fill="#ffbd17"/>
 <circle cx="171.79" cy="54.53" r="2.31" fill="#ffbd17"/>
</svg>
