<svg width="221mm" height="221mm" version="1.1" viewBox="0 0 221 221" xmlns="http://www.w3.org/2000/svg">
 <circle cx="110" cy="110" r="110" stroke="var(--color-background-border)" strokeWidth='1' fill="var(--color-background)"/>
 <path d="m110.5 221a110.5 110.5 0 1 1 110.5-110.5 110.63 110.63 0 0 1-110.5 110.5zm0-220a109.5 109.5 0 1 0 109.5 109.5 109.62 109.62 0 0 0-109.5-109.5z" fill="#fff"/>
 <path d="m212.57 141.32a51.83 51.83 0 0 0-21.13-26.82 1.32 1.32 0 0 1 0 0.13 52.21 52.21 0 0 1 17.5 18.87c-0.88 1.19-2 2.44-2.94 2.22-1.66-0.41-2.25-3.22-3.39-2.84s-3.5 5.76-4.25 5.08-0.34-2.93-1.53-3.26-3.33 3.57-3.77 4.53-1.14 0.7-2.16-1.17-2.78-4.3-3.73-3.85-1.39 3.6-2.48 4.1c-0.77 0.35-2.41-0.24-3.77-0.86a35.8 35.8 0 0 1-9 9.31c-13.28 9-45.31 38-35.13 60.14 1.58 3.45 3.15 6.45 4.69 9.13a109.65 109.65 0 0 0 34-16.81 175.64 175.64 0 0 0 24.52-24.85 109.42 109.42 0 0 0 12.85-23.65 17.84 17.84 0 0 0-0.28-9.4z" fill="#e31a32"/>
 <path d="m184.73 138.32c1.1-0.5 1.55-3.66 2.51-4.1s2.73 2 3.77 3.85 1.75 2.13 2.19 1.17 2.61-4.86 3.81-4.53 0.77 2.58 1.54 3.26 3.14-4.69 4.3-5.08 1.74 2.43 3.42 2.84c0.91 0.22 2.09-1 3-2.22a52.48 52.48 0 0 0-17.77-18.9l-0.38-0.23s-3.35 12.68-10.44 23l0.22 0.1c1.4 0.6 3.06 1.19 3.83 0.84z" fill="#fdffe9"/>
 <path d="m180.44 141.5a0.22 0.22 0 0 0-0.16 0 0.18 0.18 0 0 0-0.1 0.11 8.47 8.47 0 0 1-1.16 1.83 0.2 0.2 0 0 0 0 0.28 0.21 0.21 0 0 0 0.29 0 8.93 8.93 0 0 0 1.21-1.92 0.2 0.2 0 0 0-0.08-0.3z" fill="#f58523"/>
 <path d="m176.97 144.5h-0.06c-0.55 0.63-1.11 1.25-1.66 1.86l-0.37 0.41a0.2 0.2 0 0 0 0.3 0.26l0.36-0.4c0.56-0.62 1.12-1.24 1.67-1.87a0.2 0.2 0 0 0 0-0.28 0.18 0.18 0 0 0-0.24 0.02z" fill="#f58523"/>
 <path d="m176.14 146.8h-0.06l-0.14 0.14a16.13 16.13 0 0 0-1.66 1.74 0.2 0.2 0 0 0 0 0.28 0.19 0.19 0 0 0 0.28 0 15.24 15.24 0 0 1 1.61-1.71l0.15-0.13a0.22 0.22 0 0 0 0-0.29 0.22 0.22 0 0 0-0.18-0.03z" fill="#f58523"/>
 <path d="m172.82 148.21a3.29 3.29 0 0 0-1.19 1.24l-0.23 0.33a0.2 0.2 0 0 0 0.32 0.24l0.24-0.35a3.1 3.1 0 0 1 1-1.11 0.19 0.19 0 0 0 0.09-0.26 0.19 0.19 0 0 0-0.23-0.09z" fill="#f58523"/>
 <path d="m171.31 150.97a12.23 12.23 0 0 0-1.08 1.08l-0.53 0.56a0.2 0.2 0 1 0 0.28 0.28c0.19-0.19 0.36-0.38 0.54-0.57 0.35-0.37 0.68-0.73 1-1.05a0.2 0.2 0 0 0 0-0.28 0.2 0.2 0 0 0-0.21-0.02z" fill="#f58523"/>
 <path d="m168.68 151.32a5.41 5.41 0 0 0-0.71 0.63 4.54 4.54 0 0 1-0.75 0.64 0.21 0.21 0 0 0-0.06 0.28 0.19 0.19 0 0 0 0.27 0.06 4.66 4.66 0 0 0 0.82-0.7 6 6 0 0 1 0.66-0.58 0.2 0.2 0 0 0 0-0.28 0.19 0.19 0 0 0-0.23-0.05z" fill="#f58523"/>
 <path d="m166.8 154.55a5.63 5.63 0 0 0-1.58 1.43l-0.31 0.36a0.19 0.19 0 0 0 0 0.28 0.2 0.2 0 0 0 0.28 0l0.31-0.36a5.25 5.25 0 0 1 1.47-1.33 0.21 0.21 0 0 0 0.08-0.27 0.19 0.19 0 0 0-0.25-0.11z" fill="#f58523"/>
 <path d="m164.05 154.65a6 6 0 0 0-1.34 1.69 0.20125 0.20125 0 0 0 0.36 0.18 5.49 5.49 0 0 1 1.25-1.58 0.2 0.2 0 0 0 0-0.28 0.22 0.22 0 0 0-0.27-0.01z" fill="#f58523"/>
 <path d="m162.57 158.73a9.48 9.48 0 0 0-2 2.13l0.16 0.13 0.19 0.08a8.82 8.82 0 0 1 1.89-2 0.21 0.21 0 0 0 0.05-0.28 0.2 0.2 0 0 0-0.29-0.06z" fill="#f58523"/>
 <path d="m160.67 158.3a0.22 0.22 0 0 0-0.23 0 0.1 0.1 0 0 0-0.05 0 4.13 4.13 0 0 0-1 1.72 0.2 0.2 0 1 0 0.37 0.14 3.85 3.85 0 0 1 0.94-1.56 0.2 0.2 0 0 0-0.03-0.3z" fill="#f58523"/>
 <path d="m158.73 162.44-0.15 0.06a2.24 2.24 0 0 0-1.07 1.15 0.2 0.2 0 0 0 0.11 0.26 0.19 0.19 0 0 0 0.26-0.1 1.8 1.8 0 0 1 1-1 0.21 0.21 0 0 0 0.12-0.25 0.2 0.2 0 0 0-0.27-0.12z" fill="#f58523"/>
 <path d="m157.61 160.55a0.2 0.2 0 0 0-0.26-0.12l-0.22 0.09a2.69 2.69 0 0 0-1 0.78 0.2 0.2 0 1 0 0.31 0.25 2.19 2.19 0 0 1 1-0.74 0.2 0.2 0 0 0 0.17-0.26z" fill="#f58523"/>
 <path d="m153.76 165.18a4.75 4.75 0 0 0 0.4-0.63 2.74 2.74 0 0 1 0.73-0.91 0.2 0.2 0 0 0 0.05-0.28 0.2 0.2 0 0 0-0.25-0.07 2.92 2.92 0 0 0-0.85 1 6.42 6.42 0 0 1-0.37 0.58 0.2 0.2 0 0 0 0 0.28 0.2 0.2 0 0 0 0.29 0.03z" fill="#f58523"/>
 <path d="m156.05 163.12h-0.07a8 8 0 0 0-1.41 1.7 0.2 0.2 0 0 0 0.07 0.28 0.2 0.2 0 0 0 0.27-0.08 8.07 8.07 0 0 1 1.36-1.62 0.18 0.18 0 0 0 0-0.27 0.19 0.19 0 0 0-0.22-0.01z" fill="#f58523"/>
 <path d="m153.95 166.73h-0.06a12.19 12.19 0 0 0-1.24 1.53l-0.26 0.36a0.2 0.2 0 0 0 0.32 0.24l0.26-0.36a11.73 11.73 0 0 1 1.2-1.48 0.21 0.21 0 0 0 0-0.29 0.2 0.2 0 0 0-0.22 0z" fill="#f58523"/>
 <path d="m152.4 166.81a0.25 0.25 0 0 0-0.19 0 0.24 0.24 0 0 0-0.08 0.09 10.53 10.53 0 0 1-1 1.31 0.19 0.19 0 0 0 0 0.28 0.2 0.2 0 0 0 0.28 0 11.37 11.37 0 0 0 1-1.37 0.21 0.21 0 0 0-0.01-0.31z" fill="#f58523"/>
 <path d="m149.86 169.3a0.22 0.22 0 0 0-0.16 0 0.22 0.22 0 0 0-0.1 0.11 9.72 9.72 0 0 1-0.58 1.1c-0.12 0.22-0.24 0.43-0.35 0.65a0.19 0.19 0 0 0 0.08 0.27 0.2 0.2 0 0 0 0.27-0.09c0.11-0.21 0.23-0.42 0.35-0.63a10.55 10.55 0 0 0 0.6-1.15 0.19 0.19 0 0 0-0.11-0.26z" fill="#f58523"/>
 <path d="m150.75 170.29a4.75 4.75 0 0 0-1.22 1.34 0.2 0.2 0 0 0 0.06 0.28 0.2 0.2 0 0 0 0.27-0.06 4.26 4.26 0 0 1 1.12-1.23 0.2 0.2 0 0 0 0-0.28 0.2 0.2 0 0 0-0.23-0.05z" fill="#f58523"/>
 <path d="m148.07 172.42h-0.06a3 3 0 0 0-1 0.9 4.42 4.42 0 0 1-0.5 0.55 0.2 0.2 0 0 0 0 0.28 0.19 0.19 0 0 0 0.28 0 3.88 3.88 0 0 0 0.55-0.6 2.48 2.48 0 0 1 0.93-0.81 0.21 0.21 0 0 0 0.1-0.26 0.21 0.21 0 0 0-0.3-0.06z" fill="#f58523"/>
 <path d="m146.08 173.9 0.11-0.18a5.55 5.55 0 0 1 1-1.35 0.2 0.2 0 0 0 0-0.28 0.2 0.2 0 0 0-0.24-0.05 5.54 5.54 0 0 0-1.11 1.45l-0.11 0.17a0.2 0.2 0 0 0 0.07 0.28 0.2 0.2 0 0 0 0.28-0.04z" fill="#f58523"/>
 <path d="m145.04 175.23a0.2 0.2 0 0 0-0.27-0.09 2.65 2.65 0 0 0-1.14 1.32 0.19 0.19 0 0 0 0.09 0.26 0.2 0.2 0 0 0 0.27-0.09 2.3 2.3 0 0 1 1-1.13 0.21 0.21 0 0 0 0.05-0.27z" fill="#f58523"/>
 <path d="m146.15 174.94a0.18 0.18 0 0 0-0.07 0l-0.19 0.23-0.85 1a0.2 0.2 0 0 0 0 0.28 0.21 0.21 0 0 0 0.29 0c0.29-0.33 0.57-0.67 0.86-1l0.19-0.22a0.21 0.21 0 0 0 0-0.29 0.18 0.18 0 0 0-0.23 0z" fill="#f58523"/>
 <path d="m143.86 177.92h-0.06a5.92 5.92 0 0 0-1.09 1.58 0.2 0.2 0 0 0 0.1 0.26 0.19 0.19 0 0 0 0.26-0.09 5.68 5.68 0 0 1 1-1.47 0.21 0.21 0 0 0 0-0.29 0.22 0.22 0 0 0-0.21 0.01z" fill="#f58523"/>
 <path d="m142.7 178.15a0.22 0.22 0 0 0-0.22 0h-0.06a7.2 7.2 0 0 0-0.92 1.35c-0.1 0.18-0.2 0.36-0.31 0.53a0.22 0.22 0 0 0 0.07 0.28 0.21 0.21 0 0 0 0.28-0.07c0.1-0.18 0.21-0.36 0.31-0.55a6.77 6.77 0 0 1 0.85-1.3 0.19 0.19 0 0 0 0-0.24z" fill="#f58523"/>
 <path d="m141.5 181.42a0.2 0.2 0 0 0-0.15 0 0.17 0.17 0 0 0-0.1 0.12c-0.1 0.32-0.21 0.64-0.32 1-0.16 0.48-0.33 1-0.47 1.49a0.2 0.2 0 0 0 0.14 0.24 0.2 0.2 0 0 0 0.25-0.14c0.13-0.49 0.3-1 0.46-1.46 0.11-0.32 0.22-0.64 0.32-1a0.2 0.2 0 0 0-0.13-0.25z" fill="#f58523"/>
 <path d="m139.77 183.65a0.2 0.2 0 0 0-0.09 0.09 6.3 6.3 0 0 0-0.49 1.27c-0.07 0.24-0.14 0.48-0.23 0.71a0.2 0.2 0 0 0 0.37 0.14c0.09-0.24 0.17-0.49 0.24-0.73a6.1 6.1 0 0 1 0.46-1.2 0.2 0.2 0 0 0-0.08-0.27 0.22 0.22 0 0 0-0.18-0.01z" fill="#f58523"/>
 <path d="m139.69 186.64-0.07 0.05a5.39 5.39 0 0 0-0.88 1.84v0.11a0.2 0.2 0 0 0 0.13 0.25 0.19 0.19 0 0 0 0.25-0.12v-0.11a4.67 4.67 0 0 1 0.81-1.71 0.2 0.2 0 0 0 0-0.28 0.18 0.18 0 0 0-0.24-0.03z" fill="#f58523"/>
 <path d="m137.2 190.11a0.21 0.21 0 0 0 0.24-0.15 15.4 15.4 0 0 1 0.71-2.22 0.2 0.2 0 0 0-0.11-0.26 0.22 0.22 0 0 0-0.16 0 0.22 0.22 0 0 0-0.1 0.11 16.06 16.06 0 0 0-0.73 2.27 0.21 0.21 0 0 0 0.15 0.25z" fill="#f58523"/>
 <path d="m136.14 194.44a0.2 0.2 0 0 0 0.23-0.16 7.23 7.23 0 0 1 0.7-2.19 0.21 0.21 0 0 0-0.08-0.28 0.19 0.19 0 0 0-0.18 0 0.18 0.18 0 0 0-0.09 0.08 7.73 7.73 0 0 0-0.74 2.31 0.21 0.21 0 0 0 0.16 0.24z" fill="#f58523"/>
 <path d="m138.14 191.19a0.22 0.22 0 0 0-0.1 0.09 6.76 6.76 0 0 0-0.47 1.42c0 0.17-0.08 0.34-0.13 0.51a0.20261 0.20261 0 0 0 0.39 0.11c0-0.18 0.09-0.35 0.13-0.53a6.49 6.49 0 0 1 0.44-1.33 0.2 0.2 0 0 0-0.09-0.27 0.17 0.17 0 0 0-0.17 0z" fill="#f58523"/>
 <path d="m136.78 195.07h-0.06a0.18 0.18 0 0 0-0.11 0.21 3.29 3.29 0 0 1-0.22 1.42c-0.07 0.25-0.15 0.51-0.2 0.77a0.2 0.2 0 1 0 0.39 0.07c0-0.24 0.12-0.48 0.19-0.73a3.58 3.58 0 0 0 0.23-1.59 0.19 0.19 0 0 0-0.22-0.15z" fill="#f58523"/>
 <path d="m136.07 198.59a0.2 0.2 0 0 0-0.25-0.14 0.21 0.21 0 0 0-0.11 0.24 3.09 3.09 0 0 1 0.07 0.91 4.24 4.24 0 0 0 0 0.93 0.20396 0.20396 0 0 0 0.4-0.08 3.36 3.36 0 0 1-0.05-0.84 3.35 3.35 0 0 0-0.06-1.02z" fill="#f58523"/>
 <path d="m137.29 200.29a0.2 0.2 0 0 0-0.2-0.2h-0.09a0.21 0.21 0 0 0-0.11 0.18 12.62 12.62 0 0 0 0.1 1.38c0 0.3 0.06 0.6 0.08 0.9a0.19 0.19 0 0 0 0.21 0.19 0.21 0.21 0 0 0 0.19-0.21c0-0.31-0.05-0.61-0.08-0.92a12.26 12.26 0 0 1-0.1-1.32z" fill="#f58523"/>
 <path d="m76.96 129.72c-11.6 10.44-19.84 50-24 74.56a110 110 0 0 0 115.33-0.22c-4.23-25.16-12.15-63.32-22.64-74.34-12-12.66-55.73-11.66-68.69 0z" fill="#ec1b34"/>
 <path d="m110.5 164.5 28.42-16.92 19.8 11.79a129.94 129.94 0 0 0-7.77-21.54l-12-7.16-28.45 16.88-28.4-16.91-10.5 6.25c-3.2 5.72-6.08 13.49-8.61 22l19.11-11.38z" fill="#ec1b34"/>
 <path d="m132.5 122.96c-12.72-3.4-30.29-3.05-43 0.59l21 12.5z" fill="#ec1b34"/>
 <path d="m110.5 192.88 28.42-16.91 27.29 16.25c-1.17-6.24-2.52-12.82-4-19.32l-23.26-13.85-28.45 16.92-28.4-16.92-22.75 13.55c-1.57 6.54-3 13.16-4.14 19.38l26.89-16z" fill="#ec1b34"/>
 <path d="m168.3 203.82-0.95 0.57-7.06-4.21-21.35-12.68-21.35 12.71-7.09 4.18-7-4.21-21.4-12.68-21.35 12.71-7.06 4.21-0.64-0.38v0.27a110 110 0 0 0 15.8 8l13.29-7.91 27 16.08h1.38 1.43l27-16.07 13.28 7.9a109.62 109.62 0 0 0 16.12-8.23 2 2 0 0 0-0.05-0.26z" fill="#ec1b34"/>
 <path d="m110.5 147.55 28.42-16.91 12 7.16a33.41 33.41 0 0 0-5.27-8.08 21.52 21.52 0 0 0-6.76-4.51 41.37 41.37 0 0 0-6.43-2.25l-22 13.09-21-12.5a45.05 45.05 0 0 0-7.42 2.81 23.2 23.2 0 0 0-5.14 3.36 28.45 28.45 0 0 0-5.36 7.17l10.5-6.25z" fill="#f399c0"/>
 <path d="m110.5 175.97 28.42-16.92 23.28 13.85c-1.07-4.62-2.23-9.19-3.46-13.56l-19.8-11.79-28.44 16.95-28.4-16.95-19.11 11.38c-1.31 4.41-2.52 9-3.64 13.67l22.75-13.55z" fill="#f399c0"/>
 <path d="m68.81 212.3a108.88 108.88 0 0 0 12.28 4.2l1-0.6 2.59 1.53a110.4 110.4 0 0 0 24.44 3.07l-27-16.08z" fill="#f399c0"/>
 <path d="m111.93 220.5a110.06 110.06 0 0 0 24.45-3.05l2.56-1.52 1 0.59a108.88 108.88 0 0 0 12.28-4.19l-13.28-7.9z" fill="#f399c0"/>
 <path d="m167.68 200.18-0.33-1.84c-0.35-2-0.72-4-1.12-6.12l-27.29-16.25-28.44 16.91-28.4-16.91-26.89 16c-0.54 2.83-1 5.58-1.5 8.2v0.13c-0.22 1.26-0.43 2.5-0.64 3.7l0.64 0.38 7.06-4.21 21.33-12.67 21.4 12.68 7.06 4.21 7.07-4.21 21.31-12.68 21.35 12.71 7.06 4.21 0.95-0.57c-0.2-1.22-0.41-2.43-0.62-3.67z" fill="#f399c0"/>
 <path d="m136.38 217.41c1.19-0.29 2.38-0.6 3.56-0.93l-1-0.59z" fill="#f399c0"/>
 <path d="m81.09 216.5q1.78 0.5 3.6 0.93l-2.59-1.53z" fill="#f399c0"/>
 <path d="m150.96 84.07a27.87 27.87 0 0 1 2.28-3.2l0.31-0.39 0.15-0.15a28.85 28.85 0 0 1 5.67-5c11-7.35 34-6.21 38.18-2.37 4 3.69-5.22 27.91-16.21 35.25-0.36 0.24-0.73 0.48-1.09 0.7a28.86 28.86 0 0 1-3.26 1.69l-0.12 0.06-0.9 0.37-0.25 0.1-1.12 0.41c-0.38 0.13-0.76 0.25-1.15 0.36l-1.17 0.31" fill="#ec1b34"/>
 <path d="m158.98 88.55a17.71 17.71 0 0 1 5.56-5.9c1.21-0.8 5.09-2.65 15.1-2.39 2.47 0.06 4.83 0.24 6.85 0.45-2.19 8.13-5.89 17.42-9.84 20.06a18 18 0 0 1-6.4 2.68c-0.23-0.54-0.47-1.07-0.73-1.6a40 40 0 0 0-10.54-13.3z" fill="#f072ab" opacity=".5"/>
 <path d="m78.07 74.59a27.36 27.36 0 0 0-1.38-3.68l-0.19-0.41c0-0.06-0.07-0.12-0.1-0.19a29.06 29.06 0 0 0-4.21-6.27c-8.75-9.91-31.32-14.7-36.3-12.06-4.81 2.55-2.1 28.32 6.65 38.23 0.29 0.33 0.58 0.65 0.88 1a32.86 32.86 0 0 0 2.71 2.47l0.11 0.08 0.77 0.59 0.21 0.16 1 0.68c0.34 0.23 0.68 0.43 1 0.64l1 0.59" fill="#ec1b34"/>
 <path d="m69.17 76.87a17.61 17.61 0 0 0-3.86-7.12c-1-1.08-4.25-3.87-14-6.18-2.41-0.57-4.74-1-6.74-1.31 0 8.42 1.24 18.34 4.38 21.9a18 18 0 0 0 5.5 4.24c0.36-0.47 0.73-0.92 1.12-1.37a40 40 0 0 1 13.6-10.16z" fill="#f072ab" opacity=".5"/>
 <path d="m106.03 143.67c8.56-26.55 34.12-44.12 63.18-40.34 1.39 0.18 2.77 0.43 4.12 0.7-5.38-20.14-25.39-44.12-55.9-48.09-33.1-4.3-57 14-66.65 32.17 1.49 0.09 3 0.21 4.49 0.4 29.06 3.78 49.28 27.31 50.76 55.16z" fill="#ec1b34"/>
 <path d="m103.03 166.74c20.24 2.72 54.64-26.19 63.81-35.91 6.45-6.84 8.13-17.92 6.49-26.8-1.35-0.27-2.73-0.52-4.12-0.7-29.06-3.78-54.62 13.79-63.18 40.34-1.48-27.85-21.7-51.38-50.76-55.16-1.5-0.19-3-0.31-4.49-0.4-4.19 4.69-3.4 18.52-1.7 23.45 4.73 13.69 29.91 51.94 53.95 55.18z" fill="#fefff0"/>
 <path d="m112.5 140.89a3.1 3.1 0 0 0-1.9-1.45 3.39 3.39 0 0 0-0.57-0.13l-1.6-0.21-4.64-0.6-1-0.13a3.7 3.7 0 0 0-0.88 0 3 3 0 0 0-1.92 0.9 2 2 0 0 0-0.24 2.45l3 5.12a2.49 2.49 0 0 0 0.4 0.52 3.47 3.47 0 0 0 0.42 0.34 0.87 0.87 0 0 1 0.11 0.09 4 4 0 0 0 1.3 0.49h0.18a3.26 3.26 0 0 0 2.72-0.8l1.28-1.27 2.93-2.91a2 2 0 0 0 0.41-2.41z" fill="#171717"/>
 <path d="m97.29 68.5a0.42 0.42 0 0 1-0.3-0.2 18.85 18.85 0 0 1-1.3-3.35c-0.2-0.63-0.41-1.29-0.66-1.92a0.33 0.33 0 0 1 0.24-0.43 0.42 0.42 0 0 1 0.5 0.23c0.25 0.64 0.46 1.31 0.67 2a17.3 17.3 0 0 0 1.25 3.22 0.33 0.33 0 0 1-0.18 0.46 0.42 0.42 0 0 1-0.22-0.01z" fill="#f58523"/>
 <path d="m101.5 68.38a0.39 0.39 0 0 1-0.35-0.31l-0.15-1.16a26 26 0 0 0-0.73-4 0.33 0.33 0 0 1 0.28-0.41 0.39 0.39 0 0 1 0.47 0.26 27.7 27.7 0 0 1 0.75 4.09c0.05 0.39 0.1 0.77 0.16 1.15a0.36 0.36 0 0 1-0.34 0.38z" fill="#f58523"/>
 <path d="m105.64 68.69a0.39 0.39 0 0 1-0.35-0.35c0-0.51 0-1.06 0.07-1.61a9.87 9.87 0 0 0-0.17-3.41 0.32 0.32 0 0 1 0.27-0.41 0.4 0.4 0 0 1 0.48 0.25 10.21 10.21 0 0 1 0.19 3.63c0 0.54-0.07 1.06-0.06 1.56a0.36 0.36 0 0 1-0.38 0.34z" fill="#f58523"/>
 <path d="m111.24 68.84a0.38 0.38 0 0 1-0.34-0.3 14.53 14.53 0 0 1-0.1-3.28 20.16 20.16 0 0 0 0-2.2 0.35 0.35 0 0 1 0.37-0.35 0.37 0.37 0 0 1 0.41 0.33 21.42 21.42 0 0 1 0 2.27 13.72 13.72 0 0 0 0.09 3.14 0.34 0.34 0 0 1-0.32 0.39z" fill="#f58523"/>
 <path d="m116.14 69.32c-0.21 0-0.36-0.18-0.33-0.37 0.3-1.63 0.59-3.25 0.76-4.85a0.37 0.37 0 0 1 0.43-0.3 0.37 0.37 0 0 1 0.34 0.39c-0.18 1.62-0.47 3.24-0.76 4.82a0.4 0.4 0 0 1-0.44 0.31z" fill="#f58523"/>
 <path d="m121.93 70.11h-0.07a0.35 0.35 0 0 1-0.26-0.44c0.11-0.34 0.24-0.7 0.37-1a12.2 12.2 0 0 0 0.91-3.77 0.35 0.35 0 0 1 0.39-0.33 0.36 0.36 0 0 1 0.38 0.35 12.17 12.17 0 0 1-0.94 4l-0.37 1a0.36 0.36 0 0 1-0.41 0.19z" fill="#f58523"/>
 <path d="m128.06 72.73h-0.06a0.35 0.35 0 0 1-0.27-0.43 20 20 0 0 1 0.77-2 12.53 12.53 0 0 0 1.11-3.51 0.38 0.38 0 0 1 0.42-0.3 0.35 0.35 0 0 1 0.35 0.38 13 13 0 0 1-1.16 3.69c-0.28 0.66-0.55 1.29-0.75 1.91a0.36 0.36 0 0 1-0.41 0.26z" fill="#f58523"/>
 <path d="m134.25 72.87h-0.14a0.33 0.33 0 0 1-0.16-0.47l0.55-0.9a15.66 15.66 0 0 1 2-2.9 0.4 0.4 0 0 1 0.54 0 0.31 0.31 0 0 1 0.06 0.48 15.16 15.16 0 0 0-1.88 2.79l-0.52 0.89a0.4 0.4 0 0 1-0.45 0.11z" fill="#f58523"/>
 <path d="m98.09 62.39a0.43 0.43 0 0 1-0.31-0.21l-0.28-0.68a12.74 12.74 0 0 0-1.13-2 0.32 0.32 0 0 1 0.11-0.48 0.43 0.43 0 0 1 0.54 0.12 14.28 14.28 0 0 1 1.2 2.16l0.3 0.62a0.32 0.32 0 0 1-0.19 0.45 0.51 0.51 0 0 1-0.24 0.02z" fill="#f58523"/>
 <path d="m103.58 62.41a0.39 0.39 0 0 1-0.33-0.28 7.9 7.9 0 0 1-0.28-3.06 0.36 0.36 0 0 1 0.44-0.27 0.35 0.35 0 0 1 0.32 0.4 7.86 7.86 0 0 0 0.27 2.8 0.32 0.32 0 0 1-0.29 0.4z" fill="#f58523"/>
 <path d="m108.5 62.5a0.35 0.35 0 0 1-0.34-0.37v-0.52a6.17 6.17 0 0 0-0.28-3.29 0.32 0.32 0 0 1 0.2-0.45 0.42 0.42 0 0 1 0.51 0.19 6.76 6.76 0 0 1 0.35 3.63v0.51a0.36 0.36 0 0 1-0.41 0.3z" fill="#f58523"/>
 <path d="m114.94 63.5a0.37 0.37 0 0 1-0.34-0.4 14.33 14.33 0 0 0-0.09-3.29 0.34 0.34 0 0 1 0.35-0.36 0.37 0.37 0 0 1 0.42 0.31 14.48 14.48 0 0 1 0.09 3.44 0.38 0.38 0 0 1-0.43 0.3z" fill="#f58523"/>
 <path d="m120.96 63.5a0.38 0.38 0 0 1-0.35-0.39l0.07-0.56c0.1-0.89 0.2-1.81 0.25-2.85a0.39 0.39 0 0 1 0.77 0c0 1-0.15 2-0.25 2.89l-0.06 0.56a0.37 0.37 0 0 1-0.43 0.3z" fill="#f58523"/>
 <path d="m126.66 65.87a0.36 0.36 0 0 1-0.28-0.43c0.13-0.41 0.28-0.82 0.44-1.23a10 10 0 0 0 0.68-2.38 0.36 0.36 0 0 1 0.42-0.3 0.36 0.36 0 0 1 0.34 0.38 10.16 10.16 0 0 1-0.72 2.53c-0.15 0.4-0.3 0.8-0.42 1.2a0.39 0.39 0 0 1-0.46 0.23z" fill="#f58523"/>
 <path d="m133.22 66.84a0.37 0.37 0 0 1-0.34-0.38 7.34 7.34 0 0 1 0.42-1.66 5.87 5.87 0 0 0 0.41-1.69 0.35 0.35 0 0 1 0.4-0.32 0.37 0.37 0 0 1 0.37 0.37 6.47 6.47 0 0 1-0.43 1.86 6.44 6.44 0 0 0-0.4 1.52 0.37 0.37 0 0 1-0.42 0.3z" fill="#f58523"/>
 <path d="m139.35 70.87h-0.07a0.35 0.35 0 0 1-0.26-0.43 8.26 8.26 0 0 1 1.46-2.36l0.54-0.71a0.41 0.41 0 0 1 0.53-0.1 0.33 0.33 0 0 1 0.13 0.48l-0.56 0.73a7.83 7.83 0 0 0-1.36 2.17 0.36 0.36 0 0 1-0.41 0.22z" fill="#f58523"/>
 <path d="m93.34 63.73a0.39 0.39 0 0 1-0.31-0.2c-0.2-0.39-0.38-0.82-0.56-1.25a9.38 9.38 0 0 0-1.06-2 0.31 0.31 0 0 1 0.09-0.47 0.43 0.43 0 0 1 0.55 0.1 10 10 0 0 1 1.15 2.19c0.17 0.41 0.34 0.82 0.54 1.2a0.33 0.33 0 0 1-0.19 0.45 0.38 0.38 0 0 1-0.21-0.02z" fill="#f58523"/>
 <path d="m95.74 73.41a0.38 0.38 0 0 1-0.34-0.29c0-0.27-0.07-0.55-0.1-0.83a3.12 3.12 0 0 0-0.51-1.77 0.32 0.32 0 0 1 0.07-0.48 0.44 0.44 0 0 1 0.55 0.08 3.64 3.64 0 0 1 0.66 2.13c0 0.27 0 0.53 0.1 0.78a0.33 0.33 0 0 1-0.32 0.38z" fill="#f58523"/>
 <path d="m101.24 74.88a0.36 0.36 0 0 1-0.34-0.39 4.38 4.38 0 0 0-0.25-2.61 0.32 0.32 0 0 1 0.16-0.46 0.42 0.42 0 0 1 0.53 0.15 4.8 4.8 0 0 1 0.33 3 0.37 0.37 0 0 1-0.43 0.3z" fill="#f58523"/>
 <path d="m104.83 76.91a0.39 0.39 0 0 1-0.34-0.34c0-0.72-0.12-1.45-0.2-2.18s-0.2-1.74-0.22-2.62a0.35 0.35 0 0 1 0.37-0.34 0.37 0.37 0 0 1 0.4 0.34c0 0.85 0.13 1.73 0.22 2.58s0.16 1.47 0.2 2.21a0.34 0.34 0 0 1-0.36 0.35z" fill="#f58523"/>
 <path d="m102.63 82.75a0.38 0.38 0 0 1-0.34-0.31 8.55 8.55 0 0 0-1.16-3.6 0.32 0.32 0 0 1 0.13-0.47 0.43 0.43 0 0 1 0.54 0.13 9.07 9.07 0 0 1 1.26 3.88 0.33 0.33 0 0 1-0.34 0.37z" fill="#f58523"/>
 <path d="m108.78 75.69a0.37 0.37 0 0 1-0.34-0.36v-0.74a9.74 9.74 0 0 0-0.18-3 0.34 0.34 0 0 1 0.29-0.41 0.41 0.41 0 0 1 0.47 0.27 10.21 10.21 0 0 1 0.19 3.2v0.73a0.35 0.35 0 0 1-0.39 0.32z" fill="#f58523"/>
 <path d="m107.06 83.91a0.41 0.41 0 0 1-0.33-0.25 14.41 14.41 0 0 1-0.54-2.78v-0.13a0.35 0.35 0 0 1 0.35-0.37 0.37 0.37 0 0 1 0.42 0.31v0.14a13.3 13.3 0 0 0 0.54 2.67 0.33 0.33 0 0 1-0.26 0.42z" fill="#f58523"/>
 <path d="m111.8 77.59a0.39 0.39 0 0 1-0.34-0.37c0-1.8 0.11-3.61 0.18-5.41a0.36 0.36 0 0 1 0.4-0.32 0.37 0.37 0 0 1 0.38 0.36c-0.07 1.81-0.13 3.61-0.18 5.41a0.37 0.37 0 0 1-0.4 0.33z" fill="#f58523"/>
 <path d="m111.14 82.7a0.37 0.37 0 0 1-0.34-0.35v-0.7a11.74 11.74 0 0 0-0.3-3.15 0.34 0.34 0 0 1 0.29-0.41 0.42 0.42 0 0 1 0.47 0.27 12.45 12.45 0 0 1 0.28 3.29v0.7a0.36 0.36 0 0 1-0.38 0.34z" fill="#f58523"/>
 <path d="m117.19 75.39h-0.09a0.33 0.33 0 0 1-0.23-0.44 11.72 11.72 0 0 0 0.64-3l0.07-0.53a0.36 0.36 0 0 1 0.43-0.29 0.37 0.37 0 0 1 0.34 0.39l-0.07 0.53a12 12 0 0 1-0.68 3.15 0.38 0.38 0 0 1-0.41 0.19z" fill="#f58523"/>
 <path d="m115.89 83.32a0.37 0.37 0 0 1-0.34-0.39l0.62-4.78a0.4 0.4 0 0 1 0.78 0.1l-0.63 4.78a0.36 0.36 0 0 1-0.43 0.29z" fill="#f58523"/>
 <path d="m122.17 77.31a0.36 0.36 0 0 1-0.34-0.39 7.13 7.13 0 0 1 0.74-2.09 5.83 5.83 0 0 0 0.72-2.1 0.36 0.36 0 0 1 0.41-0.31 0.4 0.4 0 0 1 0.36 0.38 6.3 6.3 0 0 1-0.77 2.32 6.41 6.41 0 0 0-0.69 1.9 0.37 0.37 0 0 1-0.43 0.29z" fill="#f58523"/>
 <path d="m120.31 83.55a0.37 0.37 0 0 1-0.34-0.38 13.49 13.49 0 0 1 0.43-2.35c0.14-0.61 0.29-1.23 0.37-1.84a0.37 0.37 0 0 1 0.43-0.29 0.36 0.36 0 0 1 0.34 0.39 17.26 17.26 0 0 1-0.38 1.9 15.18 15.18 0 0 0-0.42 2.26 0.35 0.35 0 0 1-0.41 0.31z" fill="#f58523"/>
 <path d="m126.01 81.98a0.38 0.38 0 0 1-0.35-0.39 6.57 6.57 0 0 1 1.21-2.68 12 12 0 0 0 0.77-1.32 0.38 0.38 0 0 1 0.5-0.18 0.34 0.34 0 0 1 0.22 0.45 11.4 11.4 0 0 1-0.81 1.4 6.11 6.11 0 0 0-1.11 2.41 0.37 0.37 0 0 1-0.42 0.31z" fill="#f58523"/>
 <path d="m130.2 74.89a0.38 0.38 0 0 1-0.1 0 0.33 0.33 0 0 1-0.22-0.45 5.36 5.36 0 0 1 1.15-1.51c0.21-0.22 0.42-0.43 0.6-0.65a0.43 0.43 0 0 1 0.55-0.07 0.33 0.33 0 0 1 0.09 0.48c-0.2 0.24-0.42 0.47-0.64 0.7a4.7 4.7 0 0 0-1 1.32 0.37 0.37 0 0 1-0.43 0.18z" fill="#f58523"/>
 <path d="m129.25 85.17h-0.08a0.34 0.34 0 0 1-0.24-0.44 14 14 0 0 1 1.26-2.31l0.46-0.75a0.4 0.4 0 0 1 0.52-0.14 0.34 0.34 0 0 1 0.17 0.47c-0.15 0.26-0.31 0.51-0.47 0.77a14 14 0 0 0-1.21 2.2 0.36 0.36 0 0 1-0.41 0.2z" fill="#f58523"/>
 <path d="m131.59 79.23a0.37 0.37 0 0 1-0.14 0 0.32 0.32 0 0 1-0.15-0.47 14.88 14.88 0 0 1 2.08-2.68 0.41 0.41 0 0 1 0.55 0 0.32 0.32 0 0 1 0 0.49 14.84 14.84 0 0 0-2 2.56 0.39 0.39 0 0 1-0.34 0.1z" fill="#f58523"/>
 <path d="m124.18 90.99h-0.06a0.36 0.36 0 0 1-0.27-0.43c0.41-1.35 0.89-2.69 1.34-4l0.36-1a0.37 0.37 0 0 1 0.48-0.21 0.35 0.35 0 0 1 0.26 0.44l-0.36 1c-0.45 1.29-0.92 2.63-1.33 4a0.37 0.37 0 0 1-0.42 0.2z" fill="#f58523"/>
 <path d="m121.6 89.73h-0.1a0.36 0.36 0 0 1-0.27-0.43 21 21 0 0 0 0.89-3.87 0.39 0.39 0 0 1 0.77 0.08 21.15 21.15 0 0 1-0.91 4 0.39 0.39 0 0 1-0.38 0.22z" fill="#f58523"/>
 <path d="m105.02 91.5a0.38 0.38 0 0 1-0.34-0.35v-0.84c0-1.09 0.1-2.44-0.56-3.19a0.33 0.33 0 0 1 0.06-0.49 0.44 0.44 0 0 1 0.55 0.07c0.84 1 0.78 2.46 0.73 3.66v0.8a0.36 0.36 0 0 1-0.39 0.34z" fill="#f58523"/>
 <path d="m109.39 90.11a0.39 0.39 0 0 1-0.34-0.34v-1.81c0-0.77 0-1.58-0.07-2.36a0.35 0.35 0 0 1 0.36-0.36 0.39 0.39 0 0 1 0.41 0.33c0.07 0.81 0.07 1.62 0.08 2.41v1.78a0.35 0.35 0 0 1-0.37 0.35z" fill="#f58523"/>
 <path d="m112.76 90.31a0.37 0.37 0 0 1-0.34-0.39l0.67-5.11a0.37 0.37 0 0 1 0.43-0.3 0.38 0.38 0 0 1 0.34 0.4l-0.67 5.11a0.36 0.36 0 0 1-0.43 0.29z" fill="#f58523"/>
 <path d="m116.31 90.2a0.36 0.36 0 0 1-0.31-0.41c0-0.23 0.12-0.48 0.18-0.74a5.18 5.18 0 0 0 0.21-3 0.33 0.33 0 0 1 0.24-0.43 0.43 0.43 0 0 1 0.5 0.23 5.62 5.62 0 0 1-0.19 3.34c-0.06 0.25-0.13 0.49-0.17 0.72a0.38 0.38 0 0 1-0.46 0.29z" fill="#f58523"/>
 <path d="m119.24 95.78a0.37 0.37 0 0 1-0.34-0.39l0.62-4.77a0.38 0.38 0 0 1 0.43-0.3 0.37 0.37 0 0 1 0.34 0.4l-0.62 4.77a0.36 0.36 0 0 1-0.43 0.29z" fill="#f58523"/>
 <path d="m121.85 97.86h-0.07a0.35 0.35 0 0 1-0.26-0.43c0.12-0.36 0.25-0.71 0.38-1.07a10.46 10.46 0 0 0 0.78-2.87 0.36 0.36 0 0 1 0.41-0.31 0.38 0.38 0 0 1 0.37 0.38 11.3 11.3 0 0 1-0.82 3c-0.13 0.35-0.26 0.69-0.37 1a0.4 0.4 0 0 1-0.42 0.3z" fill="#f58523"/>
 <path d="m107.78 98.5a0.37 0.37 0 0 1-0.34-0.35v-0.61c0-1.07 0-2.41-0.79-3.07a0.31 0.31 0 0 1 0-0.48 0.4 0.4 0 0 1 0.54 0c1.11 0.88 1.09 2.39 1.07 3.61a5.8 5.8 0 0 0 0 0.59 0.36 0.36 0 0 1-0.39 0.34z" fill="#f58523"/>
 <path d="m110.07 98.99a0.39 0.39 0 0 1-0.35-0.38 28.14 28.14 0 0 0 0.06-4.46 0.35 0.35 0 0 1 0.37-0.35 0.37 0.37 0 0 1 0.41 0.33 32 32 0 0 1-0.06 4.55 0.37 0.37 0 0 1-0.42 0.31z" fill="#f58523"/>
 <path d="m113.26 97.55a0.36 0.36 0 0 1-0.3-0.42c0-0.2 0.1-0.42 0.16-0.65a5.76 5.76 0 0 0 0.25-3.27 0.33 0.33 0 0 1 0.23-0.44 0.42 0.42 0 0 1 0.5 0.22 6.12 6.12 0 0 1-0.23 3.67c-0.05 0.22-0.11 0.43-0.16 0.63a0.36 0.36 0 0 1-0.45 0.26z" fill="#f58523"/>
 <path d="m115.32 100.82a0.35 0.35 0 0 1-0.34-0.39l0.57-4.43a0.37 0.37 0 0 1 0.43-0.29 0.35 0.35 0 0 1 0.34 0.39l-0.57 4.43a0.37 0.37 0 0 1-0.43 0.29z" fill="#f58523"/>
 <path d="m109.1 107.42a0.39 0.39 0 0 1-0.34-0.29 14.71 14.71 0 0 1-0.18-4.75 0.37 0.37 0 0 1 0.43-0.29 0.36 0.36 0 0 1 0.34 0.39 14.05 14.05 0 0 0 0.18 4.55 0.35 0.35 0 0 1-0.32 0.39z" fill="#f58523"/>
 <path d="m110.86 107.99a0.37 0.37 0 0 1-0.35-0.34 14.13 14.13 0 0 1 0.17-2 9.58 9.58 0 0 0 0.14-2.37 0.35 0.35 0 0 1 0.35-0.37 0.39 0.39 0 0 1 0.42 0.32 10.09 10.09 0 0 1-0.13 2.52 11.93 11.93 0 0 0-0.17 1.87 0.36 0.36 0 0 1-0.38 0.34z" fill="#f58523"/>
 <path d="m113.91 109.66a0.36 0.36 0 0 1-0.34-0.38 13.63 13.63 0 0 1 0.63-2.63l0.18-0.56a0.38 0.38 0 0 1 0.47-0.23 0.35 0.35 0 0 1 0.28 0.43l-0.18 0.56a13.12 13.12 0 0 0-0.61 2.51 0.36 0.36 0 0 1-0.42 0.3z" fill="#f58523"/>
 <path d="m117.5 104.23a0.37 0.37 0 0 1-0.34-0.35 10 10 0 0 1 0.76-3.32c0.11-0.31 0.22-0.61 0.31-0.92a0.38 0.38 0 0 1 0.48-0.22 0.35 0.35 0 0 1 0.27 0.43c-0.1 0.31-0.21 0.62-0.32 0.94a9.77 9.77 0 0 0-0.73 3.11 0.35 0.35 0 0 1-0.38 0.33z" fill="#f58523"/>
 <path d="m116.28 110.55a0.37 0.37 0 0 1-0.35-0.39 12.85 12.85 0 0 1 0.47-2 10.76 10.76 0 0 0 0.45-2.06 0.37 0.37 0 0 1 0.42-0.31 0.35 0.35 0 0 1 0.36 0.38 11.63 11.63 0 0 1-0.48 2.18 12.21 12.21 0 0 0-0.44 1.88 0.39 0.39 0 0 1-0.43 0.29z" fill="#f58523"/>
 <path d="m108.5 116.24a0.37 0.37 0 0 1-0.35-0.35v-1.07a7.74 7.74 0 0 0-0.33-3.35 0.33 0.33 0 0 1 0.21-0.45 0.43 0.43 0 0 1 0.51 0.21 8 8 0 0 1 0.38 3.64v1a0.35 0.35 0 0 1-0.39 0.33z" fill="#f58523"/>
 <path d="m104.5 101.27a0.37 0.37 0 0 1-0.34-0.33c-0.05-0.55-0.1-1.11-0.16-1.66a29.23 29.23 0 0 1-0.22-3.5 0.36 0.36 0 0 1 0.39-0.33 0.36 0.36 0 0 1 0.38 0.36 28 28 0 0 0 0.22 3.42c0.06 0.57 0.12 1.13 0.16 1.69a0.35 0.35 0 0 1-0.36 0.36z" fill="#f58523"/>
 <path d="m105.63 106.97a0.38 0.38 0 0 1-0.34-0.32 8 8 0 0 1 0-1.11 4.37 4.37 0 0 0-0.47-2.51 0.32 0.32 0 0 1 0.12-0.47 0.41 0.41 0 0 1 0.53 0.11 4.86 4.86 0 0 1 0.59 2.9v1a0.34 0.34 0 0 1-0.35 0.36z" fill="#f58523"/>
 <path d="m110.5 116.74a0.38 0.38 0 0 1-0.34-0.4c0.05-0.38 0.14-0.79 0.22-1.21a7.52 7.52 0 0 0 0.22-3 0.34 0.34 0 0 1 0.3-0.4 0.39 0.39 0 0 1 0.46 0.28 8.09 8.09 0 0 1-0.21 3.27c-0.09 0.41-0.17 0.81-0.22 1.18a0.37 0.37 0 0 1-0.43 0.28z" fill="#f58523"/>
 <path d="m113.35 118.96a0.38 0.38 0 0 1-0.34-0.4 25.33 25.33 0 0 1 0.67-3.07c0.21-0.8 0.43-1.62 0.57-2.44a0.39 0.39 0 0 1 0.77 0.12c-0.15 0.85-0.37 1.68-0.58 2.49a25.19 25.19 0 0 0-0.66 3 0.37 0.37 0 0 1-0.43 0.3z" fill="#f58523"/>
 <path d="m106.6 123.63a0.36 0.36 0 0 1-0.34-0.36v-0.55a28.69 28.69 0 0 0-0.08-3.93 0.34 0.34 0 0 1 0.35-0.36 0.38 0.38 0 0 1 0.42 0.32 29.8 29.8 0 0 1 0.09 4v0.56a0.35 0.35 0 0 1-0.39 0.32z" fill="#f58523"/>
 <path d="m108.88 121.15a0.4 0.4 0 0 1-0.34-0.39c0.1-0.73 0.15-1.47 0.2-2.18l0.07-0.89a0.37 0.37 0 0 1 0.42-0.31 0.38 0.38 0 0 1 0.36 0.38l-0.07 0.88c0 0.73-0.11 1.48-0.21 2.22a0.36 0.36 0 0 1-0.43 0.29z" fill="#f58523"/>
 <path d="m109.29 127.1a0.38 0.38 0 0 1-0.35-0.32 18.65 18.65 0 0 1 0.26-4.09 0.38 0.38 0 0 1 0.44-0.28 0.37 0.37 0 0 1 0.33 0.4 17.43 17.43 0 0 0-0.25 3.94 0.36 0.36 0 0 1-0.36 0.36z" fill="#f58523"/>
 <path d="m111.61 125.32a0.36 0.36 0 0 1-0.34-0.38l0.15-1.6c0.07-0.8 0.14-1.6 0.24-2.4a0.37 0.37 0 0 1 0.42-0.3 0.38 0.38 0 0 1 0.34 0.39c-0.1 0.8-0.17 1.59-0.24 2.39-0.05 0.53-0.09 1.07-0.15 1.61a0.38 0.38 0 0 1-0.42 0.3z" fill="#f58523"/>
 <path d="m110.74 130.99a0.36 0.36 0 0 1-0.34-0.38 11 11 0 0 1 0.77-2.87 0.39 0.39 0 0 1 0.5-0.2 0.34 0.34 0 0 1 0.24 0.44 10.57 10.57 0 0 0-0.74 2.71 0.36 0.36 0 0 1-0.42 0.3z" fill="#f58523"/>
 <path d="m107.18 131.22a0.36 0.36 0 0 1-0.34-0.38 7.42 7.42 0 0 0-0.32-3.25 0.32 0.32 0 0 1 0.23-0.43 0.41 0.41 0 0 1 0.5 0.22 8.34 8.34 0 0 1 0.36 3.54 0.36 0.36 0 0 1-0.42 0.3z" fill="#f58523"/>
 <path d="m105.22 131.2a0.37 0.37 0 0 1-0.34-0.34 10.87 10.87 0 0 0-0.2-1.49c0-0.28-0.1-0.56-0.14-0.84a0.33 0.33 0 0 1 0.33-0.37 0.4 0.4 0 0 1 0.44 0.31c0 0.27 0.08 0.54 0.13 0.81a11.78 11.78 0 0 1 0.22 1.58 0.35 0.35 0 0 1-0.38 0.34z" fill="#f58523"/>
 <path d="m104.89 115.66a0.37 0.37 0 0 1-0.34-0.34c0-0.49 0-1-0.07-1.46a32 32 0 0 1 0-3.79 0.36 0.36 0 0 1 0.41-0.31c0.24 0 0.38 0.18 0.37 0.37a28.88 28.88 0 0 0 0 3.72c0 0.49 0 1 0.06 1.47a0.35 0.35 0 0 1-0.37 0.34z" fill="#f58523"/>
 <path d="m104.55 125.33a0.38 0.38 0 0 1-0.35-0.35v-0.89a13 13 0 0 0-0.32-3.47 0.33 0.33 0 0 1 0.28-0.41 0.4 0.4 0 0 1 0.47 0.27 13.12 13.12 0 0 1 0.34 3.64v0.87a0.35 0.35 0 0 1-0.38 0.34z" fill="#f58523"/>
 <path d="m99.13 79.5a0.38 0.38 0 0 1-0.34-0.31c0-0.29-0.1-0.6-0.17-0.91a6.3 6.3 0 0 1-0.18-2.47 0.37 0.37 0 0 1 0.45-0.27 0.36 0.36 0 0 1 0.31 0.41 6 6 0 0 0 0.19 2.23c0.06 0.32 0.13 0.64 0.17 0.95a0.33 0.33 0 0 1-0.34 0.37z" fill="#f58523"/>
 <path d="m101.14 87.18a0.37 0.37 0 0 1-0.34-0.39 7.48 7.48 0 0 0-0.12-2.91 0.33 0.33 0 0 1 0.3-0.4 0.41 0.41 0 0 1 0.46 0.28 8.07 8.07 0 0 1 0.13 3.14 0.37 0.37 0 0 1-0.43 0.28z" fill="#f58523"/>
 <path d="m101.96 94a0.39 0.39 0 0 1-0.35-0.31c-0.06-0.42-0.07-0.85-0.09-1.26a8 8 0 0 0-0.17-1.64 0.33 0.33 0 0 1 0.29-0.4 0.4 0.4 0 0 1 0.47 0.28 9.67 9.67 0 0 1 0.19 1.76 11.69 11.69 0 0 0 0.08 1.19 0.34 0.34 0 0 1-0.33 0.38z" fill="#f58523"/>
 <path d="m102.96 109.4a0.38 0.38 0 0 1-0.34-0.37v-0.76a5.4 5.4 0 0 0-0.2-2.7 0.33 0.33 0 0 1 0.19-0.45 0.43 0.43 0 0 1 0.52 0.2 5.85 5.85 0 0 1 0.27 3c0 0.26-0.05 0.5-0.06 0.74a0.36 0.36 0 0 1-0.4 0.32z" fill="#f58523"/>
 <path d="m112.18 157.68a7.65 7.65 0 0 1-1.38-0.32 8.48 8.48 0 0 1-5.53-9.75 0.58 0.58 0 0 1 0.64-0.47 0.56 0.56 0 0 1 0.47 0.64 7.39 7.39 0 0 0 4.77 8.51 5.37 5.37 0 0 0 6.69-2.77 0.57 0.57 0 1 1 1 0.52 6.39 6.39 0 0 1-6.66 3.64z" fill="#171717"/>
 <path d="m97.23 155.73a6.39 6.39 0 0 1-5.52-5.22 0.58 0.58 0 0 1 0.44-0.68 0.57 0.57 0 0 1 0.67 0.44 5.36 5.36 0 0 0 5.76 4.38 7.38 7.38 0 0 0 6.79-7 0.55 0.55 0 0 1 0.62-0.5 0.56 0.56 0 0 1 0.5 0.62 8.49 8.49 0 0 1-7.84 8 7.41 7.41 0 0 1-1.42-0.04z" fill="#171717"/>
 <path d="m124.79 126.22c6.36 5.39 16.4-1 17.12-6.12-5.68 3.58-9.94 7.63-16.61 5.39 0 0.01-1.05 0.26-0.51 0.73z" fill="#171717"/>
 <path d="m129.2 135.05c-0.38 0-0.69-0.11-0.7-0.3l-0.34-7c0-0.18 0.29-0.35 0.67-0.37 0.38 0 0.7 0.12 0.71 0.3l0.33 7c0 0.18-0.29 0.34-0.67 0.36zm6-1.25c-0.37 0.1-0.7 0-0.75-0.14l-1.78-6.77c0-0.17 0.22-0.39 0.58-0.49 0.37-0.1 0.71 0 0.76 0.14l1.78 6.77c0 0.17-0.22 0.39-0.59 0.49zm6.2-2.54c-0.32 0.21-0.66 0.26-0.76 0.11l-3.85-5.87c-0.1-0.15 0.08-0.44 0.4-0.65s0.66-0.25 0.76-0.11l3.82 5.86c0.11 0.15-0.07 0.44-0.39 0.65z" fill="#171717" fill-rule="evenodd"/>
 <path d="m92.59 122.04c-7.52 3.58-15.6-5.15-15-10.3 4.58 4.92 7.66 9.91 14.68 9.46 0.02 0 0.96 0.52 0.32 0.84z" fill="#171717"/>
 <path d="m86.07 129.44c-0.36-0.11-0.61-0.35-0.55-0.52l2.11-6.67c0-0.17 0.39-0.22 0.76-0.11 0.36 0.12 0.61 0.35 0.56 0.53l-2.12 6.67c-0.06 0.17-0.4 0.22-0.76 0.1zm-5.46-2.74c-0.33-0.18-0.53-0.47-0.44-0.62l3.45-6.09c0.09-0.16 0.43-0.13 0.77 0.06 0.33 0.18 0.52 0.47 0.43 0.62l-3.45 6.09c-0.09 0.16-0.43 0.13-0.76-0.06zm-5.34-4c-0.25-0.29-0.35-0.62-0.21-0.74l5.19-4.68c0.13-0.12 0.45 0 0.7 0.3 0.26 0.28 0.36 0.61 0.22 0.73l-5.2 4.68c-0.13 0.12-0.45 0-0.7-0.29z" fill="#171717" fill-rule="evenodd"/>
 <ellipse transform="rotate(-82.519)" cx="-129.94" cy="149.27" rx="5.8113" ry="7.4788" fill="#ffb0d2" stroke-width=".9985"/>
 <ellipse transform="rotate(-82.59)" cx="-128.05" cy="98.29" rx="5.82" ry="7.49" fill="#ffb0d2"/>
 <path d="m138.22 65.82c2.42-0.1 4.59-0.29 7.31-0.48l1-8c-2.72 0.24-5 0.46-7.42 0.57a116.07 116.07 0 0 1-21-0.76 111.26 111.26 0 0 1-13.5-2.65c-1.14-0.29-2.41-0.62-3.55-1-3.45-1-6.81-2.13-10.66-3.52l-1 8a134.79 134.79 0 0 0 20.85 5.76c2.29 0.44 4.61 0.8 6.9 1.1a124.82 124.82 0 0 0 21.07 0.98z" fill="#584e8a"/>
 <path d="m71.81 57.08a5.31 5.31 0 0 0-0.33 0.83 6.45 6.45 0 0 0-0.2 0.87 6.7 6.7 0 0 0 0 1.79 7.74 7.74 0 0 0 1.63 3.84 8.09 8.09 0 0 0 1.25 1.23 9 9 0 0 0 0.74 0.52c0.47 0.25 0.93 0.48 1.4 0.71l0.66 0.34c17 8.74 32.54 13.12 49.16 13.43h2.5a111.33 111.33 0 0 0 12.33-0.77c1.28-0.15 2.59-0.32 3.9-0.52 2.21-0.32 4.43-0.7 6.7-1.13q3.08-0.6 6.27-1.35a7.86 7.86 0 0 0 2.45-1.24 6.94 6.94 0 0 0 2.85-6.75 6.1 6.1 0 0 0-1.82-3.27 5.79 5.79 0 0 0-0.72-0.59c-0.08 0-0.16-0.12-0.24-0.16a5.68 5.68 0 0 0-2.05-0.81 2 2 0 0 0-0.23 0 5.26 5.26 0 0 0-0.89-0.08h-0.07a5.49 5.49 0 0 0-0.7 0l-0.42 0.07c-3.53 0.53-7 0.95-10.35 1.25-2.48 0.22-4.92 0.38-7.34 0.48a124.34 124.34 0 0 1-21.07-0.9c-2.3-0.3-4.58-0.66-6.86-1.09a133.82 133.82 0 0 1-20.73-5.74c-3.18-1.15-6.4-2.43-9.69-3.85a6.09 6.09 0 0 0-1.07-0.42 5.8 5.8 0 0 0-1.08-0.18 5.63 5.63 0 0 0-1.79 0.11 6.12 6.12 0 0 0-4.19 3.38z" fill="#171717"/>
 <path d="m104.62 54.5a113.19 113.19 0 0 0 13.58 2.62 115.75 115.75 0 0 0 20.95 0.75c2.43-0.11 4.7-0.33 7.42-0.57l0.24-1.87a28.09 28.09 0 0 0-4.77-19.73 25 25 0 0 0-1.71-2.24l-0.21-0.25c-0.24-0.28-0.46-0.54-0.71-0.8l-0.31-0.32-0.68-0.68-0.37-0.34-0.67-0.6-0.42-0.36c-0.21-0.18-0.43-0.36-0.66-0.53l-0.46-0.35-0.67-0.49-0.2-0.14-0.29-0.21-0.69-0.44c-0.17-0.12-0.34-0.22-0.51-0.32l-0.71-0.41-0.54-0.31-0.73-0.41-0.55-0.27c-0.24-0.11-0.49-0.23-0.74-0.33l-0.58-0.25-0.77-0.3-0.58-0.22-0.82-0.27-0.58-0.17c-0.28-0.09-0.57-0.16-0.86-0.23s-0.37-0.11-0.56-0.15-0.65-0.15-1-0.21l-0.48-0.1c-0.49-0.09-1.1-0.19-1.6-0.26a28.36 28.36 0 0 0-31.76 24.38l-0.24 1.87h0.13c3.59 1.35 7.15 2.52 10.59 3.51 1.17 0.39 2.4 0.71 3.52 1z" fill="#171717"/>
</svg>
