<svg width="221mm" height="221mm" version="1.1" viewBox="0 0 221 221" xmlns="http://www.w3.org/2000/svg">
 <circle cx="110" cy="110" r="110" stroke="var(--color-background-border)" strokeWidth='1' fill="var(--color-background)"/>
 <path d="m81.92 132.1c-8.1 11.45-16.26 42.54-23.11 75.5a110 110 0 0 0 103.14 0.13c-5.53-32.45-12.38-63.24-19.89-75.63-14.04-23.19-45.03-21.36-60.14 0z" fill="#fdffe9"/>
 <path d="m104.5 143.5a10 10 0 1 0-10-10 10 10 0 0 0 10 10z" fill="#171717"/>
 <path d="m144.59 163.5a10 10 0 1 0 10 10 10 10 0 0 0-10-10z" fill="#171717"/>
 <path d="m104.5 203.5a10 10 0 0 0-7.87 16.13 110.93 110.93 0 0 0 13.87 0.87h1.18a10 10 0 0 0-7.18-17z" fill="#171717"/>
 <path d="m69.08 164.63c-1.67 5.87-3.31 12.21-4.9 18.83a2.85 2.85 0 0 0 0.29 0 10 10 0 0 0 4.61-18.86z" fill="#171717"/>
 <path d="m144.59 143.5a10 10 0 0 0 2.46-0.34 63.36 63.36 0 0 0-5-11 37.65 37.65 0 0 0-4.36-5.86 10 10 0 0 0 6.9 17.2z" fill="#171717"/>
 <path d="m104.5 163.5a10 10 0 1 0 10 10 10 10 0 0 0-10-10z" fill="#171717"/>
 <path d="m144.59 203.5a10 10 0 0 0-10 10 9.83 9.83 0 0 0 0.92 4.13 107.92 107.92 0 0 0 18.88-6.23 10 10 0 0 0-9.8-7.9z" fill="#171717"/>
 <path d="m124.56 123.5a10 10 0 0 0 6.78-2.68 32.92 32.92 0 0 0-16.6-5.38 10 10 0 0 0 9.82 8.06z" fill="#171717"/>
 <path d="m84.5 163.5a10 10 0 1 0-10-11 8.77 8.77 0 0 0 0 1 8.6 8.6 0 0 0 0 1 10 10 0 0 0 10 9z" fill="#171717"/>
 <path d="m124.56 183.5a10 10 0 1 0 10 10 10 10 0 0 0-10-10z" fill="#171717"/>
 <path d="m154.6 193.5a10 10 0 0 0 6.5 9.35c-1-5.71-2-11.34-3.12-16.8a9.93 9.93 0 0 0-3.38 7.45z" fill="#171717"/>
 <path d="m114.5 153.5a10 10 0 1 0 10-10 10 10 0 0 0-10 10z" fill="#171717"/>
 <path d="m84.5 183.5a10 10 0 0 0-10 9 8.77 8.77 0 0 0 0 1 8.6 8.6 0 0 0 0 1 10 10 0 1 0 10-11z" fill="#171717"/>
 <path d="m64.5 203.5a9.86 9.86 0 0 0-5.1 1.44c-0.19 0.89-0.37 1.8-0.56 2.7a110.92 110.92 0 0 0 15.58 6.8c0-0.32 0.1-0.61 0.1-0.93a10 10 0 0 0-10.02-10.01z" fill="#171717"/>
 <path d="m131.22 59.3c7.88-10.43 21.8-24.53 29.9-22.77 1.84 0.4 3.4 1.66 4.75 3.84 1.75 2.83 2.08 5.33 1 7.89-3.59 8.79-21.76 15.46-30.75 18z" fill="#631c00"/>
 <path d="m160.43 39.73c0.34 0.07 1.37 0.3 2.66 2.37 1.48 2.39 1.23 3.83 0.78 4.92-2.48 6.1-15.74 12.19-26.39 15.42l-2.18-3.06c8.54-10.76 20-20.76 25.13-19.65zm1.39-6.4c-13.92-3-34.64 25.94-34.64 25.94l7.62 10.69s46.27-11.3 33.85-31.31c-1.93-3.15-4.26-4.76-6.83-5.32z" fill="#fbae17"/>
 <path d="m89.78 59.3c-7.88-10.43-21.8-24.53-29.9-22.77-1.84 0.4-3.4 1.66-4.75 3.84-1.75 2.83-2.08 5.33-1 7.89 3.59 8.79 21.76 15.46 30.75 18z" fill="#631c00"/>
 <path d="m60.57 39.73c5.12-1.11 16.59 8.89 25.13 19.65l-2.2 3.06c-10.65-3.23-23.91-9.32-26.39-15.42-0.45-1.09-0.7-2.53 0.78-4.92 1.29-2.07 2.32-2.3 2.66-2.37zm-8.22-1.08c-12.42 20 33.85 31.31 33.85 31.31l7.62-10.69s-20.72-29-34.64-25.94c-2.57 0.56-4.9 2.17-6.83 5.32z" fill="#fbae17"/>
 <path d="m109.1 183.11c82.31 1.52 47.23-132.52 0.54-131.94s-82.85 130.41-0.54 131.94z" fill="#fbae17"/>
 <path d="m141.85 76.88c-1.38 0.06-2.76 0.2-4.12 0.38-1.08 0.14-1.25 0.5-0.56 1.3 0.94 1.08 2 2.07 3 3.12 0.32 0.33 0.55 0.21 0.71-0.09l1.86-3.55c0.48-1.03 0.36-1.22-0.89-1.16z" fill="#f58523"/>
 <path d="m129.37 71.98-0.29 4.19c0 0.67 0.31 0.81 0.9 0.49 1.31-0.69 2.18-1.19 3.41-1.83s0.92-1.4 0.38-1.71a23.23 23.23 0 0 0-3.6-1.65 0.61 0.61 0 0 0-0.8 0.51z" fill="#f58523"/>
 <path d="m145.1 81.36 2 0.77c-0.4-0.78-0.8-1.55-1.21-2.31l-0.9 0.48c-0.49 0.28-0.49 0.77 0.11 1.06z" fill="#f58523"/>
 <path d="m128.84 66.5c1.22 0.23 2.23 0.35 3.41 0.53s1.56-0.09 1.35-0.73a24 24 0 0 0-1.15-3c-0.24-0.53-0.63-1-1.54-0.17s-1.51 1.33-2.5 2.33c-0.48 0.45-0.3 0.87 0.43 1.04z" fill="#f58523"/>
 <path d="m130.06 59.85 0.22-0.19c-0.43-0.36-0.87-0.7-1.3-1l0.4 1c0.12 0.26 0.33 0.51 0.68 0.19z" fill="#f58523"/>
 <path d="m137.15 74.5c0.23 0.39 0.49 0.2 0.71 0 0.85-0.88 1.69-1.77 2.56-2.63 0.41-0.42 0.16-0.52-0.27-0.62-1.1-0.25-3.27-0.83-4.37-1.07-0.76-0.16-1 0-0.69 0.67 0.61 1.25 1.35 2.46 2.06 3.65z" fill="#f58523"/>
 <path d="m134.5 83.5c-0.22-1.29-0.52-2.56-0.8-3.84-0.13-0.58-0.47-0.56-1-0.28-1.09 0.61-2.2 1.2-3.31 1.78-0.41 0.21-0.4 0.35 0 0.56 0.77 0.41 1.52 0.84 2.28 1.26l0.94 0.52c0.37 0.21 0.74 0.42 1.12 0.62 0.73 0.39 0.89 0.34 0.78-0.38 0.04-0.05-0.01-0.13-0.01-0.24z" fill="#f58523"/>
 <path d="m151.07 102.5c-1.59-0.09-3.19-0.23-4.78-0.22-1.19 0-1.51 0.49-1 1.48a30.74 30.74 0 0 0 1.85 3c0.67 1 1 1 1.67 0.06 0.89-1.23 1.72-2.49 2.59-3.72 0.29-0.4 0.15-0.6-0.33-0.6z" fill="#f58523"/>
 <path d="m154.94 112.5c0.3 0.54 0.63 0.31 0.89 0l1-1.38c-0.22-1.2-0.46-2.4-0.72-3.59h-2.6c-0.9 0-1.15 0.24-0.69 1.15 0.68 1.3 1.4 2.56 2.12 3.82z" fill="#f58523"/>
 <path d="m137.43 94.15c-0.64 0-0.68 0.26-0.43 0.66 0.71 1.17 1.42 2.36 2.2 3.49 0.58 0.86 1 0.83 1.74 0 0.54-0.93 1.16-1.93 1.7-3s0.34-1.12-0.81-1.14c-1.47-0.03-2.93 0.02-4.4-0.01z" fill="#f58523"/>
 <path d="m141.85 107.67c-1.38 0.06-2.76 0.19-4.12 0.38-1.08 0.14-1.25 0.5-0.56 1.3 0.94 1.08 2 2.07 3 3.11 0.32 0.33 0.55 0.22 0.71-0.08l1.86-3.55c0.48-1.03 0.36-1.22-0.89-1.16z" fill="#f58523"/>
 <path d="m129.37 102.76-0.29 4.2c0 0.66 0.31 0.8 0.9 0.49 1.31-0.69 2.18-1.19 3.41-1.83s0.92-1.41 0.38-1.71a24.2 24.2 0 0 0-3.6-1.66 0.61 0.61 0 0 0-0.8 0.51z" fill="#f58523"/>
 <path d="m155.05 103.42h0.08l-0.27-1c-0.43 0.38-0.36 0.8 0.19 1z" fill="#f58523"/>
 <path d="m145.71 86.33c0 0.94-0.09 1.88-0.15 3.07 0 0.24 0.1 0.73 0.13 1.22s0.19 0.66 0.65 0.41c1.3-0.69 2.61-1.38 3.89-2.12-0.24-0.56-0.47-1.13-0.72-1.69l-3.28-1.31c-0.48-0.18-0.5 0.11-0.52 0.42z" fill="#f58523"/>
 <path d="m149.5 93.99c-0.28-0.29-0.48-0.49-0.7 0.07-0.43 1.11-0.91 2.21-1.3 3.13-0.2 0.54-0.36 0.88-0.45 1.24-0.21 0.87 0 1.11 0.89 0.81 1.41-0.47 2.77-1.08 4.15-1.63 0.61-0.25 0.47-0.57 0.11-0.93-0.91-0.89-1.81-1.78-2.7-2.69z" fill="#f58523"/>
 <path d="m145.1 112.14 4 1.56c0.62 0.22 0.86-0.07 0.82-0.56-0.08-1.27-0.2-2.53-0.35-3.8a0.35 0.35 0 0 0-0.51-0.3 43.71 43.71 0 0 0-4.11 2.05c-0.45 0.27-0.45 0.76 0.15 1.05z" fill="#f58523"/>
 <path d="m128.84 97.25c1.22 0.23 2.23 0.36 3.41 0.54s1.56-0.09 1.35-0.73a24 24 0 0 0-1.15-3c-0.24-0.53-0.63-1-1.54-0.18s-1.51 1.34-2.5 2.34c-0.48 0.47-0.3 0.9 0.43 1.03z" fill="#f58523"/>
 <path d="m128.37 87.75c0.3 0.9 0.66 1.78 1 2.66 0.12 0.29 0.33 0.55 0.68 0.23 1.08-1 2.17-1.94 3.19-3 0.41-0.41 0.31-0.85-0.39-1l-2.79-0.49c-1.37 0.02-1.98 0.7-1.69 1.6z" fill="#f58523"/>
 <path d="m137.15 105.32c0.23 0.39 0.49 0.2 0.71 0 0.85-0.88 1.69-1.77 2.56-2.64 0.41-0.41 0.16-0.51-0.27-0.61-1.1-0.25-3.27-0.83-4.37-1.07-0.76-0.17-1 0-0.69 0.67 0.61 1.22 1.35 2.43 2.06 3.65z" fill="#f58523"/>
 <path d="m140.19 85.92c-0.47-0.9-0.89-0.94-1.51-0.1-0.84 1.15-1.54 2.39-2.33 3.58-0.25 0.38-0.06 0.55 0.3 0.6l4.24 0.56c1.2 0.11 1.37 0 0.93-1.13s-1.03-2.36-1.63-3.51z" fill="#f58523"/>
 <path d="m134.5 114.32c-0.22-1.29-0.52-2.57-0.8-3.85-0.13-0.57-0.47-0.55-1-0.28-1.09 0.62-2.2 1.21-3.31 1.78-0.41 0.22-0.4 0.36 0 0.57 0.77 0.41 1.52 0.84 2.28 1.26l0.94 0.52c0.37 0.21 0.74 0.42 1.12 0.62 0.73 0.39 0.89 0.34 0.78-0.39 0.04-0.05-0.01-0.15-0.01-0.23z" fill="#f58523"/>
 <path d="m151.07 133.28c-1.59-0.09-3.19-0.23-4.78-0.22-1.19 0-1.51 0.49-1 1.48a29.47 29.47 0 0 0 1.85 3c0.67 1 1 1 1.67 0.06 0.89-1.22 1.72-2.49 2.59-3.72 0.29-0.38 0.15-0.58-0.33-0.6z" fill="#f58523"/>
 <path d="m153.5 138.33c-1 0-1.15 0.24-0.69 1.15 0.66 1.29 1.39 2.55 2.11 3.81 0.3 0.54 0.63 0.32 0.89 0 0.66-0.91 1.33-1.82 1.95-2.74 0.1-0.68 0.18-1.36 0.26-2a3.85 3.85 0 0 0-0.86-0.15 29.66 29.66 0 0 0-3.66-0.07z" fill="#f58523"/>
 <path d="m137.43 124.94c-0.64 0-0.68 0.25-0.43 0.66 0.71 1.17 1.42 2.35 2.2 3.49 0.58 0.85 1 0.82 1.74-0.05 0.54-0.94 1.16-1.93 1.7-3s0.34-1.13-0.81-1.14c-1.47 0.01-2.93 0.06-4.4 0.04z" fill="#f58523"/>
 <path d="m141.85 138.5c-1.38 0.07-2.76 0.2-4.12 0.38-1.08 0.15-1.25 0.5-0.56 1.3 0.94 1.09 2 2.07 3 3.12 0.32 0.33 0.55 0.21 0.71-0.09l1.86-3.55c0.48-1.07 0.36-1.26-0.89-1.16z" fill="#f58523"/>
 <path d="m129.37 133.55-0.29 4.19c0 0.67 0.31 0.81 0.9 0.5 1.31-0.7 2.18-1.19 3.41-1.84s0.92-1.4 0.38-1.71a24.21 24.21 0 0 0-3.6-1.65 0.61 0.61 0 0 0-0.8 0.51z" fill="#f58523"/>
 <path d="m158.08 130.5c-1.08 0.89-2.16 1.78-3.22 2.71-0.43 0.37-0.39 0.8 0.19 1 1.1 0.38 2.18 0.81 3.3 1.11 0.12-1.65 0.19-3.33 0.21-5a0.65 0.65 0 0 0-0.48 0.18z" fill="#f58523"/>
 <path d="m150.5 118.41c-1.41-0.6-2.85-1.15-4.28-1.71-0.48-0.19-0.5 0.1-0.52 0.42 0 0.94-0.09 1.88-0.15 3.07 0 0.24 0.1 0.73 0.13 1.22s0.19 0.65 0.65 0.41c1.46-0.78 2.93-1.54 4.35-2.38 0.6-0.35 0.37-0.81-0.18-1.03z" fill="#f58523"/>
 <path d="m149.5 124.78c-0.28-0.29-0.48-0.49-0.7 0.06-0.43 1.12-0.91 2.22-1.3 3.14-0.2 0.53-0.36 0.88-0.45 1.23-0.21 0.88 0 1.12 0.89 0.82 1.41-0.47 2.77-1.08 4.15-1.63 0.61-0.25 0.47-0.57 0.11-0.93-0.91-0.89-1.81-1.79-2.7-2.69z" fill="#f58523"/>
 <path d="m149.15 144.5c0.62 0.23 0.86-0.06 0.82-0.56-0.08-1.26-0.2-2.53-0.35-3.79a0.36 0.36 0 0 0-0.51-0.31c-1.41 0.62-2.78 1.31-4.11 2-0.5 0.28-0.52 0.77 0.1 1.06z" fill="#f58523"/>
 <path d="m128.84 128.04c1.22 0.23 2.23 0.36 3.41 0.53s1.56-0.08 1.35-0.73a24.62 24.62 0 0 0-1.15-3c-0.24-0.53-0.63-1-1.54-0.17s-1.51 1.33-2.5 2.33c-0.48 0.5-0.3 0.9 0.43 1.04z" fill="#f58523"/>
 <path d="m154 123.55c0.4 1.12 0.86 2.22 1.29 3.33 0.15 0.4 0.4 0.55 0.76 0.21 0.81-0.74 1.63-1.47 2.42-2.23 0-0.6-0.06-1.2-0.1-1.8-1.15-0.2-2.3-0.34-3.23-0.48-1.22-0.03-1.42 0.17-1.14 0.97z" fill="#f58523"/>
 <path d="m128.37 118.5c0.3 0.9 0.66 1.78 1 2.66 0.12 0.29 0.33 0.55 0.68 0.23 1.08-1 2.17-1.95 3.19-3 0.41-0.42 0.31-0.85-0.39-1l-2.79-0.5c-1.37 0.07-1.98 0.75-1.69 1.61z" fill="#f58523"/>
 <path d="m155.9 114.62h-1.46c-0.68 0-0.83 0.31-0.45 0.74 1 1.08 1.94 2.12 2.94 3.15 0.36 0.37 0.61 0.14 0.8-0.2l0.17-0.3c-0.14-1.1-0.28-2.21-0.45-3.31l-1.54-0.1z" fill="#f58523"/>
 <path d="m137.15 136.1c0.23 0.4 0.49 0.2 0.71 0 0.85-0.88 1.69-1.77 2.56-2.63 0.41-0.42 0.16-0.52-0.27-0.61-1.1-0.25-3.27-0.83-4.37-1.07-0.76-0.17-1 0-0.69 0.66 0.61 1.22 1.35 2.43 2.06 3.65z" fill="#f58523"/>
 <path d="m140.19 116.71c-0.47-0.9-0.89-1-1.51-0.1-0.84 1.15-1.54 2.39-2.33 3.58-0.25 0.38-0.06 0.54 0.3 0.6l4.24 0.56c1.2 0.1 1.37-0.06 0.93-1.14a38.28 38.28 0 0 0-1.63-3.5z" fill="#f58523"/>
 <path d="m134.5 145.11c-0.22-1.29-0.52-2.57-0.8-3.85-0.13-0.57-0.47-0.55-1-0.28-1.09 0.61-2.2 1.2-3.31 1.78-0.41 0.21-0.4 0.36 0 0.56l2.28 1.27 0.94 0.52 1.12 0.61c0.73 0.39 0.89 0.34 0.78-0.38 0.04-0.08-0.01-0.16-0.01-0.23z" fill="#f58523"/>
 <path d="m145.28 165.32a19 19 0 0 0 1.09 1.87c0.91-1.05 1.79-2.12 2.6-3.26-0.89 0-1.79-0.09-2.68-0.09-1.19 0.01-1.51 0.5-1.01 1.48z" fill="#f58523"/>
 <path d="m137.43 155.73c-0.64 0-0.68 0.25-0.43 0.65 0.71 1.18 1.42 2.36 2.2 3.5 0.58 0.85 1 0.82 1.74 0 0.54-0.94 1.16-1.94 1.7-3s0.34-1.12-0.81-1.14c-1.47-0.04-2.93 0.01-4.4-0.01z" fill="#f58523"/>
 <path d="m141.85 169.24c-1.38 0.06-2.76 0.19-4.12 0.38-1.08 0.14-1.25 0.5-0.56 1.3s1.55 1.64 2.35 2.44c1-0.7 1.93-1.45 2.84-2.22l0.39-0.74c0.47-1.03 0.35-1.22-0.9-1.16z" fill="#f58523"/>
 <path d="m129.98 169.02c1.31-0.69 2.18-1.19 3.41-1.83s0.92-1.4 0.38-1.71a23.23 23.23 0 0 0-3.6-1.65 0.61 0.61 0 0 0-0.8 0.51l-0.29 4.19c-0.01 0.66 0.31 0.8 0.9 0.49z" fill="#f58523"/>
 <path d="m146.23 147.5c-0.48-0.18-0.5 0.11-0.52 0.42 0 0.94-0.09 1.89-0.15 3.07 0 0.25 0.1 0.73 0.13 1.23s0.19 0.65 0.65 0.4c1.46-0.77 2.93-1.54 4.35-2.37 0.59-0.35 0.36-0.81-0.18-1-1.41-0.65-2.85-1.2-4.28-1.75z" fill="#f58523"/>
 <path d="m149.5 155.56c-0.28-0.29-0.48-0.49-0.7 0.07-0.43 1.11-0.91 2.21-1.3 3.13-0.2 0.54-0.36 0.88-0.45 1.24-0.21 0.88 0 1.11 0.89 0.81 1.33-0.44 2.61-1 3.91-1.53 0.16-0.3 0.3-0.6 0.45-0.9l-0.1-0.12c-0.91-0.9-1.81-1.76-2.7-2.7z" fill="#f58523"/>
 <path d="m133.6 158.63a24 24 0 0 0-1.15-3c-0.24-0.53-0.63-1-1.54-0.18s-1.51 1.34-2.5 2.34c-0.48 0.5-0.3 0.92 0.43 1.06 1.22 0.23 2.23 0.35 3.41 0.53s1.56-0.11 1.35-0.75z" fill="#f58523"/>
 <path d="m154 154.33 0.08 0.2c0.15-0.38 0.29-0.76 0.43-1.14-0.65 0.11-0.73 0.31-0.51 0.94z" fill="#f58523"/>
 <path d="m128.37 149.32c0.3 0.9 0.66 1.78 1 2.67 0.12 0.29 0.33 0.54 0.68 0.22 1.08-1 2.17-1.94 3.19-3 0.41-0.41 0.31-0.85-0.39-1-1-0.2-2.09-0.38-2.79-0.5-1.37 0.03-1.98 0.71-1.69 1.61z" fill="#f58523"/>
 <path d="m155.9 145.4h-1.46c-0.68 0-0.83 0.31-0.45 0.74 0.69 0.78 1.42 1.53 2.14 2.29 0.27-1 0.52-2 0.74-3l-1-0.06z" fill="#f58523"/>
 <path d="m137.86 166.85c0.85-0.88 1.69-1.77 2.56-2.64 0.41-0.41 0.16-0.51-0.27-0.61-1.1-0.25-3.27-0.83-4.37-1.07-0.76-0.16-1 0-0.69 0.67 0.61 1.26 1.35 2.47 2.06 3.69 0.23 0.39 0.49 0.2 0.71-0.04z" fill="#f58523"/>
 <path d="m140.19 147.5c-0.47-0.91-0.89-1-1.51-0.11-0.84 1.16-1.54 2.4-2.33 3.59-0.25 0.38-0.06 0.54 0.3 0.59l4.24 0.57c1.2 0.1 1.37-0.06 0.93-1.14a38.28 38.28 0 0 0-1.63-3.5z" fill="#f58523"/>
 <path d="m134.5 175.89c-0.22-1.29-0.52-2.57-0.8-3.84-0.13-0.58-0.47-0.56-1-0.29-1.09 0.62-2.2 1.21-3.31 1.79-0.41 0.21-0.4 0.35 0 0.56 0.77 0.41 1.52 0.84 2.28 1.26l0.94 0.52c0.37 0.21 0.74 0.42 1.12 0.62l0.2 0.09 0.59-0.27a1.62 1.62 0 0 0 0-0.21c0.03-0.07-0.02-0.15-0.02-0.23z" fill="#f58523"/>
 <path d="m116.39 52.05c-0.67-0.17-1.35-0.32-2-0.44l1.34 0.51c0.32 0.13 0.54 0.08 0.66-0.07z" fill="#f58523"/>
 <path d="m101.06 52.75c-0.36 0.12-0.72 0.27-1.07 0.41l0.36 0.2c0.74 0.39 0.9 0.35 0.79-0.38a1.89 1.89 0 0 1-0.08-0.23z" fill="#f58523"/>
 <path d="m113.67 76c0.68 1 1 1 1.68 0.06 0.89-1.22 1.71-2.49 2.59-3.72 0.3-0.42 0.16-0.61-0.32-0.64-1.6-0.09-3.19-0.23-4.78-0.22-1.2 0-1.51 0.5-1 1.48a29.56 29.56 0 0 0 1.83 3.04z" fill="#f58523"/>
 <path d="m121.5 81.72c0.31 0.54 0.64 0.32 0.89 0 0.84-1.15 1.71-2.29 2.46-3.48 0.56-0.9 0.34-1.33-1.1-1.45a29.67 29.67 0 0 0-3.66 0c-1 0-1.16 0.24-0.69 1.14 0.64 1.27 1.37 2.57 2.1 3.79z" fill="#f58523"/>
 <path d="m103.98 63.37c-0.65 0-0.68 0.25-0.44 0.65 0.72 1.18 1.42 2.36 2.2 3.5 0.59 0.85 1 0.82 1.74 0 0.55-0.94 1.16-1.94 1.71-3s0.34-1.13-0.82-1.15c-1.46-0.03-2.93 0.02-4.39 0z" fill="#f58523"/>
 <path d="m108.39 76.88c-1.37 0.06-2.75 0.2-4.11 0.38-1.08 0.14-1.26 0.5-0.56 1.3 0.94 1.08 2 2.07 3 3.12 0.32 0.33 0.54 0.21 0.71-0.09l1.85-3.55c0.48-1.03 0.37-1.22-0.89-1.16z" fill="#f58523"/>
 <path d="m95.91 71.98-0.28 4.19c0 0.67 0.3 0.81 0.89 0.49 1.31-0.69 2.18-1.19 3.41-1.83 1.39-0.72 0.92-1.4 0.39-1.71a23.23 23.23 0 0 0-3.6-1.65 0.62 0.62 0 0 0-0.81 0.51z" fill="#f58523"/>
 <path d="m124.63 68.93c-1.08 0.89-2.17 1.78-3.23 2.7-0.43 0.38-0.38 0.81 0.2 1a33.7 33.7 0 0 0 4.06 1.31c0.37 0.07 0.4-0.32 0.37-0.65-0.1-1.22-0.42-3-0.6-4.07-0.1-0.62-0.42-0.61-0.8-0.29z" fill="#f58523"/>
 <path d="m112.88 60.25c1.46-0.78 2.93-1.55 4.35-2.38 0.6-0.35 0.37-0.81-0.17-1-1.42-0.59-2.86-1.14-4.29-1.7-0.47-0.19-0.5 0.1-0.51 0.42 0 0.94-0.09 1.88-0.15 3.06 0 0.25 0.1 0.74 0.13 1.23s0.18 0.62 0.64 0.37z" fill="#f58523"/>
 <path d="m116.05 63.21c-0.29-0.3-0.48-0.49-0.7 0.06-0.44 1.12-0.92 2.21-1.31 3.13-0.19 0.54-0.35 0.88-0.44 1.24-0.22 0.88 0 1.11 0.88 0.82 1.41-0.47 2.77-1.08 4.15-1.64 0.62-0.24 0.48-0.56 0.11-0.92z" fill="#f58523"/>
 <path d="m111.65 81.36 4.05 1.55c0.62 0.22 0.85-0.06 0.82-0.56-0.09-1.27-0.21-2.53-0.36-3.79a0.35 0.35 0 0 0-0.51-0.31c-1.4 0.62-2.77 1.31-4.1 2-0.5 0.33-0.53 0.82 0.1 1.11z" fill="#f58523"/>
 <path d="m95.39 66.5c1.22 0.23 2.22 0.35 3.41 0.53s1.56-0.09 1.35-0.73a25.67 25.67 0 0 0-1.15-3c-0.24-0.53-0.63-1-1.55-0.17s-1.51 1.33-2.49 2.33c-0.46 0.45-0.3 0.87 0.43 1.04z" fill="#f58523"/>
 <path d="m120.55 61.97c0.4 1.12 0.85 2.23 1.28 3.34 0.16 0.4 0.4 0.55 0.77 0.21 1-0.95 2.09-1.88 3.08-2.87 0.55-0.55 0.38-1-0.44-1.11-1.26-0.23-2.54-0.38-3.56-0.53-1.18-0.03-1.42 0.17-1.13 0.96z" fill="#f58523"/>
 <path d="m95.93 59.63c0.11 0.29 0.33 0.54 0.68 0.22 1.08-1 2.16-1.94 3.18-3 0.42-0.42 0.31-0.85-0.38-1-1-0.2-2.1-0.38-2.79-0.5-1.39 0-2 0.65-1.7 1.55s0.65 1.85 1.01 2.73z" fill="#f58523"/>
 <path d="m123.5 56.93c0.35 0.37 0.6 0.14 0.8-0.21l0.56-1a33 33 0 0 0-4.49-2.32 0.67 0.67 0 0 0 0.19 0.38c0.94 1.08 1.94 2.12 2.94 3.15z" fill="#f58523"/>
 <path d="m103.7 74.5c0.23 0.39 0.48 0.2 0.71 0 0.85-0.88 1.69-1.77 2.55-2.63 0.42-0.42 0.17-0.52-0.26-0.62-1.1-0.25-3.28-0.83-4.38-1.07-0.76-0.16-1 0-0.68 0.67 0.61 1.25 1.35 2.46 2.06 3.65z" fill="#f58523"/>
 <path d="m103.2 59.22 4.24 0.56c1.2 0.1 1.36-0.06 0.93-1.14a38.28 38.28 0 0 0-1.63-3.5c-0.48-0.91-0.9-0.95-1.52-0.1-0.84 1.15-1.54 2.39-2.32 3.58-0.25 0.38-0.06 0.54 0.3 0.6z" fill="#f58523"/>
 <path d="m101.06 83.5c-0.21-1.29-0.51-2.56-0.8-3.84-0.13-0.58-0.47-0.56-1-0.28-1.09 0.61-2.2 1.2-3.32 1.78-0.4 0.21-0.39 0.35 0 0.56l2.28 1.26 0.94 0.52 1.11 0.62c0.74 0.39 0.9 0.34 0.79-0.38a2 2 0 0 1 0-0.24z" fill="#f58523"/>
 <path d="m117.62 102.5c-1.6-0.09-3.19-0.23-4.78-0.22-1.2 0-1.51 0.49-1 1.48a30.67 30.67 0 0 0 1.84 3c0.68 1 1 1 1.68 0.06 0.89-1.23 1.71-2.49 2.59-3.72 0.29-0.4 0.15-0.6-0.33-0.6z" fill="#f58523"/>
 <path d="m121.5 112.5c0.31 0.54 0.64 0.31 0.89 0 0.84-1.15 1.71-2.28 2.46-3.48 0.56-0.9 0.34-1.33-1.1-1.45a34.22 34.22 0 0 0-3.66 0c-1 0.05-1.16 0.24-0.69 1.15 0.64 1.26 1.37 2.52 2.1 3.78z" fill="#f58523"/>
 <path d="m103.98 94.15c-0.65 0-0.68 0.26-0.44 0.66 0.72 1.17 1.42 2.36 2.2 3.49 0.59 0.86 1 0.83 1.74 0 0.55-0.93 1.16-1.93 1.71-3s0.34-1.12-0.82-1.14c-1.46-0.03-2.93 0.02-4.39-0.01z" fill="#f58523"/>
 <path d="m108.39 107.67c-1.37 0.06-2.75 0.19-4.11 0.38-1.08 0.14-1.26 0.5-0.56 1.3 0.94 1.08 2 2.07 3 3.11 0.32 0.33 0.54 0.22 0.71-0.08l1.85-3.55c0.48-1.03 0.37-1.22-0.89-1.16z" fill="#f58523"/>
 <path d="m95.91 102.76-0.28 4.2c0 0.66 0.3 0.8 0.89 0.49 1.31-0.69 2.18-1.19 3.41-1.83 1.39-0.72 0.92-1.41 0.39-1.71a24.2 24.2 0 0 0-3.6-1.66 0.62 0.62 0 0 0-0.81 0.51z" fill="#f58523"/>
 <path d="m124.63 99.71c-1.08 0.9-2.17 1.79-3.23 2.71-0.43 0.38-0.38 0.8 0.2 1a32 32 0 0 0 4.06 1.31c0.37 0.08 0.4-0.32 0.37-0.65-0.1-1.22-0.42-3-0.6-4.07-0.1-0.62-0.42-0.62-0.8-0.3z" fill="#f58523"/>
 <path d="m117.06 87.62c-1.42-0.59-2.86-1.14-4.29-1.71-0.47-0.18-0.5 0.11-0.51 0.42 0 0.94-0.09 1.88-0.15 3.07 0 0.24 0.1 0.73 0.13 1.22s0.18 0.66 0.64 0.41c1.46-0.77 2.93-1.54 4.35-2.38 0.6-0.34 0.37-0.8-0.17-1.03z" fill="#f58523"/>
 <path d="m116.05 93.99c-0.29-0.29-0.48-0.49-0.7 0.07-0.44 1.11-0.92 2.21-1.31 3.13-0.19 0.54-0.35 0.88-0.44 1.24-0.22 0.87 0 1.11 0.88 0.81 1.41-0.47 2.77-1.08 4.15-1.63 0.62-0.25 0.48-0.57 0.11-0.93-0.9-0.89-1.8-1.78-2.69-2.69z" fill="#f58523"/>
 <path d="m111.65 112.14 4.05 1.56c0.62 0.22 0.85-0.07 0.82-0.56-0.09-1.27-0.21-2.53-0.36-3.8a0.35 0.35 0 0 0-0.51-0.3 44.78 44.78 0 0 0-4.1 2.05c-0.5 0.27-0.53 0.76 0.1 1.05z" fill="#f58523"/>
 <path d="m95.39 97.25c1.22 0.23 2.22 0.36 3.41 0.54s1.56-0.09 1.35-0.73a25.67 25.67 0 0 0-1.15-3c-0.24-0.53-0.63-1-1.55-0.18s-1.51 1.34-2.49 2.34c-0.46 0.47-0.3 0.9 0.43 1.03z" fill="#f58523"/>
 <path d="m125.24 92.33c-1.26-0.23-2.54-0.38-3.56-0.53-1.22 0-1.42 0.16-1.13 1 0.4 1.12 0.85 2.22 1.28 3.34 0.16 0.4 0.4 0.54 0.77 0.21 1-0.95 2.09-1.88 3.08-2.87 0.55-0.6 0.38-0.98-0.44-1.15z" fill="#f58523"/>
 <path d="m94.92 87.75c0.29 0.9 0.65 1.78 1 2.66 0.11 0.29 0.33 0.55 0.68 0.23 1.08-1 2.16-1.94 3.18-3 0.42-0.41 0.31-0.85-0.38-1l-2.79-0.49c-1.38 0.02-1.99 0.7-1.69 1.6z" fill="#f58523"/>
 <path d="m125.76 84.01-3.26-0.21h-1.47c-0.68 0-0.82 0.3-0.44 0.74 0.94 1.07 1.94 2.11 2.94 3.14 0.35 0.37 0.6 0.15 0.8-0.2q0.84-1.51 1.71-3c0.09-0.25 0.17-0.45-0.28-0.47z" fill="#f58523"/>
 <path d="m103.7 105.32c0.23 0.39 0.48 0.2 0.71 0 0.85-0.88 1.69-1.77 2.55-2.64 0.42-0.41 0.17-0.51-0.26-0.61-1.1-0.25-3.28-0.83-4.38-1.07-0.76-0.17-1 0-0.68 0.67 0.61 1.22 1.35 2.43 2.06 3.65z" fill="#f58523"/>
 <path d="m106.74 85.92c-0.48-0.9-0.9-0.94-1.52-0.1-0.84 1.15-1.54 2.39-2.32 3.58-0.25 0.38-0.06 0.55 0.3 0.6l4.24 0.56c1.2 0.11 1.36 0 0.93-1.13s-1.03-2.36-1.63-3.51z" fill="#f58523"/>
 <path d="m101.06 114.32c-0.21-1.29-0.51-2.57-0.8-3.85-0.13-0.57-0.47-0.55-1-0.28-1.09 0.62-2.2 1.21-3.32 1.78-0.4 0.22-0.39 0.36 0 0.57l2.28 1.26 0.94 0.52 1.11 0.62c0.74 0.39 0.9 0.34 0.79-0.39a1.89 1.89 0 0 1 0-0.23z" fill="#f58523"/>
 <path d="m117.62 133.28c-1.6-0.09-3.19-0.23-4.78-0.22-1.2 0-1.51 0.49-1 1.48a29.41 29.41 0 0 0 1.84 3c0.68 1 1 1 1.68 0.06 0.89-1.22 1.71-2.49 2.59-3.72 0.29-0.38 0.15-0.58-0.33-0.6z" fill="#f58523"/>
 <path d="m121.5 143.29c0.31 0.54 0.64 0.32 0.89 0 0.84-1.15 1.71-2.28 2.46-3.48 0.56-0.9 0.34-1.33-1.1-1.45a29.67 29.67 0 0 0-3.66 0c-1 0-1.16 0.24-0.69 1.15 0.64 1.26 1.37 2.52 2.1 3.78z" fill="#f58523"/>
 <path d="m103.98 124.94c-0.65 0-0.68 0.25-0.44 0.66 0.72 1.17 1.42 2.35 2.2 3.49 0.59 0.85 1 0.82 1.74-0.05 0.55-0.94 1.16-1.93 1.71-3s0.34-1.13-0.82-1.14c-1.46 0.01-2.93 0.06-4.39 0.04z" fill="#f58523"/>
 <path d="m108.39 138.5c-1.37 0.07-2.75 0.2-4.11 0.38-1.08 0.15-1.26 0.5-0.56 1.3 0.94 1.09 2 2.07 3 3.12 0.32 0.33 0.54 0.21 0.71-0.09l1.85-3.55c0.48-1.07 0.37-1.26-0.89-1.16z" fill="#f58523"/>
 <path d="m95.91 133.55-0.28 4.19c0 0.67 0.3 0.81 0.89 0.5 1.31-0.7 2.18-1.19 3.41-1.84 1.39-0.72 0.92-1.4 0.39-1.71a24.21 24.21 0 0 0-3.6-1.65 0.62 0.62 0 0 0-0.81 0.51z" fill="#f58523"/>
 <path d="m124.63 130.5c-1.08 0.89-2.17 1.78-3.23 2.71-0.43 0.37-0.38 0.8 0.2 1a32 32 0 0 0 4.06 1.31c0.37 0.08 0.4-0.32 0.37-0.65-0.1-1.22-0.42-3-0.6-4.07-0.1-0.62-0.42-0.62-0.8-0.3z" fill="#f58523"/>
 <path d="m117.06 118.41c-1.42-0.6-2.86-1.15-4.29-1.71-0.47-0.19-0.5 0.1-0.51 0.42 0 0.94-0.09 1.88-0.15 3.07 0 0.24 0.1 0.73 0.13 1.22s0.18 0.65 0.64 0.41c1.46-0.78 2.93-1.54 4.35-2.38 0.6-0.35 0.37-0.81-0.17-1.03z" fill="#f58523"/>
 <path d="m116.05 124.78c-0.29-0.29-0.48-0.49-0.7 0.06-0.44 1.12-0.92 2.22-1.31 3.14-0.19 0.53-0.35 0.88-0.44 1.23-0.22 0.88 0 1.12 0.88 0.82 1.41-0.47 2.77-1.08 4.15-1.63 0.62-0.25 0.48-0.57 0.11-0.93z" fill="#f58523"/>
 <path d="m111.65 142.93 4.05 1.57c0.62 0.23 0.85-0.06 0.82-0.56-0.09-1.26-0.21-2.53-0.36-3.79a0.36 0.36 0 0 0-0.51-0.31c-1.4 0.62-2.77 1.31-4.1 2-0.5 0.31-0.53 0.8 0.1 1.09z" fill="#f58523"/>
 <path d="m95.39 128.04c1.22 0.23 2.22 0.36 3.41 0.53s1.56-0.08 1.35-0.73a26.36 26.36 0 0 0-1.15-3c-0.24-0.53-0.63-1-1.55-0.17s-1.51 1.33-2.49 2.33c-0.46 0.5-0.3 0.9 0.43 1.04z" fill="#f58523"/>
 <path d="m125.24 123.11c-1.26-0.23-2.54-0.38-3.56-0.53-1.22 0-1.42 0.17-1.13 1 0.4 1.12 0.85 2.22 1.28 3.33 0.16 0.4 0.4 0.55 0.77 0.21 1-0.94 2.09-1.88 3.08-2.87 0.55-0.58 0.38-0.98-0.44-1.14z" fill="#f58523"/>
 <path d="m94.92 118.5c0.29 0.9 0.65 1.78 1 2.66 0.11 0.29 0.33 0.55 0.68 0.23 1.08-1 2.16-1.95 3.18-3 0.42-0.42 0.31-0.85-0.38-1l-2.79-0.5c-1.38 0.07-1.99 0.75-1.69 1.61z" fill="#f58523"/>
 <path d="m125.76 114.8-3.31-0.21h-1.47c-0.68 0-0.82 0.31-0.44 0.74 0.96 1.1 1.96 2.17 2.96 3.17 0.35 0.37 0.6 0.14 0.8-0.2q0.84-1.53 1.71-3c0.12-0.29 0.2-0.48-0.25-0.5z" fill="#f58523"/>
 <path d="m103.7 136.1c0.23 0.4 0.48 0.2 0.71 0 0.85-0.88 1.69-1.77 2.55-2.63 0.42-0.42 0.17-0.52-0.26-0.61-1.1-0.25-3.28-0.83-4.38-1.07-0.76-0.17-1 0-0.68 0.66 0.61 1.22 1.35 2.43 2.06 3.65z" fill="#f58523"/>
 <path d="m106.74 116.71c-0.48-0.9-0.9-1-1.52-0.1-0.84 1.15-1.54 2.39-2.32 3.58-0.25 0.38-0.06 0.54 0.3 0.6l4.24 0.56c1.2 0.1 1.36-0.06 0.93-1.14a38.28 38.28 0 0 0-1.63-3.5z" fill="#f58523"/>
 <path d="m101.06 145.11c-0.21-1.29-0.51-2.57-0.8-3.85-0.13-0.57-0.47-0.55-1-0.28-1.09 0.61-2.2 1.2-3.32 1.78-0.4 0.21-0.39 0.36 0 0.56l2.28 1.27 0.94 0.52 1.11 0.61c0.74 0.39 0.9 0.34 0.79-0.38 0.03-0.08 0.01-0.16 0-0.23z" fill="#f58523"/>
 <path d="m117.62 164.06c-1.6-0.09-3.19-0.23-4.78-0.22-1.2 0-1.51 0.5-1 1.48a29.56 29.56 0 0 0 1.84 3c0.68 1 1 1 1.68 0.06 0.89-1.22 1.71-2.49 2.59-3.72 0.29-0.38 0.15-0.57-0.33-0.6z" fill="#f58523"/>
 <path d="m122.37 174.05c0.84-1.15 1.71-2.29 2.46-3.49 0.56-0.89 0.34-1.32-1.1-1.45a34.22 34.22 0 0 0-3.66 0c-1 0-1.16 0.24-0.69 1.15 0.66 1.29 1.39 2.55 2.1 3.82 0.31 0.54 0.64 0.32 0.89-0.03z" fill="#f58523"/>
 <path d="m103.98 155.73c-0.65 0-0.68 0.25-0.44 0.65 0.72 1.18 1.42 2.36 2.2 3.5 0.59 0.85 1 0.82 1.74 0 0.55-0.94 1.16-1.94 1.71-3s0.34-1.12-0.82-1.14c-1.46-0.04-2.93 0.01-4.39-0.01z" fill="#f58523"/>
 <path d="m108.39 169.24c-1.37 0.06-2.75 0.19-4.11 0.38-1.08 0.14-1.26 0.5-0.56 1.3 0.94 1.08 2 2.07 3 3.11 0.32 0.34 0.54 0.22 0.71-0.08l1.85-3.55c0.48-1.03 0.37-1.22-0.89-1.16z" fill="#f58523"/>
 <path d="m95.91 164.34-0.28 4.19c0 0.66 0.3 0.8 0.89 0.49 1.31-0.69 2.18-1.19 3.41-1.83 1.39-0.72 0.92-1.4 0.39-1.71a23.23 23.23 0 0 0-3.6-1.65 0.62 0.62 0 0 0-0.81 0.51z" fill="#f58523"/>
 <path d="m124.63 161.28c-1.08 0.9-2.17 1.79-3.23 2.71-0.43 0.38-0.38 0.8 0.2 1a33.65 33.65 0 0 0 4.06 1.3c0.37 0.08 0.4-0.32 0.37-0.64-0.1-1.23-0.42-3-0.6-4.08-0.1-0.61-0.42-0.61-0.8-0.29z" fill="#f58523"/>
 <path d="m112.77 147.5c-0.47-0.18-0.5 0.11-0.51 0.42 0 0.94-0.09 1.89-0.15 3.07 0 0.25 0.1 0.73 0.13 1.23s0.18 0.65 0.64 0.4c1.46-0.77 2.93-1.54 4.35-2.37 0.6-0.35 0.37-0.81-0.17-1-1.42-0.65-2.86-1.2-4.29-1.75z" fill="#f58523"/>
 <path d="m116.05 155.56c-0.29-0.29-0.48-0.49-0.7 0.07-0.44 1.11-0.92 2.21-1.31 3.13-0.19 0.54-0.35 0.88-0.44 1.24-0.22 0.88 0 1.11 0.88 0.81 1.41-0.46 2.77-1.07 4.15-1.63 0.62-0.24 0.48-0.56 0.11-0.92-0.9-0.9-1.8-1.76-2.69-2.7z" fill="#f58523"/>
 <path d="m116.5 174.71c-0.09-1.27-0.21-2.53-0.36-3.79a0.35 0.35 0 0 0-0.51-0.31c-1.4 0.62-2.77 1.31-4.1 2-0.5 0.28-0.53 0.77 0.1 1.06l4.05 1.55c0.64 0.28 0.87-0.01 0.82-0.51z" fill="#f58523"/>
 <path d="m95.39 158.83c1.22 0.23 2.22 0.35 3.41 0.53s1.56-0.09 1.35-0.73a25.67 25.67 0 0 0-1.15-3c-0.24-0.53-0.63-1-1.55-0.18s-1.51 1.34-2.49 2.34c-0.46 0.48-0.3 0.9 0.43 1.04z" fill="#f58523"/>
 <path d="m125.24 153.9c-1.26-0.23-2.54-0.38-3.56-0.53-1.22 0-1.42 0.17-1.13 1 0.4 1.12 0.85 2.23 1.28 3.34 0.16 0.4 0.4 0.54 0.77 0.21 1-1 2.09-1.88 3.08-2.87 0.55-0.55 0.38-1-0.44-1.15z" fill="#f58523"/>
 <path d="m94.92 149.32c0.29 0.9 0.65 1.78 1 2.67 0.11 0.29 0.33 0.54 0.68 0.22 1.08-1 2.16-1.94 3.18-3 0.42-0.41 0.31-0.85-0.38-1-1-0.2-2.1-0.38-2.79-0.5-1.38 0.03-1.99 0.71-1.69 1.61z" fill="#f58523"/>
 <path d="m125.76 145.58-3.31-0.2h-1.47c-0.68 0-0.82 0.31-0.44 0.74 0.94 1.07 1.94 2.11 2.94 3.15 0.35 0.36 0.6 0.14 0.8-0.21q0.84-1.51 1.71-3c0.14-0.26 0.22-0.45-0.23-0.48z" fill="#f58523"/>
 <path d="m104.41 166.85c0.85-0.88 1.69-1.77 2.55-2.64 0.42-0.41 0.17-0.51-0.26-0.61-1.1-0.25-3.28-0.83-4.38-1.07-0.76-0.16-1 0-0.68 0.67 0.61 1.26 1.35 2.47 2.06 3.69 0.23 0.39 0.48 0.2 0.71-0.04z" fill="#f58523"/>
 <path d="m106.74 147.5c-0.48-0.91-0.9-1-1.52-0.11-0.84 1.16-1.54 2.4-2.32 3.59-0.25 0.38-0.06 0.54 0.3 0.59l4.24 0.57c1.2 0.1 1.36-0.06 0.93-1.14a38.28 38.28 0 0 0-1.63-3.5z" fill="#f58523"/>
 <path d="m101.06 175.89c-0.21-1.29-0.51-2.57-0.8-3.84-0.13-0.58-0.47-0.56-1-0.29-1.09 0.62-2.2 1.21-3.32 1.79-0.4 0.21-0.39 0.35 0 0.56l2.28 1.26 0.94 0.52 1.11 0.62c0.74 0.39 0.9 0.34 0.79-0.39a1.55 1.55 0 0 1 0-0.23z" fill="#f58523"/>
 <path d="m117.06 179.98c-1.42-0.6-2.86-1.15-4.29-1.71-0.47-0.19-0.5 0.1-0.51 0.42 0 0.86-0.08 1.72-0.14 2.76 1.66 0 3.27-0.13 4.83-0.28l0.28-0.16c0.6-0.35 0.37-0.8-0.17-1.03z" fill="#f58523"/>
 <path d="m99.41 179.05-2.79-0.5c-1.18 0-1.75 0.48-1.73 1.18 1.39 0.34 2.84 0.61 4.32 0.86l0.58-0.56c0.42-0.42 0.31-0.85-0.38-0.98z" fill="#f58523"/>
 <path d="m125.76 176.37-3.31-0.21h-1.47c-0.68 0-0.82 0.3-0.44 0.74 0.94 1.07 1.94 2.11 2.94 3.14a0.76 0.76 0 0 0 0.11 0.08l0.59-0.14 0.1-0.14q0.84-1.51 1.71-3c0.14-0.26 0.22-0.45-0.23-0.47z" fill="#f58523"/>
 <path d="m105.22 178.18c-0.69 1-1.29 2-1.91 2.94 1.58 0.15 3.22 0.26 4.9 0.31-0.44-1.06-0.93-2.12-1.47-3.15s-0.9-0.95-1.52-0.1z" fill="#f58523"/>
 <path d="m80.22 76c0.67 1 1 1 1.67 0.06 0.89-1.22 1.72-2.49 2.59-3.72 0.3-0.42 0.16-0.61-0.32-0.64-1.59-0.09-3.19-0.23-4.78-0.22-1.19 0-1.51 0.5-1 1.48a29.63 29.63 0 0 0 1.84 3.04z" fill="#f58523"/>
 <path d="m88.03 81.72c0.3 0.54 0.63 0.32 0.89 0 0.83-1.15 1.71-2.29 2.45-3.48 0.56-0.9 0.35-1.33-1.1-1.45a29.66 29.66 0 0 0-3.66 0c-1 0-1.15 0.24-0.69 1.14 0.66 1.27 1.39 2.57 2.11 3.79z" fill="#f58523"/>
 <path d="m74.94 76.88h-0.14q-1.18 2-2.3 4c0.26 0.26 0.52 0.51 0.77 0.78s0.55 0.21 0.71-0.09l1.86-3.55c0.47-1.01 0.35-1.2-0.9-1.14z" fill="#f58523"/>
 <path d="m91.17 68.93c-1.08 0.89-2.16 1.78-3.22 2.7-0.43 0.38-0.39 0.81 0.19 1a34.28 34.28 0 0 0 4.06 1.31c0.38 0.07 0.41-0.32 0.38-0.65-0.11-1.22-0.43-3-0.61-4.07-0.1-0.62-0.41-0.61-0.8-0.29z" fill="#f58523"/>
 <path d="m83.98 64.59c-1.16 1.26-2.3 2.58-3.4 4a1.87 1.87 0 0 0 0.45-0.09c1.41-0.47 2.77-1.08 4.15-1.64 0.61-0.24 0.47-0.56 0.11-0.92z" fill="#f58523"/>
 <path d="m78.19 81.36 4 1.55c0.62 0.22 0.86-0.06 0.82-0.56-0.08-1.27-0.2-2.53-0.35-3.79a0.35 0.35 0 0 0-0.51-0.31c-1.41 0.62-2.78 1.31-4.11 2-0.45 0.33-0.47 0.82 0.15 1.11z" fill="#f58523"/>
 <path d="m88.38 65.31c0.15 0.4 0.4 0.55 0.76 0.21 1-0.95 2.1-1.88 3.09-2.87 0.55-0.55 0.38-1-0.45-1.11-1.26-0.23-2.54-0.38-3.55-0.53a4 4 0 0 0-0.63 0c-0.2 0.18-0.41 0.35-0.61 0.54a1.55 1.55 0 0 0 0.1 0.4c0.41 1.14 0.86 2.25 1.29 3.36z" fill="#f58523"/>
 <path d="m84.16 102.5c-1.59-0.09-3.19-0.23-4.78-0.22-1.19 0-1.51 0.49-1 1.48a30.74 30.74 0 0 0 1.85 3c0.67 1 1 1 1.67 0.06 0.89-1.23 1.72-2.49 2.59-3.72 0.29-0.4 0.15-0.6-0.33-0.6z" fill="#f58523"/>
 <path d="m88.03 112.5c0.3 0.54 0.63 0.31 0.89 0 0.83-1.15 1.71-2.28 2.45-3.48 0.56-0.9 0.35-1.33-1.1-1.45a34.22 34.22 0 0 0-3.66 0c-1 0.05-1.15 0.24-0.69 1.15 0.66 1.26 1.39 2.52 2.11 3.78z" fill="#f58523"/>
 <path d="m70.5 94.15c-0.64 0-0.68 0.26-0.43 0.66 0.71 1.17 1.42 2.36 2.2 3.49 0.58 0.86 1 0.83 1.74 0 0.54-0.93 1.16-1.93 1.7-3s0.34-1.12-0.81-1.14c-1.4-0.03-2.91 0.02-4.4-0.01z" fill="#f58523"/>
 <path d="m74.94 107.67c-1.38 0.06-2.75 0.19-4.12 0.38-1.08 0.14-1.25 0.5-0.56 1.3 0.94 1.08 2 2.07 3 3.11 0.32 0.33 0.55 0.22 0.71-0.08l1.86-3.55c0.48-1.03 0.36-1.22-0.89-1.16z" fill="#f58523"/>
 <path d="m66.5 105.62c1.38-0.72 0.92-1.41 0.38-1.71a23.91 23.91 0 0 0-3-1.44c-0.47 1.69-0.91 3.4-1.3 5.12a1.1 1.1 0 0 0 0.52-0.14c1.28-0.69 2.15-1.19 3.4-1.83z" fill="#f58523"/>
 <path d="m91.17 99.71c-1.08 0.9-2.16 1.79-3.22 2.71-0.43 0.38-0.39 0.8 0.19 1a32.54 32.54 0 0 0 4.06 1.31c0.38 0.08 0.41-0.32 0.38-0.65-0.11-1.22-0.43-3-0.61-4.07-0.1-0.62-0.41-0.62-0.8-0.3z" fill="#f58523"/>
 <path d="m83.6 87.62c-1.41-0.59-2.85-1.14-4.28-1.71-0.48-0.18-0.5 0.11-0.52 0.42 0 0.94-0.09 1.88-0.15 3.07 0 0.24 0.1 0.73 0.13 1.22s0.19 0.66 0.65 0.41c1.46-0.77 2.93-1.54 4.35-2.38 0.59-0.34 0.36-0.8-0.18-1.03z" fill="#f58523"/>
 <path d="m82.59 93.99c-0.28-0.29-0.48-0.49-0.7 0.07-0.43 1.11-0.91 2.21-1.3 3.13-0.2 0.54-0.36 0.88-0.45 1.24-0.21 0.87 0 1.11 0.89 0.81 1.41-0.47 2.77-1.08 4.15-1.63 0.61-0.25 0.47-0.57 0.11-0.93-0.91-0.89-1.79-1.78-2.7-2.69z" fill="#f58523"/>
 <path d="m78.19 112.14 4 1.56c0.62 0.22 0.86-0.07 0.82-0.56-0.08-1.27-0.2-2.53-0.35-3.8a0.35 0.35 0 0 0-0.51-0.3 43.71 43.71 0 0 0-4.11 2.05c-0.45 0.27-0.47 0.76 0.15 1.05z" fill="#f58523"/>
 <path d="m66.69 97.06c-0.22-0.68-0.39-1.19-0.59-1.7-0.29 0.8-0.56 1.61-0.83 2.42h0.07c1.06 0.16 1.56-0.08 1.35-0.72z" fill="#f58523"/>
 <path d="m91.78 92.33c-1.26-0.23-2.54-0.38-3.55-0.53-1.22 0-1.42 0.16-1.14 1 0.4 1.12 0.86 2.22 1.29 3.34 0.15 0.4 0.4 0.54 0.76 0.21 1-0.95 2.1-1.88 3.09-2.87 0.55-0.6 0.38-0.98-0.45-1.15z" fill="#f58523"/>
 <path d="m92.31 84.01c-1.11-0.06-2.21-0.14-3.31-0.21h-1.5c-0.68 0-0.83 0.3-0.45 0.74 0.95 1.07 1.94 2.11 2.94 3.14 0.36 0.37 0.61 0.15 0.8-0.2l1.71-3c0.18-0.25 0.25-0.45-0.19-0.47z" fill="#f58523"/>
 <path d="m70.24 105.32c0.23 0.39 0.49 0.2 0.71 0 0.85-0.88 1.69-1.77 2.56-2.64 0.41-0.41 0.16-0.51-0.27-0.61-1.1-0.25-3.27-0.83-4.37-1.07-0.76-0.17-1 0-0.69 0.67 0.61 1.22 1.32 2.43 2.06 3.65z" fill="#f58523"/>
 <path d="m69.74 90 4.24 0.56c1.2 0.11 1.37 0 0.93-1.13s-1-2.36-1.63-3.51c-0.47-0.9-0.89-0.94-1.51-0.1-0.84 1.15-1.54 2.39-2.33 3.58-0.25 0.38-0.06 0.55 0.3 0.6z" fill="#f58523"/>
 <path d="m67.61 114.32c-0.22-1.29-0.52-2.57-0.8-3.85-0.13-0.57-0.47-0.55-1-0.28-1.09 0.62-2.2 1.21-3.31 1.78-0.41 0.22-0.4 0.36 0 0.57 0.77 0.41 1.52 0.84 2.28 1.26l0.94 0.52c0.37 0.21 0.74 0.42 1.12 0.62 0.73 0.39 0.89 0.34 0.78-0.39 0.02-0.05 0-0.15-0.01-0.23z" fill="#f58523"/>
 <path d="m84.16 133.28c-1.59-0.09-3.19-0.23-4.78-0.22-1.19 0-1.51 0.49-1 1.48a29.47 29.47 0 0 0 1.85 3c0.67 1 1 1 1.67 0.06 0.89-1.22 1.72-2.49 2.59-3.72 0.29-0.38 0.15-0.58-0.33-0.6z" fill="#f58523"/>
 <path d="m88.03 143.29c0.3 0.54 0.63 0.32 0.89 0 0.83-1.15 1.71-2.28 2.45-3.48 0.56-0.9 0.35-1.33-1.1-1.45a29.66 29.66 0 0 0-3.66 0c-1 0-1.15 0.24-0.69 1.15 0.66 1.26 1.39 2.52 2.11 3.78z" fill="#f58523"/>
 <path d="m70.5 124.94c-0.64 0-0.68 0.25-0.43 0.66 0.71 1.17 1.42 2.35 2.2 3.49 0.58 0.85 1 0.82 1.74-0.05 0.54-0.94 1.16-1.93 1.7-3s0.34-1.13-0.81-1.14c-1.4 0.01-2.91 0.06-4.4 0.04z" fill="#f58523"/>
 <path d="m74.94 138.5c-1.38 0.07-2.75 0.2-4.12 0.38-1.08 0.15-1.25 0.5-0.56 1.3 0.94 1.09 2 2.07 3 3.12 0.32 0.33 0.55 0.21 0.71-0.09l1.86-3.55c0.48-1.07 0.36-1.26-0.89-1.16z" fill="#f58523"/>
 <path d="m63.07 138.24c1.31-0.7 2.18-1.19 3.41-1.84s0.92-1.4 0.38-1.71a24.21 24.21 0 0 0-3.6-1.65 0.61 0.61 0 0 0-0.8 0.51l-0.29 4.19c-0.01 0.67 0.33 0.81 0.9 0.5z" fill="#f58523"/>
 <path d="m91.17 130.5c-1.08 0.89-2.16 1.78-3.22 2.71-0.43 0.37-0.39 0.8 0.19 1a32.54 32.54 0 0 0 4.06 1.29c0.38 0.08 0.41-0.32 0.38-0.65-0.11-1.22-0.43-3-0.61-4.07-0.1-0.6-0.41-0.6-0.8-0.28z" fill="#f58523"/>
 <path d="m83.6 118.41c-1.41-0.6-2.85-1.15-4.28-1.71-0.48-0.19-0.5 0.1-0.52 0.42 0 0.94-0.09 1.88-0.15 3.07 0 0.24 0.1 0.73 0.13 1.22s0.19 0.65 0.65 0.41c1.46-0.78 2.93-1.54 4.35-2.38 0.59-0.35 0.36-0.81-0.18-1.03z" fill="#f58523"/>
 <path d="m82.59 124.78c-0.28-0.29-0.48-0.49-0.7 0.06-0.43 1.12-0.91 2.22-1.3 3.14-0.2 0.53-0.36 0.88-0.45 1.23-0.21 0.88 0 1.12 0.89 0.82 1.41-0.47 2.77-1.08 4.15-1.63 0.61-0.25 0.47-0.57 0.11-0.93-0.91-0.89-1.79-1.79-2.7-2.69z" fill="#f58523"/>
 <path d="m82.24 144.5c0.62 0.23 0.86-0.06 0.82-0.56-0.08-1.26-0.2-2.53-0.35-3.79a0.36 0.36 0 0 0-0.51-0.31c-1.41 0.62-2.78 1.31-4.11 2-0.5 0.28-0.52 0.77 0.1 1.06z" fill="#f58523"/>
 <path d="m66.69 127.84a24.62 24.62 0 0 0-1.15-3c-0.24-0.53-0.63-1-1.54-0.17s-1.51 1.33-2.5 2.33c-0.48 0.5-0.3 0.92 0.43 1.06 1.22 0.23 2.23 0.36 3.41 0.53s1.56-0.09 1.35-0.75z" fill="#f58523"/>
 <path d="m91.78 123.11c-1.26-0.23-2.54-0.38-3.55-0.53-1.22 0-1.42 0.17-1.14 1 0.4 1.12 0.86 2.22 1.29 3.33 0.15 0.4 0.4 0.55 0.76 0.21 1-0.94 2.1-1.88 3.09-2.87 0.55-0.58 0.38-0.98-0.45-1.14z" fill="#f58523"/>
 <path d="m62.5 121.2c0.12 0.29 0.33 0.55 0.68 0.23 1.08-1 2.17-1.95 3.19-3 0.41-0.42 0.31-0.85-0.39-1l-2.79-0.5c-1.38 0-2 0.66-1.7 1.56s0.63 1.83 1.01 2.71z" fill="#f58523"/>
 <path d="m92.31 114.8-3.31-0.21h-1.5c-0.68 0-0.83 0.31-0.45 0.74 0.95 1.08 1.94 2.12 2.94 3.15 0.36 0.37 0.61 0.14 0.8-0.2q0.85-1.53 1.71-3c0.18-0.27 0.25-0.46-0.19-0.48z" fill="#f58523"/>
 <path d="m70.95 136.06c0.85-0.88 1.69-1.77 2.56-2.63 0.41-0.42 0.16-0.52-0.27-0.61-1.1-0.25-3.27-0.83-4.37-1.07-0.76-0.17-1 0-0.69 0.66 0.61 1.26 1.35 2.47 2.06 3.69 0.26 0.4 0.49 0.2 0.71-0.04z" fill="#f58523"/>
 <path d="m73.28 116.71c-0.47-0.9-0.89-1-1.51-0.1-0.84 1.15-1.54 2.39-2.33 3.58-0.25 0.38-0.06 0.54 0.3 0.6l4.24 0.56c1.2 0.1 1.37-0.06 0.93-1.14a38.28 38.28 0 0 0-1.63-3.5z" fill="#f58523"/>
 <path d="m67.61 145.11c-0.22-1.29-0.52-2.57-0.8-3.85-0.13-0.57-0.47-0.55-1-0.28-1.09 0.61-2.2 1.2-3.31 1.78-0.41 0.21-0.4 0.36 0 0.56l2.28 1.27 0.94 0.52 1.12 0.61c0.73 0.39 0.89 0.34 0.78-0.38 0.02-0.08 0-0.16-0.01-0.23z" fill="#f58523"/>
 <path d="m84.16 164.06c-1.59-0.09-3.19-0.23-4.78-0.22-1.19 0-1.51 0.5-1 1.48a29.63 29.63 0 0 0 1.85 3c0.67 1 1 1 1.67 0.06 0.89-1.22 1.72-2.49 2.59-3.72 0.29-0.38 0.15-0.57-0.33-0.6z" fill="#f58523"/>
 <path d="m88.92 174.05c0.83-1.15 1.71-2.29 2.45-3.49 0.56-0.89 0.35-1.32-1.1-1.45a34.22 34.22 0 0 0-3.66 0c-1 0-1.15 0.24-0.69 1.15 0.66 1.29 1.39 2.55 2.11 3.82 0.3 0.54 0.63 0.32 0.89-0.03z" fill="#f58523"/>
 <path d="m74.92 155.72h-4.4c-0.64 0-0.68 0.25-0.43 0.65 0.71 1.18 1.42 2.36 2.2 3.5 0.58 0.85 1 0.82 1.74 0 0.54-0.94 1.16-1.94 1.7-3s0.34-1.13-0.81-1.15z" fill="#f58523"/>
 <path d="m74.94 169.24c0.33 0.31 0.67 0.62 1 0.92 0.33-0.81 0.14-0.97-1-0.92z" fill="#f58523"/>
 <path d="m91.17 161.28c-1.08 0.9-2.16 1.79-3.22 2.71-0.43 0.38-0.39 0.8 0.19 1a34.23 34.23 0 0 0 4.06 1.3c0.38 0.08 0.41-0.32 0.38-0.64-0.11-1.23-0.43-3-0.61-4.08-0.1-0.61-0.41-0.61-0.8-0.29z" fill="#f58523"/>
 <path d="m79.32 147.5c-0.48-0.18-0.5 0.11-0.52 0.42 0 0.94-0.09 1.89-0.15 3.07 0 0.25 0.1 0.73 0.13 1.23s0.19 0.65 0.65 0.4c1.46-0.77 2.93-1.54 4.35-2.37 0.59-0.35 0.36-0.81-0.18-1-1.41-0.65-2.85-1.2-4.28-1.75z" fill="#f58523"/>
 <path d="m82.59 155.56c-0.28-0.29-0.48-0.49-0.7 0.07-0.43 1.11-0.91 2.21-1.3 3.13-0.2 0.54-0.36 0.88-0.45 1.24-0.21 0.88 0 1.11 0.89 0.81 1.41-0.46 2.77-1.07 4.15-1.63 0.61-0.24 0.47-0.56 0.11-0.92-0.91-0.9-1.79-1.76-2.7-2.7z" fill="#f58523"/>
 <path d="m82.2 170.61c-1.21 0.53-2.39 1.12-3.55 1.75a41.4 41.4 0 0 0 4.33 2.76 0.66 0.66 0 0 0 0.08-0.41c-0.08-1.27-0.2-2.53-0.35-3.79a0.35 0.35 0 0 0-0.51-0.31z" fill="#f58523"/>
 <path d="m65.02 155.01c0.48 1.09 1 2.17 1.54 3.21a25.83 25.83 0 0 0-1-2.61 1 1 0 0 0-0.54-0.6z" fill="#f58523"/>
 <path d="m91.78 153.9c-1.26-0.23-2.54-0.38-3.55-0.53-1.22 0-1.42 0.17-1.14 1 0.4 1.12 0.86 2.23 1.29 3.34 0.15 0.4 0.4 0.54 0.76 0.21 1-1 2.1-1.88 3.09-2.87 0.55-0.55 0.38-1-0.45-1.15z" fill="#f58523"/>
 <path d="m65.95 148.27c-1-0.2-2.09-0.38-2.79-0.5a2.84 2.84 0 0 0-0.69 0.08c0.37 1.31 0.79 2.59 1.24 3.86 0.89-0.81 1.78-1.62 2.63-2.47 0.41-0.41 0.31-0.85-0.39-0.97z" fill="#f58523"/>
 <path d="m92.31 145.58-3.31-0.2h-1.5c-0.68 0-0.83 0.31-0.45 0.74 0.95 1.07 1.94 2.11 2.94 3.15 0.36 0.36 0.61 0.14 0.8-0.21l1.71-3c0.18-0.26 0.25-0.45-0.19-0.48z" fill="#f58523"/>
 <path d="m73.24 163.6c-1-0.22-2.85-0.71-4-1a40.25 40.25 0 0 0 2.58 3.35c0.56-0.58 1.12-1.17 1.7-1.75 0.4-0.4 0.15-0.5-0.28-0.6z" fill="#f58523"/>
 <path d="m69.74 151.57 4.24 0.57c1.2 0.1 1.37-0.06 0.93-1.14a38.28 38.28 0 0 0-1.63-3.5c-0.47-0.91-0.89-1-1.51-0.11-0.84 1.16-1.54 2.4-2.33 3.59-0.25 0.38-0.06 0.52 0.3 0.59z" fill="#f58523"/>
 <path d="m92.31 176.37c-1.11-0.06-2.21-0.14-3.31-0.21h-1.5c-0.68 0-0.83 0.3-0.45 0.74l0.31 0.33c1.3 0.54 2.65 1 4.06 1.5l1.08-1.92c0.18-0.23 0.25-0.42-0.19-0.44z" fill="#f58523"/>
 <path d="m60.98 141.85c3.52 22.65 17.74 40.65 48.15 41.26s44.87-17.49 48.52-40.41c-12.89-6.85-29.78-11.07-48.32-11.22s-35.36 3.78-48.35 10.37z" fill="#f58523"/>
 <path d="m102.94 156.03c1.85 0 3.36-1 3.37-2.29s-1.48-2.32-3.32-2.34-3.36 1-3.37 2.29 1.48 2.32 3.32 2.34z" fill="#171717"/>
 <path d="m118.01 156.15c1.85 0 3.35-1 3.37-2.29s-1.48-2.36-3.33-2.36-3.35 1-3.36 2.29 1.48 2.34 3.32 2.36z" fill="#171717"/>
 <path d="m129.59 164.61a1 1 0 0 0-1 0.9c0 2.5-1.36 4.87-3.62 6.85a20.94 20.94 0 0 1-8.86 4.35 23.3 23.3 0 0 1-5.72 0.66l0.18-19.42a0.92 0.92 0 0 0-1.83 0l-0.18 19.34a23.78 23.78 0 0 1-9.53-2.91c-3.24-1.84-5.59-4.36-6.35-7.09a7.46 7.46 0 0 1-0.28-2 0.94 0.94 0 0 0-1-0.92 1 1 0 0 0-1 0.9 9 9 0 0 0 0.34 2.53c0.94 3.33 3.68 6.16 7.22 8.18a25.78 25.78 0 0 0 18.65 2.52 23 23 0 0 0 9.72-4.79c2.54-2.22 4.21-5 4.24-8.15a0.94 0.94 0 0 0-0.98-0.95z" fill="#171717"/>
 <path d="m118.57 57.22a23.74 23.74 0 0 0 4.35-8.89c1.21-5.14 1-11.38 0.38-13.51a4.21 4.21 0 0 1-3.45-4.74c0.25-4.23 3.76-4.89 6-5a4.83 4.83 0 0 1 1 9.53s3.66 11.11-3.85 23.89c0.04 0-2.96 3-4.43-1.28z" fill="#631c00"/>
 <path d="m102.43 57.22a23.74 23.74 0 0 1-4.35-8.89c-1.21-5.14-1-11.38-0.38-13.51a4.21 4.21 0 0 0 3.45-4.74c-0.25-4.23-3.76-4.89-6-5a4.83 4.83 0 0 0-1 9.53s-3.65 11.15 3.81 23.89c0 0 3 3 4.47-1.28z" fill="#631c00"/>
 <path d="m122.28 102.37c5.73-6.37 16.87-1.3 18.33 3.83-6.31-2.85-11.22-6.36-17.72-3.15 0 0-1.1-0.12-0.61-0.68z" fill="#171717"/>
 <path d="m125.5 92.78c0.39 0 0.72 0.09 0.73 0.27l0.64 7.16c0 0.18-0.29 0.36-0.68 0.4-0.39 0-0.72-0.09-0.74-0.28l-0.63-7.15c0-0.19 0.29-0.37 0.68-0.4zm6.27 0.43c0.39 0 0.69 0.24 0.67 0.42l-0.86 7.13c0 0.19-0.36 0.3-0.75 0.25-0.39 0-0.69-0.24-0.67-0.42l0.87-7.13c0-0.19 0.35-0.3 0.74-0.25zm6.68 1.71c0.36 0.17 0.58 0.45 0.5 0.61l-3.08 6.49c-0.08 0.17-0.44 0.17-0.79 0-0.35-0.16-0.58-0.44-0.49-0.61l3.08-6.49c0.08-0.16 0.43-0.17 0.78 0z" fill="#171717" fill-rule="evenodd"/>
 <path d="m98.72 102.37c-5.73-6.37-16.87-1.3-18.33 3.83 6.31-2.85 11.22-6.36 17.72-3.15 0 0 1.1-0.12 0.61-0.68z" fill="#171717"/>
 <path d="m95.5 92.78c0.39 0 0.7 0.21 0.68 0.4l-0.63 7.15c0 0.19-0.35 0.31-0.74 0.28-0.39 0-0.7-0.22-0.68-0.4l0.64-7.16c0-0.18 0.34-0.31 0.73-0.27zm-6.27 0.43c0.39-0.05 0.72 0.06 0.74 0.25l0.87 7.13c0 0.18-0.28 0.37-0.67 0.42-0.39 0-0.72-0.06-0.75-0.25l-0.86-7.13c0-0.18 0.28-0.37 0.67-0.42zm-6.73 1.71c0.35-0.17 0.7-0.16 0.78 0l3.08 6.49c0.09 0.17-0.14 0.45-0.49 0.61-0.35 0.17-0.71 0.17-0.79 0l-3.07-6.52c-0.08-0.16 0.14-0.44 0.5-0.61z" fill="#171717" fill-rule="evenodd"/>
 <ellipse cx="133.13" cy="157.15" rx="6.64" ry="5.16" fill="#ffb0d2"/>
 <ellipse cx="87.87" cy="157.15" rx="6.64" ry="5.16" fill="#ffb0d2"/>
 <path d="m95.79 60.59c0.42 4.92 2.7 7.52 3.28 8.77a8.59 8.59 0 0 0 3.35-5.3c2.27 12 12.39 17.24 15.11 15.86-3-1.54-1.73-6-0.36-8.15a11 11 0 0 0 1.17-8.42c0.67 2.09 3.86 3.11 6.11 2.72-1.4-0.82-0.64-4.44-0.84-9.23a7.48 7.48 0 0 0-0.42-2.05 27.37 27.37 0 0 0-13.55-3.62 28.58 28.58 0 0 0-13 3.52 15.12 15.12 0 0 0-0.85 5.9z" fill="#492d2c"/>
 <path d="m110.5 221a110.5 110.5 0 1 1 110.5-110.5 110.63 110.63 0 0 1-110.5 110.5zm0-220a109.5 109.5 0 1 0 109.5 109.5 109.62 109.62 0 0 0-109.5-109.5z" fill="#fff"/>
</svg>
