<svg width="220mm" height="220mm" version="1.1" viewBox="0 0 220 220" xmlns="http://www.w3.org/2000/svg">
 <circle cx="110" cy="110" r="110" stroke="var(--color-background-border)" strokeWidth='1' fill="var(--color-background)"/>
 <path d="m164.48 178.41a6.81 6.81 0 0 1-0.14-13.61c-3.3-11-7.12-21-11.41-27.55a6.71 6.71 0 0 1-2.07 0.35 6.8 6.8 0 0 1-6.81-6.81 6.55 6.55 0 0 1 0.27-1.78c-7.37-3.88-18.93-5.82-30.85-6a6.83 6.83 0 0 1-3.47 1 6.72 6.72 0 0 1-3.3-0.88c-3.46 0.15-6.9 0.43-10.21 0.87a6.88 6.88 0 1 1-2 0.29c-7.3 1.11-13.86 3-18.62 5.45a7.32 7.32 0 0 1 0.1 1 6.8 6.8 0 0 1-6.81 6.81 6.93 6.93 0 0 1-1.72-0.24c-4.6 6.52-8.63 16.47-12 27.44h0.15a6.81 6.81 0 1 1-3.7 12.51c-2 7.78-3.75 15.58-5.16 22.61 0.91 0.64 1.83 1.28 2.76 1.9a6.69 6.69 0 0 1-0.67-2.32v-0.69-0.7a6.81 6.81 0 1 1 6.86 7.5c2.42 1.38 4.88 2.68 7.41 3.87a6.79 6.79 0 0 1 12.91 2.97 6.54 6.54 0 0 1-0.36 2.08 109.78 109.78 0 0 0 18.81 4.4 6.8 6.8 0 1 1 2.31 0.29q5.07 0.61 10.27 0.75a6.61 6.61 0 0 1 6 0q5.21-0.14 10.27-0.75a6.82 6.82 0 1 1 2.31-0.29 109.78 109.78 0 0 0 18.81-4.4 6.54 6.54 0 0 1-0.36-2.08 6.79 6.79 0 0 1 12.94-2.93c2.53-1.19 5-2.49 7.41-3.87a6.87 6.87 0 1 1 6.16-3.77c0.8-0.53 1.58-1.08 2.37-1.62-1.43-7.14-3.13-15-5.09-22.72a6.73 6.73 0 0 1-3.37 0.92zm-13.62-27.22a6.81 6.81 0 0 1 0.7 13.58h-0.7-0.7a6.81 6.81 0 0 1 0.7-13.58zm-13.62-13.6a6.81 6.81 0 1 1-6.81 6.81 6.8 6.8 0 0 1 6.81-6.81zm0 27.2a6.81 6.81 0 1 1-6.81 6.81 6.81 6.81 0 0 1 6.81-6.81zm-12.92 0h-0.7-0.7a6.81 6.81 0 1 1 1.4 0zm-0.7-40.78a6.81 6.81 0 1 1-6.81 6.8 6.81 6.81 0 0 1 6.81-6.81zm-20.39 19.69a6.82 6.82 0 1 1 0 1.39 6.06 6.06 0 0 1 0-1.39zm13.58 27.9a6.81 6.81 0 0 1-13.58 0.69 6.06 6.06 0 0 1 0-1.39 6.81 6.81 0 0 1 13.58 0.7zm-20.43-20.41a6.81 6.81 0 0 1 0.7 13.58h-0.7-0.69a6.81 6.81 0 0 1 0.69-13.58zm-13.62-13.6a6.81 6.81 0 1 1-6.76 6.81 6.8 6.8 0 0 1 6.76-6.81zm6.81 34a6.81 6.81 0 1 1-6.81-6.81 6.81 6.81 0 0 1 6.81 6.82zm-20.43-20.41a6.81 6.81 0 0 1 0.7 13.58h-0.7-0.69a6.81 6.81 0 0 1 0.69-13.58zm0 40.82a6.81 6.81 0 1 1 6.86-6.8 6.81 6.81 0 0 1-6.86 6.8zm13.62 13.6a6.81 6.81 0 1 1 6.81-6.81 6.81 6.81 0 0 1-6.81 6.82zm13.62-13.6a6.81 6.81 0 1 1 6.81-6.81 6.81 6.81 0 0 1-6.81 6.81zm13.62 13.61a6.8 6.8 0 0 1-6.77-6.12 6.06 6.06 0 0 1 0-1.39 6.81 6.81 0 1 1 6.77 7.51zm13.62-13.61a6.81 6.81 0 1 1 6.81-6.81 6.81 6.81 0 0 1-6.81 6.81zm13.62 13.6a6.81 6.81 0 1 1 6.81-6.81 6.81 6.81 0 0 1-6.81 6.82zm13.62-13.6a6.81 6.81 0 1 1 6.81-6.81 6.81 6.81 0 0 1-6.81 6.81z" fill="#fbae17"/>
 <path d="m150.86 137.6a6.71 6.71 0 0 0 2.07-0.35 27.44 27.44 0 0 0-4.08-5.11 20.42 20.42 0 0 0-4.53-3.13 6.55 6.55 0 0 0-0.27 1.78 6.8 6.8 0 0 0 6.81 6.81z" fill="#fdffe9"/>
 <path d="m123.62 151.19a6.81 6.81 0 0 0-0.7 13.58h0.7 0.7a6.81 6.81 0 0 0-0.7-13.58z" fill="#fdffe9"/>
 <path d="m150.86 178.39a6.81 6.81 0 1 0 6.81 6.81 6.81 6.81 0 0 0-6.81-6.81z" fill="#fdffe9"/>
 <path d="m130.43 212.4a6.81 6.81 0 1 0-7.14 6.77c0.77-0.09 1.54-0.18 2.31-0.29a6.79 6.79 0 0 0 4.83-6.48z" fill="#fdffe9"/>
 <path d="m89.57 130.79a6.81 6.81 0 1 0 6.92-6.79l-2 0.29a6.79 6.79 0 0 0-4.92 6.5z" fill="#fdffe9"/>
 <path d="m68.45 164.77h0.69 0.7a6.82 6.82 0 1 0-1.39 0z" fill="#fdffe9"/>
 <path d="m96.38 178.39a6.81 6.81 0 1 0 6.81 6.81 6.81 6.81 0 0 0-6.81-6.81z" fill="#fdffe9"/>
 <path d="m69.14 205.59a6.77 6.77 0 0 0-6.12 3.88 109.68 109.68 0 0 0 12.57 5 6.54 6.54 0 0 0 0.36-2.08 6.81 6.81 0 0 0-6.81-6.8z" fill="#fdffe9"/>
 <path d="m123.62 137.6a6.81 6.81 0 1 0-6.81-6.81 6.8 6.8 0 0 0 6.81 6.81z" fill="#fdffe9"/>
 <path d="m150.16 164.77h0.7 0.7a6.81 6.81 0 1 0-1.4 0z" fill="#fdffe9"/>
 <path d="m123.62 178.39a6.81 6.81 0 1 0 6.81 6.81 6.81 6.81 0 0 0-6.81-6.81z" fill="#fdffe9"/>
 <path d="m150.86 205.59a6.81 6.81 0 0 0-6.81 6.81 6.54 6.54 0 0 0 0.36 2.08 109.68 109.68 0 0 0 12.57-5 6.77 6.77 0 0 0-6.12-3.89z" fill="#fdffe9"/>
 <path d="m76 130.79a7.32 7.32 0 0 0-0.1-1 22.93 22.93 0 0 0-3.76 2.4 25.47 25.47 0 0 0-4.67 5.22 6.93 6.93 0 0 0 1.72 0.24 6.8 6.8 0 0 0 6.81-6.86z" fill="#fdffe9"/>
 <path d="m95.69 164.77h0.69 0.7a6.82 6.82 0 1 0-1.39 0z" fill="#fdffe9"/>
 <path d="m69.14 178.39a6.81 6.81 0 1 0 6.86 6.81 6.81 6.81 0 0 0-6.86-6.81z" fill="#fdffe9"/>
 <path d="m103.19 212.4a6.81 6.81 0 1 0-8.79 6.48c0.77 0.11 1.54 0.2 2.31 0.29a6.79 6.79 0 0 0 6.48-6.77z" fill="#fdffe9"/>
 <path d="m157.67 171.6a6.81 6.81 0 0 0 6.81 6.81 6.73 6.73 0 0 0 3.35-0.92c-1.09-4.29-2.25-8.56-3.49-12.69a6.8 6.8 0 0 0-6.67 6.8z" fill="#fdffe9"/>
 <path d="m113.47 123q-3.39 0-6.77 0.1a6.72 6.72 0 0 0 3.3 0.88 6.83 6.83 0 0 0 3.47-0.98z" fill="#fdffe9"/>
 <path d="m137.24 151.21a6.81 6.81 0 1 0-6.81-6.81 6.81 6.81 0 0 0 6.81 6.81z" fill="#fdffe9"/>
 <path d="m110 164.79a6.8 6.8 0 0 0-6.77 6.11 6.06 6.06 0 0 0 0 1.39 6.81 6.81 0 1 0 6.77-7.5z" fill="#fdffe9"/>
 <path d="m137.24 192a6.81 6.81 0 1 0 6.81 6.81 6.81 6.81 0 0 0-6.81-6.81z" fill="#fdffe9"/>
 <path d="m107 219.92c1 0 2 0.08 3 0.08s2-0.05 3-0.08a6.61 6.61 0 0 0-6 0z" fill="#fdffe9"/>
 <path d="m82.76 151.21a6.81 6.81 0 1 0-6.76-6.81 6.81 6.81 0 0 0 6.76 6.81z" fill="#fdffe9"/>
 <path d="m62.33 171.6a6.81 6.81 0 0 0-6.81-6.81h-0.15c-1.27 4.07-2.45 8.28-3.55 12.5a6.79 6.79 0 0 0 10.51-5.7z" fill="#fdffe9"/>
 <path d="m82.76 192a6.81 6.81 0 1 0 6.81 6.81 6.81 6.81 0 0 0-6.81-6.81z" fill="#fdffe9"/>
 <path d="m164.48 192a6.81 6.81 0 0 0-0.09 13.61c2.09-1.2 4.15-2.45 6.16-3.77a6.76 6.76 0 0 0-6.07-9.84z" fill="#fdffe9"/>
 <path d="m110 151.21a6.81 6.81 0 1 0-6.77-7.51 6.06 6.06 0 0 0 0 1.39 6.8 6.8 0 0 0 6.77 6.12z" fill="#fdffe9"/>
 <path d="m137.24 178.41a6.81 6.81 0 1 0-6.81-6.81 6.81 6.81 0 0 0 6.81 6.81z" fill="#fdffe9"/>
 <path d="m110 192a6.8 6.8 0 0 0-6.77 6.11 6.06 6.06 0 0 0 0 1.39 6.81 6.81 0 1 0 6.77-7.5z" fill="#fdffe9"/>
 <path d="m82.76 164.79a6.81 6.81 0 1 0 6.81 6.81 6.81 6.81 0 0 0-6.81-6.81z" fill="#fdffe9"/>
 <path d="m62.33 198.8a6.81 6.81 0 0 0-13.58-0.7v0.7 0.69a6.69 6.69 0 0 0 0.67 2.32c2 1.33 4.09 2.59 6.19 3.79a6.8 6.8 0 0 0 6.72-6.8z" fill="#fdffe9"/>
 <path d="m64.46 41.46c0.35 0.66 0.67 1.34 1 2-0.33-0.66-0.65-1.34-1-2z" fill="#e97069"/>
 <path d="m129.51 71.45c25.39-28.7 59.7-5.8 66.38 9.58 1.08 2.48-6.2 8.9-6.2 8.9s2.15 8.55 1 11.08c-0.74 1.57-8.07 3.49-8.07 3.49s-2.4 8.28-4.81 8.79c-13.12 2.75-49.29-5.48-48.08-23.72s-25.62 10.59-0.22-18.12z" fill="#adafb3"/>
 <path d="m139.49 90.11c0.74 8.41 9.7 14.5 20 13.61s18.09-8.44 17.36-16.85-9.69-14.5-20-13.61-18.09 8.44-17.36 16.85z" fill="#fdffe9"/>
 <path d="m91.28 74.83c-20.38-32.46-58-15.45-67-1.37-1.48 2.29 4.66 9.8 4.66 9.8s-3.76 8.19-2.74 10.77c0.8 2.05 7.38 4.76 7.38 4.76s1.32 8 3.32 9.45c10.73 8 49.52 2.62 51.31-15.56s23.46 14.61 3.07-17.85z" fill="#adafb3"/>
 <path d="m78.39 91.61c-2.09 8.18-11.92 12.73-22 10.17s-16.39-11.28-14.34-19.46 11.91-12.73 22-10.16 16.43 11.27 14.34 19.45z" fill="#fdffe9"/>
 <path d="m55.05 103.54c-6.07 26.65 16 48.24 44.3 53.8s58-7.51 64.07-34.16-15.31-56.68-43.59-62.18-58.72 15.88-64.78 42.54z" fill="#b7b9bd"/>
 <path d="m117.09 60.88c-3.89-1.39-7.82 1.32-8 4.32-0.88 0-7.17-0.53-9.94-3.49s-4.35-5.66-5.59-5.51c1-1.34 3.4-2.23 4.93-1.22a10.49 10.49 0 0 1-4-6c-0.43-2-2.17-5.54-4.72-5.06 0.75-2.2 9.34-3.71 17.25 2.86a7.43 7.43 0 0 1-1.07-5 17.74 17.74 0 0 1 6.7 4c3 3.01 5.35 8.82 4.44 15.1z" fill="#adafb3" fill-rule="evenodd"/>
 <path d="m120.69 93c0.23 4.39 1.86 11.51 7.69 10.84 4.82-0.55 8.29-5.79 8.31-10.4a1.0254 1.0254 0 0 0-2.05-0.06c0 3.43-2.28 7.18-5.62 8.28-4.84 1.6-6.11-5.32-6.29-8.6-0.07-1.31-2.11-1.38-2-0.06z" fill="#171717"/>
 <path d="m98.68 93c-0.23 4.39-1.86 11.51-7.69 10.84-4.82-0.55-8.28-5.79-8.3-10.4a1.0004 1.0004 0 0 1 2-0.06c0 3.43 2.28 7.18 5.62 8.28 4.84 1.6 6.12-5.32 6.29-8.6 0.07-1.31 2.11-1.38 2-0.06z" fill="#171717"/>
 <ellipse cx="136.91" cy="119.76" rx="7.94" ry="6.17" fill="#ffb0d2"/>
 <ellipse cx="82.79" cy="119.76" rx="7.94" ry="6.17" fill="#ffb0d2"/>
 <path d="m110.36 144.33a14.45 14.45 0 0 1-7.79-2.26c-4.2-2.72-6.26-7.43-5.64-12.93a1.0066 1.0066 0 0 1 2 0.23c-0.54 4.78 1.15 8.69 4.74 11a12.33 12.33 0 0 0 12.71 0.35c3.69-2.17 5.51-6.23 5.14-11.41a1 1 0 0 1 0.93-1.07 1 1 0 0 1 1.07 0.92c0.42 6-1.75 10.7-6.12 13.28a13.81 13.81 0 0 1-7.04 1.89z" fill="#171717"/>
 <path d="m101.08 120.75c-0.5 6.6 3.1 7.94 8.5 8.35s10.55-0.27 11-6.87-3.85-16.61-9.24-17-9.76 8.93-10.26 15.52z" fill="#171717"/>
 <path d="m110.15 143.26a1 1 0 0 1-1-1l0.25-14.26a1 1 0 0 1 2 0l-0.25 14.25a1 1 0 0 1-1 1.01z" fill="#171717"/>
</svg>
