<svg width="220mm" height="220mm" version="1.1" viewBox="0 0 220 220" xmlns="http://www.w3.org/2000/svg">
 <circle cx="110" cy="110" r="110" stroke="var(--color-background-border)" strokeWidth='1' fill="var(--color-background)"/>
 <path d="m110 220.5a110.5 110.5 0 1 1 110.5-110.5 110.63 110.63 0 0 1-110.5 110.5zm0-220a109.5 109.5 0 1 0 109.5 109.5 109.62 109.62 0 0 0-109.5-109.5z" fill="#fff"/>
 <path d="m162.51 173.82c-2.54-9.75-5.38-18.64-8.49-25.42a39.74 39.74 0 0 0-5.76-9.54 23.41 23.41 0 0 0-7.38-5.32 42.86 42.86 0 0 0-7-2.65c-13.9-4-33.1-3.61-47 0.69a46.05 46.05 0 0 0-8.1 3.32 24.9 24.9 0 0 0-5.62 4 33.46 33.46 0 0 0-5.86 8.47c-3.5 6.74-6.64 15.91-9.41 26-1.42 5.2-2.75 10.64-4 16.13-1 4.5-1.91 9-2.77 13.45a109.89 109.89 0 0 0 117.74 0c-0.82-4.33-1.67-8.69-2.61-13-1.13-5.57-2.39-10.95-3.74-16.13z" fill="#fbaa0d"/>
 <path d="m48 92s-16.47-8.12-16-17.88c0.23-4.63 4.14-8.74 7.37-10 11.74-4.43 25.09 2.76 25.09 2.76z" fill="#ffbd17"/>
 <path d="m48.67 88s-6.67-6.11-7.57-8.9a6 6 0 0 1 2.73-6c4.5-2.78 13.47-0.14 13.47-0.14z" fill="#492d2c"/>
 <path d="m174 92s15.11-7.57 13.92-17.27c-0.56-4.6-4.76-8.41-8.08-9.39-12-3.56-24.81 4.58-24.81 4.58z" fill="#ffbd17"/>
 <path d="m172.93 87.84s6.2-6.59 6.9-9.43a6 6 0 0 0-3.17-5.84c-4.69-2.44-13.44 0.85-13.44 0.85z" fill="#492d2c"/>
 <path d="m175.89 102c0 35.73-29.21 81.29-64.94 81.29-34.8 0-65.69-47.09-65.69-82.83s38-51.79 65-51.79c32.42 0.02 65.63 17.61 65.63 53.33z" fill="#ffbd17"/>
 <path d="m134.27 160.16c0 13-8.32 23.15-22.26 23.15-13.58 0-22.26-10.12-22.26-23.15s2.64-25.92 22-25.92c19.5 0 22.52 12.9 22.52 25.92z" fill="#ffe6a8"/>
 <path d="m136.64 121.62c0 5.73-2.85 14-6.12 20.37-4.38 8.59-32.3 8.79-36.21 1.11-4.87-9.57-9-14.88-9-22.88-0.11-12 12.32-14.32 25.65-14.32 20.12 0 25.65 3.69 25.68 15.72z" fill="#6b4241"/>
 <path d="m130.09 143c-2.74 5.16-8 11.07-17.86 11.09s-14.87-5.4-17.92-11c-2.27-4.18 8-6.2 17.88-6.22s20.14 1.96 17.9 6.13z" fill="#231f20"/>
 <path d="m131 164a0.5 0.5 0 0 0-0.66-0.05c-3.18 2.41-6.45 4.1-7.93 4.1a9.79 9.79 0 0 1-6.55-2.25 12.57 12.57 0 0 1-2.16-2l-0.63-9.81a0.45 0.45 0 0 0-0.17-0.34 0.41 0.41 0 0 0-0.36-0.12l-1 0.08a0.5 0.5 0 0 0-0.46 0.52v0.28a0.13 0.13 0 0 0 0 0.06l-0.58 9.82a11.67 11.67 0 0 1-8.73 4.31c-4.17-0.09-7.1-3.19-8.85-5.05-0.38-0.4-0.7-0.73-1-1a0.5 0.5 0 0 0-0.78 0.59c0.14 0.3 3.69 7.5 10.57 7.5a14.34 14.34 0 0 0 10.35-4.91 14.84 14.84 0 0 0 10.27 4.39c4.39 0 8.46-5.25 8.63-5.47a0.5 0.5 0 0 0 0.04-0.65z" fill="#171717"/>
 <path d="m110 73.12c2.9-1 2.42-4.35 2.9-9.18s1-10.64-1.45-7.74a18.21 18.21 0 0 0-4.35 11.12c-0.02 4.83-0.02 6.76 2.9 5.8z" fill="#492d2c"/>
 <path d="m131 62.48c2.9-1 2.41-4.34 2.9-9.18 0-0.44 0.09-0.89 0.13-1.34-1.55-0.44-3.12-0.83-4.7-1.18a15.77 15.77 0 0 0-1.23 5.91c0.01 4.83 0.01 6.76 2.9 5.79z" fill="#492d2c"/>
 <path d="m109 53.79a6.83 6.83 0 0 0 4.43-5q-1.62-0.06-3.24-0.06c-2.37 0-4.84 0.13-7.35 0.38a28.72 28.72 0 0 0-2.06 3.75c-1.91 4.31 1.47 3.34 8.22 0.93z" fill="#492d2c"/>
 <path d="m150.58 72.64c-4.35 0-9.18 6.76-11.11 11.11s1.45 3.38 8.21 1 4.84-12.11 2.9-12.11z" fill="#492d2c"/>
 <path d="m85.82 76.5c-4.35 0-9.19 6.77-11.12 11.12s1.45 3.38 8.22 1 4.83-12.12 2.9-12.12z" fill="#492d2c"/>
 <path d="m166 97.92c5.13 0.36-2-6.16-1-9.23s-8.64-8.86-9.54-6.19c-0.69 2 0.66 4.1 0 7.52s5.4 7.54 10.54 7.9z" fill="#492d2c"/>
 <path d="m115.78 61.52c0.49 3.38-0.48 6.28 4.35 4.83s3.87-8.7 4.35-11.6c0.29-1.73-1-4.13-2.54-5.29-1-0.12-1.91-0.24-2.87-0.33a2.64 2.64 0 0 0-0.39 0.31c-3.38 3.38-3.38 8.7-2.9 12.08z" fill="#492d2c"/>
 <path d="m68 73.38c0.7 4.17 1.39 9.73 8.34 2.78 4.79-4.79 4.62-16.19 2-20.75a73.08 73.08 0 0 0-7.45 3.75c-1.89 4.71-3.35 11.28-2.89 14.22z" fill="#492d2c"/>
 <path d="m156.5 120.14c0.4 4.43 7.2 14.15 10.84 16.28l0.64 0.38a99.65 99.65 0 0 0 4.19-11.28c-5.25-7.22-16.29-12.28-15.67-5.38z" fill="#492d2c"/>
 <path d="m59.09 124.22c-2.06 2.06-4.09 7.66-5.06 12.46a106.06 106.06 0 0 0 5.82 10.87 22.11 22.11 0 0 0 2-1.79c6.97-6.95 3.49-27.76-2.76-21.54z" fill="#492d2c"/>
 <path d="m58.75 87.13c-4.83 0.49-9.18 3.39-7.73 9.67s4.83 1 7.73-2.42 1.92-7.44 0-7.25z" fill="#492d2c"/>
 <path d="m99.35 76c7.73-8.22 5.22-9.49 2.9-10.15-3.38-1-11.12 8.21-12.08 12.56s1.45 5.82 9.18-2.41z" fill="#492d2c"/>
 <path d="m108.53 79.4c-1.45 6.28-1.45 16.92 3.39 13s8.7-12.56 7.73-15c-1.26-3.07-9.65-4.28-11.12 2z" fill="#492d2c"/>
 <path d="m101.28 79.89c-1.93-1.46-7.25 2.9-5.31 6.28s1 6.28 5.8 4.35 3.38-7.73-0.49-10.63z" fill="#492d2c"/>
 <path d="m173.78 97.28c0.48 1.94-6.28 10.15-7.25 13.54s1.94 1.93 5.32 1.93a6.43 6.43 0 0 0 3.39-1.29 72.73 72.73 0 0 0 0.65-9.44 55.74 55.74 0 0 0-0.37-6.43c-1.28-0.39-2.16 0.01-1.74 1.69z" fill="#492d2c"/>
 <path d="m56.34 112.27c0.48-4.84-8.43-10-7.25-5.32 0.22 0.9-1.12 3.16-2.72 5.66a88 88 0 0 0 2.2 9.54c3.28-1.15 7.34-5.68 7.77-9.88z" fill="#492d2c"/>
 <path d="m96.45 63.45c3.87-3.86-0.82-8.34-4.35-6.76-4.35 1.93-8.7 6.76-7.73 11.11s8.21-0.48 12.08-4.35z" fill="#492d2c"/>
 <path d="m126.17 73.12c-0.48 1.93 0.49 7.25 3.87 7.73s4.83-8.21 1.93-11.6c-1.57-1.83-5.31 1.94-5.8 3.87z" fill="#492d2c"/>
 <path d="m139 60.19c0.75 3.75 8.25 12.75 15 9 2-1.13 2.43-3.84 1.74-6.88a66.11 66.11 0 0 0-16.74-8.74 14.41 14.41 0 0 0 0 6.62z" fill="#492d2c"/>
 <path d="m128.81 106.7a8.27 8.27 0 0 1 1.59-7.8 10.11 10.11 0 0 1 15.61 0 8.3 8.3 0 0 1 1.6 7.81c-3.47-9.71-15.34-9.77-18.8-0.01z" fill="#171717"/>
 <path d="m91.2 106.7c-3.46-9.76-15.33-9.74-18.8 0a8.29 8.29 0 0 1 1.59-7.81 10.12 10.12 0 0 1 15.62 0 8.29 8.29 0 0 1 1.59 7.81z" fill="#171717"/>
 <ellipse transform="rotate(-89.93)" cx="-117.82" cy="146.66" rx="5.82" ry="7.49" fill="#f072ab"/>
 <ellipse transform="rotate(-89.93)" cx="-117.91" cy="73.61" rx="5.82" ry="7.49" fill="#f072ab"/>
 <path d="m127.73 153.12 30.92-4.69-30.59 6.57a0.94 0.94 0 0 1-1.1-0.72 0.92 0.92 0 0 1 0.71-1.1z" fill="#f4f0df"/>
 <path d="m128.18 162.46 26.1 8.83-26.63-7a0.93 0.93 0 1 1 0.47-1.79z" fill="#f4f0df"/>
 <path d="m127.77 157.86 47 2.17-47.09-0.32a0.93 0.93 0 1 1 0-1.85z" fill="#f4f0df"/>
 <path d="m121.94 157.42a1.11 1.11 0 0 0 0.07-2.21 1.11 1.11 0 0 0-0.07 2.21z" fill="#f58523"/>
 <path d="m126.1 160.13a1.11 1.11 0 0 0 0.07-2.21 1.11 1.11 0 0 0-0.07 2.21z" fill="#f58523"/>
 <path d="m118.24 159.89a1.11 1.11 0 0 0 0.07-2.21 1.11 1.11 0 0 0-0.07 2.21z" fill="#f58523"/>
 <path d="m121.78 162.7a1.11 1.11 0 0 0 0.07-2.21 1.11 1.11 0 0 0-0.07 2.21z" fill="#f58523"/>
 <path d="m92.28 153.12-30.92-4.69 30.64 6.57a0.93 0.93 0 0 0 0.38-1.82z" fill="#f4f0df"/>
 <path d="m91.83 162.46-26.1 8.83 26.63-7a0.93 0.93 0 0 0-0.47-1.79z" fill="#f4f0df"/>
 <path d="m92.24 157.86-47 2.17 47.08-0.32a0.91 0.91 0 0 0 0.92-0.93 0.93 0.93 0 0 0-0.93-0.92z" fill="#f4f0df"/>
 <path d="m98.06 157.42a1.11 1.11 0 0 1-0.06-2.21 1.11 1.11 0 0 1 0.06 2.21z" fill="#f58523"/>
 <path d="m93.91 160.13a1.11 1.11 0 0 1-0.07-2.21 1.11 1.11 0 0 1 0.07 2.21z" fill="#f58523"/>
 <path d="m101.77 159.89a1.11 1.11 0 0 1-0.07-2.21 1.11 1.11 0 0 1 0.07 2.21z" fill="#f58523"/>
 <path d="m98.23 162.7a1.11 1.11 0 0 1-0.07-2.21 1.11 1.11 0 0 1 0.07 2.21z" fill="#f58523"/>
</svg>
