<svg width="221mm" height="221mm" version="1.1" viewBox="0 0 221 221" xmlns="http://www.w3.org/2000/svg">
 <circle cx="110" cy="110" r="110" stroke="var(--color-background-border)" strokeWidth='1' fill="var(--color-background)"/>
 <path d="m110.5 221a110.5 110.5 0 1 1 110.5-110.5 110.63 110.63 0 0 1-110.5 110.5zm0-220a109.5 109.5 0 1 0 109.5 109.5 109.62 109.62 0 0 0-109.5-109.5z" fill="#fff"/>
 <path d="m109.4 149.19 14.55 8.65 14.55-8.65 10.38 6.18a21.09 21.09 0 0 0-2.44-2.76c-3.54-3.26-9.78-5.42-17.14-6.6l-5.34 3.18-7.12-4.24a105.92 105.92 0 0 0-16.51 1l-5.46 3.26-2.8-1.71a47.57 47.57 0 0 0-9.15 3.21l11.94 7.1z" fill="#fdffe9"/>
 <path d="m80.31 178.28 14.55 8.65 14.54-8.65 14.55 8.65 14.55-8.65 14.55 8.65 7.73-4.6c-0.77-2.48-1.56-4.9-2.38-7.24l-5.35 3.19-14.55-8.66-14.54 8.66-14.55-8.66-14.54 8.66-14.55-8.66-14.54 8.66-0.17-0.1c-0.77 2.38-1.52 4.83-2.22 7.33l2.39 1.42z" fill="#fdffe9"/>
 <path d="m80.31 192.82 14.55 8.68 14.54-8.66 14.55 8.66 14.55-8.68 14.54 8.68 11.21-6.68c-0.64-2.49-1.31-5-2-7.46l-9.2 5.48-14.55-8.68-14.54 8.66-14.55-8.66-14.54 8.66-14.55-8.66-14.54 8.66-3.76-2.24c-0.65 2.52-1.27 5-1.85 7.56l5.61 3.34z" fill="#fdffe9"/>
 <path d="m98.37 219.82a110.39 110.39 0 0 0 12.13 0.68c3.46 0 6.87-0.18 10.25-0.49l-11.35-6.76z" fill="#fdffe9"/>
 <path d="m76.93 215.26a108.89 108.89 0 0 0 12 3.11l-8.59-5.12z" fill="#fdffe9"/>
 <path d="m165.5 199.93-12.49 7.44-14.51-8.66-14.54 8.66-14.55-8.66-14.54 8.66-14.55-8.66-14.54 8.66-6.77-4c-0.29 1.32-0.57 2.64-0.83 3.94a110.05 110.05 0 0 0 12.57 5.78l9.57-5.69 14.55 8.65 14.54-8.65 14.55 8.65 14.54-8.68 10.45 6.21a110 110 0 0 0 17.8-8.54q-0.6-2.54-1.25-5.11z" fill="#fdffe9"/>
 <path d="m128.96 218.93a110.48 110.48 0 0 0 13.67-3.21l-4.13-2.47z" fill="#fdffe9"/>
 <path d="m94.86 172.39 14.54-8.66 14.55 8.66 14.55-8.66 14.55 8.66 3.56-2.12c-1-2.45-1.94-4.77-3-6.89l-0.59 0.35-14.52-8.66-14.54 8.66-14.55-8.66-14.54 8.66-14.55-8.66-6.16 3.67a67.58 67.58 0 0 0-6 12.22l12.14-7.23z" fill="#fdffe9"/>
 <path d="m116.83 144.95-3.38-2a89.27 89.27 0 0 1 18.42 1.55l-2.58 1.54-5.34 3.18z" fill="#ec1b34"/>
 <path d="m94.86 149.19 5.46-3.26 4.2-2.5a81.34 81.34 0 0 0-14.75 2.73l2.3 1.37z" fill="#ec1b34"/>
 <path d="m80.31 155.07 14.55 8.66 14.54-8.66 14.55 8.66 14.55-8.66 14.55 8.66 0.59-0.35 0.73-0.43a65.73 65.73 0 0 0-3.24-6.25l-2.25-1.33-10.38-6.18-14.54 8.65-14.55-8.65-14.54 8.65-11.94-7.1-1.75-1.05a19 19 0 0 0-2.46 1.7 28.8 28.8 0 0 0-6.38 8.43l1.82-1.08z" fill="#ec1b34"/>
 <path d="m65.77 178.28 14.54-8.66 14.55 8.66 14.54-8.66 14.55 8.66 14.55-8.66 14.55 8.66 5.35-3.19 0.57-0.34c-0.56-1.66-1.14-3.29-1.73-4.86l-0.63 0.38-3.56 2.12-14.55-8.66-14.54 8.66-14.55-8.66-14.54 8.66-14.55-8.66-12.14 7.23-1 0.58c-0.74 2-1.45 4.15-2.13 6.32l0.53 0.32z" fill="#ec1b34"/>
 <path d="m65.77 192.82 14.54-8.66 14.55 8.66 14.54-8.66 14.55 8.66 14.55-8.66 14.55 8.66 9.2-5.48 0.48-0.28q-0.71-2.53-1.45-5l-0.5 0.3-7.73 4.6-14.55-8.68-14.54 8.65-14.55-8.65-14.54 8.65-14.55-8.65-14.54 8.65-2.4-1.43-0.48-0.28c-0.46 1.69-0.9 3.38-1.33 5.09l0.44 0.26z" fill="#ec1b34"/>
 <path d="m164.7 194.5-0.45 0.26-11.21 6.74-14.54-8.68-14.55 8.68-14.55-8.66-14.54 8.66-14.55-8.66-14.54 8.66-5.61-3.34-0.4-0.24c-0.4 1.76-0.78 3.49-1.14 5.21l0.38 0.23 6.77 4 14.54-8.66 14.55 8.66 14.54-8.66 14.55 8.66 14.55-8.65 14.55 8.66 12.45-7.44 0.42-0.25q-0.57-2.56-1.22-5.18z" fill="#ec1b34"/>
 <path d="m123.95 216.02-14.55-8.65-14.54 8.65-14.55-8.65-9.57 5.69c2 0.79 4.1 1.53 6.19 2.2l3.38-2 8.59 5.12q4.66 0.93 9.47 1.45l11-6.57 11.35 6.76c2.77-0.26 5.5-0.62 8.21-1.08l9.53-5.68 4.14 2.47q3.19-1 6.31-2.14l-10.41-6.22z" fill="#ec1b34"/>
 <path d="m187.36 114.5a18.43 18.43 0 0 0-3.86-7.26 15.51 15.51 0 0 0-9.45-4.86 15.45 15.45 0 0 0 8-7.05 18.19 18.19 0 0 0 1.94-8 15.4 15.4 0 0 0-0.47-4.52 27.65 27.65 0 0 0-1.45-4.53 21.83 21.83 0 0 0-5.53-7.14 17.58 17.58 0 0 0-7.22-3.4 14.9 14.9 0 0 0-10.19 1.94 17 17 0 0 0 2.37-10.53 18.88 18.88 0 0 0-2.75-7.67 20.94 20.94 0 0 0-6.3-6.21 20.33 20.33 0 0 0-8.17-2.67 17.53 17.53 0 0 0-7.66 1.28 16.07 16.07 0 0 0-7.45 7.26 17.07 17.07 0 0 0-3.18-10.21 16.22 16.22 0 0 0-6-5.15 17.07 17.07 0 0 0-8.23-2 16.9 16.9 0 0 0-8.21 1.89 15.59 15.59 0 0 0-6 5.1 16.15 16.15 0 0 0-2.89 6.94 18 18 0 0 0-0.2 3.21 18 18 0 0 0-1.65-2.66 15.39 15.39 0 0 0-5.83-4.76 17.42 17.42 0 0 0-7.68-1.53 19.49 19.49 0 0 0-8.1 2.46 23.09 23.09 0 0 0-3.48 2.64 14.53 14.53 0 0 0-2.78 3.28 18 18 0 0 0-2.81 7.52 17.38 17.38 0 0 0 2.19 10.6 15.44 15.44 0 0 0-10.07-2.5 17.16 17.16 0 0 0-7.28 2.9 21 21 0 0 0-5.8 6.7 21.94 21.94 0 0 0-2.29 8.7 18.61 18.61 0 0 0 1.53 8.09 16.1 16.1 0 0 0 7.51 7.72 15 15 0 0 0-9.71 4 18.69 18.69 0 0 0-4.27 6.92 20.8 20.8 0 0 0 2.24 17.74 18.71 18.71 0 0 0 5.86 5.64 15 15 0 0 0 9.06 1.71 11.59 11.59 0 0 0 1.29-0.22 16.18 16.18 0 0 0-5.35 9.32 18.63 18.63 0 0 0 0.52 8.23 22 22 0 0 0 4.43 7.91 20.81 20.81 0 0 0 7.23 5 17.12 17.12 0 0 0 7.77 1 15.46 15.46 0 0 0 9.13-4.9 17.32 17.32 0 0 0 0.49 10.81 18 18 0 0 0 4.57 6.58 14.44 14.44 0 0 0 3.5 2.5 23.65 23.65 0 0 0 4.06 1.71 19.31 19.31 0 0 0 7.66 0.48l0.83-0.12a17.38 17.38 0 0 0 7-3.35 15.33 15.33 0 0 0 4.49-6.08 16.41 16.41 0 0 0 0.94-3 18.23 18.23 0 0 0 1 3.06 16 16 0 0 0 4.52 6 15.61 15.61 0 0 0 7.05 3.46 19.43 19.43 0 0 0 6.08 0.31 13.26 13.26 0 0 0 2.32-0.5 17.28 17.28 0 0 0 7.49-4 16.4 16.4 0 0 0 4.56-6.48 17.09 17.09 0 0 0 0.56-10.69 16.19 16.19 0 0 0 9.06 5.2 16.84 16.84 0 0 0 4.49 0 19.75 19.75 0 0 0 3.24-0.7 20.36 20.36 0 0 0 7.28-4.66 21.08 21.08 0 0 0 4.52-7.52 18.89 18.89 0 0 0 0.76-8.11 16.88 16.88 0 0 0-4.94-9.63 15 15 0 0 0 6.13 0.51 15.4 15.4 0 0 0 4.24-1.17 17.62 17.62 0 0 0 6.14-5.11 21.91 21.91 0 0 0 3.59-8.32 26.26 26.26 0 0 0 0.27-4.68 15.57 15.57 0 0 0-0.66-4.43z" fill="#fbae17"/>
 <path d="m141.91 49.99c-12.87 0-12.89 20 0 20s12.89-20 0-20z" fill="#ffc657"/>
 <path d="m165.31 95.78c12.87 0 12.89-20 0-20s-12.89 20 0 20z" fill="#ffc657"/>
 <path d="m170.16 110.44c-12.87 0-12.89 20 0 20s12.89-20 0-20z" fill="#ffc657"/>
 <path d="m153.43 141.77c-12.87 0-12.89 20 0 20s12.89-20 0-20z" fill="#ffc657"/>
 <path d="m124.79 154.43c-12.87 0-12.89 20 0 20s12.89-20 0-20z" fill="#ffc657"/>
 <path d="m92.17 155.5c-12.87 0-12.89 20 0 20s12.89-20 0-20z" fill="#ffc657"/>
 <path d="m65.3 138.22c-12.87 0-12.89 20 0 20s12.89-20 0-20z" fill="#ffc657"/>
 <path d="m50.84 107.28c-12.87 0-12.89 20 0 20s12.89-20 0-20z" fill="#ffc657"/>
 <path d="m56.22 93.85c12.87 0 12.89-20 0-20s-12.89 20 0 20z" fill="#ffc657"/>
 <path d="m78.84 49.34c-12.87 0-12.89 20 0 20s12.89-20 0-20z" fill="#ffc657"/>
 <path d="m110.65 41.82c-12.87 0-12.89 20 0 20s12.85-20 0-20z" fill="#ffc657"/>
 <circle cx="146.29" cy="73.71" r="11.93" fill="#ec1b34"/>
 <circle cx="146.29" cy="73.71" r="7.02" fill="#f58523"/>
 <circle cx="74.71" cy="73.71" r="11.93" fill="#ec1b34"/>
 <circle cx="74.71" cy="73.71" r="7.02" fill="#f58523"/>
 <ellipse cx="110.5" cy="110.64" rx="47.72" ry="44.69" fill="#ec1b34"/>
 <path d="m103.17 67.57a6.51 6.51 0 0 1-0.31 0.77 1.19 1.19 0 0 1-0.09 0.15h-0.05l-0.15 1.5h0.35a0.46 0.46 0 0 1 0.38 0.3 2.49 2.49 0 0 1 0.19 1.35 1.58 1.58 0 0 1-0.29 0.81s0 0.09-0.07 0.14a1.36 1.36 0 0 1-0.38 0.57c-0.11 0.08-0.16 0.27-0.26 0.45a0.57 0.57 0 0 0-0.26-0.27l-0.33 3.18a1.57 1.57 0 0 1 0 0.42 4.62 4.62 0 0 1-0.22 1.4l-0.56 5.48a0.68 0.68 0 0 0 0 0.14v0.48a4.39 4.39 0 0 1-0.22 1.31 0.67 0.67 0 0 0-0.06 0.12l-0.26 2.54c0-0.2 0.06-0.39 0.1-0.59a3.21 3.21 0 0 1 0.26-0.67c0.08-0.16 0.31-0.1 0.4 0.1a3.25 3.25 0 0 1 0.23 1 6.06 6.06 0 0 0 0 0.74 2.09 2.09 0 0 1-0.07 0.39 1.39 1.39 0 0 1-0.14 0.54 1 1 0 0 1-0.2 0.32c-0.21 0.2-0.47 0.08-0.55-0.26a3.26 3.26 0 0 1-0.11-0.83 3.42 3.42 0 0 1 0-0.45l-0.46 4.49a0.54 0.54 0 0 1 0.05 0.11h-0.05v-0.05l-0.34 3.31a4.6 4.6 0 0 1 0 0.64c0 0.34-0.1 0.69-0.15 1l-0.71 6.94a2.62 2.62 0 0 1 0 0.28 1 1 0 0 1 0 0.1l-0.35 3.43h1.59a4 4 0 0 1-0.2-1.19 7.5 7.5 0 0 1 0.11-0.81v-0.23h0.09c0.35-0.1 0.5 0 0.64 0.36a5.44 5.44 0 0 1 0.25 0.9 8 8 0 0 1 0.09 1h4.4a0.28 0.28 0 0 1 0.29-0.09s0.07 0.05 0.1 0.09h1c-0.14-0.36-0.26-0.73-0.39-1.1a0.77 0.77 0 0 1 0-0.15v-0.57c0-0.21 0.23-0.31 0.44-0.35a0.23 0.23 0 0 1 0.2 0.05 3.12 3.12 0 0 1 1 1.95 1 1 0 0 1 0 0.17h1.45a1.79 1.79 0 0 1 0.22-0.82c0.16-0.25 0.35-0.41 0.63-0.35h0.06c0-0.25 0-0.36 0.18-0.38a0.12 0.12 0 0 1 0.15 0.14 3.61 3.61 0 0 1-0.1 0.38s0.07 0.06 0.13 0.08a0.62 0.62 0 0 1 0.41 0.61v0.37h1.37a0.19 0.19 0 0 1 0-0.08c0-0.11 0.08-0.15 0.21-0.13l0.06-0.15a0.37 0.37 0 0 1 0.33 0.21 1 1 0 0 1 0.07 0.15h0.92a6.66 6.66 0 0 1-0.06-2.09 0.22 0.22 0 0 1 0.11-0.19c0.2-0.14 0.22-0.17 0.43-0.15h0.07a3.54 3.54 0 0 1 0.45 1.25 2.6 2.6 0 0 1 0 0.56q0 0.31 0 0.63h1.48a0.53 0.53 0 0 0 0-0.12v-0.07c0.28-0.06 0.31 0 0.44 0.19h0.88a1.47 1.47 0 0 1-0.13-0.66v-0.46a5.24 5.24 0 0 1 0.21-1.48 0.35 0.35 0 0 1 0.45-0.29h0.15a0.3 0.3 0 0 1 0.22 0.29c0 0.24 0.06 0.47 0.09 0.77s0 0.54 0 0.84a4 4 0 0 1-0.09 0.68 0.81 0.81 0 0 1-0.11 0.27h0.7c0-0.12 0.1-0.25 0.15-0.37a0.18 0.18 0 0 1 0.18-0.08c0.13 0.06 0.21 0 0.3-0.14l0.21 0.16s0.07 0.05 0.09 0 0.13 0 0.13 0.06-0.07 0.08-0.12 0.14 0 0.13 0.07 0.19h1.56v-0.06a2.94 2.94 0 0 1-0.16-1.26q0-0.36 0.12-0.72l-1.84-12.57a1 1 0 0 1-0.59-0.5 7.61 7.61 0 0 1-0.6-1.57 0.8 0.8 0 0 1 0-0.15v-0.56c0.14-0.1 0.22-0.32 0.44-0.35a0.18 0.18 0 0 1 0.2 0.05c0.07 0.06 0.1 0.15 0.16 0.21l-1.94-13.23a3.14 3.14 0 0 1-0.12 0.51 1.68 1.68 0 0 1-0.16 0.33 0.35 0.35 0 0 1-0.65-0.06 2.82 2.82 0 0 1-0.24-1.88 1.56 1.56 0 0 0 0.08-0.42 1.54 1.54 0 0 1 0.19-0.57c0-0.05 0.06-0.13 0.14-0.06s0.06 0 0.09 0a0.37 0.37 0 0 1 0.35 0l-1.44-9.86-0.45-0.06a3.45 3.45 0 0 1 0.2 0.62c0.08 0.31 0.15 0.63 0.23 0.94v0.12c-0.1 0.22 0 0.44 0 0.66a0.81 0.81 0 0 1-0.42 0.64 1.25 1.25 0 0 1-0.55-1.11v-1.33a2.22 2.22 0 0 1 0.09-0.63l-1.27-0.09v0.45a1.38 1.38 0 0 1-0.16 0.47c-0.07 0.16-0.15 0.19-0.29 0.1a1 1 0 0 1-0.45-0.57 5.08 5.08 0 0 1-0.15-0.52h-1.85a0.58 0.58 0 0 1-0.08 0.18 3.44 3.44 0 0 1-0.44 0.41 0.91 0.91 0 0 1-0.51-0.56q-1 0-2.1 0.06a0.41 0.41 0 0 1 0.16 0.42l0.12 1a1.77 1.77 0 0 1-0.2 1.24 2.11 2.11 0 0 1-0.35 0.38c-0.15 0.12-0.35 0-0.45-0.16a1.46 1.46 0 0 1-0.1-0.34 2.13 2.13 0 0 1 0.13-1.09c0.14-0.38 0.25-0.77 0.37-1.16 0-0.11 0.09-0.22 0.14-0.34l-1.58 0.11a1.09 1.09 0 0 1-0.08 0.69c-0.13 0.24-0.26 0.48-0.52 0.56a0.26 0.26 0 0 1-0.3-0.09 1 1 0 0 1-0.25-0.61v-0.33-0.11c-0.57 0.07-1.14 0.13-1.7 0.21a3.16 3.16 0 0 1 0 0.32 3.44 3.44 0 0 1-0.1 0.87zm-0.36 15.93a0.35 0.35 0 0 1 0.46 0.28c0 0.13 0.09 0.27 0.11 0.41a4.79 4.79 0 0 1 0 1.51 4.84 4.84 0 0 1-0.25 0.73 0.61 0.61 0 0 1-0.36 0.33c-0.11 0.05-0.17 0-0.24-0.11a2.13 2.13 0 0 1-0.15-1.53c0.06-0.3 0.1-0.6 0.18-0.89a6.94 6.94 0 0 1 0.25-0.73zm1.57 3.62 0.21 0.16h0.09c0.03 0 0.13 0 0.13 0.07s-0.07 0.08-0.12 0.14a0.89 0.89 0 0 0 0.09 0.24 1.41 1.41 0 0 1 0.16 0.55c0 0.21 0.08 0.42 0.09 0.63a1.79 1.79 0 0 1 0 0.46 2.3 2.3 0 0 1-0.34 1c-0.16 0.21-0.31 0.25-0.49 0.06a1.44 1.44 0 0 1-0.32-0.48 2.91 2.91 0 0 1-0.22-1 6.27 6.27 0 0 1 0-0.87 3 3 0 0 1 0.25-0.71 0.18 0.18 0 0 1 0.18-0.08c0.12 0.05 0.19-0.02 0.29-0.15zm0-2.75a10.32 10.32 0 0 1 0.17-1.17c0.14 0.11 0.2-0.13 0.32-0.05 0.1-0.17 0.25-0.1 0.38-0.11h0.1l0.1 0.24a1.52 1.52 0 0 0 0.06 0.2 3 3 0 0 1 0.19 1.54 5.4 5.4 0 0 1-0.18 0.89 1.52 1.52 0 0 1-0.31 0.49 0.15 0.15 0 0 1-0.16 0 0.71 0.71 0 0 1-0.46-0.41 1.8 1.8 0 0 1-0.19-0.62 5.78 5.78 0 0 1-0.06-0.98zm-0.64 7a3 3 0 0 1 0.36 1.38 2 2 0 0 0 0 0.34 2.34 2.34 0 0 1-0.23 1.23 0.54 0.54 0 0 1-0.15 0.18c-0.13 0.1-0.2 0.08-0.31-0.05a1.39 1.39 0 0 1-0.4-0.89c0-0.17-0.05-0.35-0.07-0.51a9.43 9.43 0 0 1 0.15-1.52c0-0.1 0.07-0.23 0.13-0.26a0.77 0.77 0 0 1 0.37 0s0.08 0.09 0.11 0.15zm-1.36-14.87s0.05 0 0.05 0.06 0 0.06-0.05 0.06 0 0-0.07-0.06 0.06-0.06 0.07-0.06zm-0.76 6.47a2 2 0 0 1-0.19-0.62 5.78 5.78 0 0 1 0-1 9.93 9.93 0 0 1 0.16-1.17c0.14 0.11 0.21-0.13 0.33-0.05 0.09-0.17 0.24-0.1 0.37-0.11h0.11l0.09 0.24a1.52 1.52 0 0 1 0.06 0.2 3 3 0 0 1 0.19 1.54 4.53 4.53 0 0 1-0.18 0.89 1.52 1.52 0 0 1-0.31 0.49h-0.16a0.74 0.74 0 0 1-0.47-0.39zm-0.18 24.9s-0.05 0-0.05-0.05v-0.08c0-0.08 0.05 0 0.05 0.05s0.06 0.07 0 0.1zm0-3.41a0.65 0.65 0 0 1-0.15 0.18c-0.13 0.1-0.2 0.08-0.31-0.05a1.34 1.34 0 0 1-0.4-0.89c0-0.18-0.05-0.35-0.07-0.51a9.56 9.56 0 0 1 0.15-1.53c0-0.09 0.06-0.22 0.13-0.25a0.92 0.92 0 0 1 0.37-0.05s0.09 0.09 0.12 0.14a3 3 0 0 1 0.36 1.39v0.33a2.28 2.28 0 0 1-0.2 1.28zm0.56-4.89a1.85 1.85 0 0 1-0.2 0.6c-0.07 0.17-0.17 0.18-0.31 0.09a1 1 0 0 1-0.42-0.48 3.72 3.72 0 0 1-0.32-1.56 4.56 4.56 0 0 1 0-0.64c0.06-0.45 0.21-0.58 0.62-0.57a5.33 5.33 0 0 1 0.52 1.14 3.8 3.8 0 0 1 0.11 1.44zm0-4.81a0.16 0.16 0 0 1-0.25 0.11 1.12 1.12 0 0 1-0.57-0.65 3.23 3.23 0 0 1-0.21-0.93c0-0.3-0.09-0.6-0.13-0.91v-0.09c0-0.34 0-0.48 0.29-0.6a1.71 1.71 0 0 1 0.18-0.07 2.73 2.73 0 0 1 0.62 0.91 3.19 3.19 0 0 1 0.25 1.56 5 5 0 0 1-0.21 0.69zm1.29 13.11a1 1 0 0 1-0.23 0.51 0.24 0.24 0 0 1-0.27 0.08 0.53 0.53 0 0 1-0.34-0.3 2.89 2.89 0 0 1-0.3-1.3c0-0.45 0.09-0.9 0.14-1.35a0.31 0.31 0 0 1 0.32-0.29h0.08a0.33 0.33 0 0 1 0.42 0.21 4 4 0 0 1 0.27 1.19v0.28c-0.04 0.33-0.07 0.66-0.12 0.99zm-0.2-9.3a6.59 6.59 0 0 1-0.06-2.17 0.22 0.22 0 0 1 0.1-0.19c0.21-0.15 0.22-0.18 0.44-0.15h0.06a3.27 3.27 0 0 1 0.46 1.24 3.63 3.63 0 0 1 0 0.57 3.32 3.32 0 0 1-0.15 1.13v0.07c-0.12 0.28-0.28 0.32-0.5 0.15a1.19 1.19 0 0 1-0.38-0.63zm0.76 4.91a1.62 1.62 0 0 1-0.22-0.41 3.76 3.76 0 0 1-0.14-1.34c0-0.33 0.08-0.66 0.15-1a0.52 0.52 0 0 1 0.64-0.43 0.26 0.26 0 0 1 0.13 0.08 3.3 3.3 0 0 1 0.19 0.43 4.17 4.17 0 0 1 0.09 0.51v0.48a4.09 4.09 0 0 1-0.22 1.31 1.44 1.44 0 0 1-0.16 0.33c-0.15 0.25-0.33 0.26-0.49 0.06zm1.6 4.15c-0.06 0.12-0.22 0.11-0.35 0a2 2 0 0 1-0.38-0.59 6.28 6.28 0 0 1-0.29-1.42 6.38 6.38 0 0 1 0.07-1.12c0.26-0.14 0.37-0.13 0.53 0.14s0.26 0.55 0.39 0.84a4.08 4.08 0 0 1 0.26 1.21 1.6 1.6 0 0 1-0.26 0.96zm0.06-11.84v-0.07c-0.22-0.29-0.15-0.65-0.21-1a4.32 4.32 0 0 1 0.05-1.24h0.11c0.08 0 0.18-0.1 0.24-0.07a0.67 0.67 0 0 1 0.22 0.25 4.81 4.81 0 0 1 0.5 1.28 4.2 4.2 0 0 1 0.1 0.93 0.78 0.78 0 0 1-0.37 0.73 1 1 0 0 1-0.65-0.79zm0.99-8.39s0.06-0.07 0.1-0.1 0.21-0.06 0.32 0.07a3.81 3.81 0 0 1 0.85 1.8 6.18 6.18 0 0 1 0.07 0.62c0 0.14 0 0.29-0.07 0.44a0.23 0.23 0 0 1-0.28 0.22 0.83 0.83 0 0 1-0.57-0.4 3.92 3.92 0 0 1-0.68-2.16c0.02-0.21 0.04-0.39 0.26-0.49zm0-6.36v-0.36a3.45 3.45 0 0 1 0.31-1.14 0.22 0.22 0 0 1 0.25-0.16 2.47 2.47 0 0 1 0.36 0.11s0 0.09 0.06 0.14c0 0.24 0.08 0.47 0.11 0.7s0 0.7 0 1a2.86 2.86 0 0 1-0.13 0.72 1.57 1.57 0 0 1-0.34 0.47c-0.14 0.15-0.33 0-0.43-0.22a2.84 2.84 0 0 1-0.19-1.26zm2 2.62a0.29 0.29 0 0 1 0.15 0.12c0.09 0.22 0.18 0.45 0.26 0.68a0.87 0.87 0 0 1 0.05 0.22 3.09 3.09 0 0 0 0 0.53 3.46 3.46 0 0 1-0.21 1.47c-0.08 0.28-0.43 0.44-0.7 0.06a1 1 0 0 1-0.23-0.65 0.38 0.38 0 0 0 0-0.1 2.07 2.07 0 0 1-0.07-0.86c0-0.31 0-0.63 0.06-0.94a0.45 0.45 0 0 1 0.23-0.41h0.05c0.05 0 0.27-0.15 0.41-0.12zm0-7.15a0.59 0.59 0 0 1 0-0.13h0.06v0.14zm2.56 3.72v0.34 1.13a2.86 2.86 0 0 1-0.22 1c-0.06 0.16-0.12 0.31-0.19 0.47l-0.09 0.17c-0.18 0.24-0.39 0.25-0.56 0a2.26 2.26 0 0 1-0.22-0.47 2.4 2.4 0 0 1 0-1.65c0.09-0.25 0.16-0.51 0.23-0.77a0.26 0.26 0 0 1 0.21-0.23c0.2 0 0.4-0.18 0.61-0.05 0.07-0.11 0.06-0.25 0.19-0.23s0.09 0.08 0.08 0.09a1.32 1.32 0 0 1-0.08 0.2zm0.11 3c-0.09-0.1-0.09-0.1 0-0.26 0.03 0.12 0.03 0.12-0.04 0.25zm-1.27-4.73c0 0.17-0.09 0.33-0.11 0.49a1.16 1.16 0 0 1-0.4 0.64c-0.08 0.08-0.16 0.06-0.24 0a1.14 1.14 0 0 1-0.27-0.76 1.31 1.31 0 0 1 0-0.28 3.11 3.11 0 0 1 0.25-1.52 1.48 1.48 0 0 1 0.23-0.38 0.18 0.18 0 0 1 0.09-0.06 0.42 0.42 0 0 1 0.57 0.42 5.5 5.5 0 0 1-0.12 1.45zm-2.69 22.5a5.16 5.16 0 0 1-0.31 0.77 1.09 1.09 0 0 1-0.08 0.15c-0.12 0.16-0.21 0.17-0.37 0.07a1.55 1.55 0 0 1-0.57-0.94 4.21 4.21 0 0 1-0.15-1.22 2.78 2.78 0 0 1 0.15-0.95 0.23 0.23 0 0 1 0.12-0.1 1.78 1.78 0 0 1 0.29-0.12 1.92 1.92 0 0 1 0.41-0.05c0.25 0 0.34 0.23 0.44 0.44a3.32 3.32 0 0 1 0.21 1.17 3.36 3.36 0 0 1-0.14 0.78zm0.22-6.72a3.35 3.35 0 0 1-0.32-1.45 1.11 1.11 0 0 0 0-0.17l-0.09-0.52v-0.18c0-0.18 0-0.21 0.18-0.26s0.11-0.16 0.24-0.12a0.28 0.28 0 0 1 0.17 0.07 2.81 2.81 0 0 1 0.56 1c0.07 0.26 0.13 0.51 0.19 0.77a0.75 0.75 0 0 1 0 0.15v0.59a1.15 1.15 0 0 1-0.19 0.59c0 0.07-0.1 0.07-0.18 0.06a0.79 0.79 0 0 1-0.56-0.53zm1.62 11.06a2 2 0 0 1-0.2 0.59c-0.08 0.17-0.17 0.19-0.32 0.1a1.08 1.08 0 0 1-0.41-0.48 3.61 3.61 0 0 1-0.32-1.56 3.42 3.42 0 0 1 0-0.64c0.07-0.45 0.22-0.58 0.62-0.57a4.35 4.35 0 0 1 0.52 1.14 4 4 0 0 1 0.11 1.42zm0-6.6a0.79 0.79 0 0 1-0.14 0.17c-0.13 0.11-0.2 0.08-0.3-0.06a2.79 2.79 0 0 1-0.44-1.58 5.2 5.2 0 0 1 0.11-1.52h0.06c0.24-0.07 0.27-0.05 0.4 0.21a10.4 10.4 0 0 1 0.48 1.65 2.75 2.75 0 0 1-0.17 1.13zm0.1-8.58a4.43 4.43 0 0 1 0-1.26 0.5 0.5 0 0 0 0-0.17 2.74 2.74 0 0 1 0.16-1.06 0.44 0.44 0 0 1 0.41 0.3 1.9 1.9 0 0 1 0.21 0.88 0.87 0.87 0 0 0 0 0.22l0.15 0.56v0.08a1.52 1.52 0 0 0-0.07 0.67 0.82 0.82 0 0 1-0.21 0.45c-0.11 0.14-0.25 0.11-0.39 0a1.1 1.1 0 0 1-0.26-0.67zm0.72 5.2a3.7 3.7 0 0 1-0.24-1.25v-1a0.29 0.29 0 0 1 0-0.13c0-0.11 0.09-0.15 0.21-0.13l0.06-0.14a0.36 0.36 0 0 1 0.34 0.2 3.86 3.86 0 0 1 0.55 1.44 4 4 0 0 1 0 1 1.58 1.58 0 0 1-0.15 0.48c-0.08 0.16-0.16 0.18-0.3 0.1a1.06 1.06 0 0 1-0.47-0.57zm0.47 3.54a2.14 2.14 0 0 0 0.07-0.43 1.49 1.49 0 0 1 0.19-0.56c0-0.06 0.06-0.14 0.14-0.06s0.06 0 0.09 0a0.56 0.56 0 0 1 0.49 0c0.06 0 0.11 0.16 0.12 0.26 0.06 0.34 0.1 0.68 0.15 1a4.56 4.56 0 0 1-0.2 1.38 1.48 1.48 0 0 1-0.17 0.33 0.35 0.35 0 0 1-0.64-0.06 2.71 2.71 0 0 1-0.24-1.86zm1.37 5.66a1.45 1.45 0 0 1-0.13 0.72 1 1 0 0 1-0.34 0.39c-0.1 0.07-0.23 0-0.32-0.1a1 1 0 0 1-0.27-0.55 2.45 2.45 0 0 0-0.08-0.37 2.29 2.29 0 0 1-0.17-0.87 0.16 0.16 0 0 1 0-0.12c0.2-0.19 0.08-0.48 0.17-0.71a2.83 2.83 0 0 0 0.06-0.42v-0.08c0-0.01 0.15-0.21 0.13-0.38s0.16-0.17 0.24-0.05a0.56 0.56 0 0 0 0.36 0.25 0.17 0.17 0 0 1 0.09 0.11c0.1 0.56 0.18 1.13 0.28 1.69a3.84 3.84 0 0 0-0.02 0.49zm0.58-10.57a2.64 2.64 0 0 1 0.12-0.78c0.26-0.07 0.38 0 0.49 0.24a3.45 3.45 0 0 1 0.2 0.62c0.08 0.31 0.15 0.63 0.23 0.94v0.12c-0.1 0.22 0 0.44 0 0.66a0.82 0.82 0 0 1-0.42 0.64 1.26 1.26 0 0 1-0.55-1.11c-0.04-0.44-0.05-0.89-0.07-1.33zm1.36 11.94a0.83 0.83 0 0 1-0.21 0.44c-0.11 0.14-0.25 0.12-0.39 0a1.07 1.07 0 0 1-0.28-0.65 4.36 4.36 0 0 1 0-1.25 0.56 0.56 0 0 0 0-0.18 2.51 2.51 0 0 1 0.16-1 0.44 0.44 0 0 1 0.41 0.3 1.9 1.9 0 0 1 0.21 0.88 1 1 0 0 0 0 0.22c0.05 0.18 0.1 0.37 0.14 0.56a0.09 0.09 0 0 1 0 0.07 1.57 1.57 0 0 0-0.04 0.61zm0.33-4.92a1.43 1.43 0 0 1-0.16 0.48c-0.07 0.16-0.15 0.18-0.29 0.09a1 1 0 0 1-0.45-0.57 3.7 3.7 0 0 1-0.24-1.25v-1a0.28 0.28 0 0 1 0-0.13c0-0.11 0.09-0.15 0.21-0.13l0.06-0.15a0.39 0.39 0 0 1 0.34 0.21 3.87 3.87 0 0 1 0.55 1.43 4 4 0 0 1-0.02 1.02zm0.21-6.93a3.65 3.65 0 0 1-0.27-1.26 4.07 4.07 0 0 1 0.1-1.55v-0.06c0.29-0.07 0.31 0 0.46 0.21a6.52 6.52 0 0 1 0.44 1.4 0.81 0.81 0 0 1 0 0.44 2.09 2.09 0 0 0 0 0.5 0.81 0.81 0 0 1-0.22 0.58s-0.11 0.09-0.15 0.08a0.66 0.66 0 0 1-0.36-0.34zm0.53 11.5-0.06-0.06 0.14-0.16c0.03 0.14 0 0.22-0.08 0.22zm0.57 0.43v-0.05-0.12c0-0.06 0.07 0.07 0.06 0.09s-0.05 0.05-0.06 0.08zm0.49-2.31a0.79 0.79 0 0 1-0.42 0.63 1.21 1.21 0 0 1-0.55-1.1c0-0.45 0-0.89-0.05-1.34a2.63 2.63 0 0 1 0.12-0.77c0.26-0.07 0.38 0 0.49 0.24a3.21 3.21 0 0 1 0.2 0.62c0.08 0.31 0.15 0.63 0.22 0.94v0.12c-0.07 0.21 0.02 0.46-0.01 0.66zm0.18-5.63a1.72 1.72 0 0 1-0.2 0.59c-0.08 0.17-0.17 0.19-0.31 0.1a1.1 1.1 0 0 1-0.42-0.48 3.76 3.76 0 0 1-0.32-1.56 3.42 3.42 0 0 1 0-0.64c0.07-0.45 0.22-0.58 0.63-0.57a4.68 4.68 0 0 1 0.51 1.14 4 4 0 0 1 0.11 1.42zm-0.45-4 0.05-0.05a0.54 0.54 0 0 1 0.05 0.11h-0.05a0.26 0.26 0 0 1-0.06-0.06zm0.77 0.05a7.38 7.38 0 0 0-0.13-0.91v-0.09c0-0.34 0-0.48 0.29-0.6a1.71 1.71 0 0 1 0.18-0.07 2.73 2.73 0 0 1 0.62 0.91 3.08 3.08 0 0 1 0.25 1.56 5 5 0 0 1-0.15 0.67 0.16 0.16 0 0 1-0.25 0.11 1.12 1.12 0 0 1-0.57-0.65 3.23 3.23 0 0 1-0.24-0.93zm1.64 10.59a3.8 3.8 0 0 1-0.18 0.89 1.29 1.29 0 0 1-0.31 0.49 0.14 0.14 0 0 1-0.15 0 0.73 0.73 0 0 1-0.47-0.41 2 2 0 0 1-0.18-0.62 5 5 0 0 1 0-1 10.32 10.32 0 0 1 0.17-1.17c0.14 0.11 0.2-0.13 0.32 0 0.1-0.17 0.24-0.1 0.37-0.11h0.11l0.1 0.24v0.2a2.88 2.88 0 0 1 0.22 1.49zm0.64-3.27a2.43 2.43 0 0 1-0.18 0.4c-0.08 0.13-0.16 0.12-0.27 0a1.75 1.75 0 0 1-0.49-1c-0.08-0.53-0.13-1.06-0.19-1.58v-0.52h0.32a1.33 1.33 0 0 1 0.3 0.43 3.88 3.88 0 0 1 0.11 0.49 0.16 0.16 0 0 0 0.05 0.1 1.38 1.38 0 0 1 0.35 1 2.28 2.28 0 0 1 0 0.68zm1.73 4.56a1.46 1.46 0 0 1-0.17 0.33c-0.16 0.21-0.33 0.22-0.49 0a1.25 1.25 0 0 1-0.22-0.41 3.52 3.52 0 0 1-0.14-1.34 8.26 8.26 0 0 1 0.14-1 0.53 0.53 0 0 1 0.64-0.42 0.17 0.17 0 0 1 0.13 0.08 2.35 2.35 0 0 1 0.19 0.43 2.75 2.75 0 0 1 0.09 0.5v0.49a4.32 4.32 0 0 1-0.17 1.34zm-0.54-5.27a9 9 0 0 1 0.18-0.9 6.52 6.52 0 0 1 0.29-0.73 0.35 0.35 0 0 1 0.45 0.28 2.17 2.17 0 0 1 0.11 0.42 4.44 4.44 0 0 1 0 1.5 5.85 5.85 0 0 1-0.25 0.74 0.62 0.62 0 0 1-0.36 0.32c-0.11 0.05-0.17 0-0.24-0.11a2 2 0 0 1-0.18-1.52zm-0.49-4.8a4.14 4.14 0 0 1 0.25 1.22 1.6 1.6 0 0 1-0.24 0.94c-0.06 0.12-0.22 0.1-0.35 0a2 2 0 0 1-0.38-0.6 5.6 5.6 0 0 1-0.29-1.42 5.49 5.49 0 0 1 0.09-1.08c0.26-0.14 0.37-0.12 0.53 0.15s0.26 0.51 0.39 0.79zm-1-9c0.13-0.09 0.22-0.07 0.33 0.06a3.81 3.81 0 0 1 0.85 1.8 6.2 6.2 0 0 1 0.06 0.62c0 0.15 0 0.3-0.07 0.45a0.23 0.23 0 0 1-0.28 0.21 0.81 0.81 0 0 1-0.56-0.4 3.92 3.92 0 0 1-0.69-2.15c0-0.21 0-0.44 0.26-0.5 0 0 0.02-0.06 0.06-0.08zm-1.29-5.95c0.13 0.1 0.2-0.13 0.32-0.05 0.1-0.17 0.24-0.1 0.37-0.11h0.11a2.44 2.44 0 0 0 0.1 0.24v0.19a3 3 0 0 1 0.19 1.55 4.53 4.53 0 0 1-0.18 0.89 1.37 1.37 0 0 1-0.31 0.49h-0.16a0.74 0.74 0 0 1-0.46-0.41 2.12 2.12 0 0 1-0.18-0.62 5 5 0 0 1 0-1 10 10 0 0 1 0.16-1.16zm-0.14 7.12a3 3 0 0 1 0.23 1 6.06 6.06 0 0 0 0 0.74 3.59 3.59 0 0 1-0.06 0.39 1.86 1.86 0 0 1-0.14 0.54 1.18 1.18 0 0 1-0.21 0.32c-0.21 0.2-0.47 0.08-0.55-0.26a3.26 3.26 0 0 1-0.11-0.83 7.11 7.11 0 0 1 0.17-1.32 3.21 3.21 0 0 1 0.26-0.67c0.08-0.16 0.29-0.1 0.37 0.1zm-0.22-2.81a4.39 4.39 0 0 1-0.22 1.31 1.71 1.71 0 0 1-0.17 0.33c-0.16 0.21-0.33 0.22-0.49 0a1.25 1.25 0 0 1-0.22-0.41 3.52 3.52 0 0 1-0.14-1.34 8 8 0 0 1 0.14-1 0.54 0.54 0 0 1 0.64-0.43 0.2 0.2 0 0 1 0.13 0.08 2.17 2.17 0 0 1 0.19 0.44 2.75 2.75 0 0 1 0.09 0.5c-0.06 0.21-0.01 0.37 0.01 0.53zm-1.59-13.07a2.29 2.29 0 0 1 0.08-0.41 3.4 3.4 0 0 0 0.3-0.22 0.34 0.34 0 0 1 0.52 0.1 5 5 0 0 1 0.36 0.73 3 3 0 0 1 0.23 1.19v0.46a1.07 1.07 0 0 1-0.11 0.54c-0.11 0.21-0.21 0.26-0.4 0.16a1.3 1.3 0 0 1-0.57-0.59c-0.06-0.12-0.11-0.23-0.17-0.34a0.8 0.8 0 0 1-0.12-0.43 0.37 0.37 0 0 0 0-0.15 2.6 2.6 0 0 1-0.16-1.03zm-0.18 4.92v-0.51a1.55 1.55 0 0 1 0.05-0.23c0-0.1 0-0.2 0.08-0.3a0.28 0.28 0 0 0 0.32-0.06c0.18-0.15 0.32-0.07 0.41 0.16a5.29 5.29 0 0 1 0.33 1.49 2.06 2.06 0 0 1 0 0.35 3.8 3.8 0 0 1-0.18 0.95c-0.15 0.36-0.41 0.42-0.66 0.15a1.68 1.68 0 0 1-0.35-0.75 2.93 2.93 0 0 1-0.04-1.24zm-0.21 11.36c0 0.33-0.07 0.66-0.11 1a1 1 0 0 1-0.24 0.51 0.22 0.22 0 0 1-0.26 0.07 0.49 0.49 0 0 1-0.34-0.29 2.67 2.67 0 0 1-0.3-1.3c0-0.45 0.09-0.9 0.14-1.35a0.31 0.31 0 0 1 0.31-0.3h0.09a0.33 0.33 0 0 1 0.42 0.21 3.67 3.67 0 0 1 0.26 1.19zm-0.48-6.62 0.07 0.14 0.12-0.08v0.12s-0.07 0.19 0 0.29a4.87 4.87 0 0 1 0.09 1.32 2.21 2.21 0 0 1-0.3 1.05 0.91 0.91 0 0 1-0.11 0.16c-0.16 0.2-0.27 0.21-0.42 0a1.52 1.52 0 0 1-0.33-0.8 3.87 3.87 0 0 1 0-1c0.05-0.26 0.08-0.53 0.14-0.8a1 1 0 0 1 0.25-0.55h0.22c0.15-0.01 0.18 0 0.27 0.19zm-1.29-12.38a2.54 2.54 0 0 1 0.16-1.05 0.46 0.46 0 0 1 0.41 0.3 2 2 0 0 1 0.2 0.88 0.87 0.87 0 0 0 0.05 0.22l0.15 0.56a0.08 0.08 0 0 1 0 0.07 2 2 0 0 0-0.07 0.68 0.72 0.72 0 0 1-0.2 0.44c-0.12 0.15-0.26 0.12-0.39 0a1 1 0 0 1-0.28-0.66 4.36 4.36 0 0 1 0-1.25 1.08 1.08 0 0 0-0.03-0.19zm0.07 3.54h0.06c0.24-0.07 0.27-0.05 0.4 0.21a10.4 10.4 0 0 1 0.48 1.65 2.75 2.75 0 0 1-0.17 1.14 0.79 0.79 0 0 1-0.14 0.17c-0.12 0.11-0.2 0.08-0.3-0.06a2.79 2.79 0 0 1-0.44-1.58 5.2 5.2 0 0 1 0.11-1.58zm-0.75 5.91c0.2-0.19 0.08-0.48 0.17-0.71a2.79 2.79 0 0 0 0.06-0.43v-0.07a0.34 0.34 0 0 0 0.13-0.38c0-0.12 0.16-0.17 0.25-0.05a0.52 0.52 0 0 0 0.35 0.25 0.17 0.17 0 0 1 0.09 0.11c0.1 0.56 0.19 1.13 0.28 1.69a3.84 3.84 0 0 0 0 0.48 1.45 1.45 0 0 1-0.13 0.72 0.84 0.84 0 0 1-0.34 0.38c-0.1 0.08-0.23 0-0.32-0.09a1 1 0 0 1-0.27-0.55 1.17 1.17 0 0 0-0.08-0.37 2.32 2.32 0 0 1-0.17-0.87 0.16 0.16 0 0 1-0.02-0.16zm-0.12 10.06a3.43 3.43 0 0 1 0.45 1.24 2.73 2.73 0 0 1 0 0.57 3.58 3.58 0 0 1-0.14 1.13v0.07c-0.13 0.28-0.29 0.32-0.5 0.15a1.19 1.19 0 0 1-0.37-0.67 6.34 6.34 0 0 1-0.07-2.17 0.22 0.22 0 0 1 0.1-0.19c0.21-0.15 0.23-0.18 0.44-0.15zm-0.1-2.64a2.16 2.16 0 0 1-0.23 1.23 0.52 0.52 0 0 1-0.14 0.19c-0.13 0.09-0.2 0.07-0.31-0.05a1.36 1.36 0 0 1-0.4-0.89c0-0.18 0-0.36-0.07-0.52a9.43 9.43 0 0 1 0.15-1.52c0-0.09 0.06-0.22 0.13-0.25a0.92 0.92 0 0 1 0.41-0.06s0.09 0.09 0.12 0.14a3.12 3.12 0 0 1 0.36 1.39c-0.04 0.07-0.03 0.18-0.02 0.29zm-1-13.35h0.4c0.2 0 0.26 0.08 0.32 0.31a1.55 1.55 0 0 1 0 0.31 4.94 4.94 0 0 1-0.08 1.27 5.41 5.41 0 0 1-0.28 0.8 1 1 0 0 1-0.3 0.33c-0.15 0.11-0.33 0-0.44-0.16a2 2 0 0 1-0.17-0.69v-0.46c0-0.16 0-0.42 0.05-0.63a2 2 0 0 1 0.51-1.13zm-0.88-5.8a0.25 0.25 0 0 1 0.2-0.06c0.05 0 0.11 0.11 0.11 0.18a1.76 1.76 0 0 1-0.06 0.41l-0.23-0.2a0.31 0.31 0 0 1-0.01-0.38zm-0.43 0.82a0.41 0.41 0 0 1 0.42-0.21 3 3 0 0 1 0.57 0.16 0.25 0.25 0 0 1 0.18 0.23 2 2 0 0 1 0 0.73 0.39 0.39 0 0 0 0 0.15 0.8 0.8 0 0 1 0 0.15 3.76 3.76 0 0 1-0.46 1.59 1 1 0 0 1-0.36 0.29c-0.08 0.06-0.22 0-0.29-0.15a2.67 2.67 0 0 1-0.38-1c0-0.26-0.06-0.51-0.09-0.77a2.43 2.43 0 0 1 0.42-1.22zm-0.47 3.23c0.13 0.14 0 0.25 0 0.41l-0.19-0.11v-0.26c0.03-0.11 0.11-0.19 0.2-0.09zm-1 1c0-0.11 0.06-0.21 0.08-0.32s0.14-0.34 0.35-0.34a1.08 1.08 0 0 1 0.46 0.07 0.41 0.41 0 0 1 0.23 0.31c0.06 0.33 0.11 0.66 0.16 1s-0.05 0.49-0.08 0.74-0.08 0.29-0.11 0.44a1.08 1.08 0 0 1-0.36 0.63c-0.12 0.12-0.18 0.11-0.31 0a1.59 1.59 0 0 1-0.37-0.66 2.42 2.42 0 0 1-0.15-0.93 0.55 0.55 0 0 0 0-0.18v-0.09zm-1.18 4.16a2.85 2.85 0 0 1 0.2-0.51 0.64 0.64 0 0 1 0.24-0.22 1.16 1.16 0 0 1 0.27-0.11s0.05 0.08 0.08 0.08c0.31 0.05 0.31 0.34 0.31 0.59a5.44 5.44 0 0 1-0.22 1.61c0 0.12-0.08 0.23-0.11 0.34a1 1 0 0 1-0.45 0.55c-0.12 0.09-0.22 0-0.31-0.11a1.21 1.21 0 0 1-0.19-0.67 5 5 0 0 1 0.16-1.58zm-0.4-7.93h0.05c0 0.08 0 0.14-0.12 0.13v-0.06zm-1.13 0c0-0.14 0-0.27 0.07-0.4a0.29 0.29 0 0 1 0.45-0.17 1.06 1.06 0 0 1 0.31 0.58 9.42 9.42 0 0 1 0.23 1.2 3.42 3.42 0 0 1-0.05 0.84 0.72 0.72 0 0 1-0.32 0.49 0.15 0.15 0 0 1-0.22 0 1.9 1.9 0 0 1-0.26-0.37 3.65 3.65 0 0 1-0.23-1v-0.48a1.57 1.57 0 0 1 0.05-0.63zm-0.3 3.6a0.39 0.39 0 0 1 0.32-0.33 4.21 4.21 0 0 1 0.5 0c0.09 0 0.15 0.06 0.19 0.16a2.67 2.67 0 0 1 0.28 1.42 2.9 2.9 0 0 1-0.48 1.63c-0.12 0.2-0.24 0.22-0.44 0.1a1 1 0 0 1-0.33-0.49 2.65 2.65 0 0 1-0.21-1.45 8.7 8.7 0 0 1 0.17-0.98zm0.09 6.34h0.15a0.32 0.32 0 0 1 0.22 0.29c0 0.23 0.05 0.47 0.09 0.77s0 0.54 0 0.84a5.52 5.52 0 0 1-0.09 0.68 1 1 0 0 1-0.34 0.54c-0.17 0.15-0.37 0.06-0.47-0.19a1.7 1.7 0 0 1-0.16-0.74 3.55 3.55 0 0 0 0-0.46 4.91 4.91 0 0 1 0.21-1.48 0.35 0.35 0 0 1 0.39-0.19zm-1-9.33c0.11-0.07 0.18 0.06 0.25 0.17-0.13 0.17-0.13 0.17-0.33 0.08 0.02-0.02 0.03-0.16 0.08-0.19zm-0.61 6.24 0.4-0.15c0.24-0.07 0.35 0 0.45 0.25a3.13 3.13 0 0 1 0.16 2 3.33 3.33 0 0 1-0.26 0.79 1.37 1.37 0 0 1-0.17 0.23c-0.12 0.14-0.23 0.15-0.35 0a1.14 1.14 0 0 1-0.26-0.35 2.61 2.61 0 0 1-0.3-1.14 3.19 3.19 0 0 1 0.19-1.3c0.08-0.06 0.1-0.18 0.14-0.27z" fill="#fbae17"/>
 <path d="m98.58 109.04c0 8.78 5.34 15.89 11.92 15.89s11.92-7.11 11.92-15.89" fill="#171717"/>
 <path d="m123.32 136.24a11.87 11.87 0 0 1-2.27-0.22c-5.43-1-11.16-6-10.92-14.5a1 1 0 0 1 0.94-0.9 0.93 0.93 0 0 1 0.89 0.95c-0.21 7.44 4.74 11.77 9.42 12.65a8.69 8.69 0 0 0 10.17-5.84 0.92 0.92 0 0 1 1.73 0.62 10.34 10.34 0 0 1-9.96 7.24z" fill="#171717"/>
 <path d="m98.93 136.24a10.36 10.36 0 0 1-10-7.24 0.92 0.92 0 0 1 1.73-0.62 8.69 8.69 0 0 0 10.17 5.84c4.69-0.88 9.64-5.21 9.43-12.65a0.92 0.92 0 1 1 1.83-0.05c0.24 8.51-5.49 13.48-10.92 14.5a12 12 0 0 1-2.24 0.22z" fill="#171717"/>
 <ellipse cx="138.63" cy="116.61" rx="8.25" ry="6.42" fill="#f072ab"/>
 <path d="m123.33 125.64a1.035 1.035 0 0 0 0-2.07 1.035 1.035 0 0 0 0 2.07z" fill="#fbae17"/>
 <path d="m127.29 128.04a1.03 1.03 0 0 0 0-2.06 1.03 1.03 0 0 0 0 2.06z" fill="#fbae17"/>
 <path d="m119.95 128.04a1.03 1.03 0 0 0 0-2.06 1.03 1.03 0 0 0 0 2.06z" fill="#fbae17"/>
 <path d="m123.33 130.56a1.03 1.03 0 0 0 0-2.06 1.03 1.03 0 0 0 0 2.06z" fill="#fbae17"/>
 <ellipse cx="82.37" cy="116.61" rx="8.25" ry="6.42" fill="#f072ab"/>
 <path d="m97.66 125.64a1.035 1.035 0 0 0 0-2.07 1.035 1.035 0 0 0 0 2.07z" fill="#fbae17"/>
 <path d="m93.71 128.04a1.03 1.03 0 0 0 0-2.06 1.03 1.03 0 0 0 0 2.06z" fill="#fbae17"/>
 <path d="m101.04 128.04a1.03 1.03 0 0 0 0-2.06 1.03 1.03 0 0 0 0 2.06z" fill="#fbae17"/>
 <path d="m97.66 130.56a1.03 1.03 0 0 0 0-2.06 1.03 1.03 0 0 0 0 2.06z" fill="#fbae17"/>
 <path d="m127.63 104.8a7.29 7.29 0 0 1 1.4-6.85 8.88 8.88 0 0 1 13.7 0 7.26 7.26 0 0 1 1.4 6.85c-3.05-8.55-13.46-8.56-16.5 0z" fill="#171717"/>
 <path d="m94.63 104.8c-3-8.56-13.46-8.55-16.5 0a7.28 7.28 0 0 1 1.39-6.85 8.89 8.89 0 0 1 13.71 0 7.31 7.31 0 0 1 1.4 6.85z" fill="#171717"/>
</svg>
