<svg width="221mm" height="221mm" version="1.1" viewBox="0 0 221 221" xmlns="http://www.w3.org/2000/svg">
 <circle cx="110" cy="110" r="110" stroke="var(--color-background-border)" strokeWidth='1' fill="var(--color-background)"/>
 <path d="m110.5 221a110.5 110.5 0 1 1 110.5-110.5 110.63 110.63 0 0 1-110.5 110.5zm0-220a109.5 109.5 0 1 0 109.5 109.5 109.62 109.62 0 0 0-109.5-109.5z" fill="#fff"/>
 <path d="m50.61 165.43c8.23-25.24 39.89-43.49 59.89-43.49 22 0 51.67 18.25 59.89 43.49a62.81 62.81 0 0 1 0.66 36.89 109.95 109.95 0 0 1-121.1 0 62.84 62.84 0 0 1 0.66-36.9z" fill="#492d2c"/>
 <path d="m154.6 195.8c7.67-0.8 26.52-18 29-25.85a20 20 0 0 0-4.46-19.63 19.77 19.77 0 0 0-8.57-5.4 6.52 6.52 0 0 1 3.93-12.42 32.61 32.61 0 0 1 12.19 7c-0.13 1.83-0.81 6.09-4.14 8.91 3.33-2.81 4-7.08 4.14-8.91a33 33 0 0 1 9.36 34.37c-4.13 13.1-27.72 33.82-40.63 35a17.07 17.07 0 0 0-0.82-13.07z" fill="#492d2c"/>
 <path d="m169.57 201.09-2 3.46a109.24 109.24 0 0 1-28.88 12.3l-9.29-15.76 20.1-34.11z" fill="#584e8a"/>
 <path d="m132.77 127.08a75.22 75.22 0 0 1 27.89 20.91l-11.19 19-20.11-34.12z" fill="#fbae17"/>
 <path d="m171.36 201.09c-0.11 0.41-0.2 0.83-0.31 1.23l-0.55 0.35-0.93-1.58 2.87-4.87c-0.3 1.65-0.66 3.28-1.08 4.87z" fill="#584e8a"/>
 <path d="m59.03 149.96a78.29 78.29 0 0 1 27.47-21.66l2.69 4.56-20.11 34.12z" fill="#fbae17"/>
 <path d="m69.05 166.98 20.11 34.11-8.93 15.16a109.91 109.91 0 0 1-30.28-13.92c-0.11-0.41-0.2-0.83-0.31-1.24s-0.13-0.55-0.2-0.82z" fill="#584e8a"/>
 <path d="m89.16 132.86 4.46-7.58a45.29 45.29 0 0 1 30.51-1.3l5.23 8.88-20.1 34.12z" fill="#fbae17"/>
 <path d="m129.36 201.09-11.27 19.14c-2.51 0.17-5 0.27-7.59 0.27-3.44 0-6.84-0.18-10.2-0.49l-11.14-18.92 20.1-34.11z" fill="#019678"/>
 <path d="m50.61 165.43a51.24 51.24 0 0 1 8.42-15.47l10 17-19.61 33.29a62.22 62.22 0 0 1 1.17-34.84z" fill="#ec1b34"/>
 <polygon transform="translate(-338.5,-618.5)" points="427.66 751.36 447.76 785.48 427.66 819.59 407.55 785.48" fill="#ec1b34"/>
 <polygon transform="translate(-338.5,-618.5)" points="467.86 751.36 487.97 785.48 467.86 819.59 447.76 785.48" fill="#ec1b34"/>
 <path d="m170.39 165.43a61.93 61.93 0 0 1 2.05 30.79l-2.87 4.87-20.07-34.11 11.19-19a54.71 54.71 0 0 1 9.7 17.45z" fill="#ec1b34"/>
 <path d="m93.62 125.28-4.46 7.58-2.66-4.56a74.81 74.81 0 0 1 7.12-3.02z" fill="#ec1b34"/>
 <path d="m132.77 127.08-3.41 5.78-5.23-8.88a66.91 66.91 0 0 1 8.64 3.1z" fill="#ec1b34"/>
 <path d="m80.23 216.25 8.93-15.16 11.14 18.92a109 109 0 0 1-20.07-3.76z" fill="#fbae17"/>
 <path d="m118.09 220.23 11.27-19.14 9.29 15.76a109 109 0 0 1-20.56 3.38z" fill="#fbae17"/>
 <path d="m167.5 204.55 2-3.46 0.93 1.58c-0.93 0.64-1.93 1.27-2.93 1.88z" fill="#ec1b34"/>
 <path d="m45.73 104.91c4.29 45.4 43.86 49.92 71.07 47.06s63.4-16.8 59.73-60.81c-2.29-27.48-10-49.15-70.62-42.77-58.24 6.11-62.78 29.11-60.18 56.52z" fill="#492d2c"/>
 <path d="m180.78 54.99c-10.35-0.36-19 7.48-19.37 17.52a18.42 18.42 0 0 0 16.59 18.68c0.5 0.06 1 0.09 1.54 0.11 10.35 0.36 19-7.49 19.37-17.51a18.43 18.43 0 0 0-16.59-18.69c-0.51-0.06-1.02-0.09-1.54-0.11z" fill="#492d2c"/>
 <path d="m181.25 64.5a9 9 0 0 1 8.16 8.93c-0.16 4.78-4.44 8.53-9.55 8.35-0.26 0-0.53 0-0.79-0.06a8.94 8.94 0 0 1-8.16-8.92c0.16-4.78 4.44-8.53 9.55-8.35h0.79z" fill="#f072ab"/>
 <path d="m38.9 68.39c-10.35-0.35-19 7.49-19.36 17.52a18.41 18.41 0 0 0 16.59 18.69q0.75 0.09 1.53 0.12c10.36 0.35 19-7.49 19.37-17.52a18.41 18.41 0 0 0-16.59-18.7c-0.5 0-1.02-0.09-1.54-0.11z" fill="#492d2c"/>
 <path d="m39.37 77.94a9 9 0 0 1 8.17 8.93 8.39 8.39 0 0 1-2.81 5.94 9.51 9.51 0 0 1-6.74 2.41l-0.79-0.05a9 9 0 0 1-8.17-8.93 8.35 8.35 0 0 1 2.81-5.94 9.49 9.49 0 0 1 6.74-2.41 7 7 0 0 1 0.79 0.05z" fill="#f072ab"/>
 <path d="m94.35 34.27c-0.11 1.82 1 6.27 5.82 10.73 2.14 2 1.92 1.54 2.76 2.56a12.5 12.5 0 0 0 3.05 2.62 6.69 6.69 0 0 0 3.45 1.36 26.12 26.12 0 0 0 0.21-4.42 8.09 8.09 0 0 0-1.43-4.31 11.41 11.41 0 0 0-3.69-3.1c-1.21-0.72-8.26-2.59-10.17-5.44" fill="#492d2c"/>
 <path d="m89.38 39.67c-0.12 1.82 2 9.79 5.44 10.69 0.51 1.29 2.6 0.48 3.44 1.49a12.32 12.32 0 0 0 3.05 2.63 10.54 10.54 0 0 0 4.37 1.5 10.57 10.57 0 0 0-0.72-4.57c-0.5-1.29-1.33-4.86-5.09-6.07-5.46-1.76-7.8-2.9-10.49-5.67" fill="#492d2c"/>
 <ellipse transform="rotate(-6)" cx="124.9" cy="100.12" rx="28.63" ry="26.84" fill="#fdffe9"/>
 <ellipse transform="rotate(-6)" cx="75.599" cy="98.252" rx="28.63" ry="26.84" fill="#fdffe9"/>
 <ellipse transform="rotate(-6)" cx="98.783" cy="126.89" rx="30" ry="22.42" fill="#fdffe9"/>
 <path d="m95.19 91.5a7.85 7.85 0 0 0-2.69-7.5 10.78 10.78 0 0 0-15.58 1.63 7.84 7.84 0 0 0-1.09 7.87 10.14 10.14 0 0 1 3.51-5.66 10.51 10.51 0 0 1 11.26-1.19 10.1 10.1 0 0 1 4.59 4.85z" fill="#171717"/>
 <path d="m125.36 88.29a10.14 10.14 0 0 1 3.51-5.66 10.49 10.49 0 0 1 11.26-1.13 10.07 10.07 0 0 1 4.61 4.8 7.82 7.82 0 0 0-2.7-7.46 10.77 10.77 0 0 0-15.54 1.59 7.84 7.84 0 0 0-1.14 7.86z" fill="#171717"/>
 <path d="m120.01 96.06c4.31 3.49-3 10.41-7.93 10.93s-13.52-4.73-10-9c2.81-3.55 14.42-4.77 17.93-1.93z" fill="#171717"/>
 <path d="m114.03 125.6c8.78-0.92 15.3-7.49 14.55-14.64a1.33 1.33 0 1 0-2.64 0.28c0.6 5.69-4.87 11-12.19 11.72s-13.75-3.24-14.35-8.93a1.33 1.33 0 0 0-2.64 0.28c0.74 7.19 8.5 12.19 17.27 11.29z" fill="#171717"/>
 <path d="m114 125.32a1.54 1.54 0 0 0 1.27-1.75l-1.85-17.59a1.45 1.45 0 1 0-2.87 0.31l1.85 17.58a1.54 1.54 0 0 0 1.6 1.45z" fill="#171717"/>
 <ellipse transform="rotate(-6)" cx="71.864" cy="111.39" rx="8.33" ry="6.48" fill="#ffa7ca"/>
 <ellipse transform="rotate(-6)" cx="128.66" cy="111.38" rx="8.33" ry="6.48" fill="#ffa7ca"/>
</svg>
