<svg width="220mm" height="220mm" version="1.1" viewBox="0 0 220 220" xmlns="http://www.w3.org/2000/svg">
 <circle cx="110" cy="110" r="110" stroke="var(--color-background-border)" strokeWidth='1' fill="var(--color-background)"/>
 <path d="m157.37 190.57c7.47-6.43-17.22-14.91-47.43-12.84-24.5-1.34-46.5 5.36-48.57 14.71-1.48 8.3 15.08 18.23 53 20.46 38.75-6.37 37.82-14.6 43-22.33z" fill="#3a2f75"/>
 <path d="m110 163.62c4.56 0 8.25 12.62 8.25 28.19s-3.69 28.19-8.25 28.19-8.25-12.62-8.25-28.19 3.69-28.19 8.25-28.19z" fill="#f399c0"/>
 <path d="m105.73 164.37c4 2.19 1.13 15-6.38 28.67s-16.84 22.96-20.83 20.71-1.13-15 6.38-28.67 16.84-22.91 20.83-20.71z" fill="#f399c0"/>
 <path d="m95.66 161.52c3.29 3.16-2.81 14.81-13.6 26s-22.22 17.74-25.5 14.58 2.81-14.81 13.61-26 22.21-17.75 25.49-14.58z" fill="#f399c0"/>
 <path d="m115.28 164.37c-4 2.19-1.13 15 6.38 28.67s16.84 22.96 20.83 20.71 1.14-15-6.37-28.67-16.85-22.91-20.84-20.71z" fill="#f399c0"/>
 <path d="m125.35 161.52c-3.29 3.16 2.81 14.81 13.61 26s22.21 17.74 25.49 14.58-2.81-14.81-13.61-26-22.21-17.75-25.49-14.58z" fill="#f399c0"/>
 <circle transform="rotate(-.75)" cx="108.45" cy="118.33" r="68.89" fill="#f399c0"/>
 <path d="m91.85 69.06a8.87 8.87 0 1 1-8.85-8.86 8.86 8.86 0 0 1 8.85 8.86z" fill="#ffb8d4"/>
 <path d="m106 59.43a5.15 5.15 0 1 1-5.15-5.15 5.15 5.15 0 0 1 5.15 5.15z" fill="#ffb8d4"/>
 <path d="m75.46 179.33c-3 0-3 4.66 0 4.66s3.01-4.66 0-4.66z" fill="#ffc2da"/>
 <path d="m67.86 186.93c-3 0-3 4.66 0 4.66s3.01-4.66 0-4.66z" fill="#ffc2da"/>
 <path d="m92 185.55c-3 0-3 4.66 0 4.66s3.05-4.66 0-4.66z" fill="#ffc2da"/>
 <path d="m87.9 193.84c-3 0-3 4.66 0 4.66s3-4.66 0-4.66z" fill="#ffc2da"/>
 <path d="m110 189c-3 0-3 4.66 0 4.66s3-4.66 0-4.66z" fill="#ffc2da"/>
 <path d="m110 198.67c-3 0-3 4.67 0 4.67s3-4.67 0-4.67z" fill="#ffc2da"/>
 <path d="m128.65 185.55c-3 0-3 4.66 0 4.66s3.01-4.66 0-4.66z" fill="#ffc2da"/>
 <path d="m132.8 194.53c-3 0-3 4.66 0 4.66s3-4.66 0-4.66z" fill="#ffc2da"/>
 <path d="m139 201.44c-3 0-3 4.66 0 4.66s3-4.66 0-4.66z" fill="#ffc2da"/>
 <path d="m143.85 178c-3 0-3 4.66 0 4.66s3-4.66 0-4.66z" fill="#ffc2da"/>
 <path d="m150.06 184.17c-3 0-3 4.66 0 4.66s3.01-4.66 0-4.66z" fill="#ffc2da"/>
 <path d="m156.28 191.07c-3 0-3 4.67 0 4.67s3.01-4.67 0-4.67z" fill="#ffc2da"/>
 <path d="m61.65 193.84c-3 0-3 4.66 0 4.66s3-4.66 0-4.66z" fill="#ffc2da"/>
 <path d="m83.75 202.13c-3 0-3 4.66 0 4.66s3.01-4.66 0-4.66z" fill="#ffc2da"/>
 <path d="m110.15 131.37a12 12 0 0 1-6.51-1.9c-4.07-2.61-6.08-7.31-5.5-12.9a1.31 1.31 0 0 1 1.41-1.15 1.29 1.29 0 0 1 1.16 1.41c-0.47 4.59 1.1 8.41 4.32 10.47a9.33 9.33 0 0 0 9.71 0.26c3.29-1.94 4.92-5.76 4.6-10.77a1.29 1.29 0 0 1 1.2-1.38 1.37 1.37 0 0 1 1.38 1.21c0.38 5.95-1.76 10.75-5.87 13.17a11.57 11.57 0 0 1-5.9 1.58z" fill="#171717"/>
 <path d="m132.88 106.91c5.16-8 18.17-4.28 20.64 1.11-7.36-2.07-13.32-5.1-19.85-0.47 0 0-1.22 0.06-0.79-0.64z" fill="#171717"/>
 <path d="m134.8 95.81c0.42-0.11 0.8 0 0.85 0.17l1.92 7.77c0 0.19-0.26 0.44-0.68 0.55-0.42 0.1-0.8 0-0.85-0.18l-1.91-7.76c0-0.2 0.25-0.45 0.67-0.55zm6.91-0.59c0.44 0 0.8 0.14 0.8 0.35l0.28 8c0 0.2-0.34 0.39-0.77 0.4-0.44 0-0.79-0.14-0.8-0.35l-0.28-8c0-0.21 0.34-0.39 0.77-0.4zm7.58 0.75c0.42 0.13 0.71 0.39 0.65 0.59l-2.26 7.66c0 0.19-0.44 0.26-0.85 0.13-0.42-0.12-0.71-0.39-0.65-0.59l2.25-7.66c0.06-0.19 0.45-0.25 0.86-0.13z" fill="#171717" fill-rule="evenodd"/>
 <path d="m87.12 106.91c-5.16-8-18.17-4.28-20.64 1.11 7.36-2.07 13.32-5.1 19.85-0.47 0 0 1.22 0.06 0.79-0.64z" fill="#171717"/>
 <path d="m85.2 95.81c0.42 0.1 0.72 0.35 0.67 0.55l-1.87 7.76c-0.05 0.2-0.43 0.28-0.85 0.18-0.42-0.11-0.72-0.36-0.68-0.55l1.92-7.77c0-0.2 0.43-0.28 0.85-0.17zm-6.91-0.59c0.43 0 0.77 0.19 0.77 0.4l-0.28 8c0 0.21-0.36 0.36-0.8 0.35-0.43 0-0.78-0.2-0.77-0.4l0.28-8c0-0.21 0.36-0.37 0.8-0.35zm-7.58 0.75c0.41-0.12 0.8-0.06 0.86 0.13l2.25 7.66c0.06 0.2-0.23 0.47-0.65 0.59-0.41 0.13-0.8 0.06-0.85-0.13l-2.26-7.66c-0.06-0.2 0.23-0.46 0.65-0.59z" fill="#171717" fill-rule="evenodd"/>
 <ellipse cx="143.65" cy="123.04" rx="9.87" ry="7.68" fill="#f072ab"/>
 <ellipse cx="76.35" cy="123.04" rx="9.87" ry="7.68" fill="#f072ab"/>
</svg>
