<svg width="221mm" height="221mm" version="1.1" viewBox="0 0 221 221" xmlns="http://www.w3.org/2000/svg">
 <circle cx="110" cy="110" r="110" stroke="var(--color-background-border)" strokeWidth='1' fill="var(--color-background)"/>
 <path d="m67.1 146.5c-13.1 7.74-23.94 28.35-28.46 47.24a109.88 109.88 0 0 0 144.44-0.62c-3.8-17.75-13.83-36.27-22-44.62-14.04-14.39-70.99-15.59-93.98-2z" fill="#171717"/>
 <path d="m177.89 176.5-5.7 9.68 6.31 10.71c1.55-1.22 3.08-2.47 4.56-3.77a101.29 101.29 0 0 0-5.17-16.62z" fill="#171717"/>
 <path d="m68.09 145.96 3.58 6.08 6-10.08a53.44 53.44 0 0 0-9.58 4z" fill="#171717"/>
 <path d="m145.38 140.66 6.71 11.38 4.19-7.12a48.4 48.4 0 0 0-10.9-4.26z" fill="#171717"/>
 <path d="m112 220.5-0.12-0.2-0.11 0.2z" fill="#171717"/>
 <path d="m131.98 186.16 16.29 27.64a108.72 108.72 0 0 0 10.17-4.3l13.75-23.34-20.1-34.12z" fill="#171717"/>
 <path d="m38.64 193.74c1.86 1.61 3.78 3.13 5.75 4.61l7.18-12.19-6.54-11.11a107.48 107.48 0 0 0-6.39 18.69z" fill="#171717"/>
 <path d="m103.24 137.37 8.64 14.67 8.8-14.93a153.89 153.89 0 0 0-17.44 0.26z" fill="#171717"/>
 <polygon transform="translate(-60.5,-619.5)" points="172.38 839.77 192.48 805.66 172.38 771.54 152.28 805.66" fill="#171717"/>
 <path d="m51.57 186.16 14.79 25.09q4.23 1.86 8.65 3.36l16.77-28.45-20.11-34.12z" fill="#171717"/>
 <path d="m178.5 196.89-6.33-10.73-13.73 23.34a109.92 109.92 0 0 0 20.06-12.61z" fill="#fbae17"/>
 <path d="m112 220.5a109.54 109.54 0 0 0 36.27-6.67l-16.29-27.64-20.1 34.11z" fill="#fbae17"/>
 <path d="m75.01 214.61a109.4 109.4 0 0 0 35.49 5.89h1.27l0.11-0.2-20.1-34.11z" fill="#fbae17"/>
 <path d="m66.36 211.25-14.79-25.09-7.18 12.19a109.93 109.93 0 0 0 21.97 12.9z" fill="#fbae17"/>
 <path d="m161.1 148.5a21.66 21.66 0 0 0-4.82-3.58l-4.19 7.12 20.1 34.12 5.7-9.68c-4.74-11.76-11.2-22.26-16.79-27.98z" fill="#fbae17"/>
 <path d="m120.68 137.11-8.8 14.93 20.1 34.12 20.11-34.12-6.71-11.38a114 114 0 0 0-24.7-3.55z" fill="#fbae17"/>
 <path d="m103.24 137.37a111.91 111.91 0 0 0-25.62 4.59l-6 10.08 20.11 34.12 20.1-34.12z" fill="#fbae17"/>
 <path d="m67.1 146.5c-8.79 5.19-16.55 16.18-22.07 28.55l6.54 11.11 20.1-34.12-3.58-6.08c-0.33 0.18-0.67 0.35-0.99 0.54z" fill="#fbae17"/>
 <path d="m149.64 71.33a28.27 28.27 0 0 1 1.71-13.18 18.05 18.05 0 0 1 8.86-9.65 15.13 15.13 0 0 1 15.83 25.5c-5.13 4.16-12.25 4.52-18.85 4.69z" fill="#171717"/>
 <path d="m71.36 73.33a28.27 28.27 0 0 0-1.71-13.18 18.05 18.05 0 0 0-8.86-9.65 15.13 15.13 0 0 0-15.83 25.5c5.13 4.16 12.25 4.52 18.85 4.69z" fill="#171717"/>
 <path d="m175.5 102.13c0 29.25-1 55-65 55-60 0-65-25.72-65-55s29.1-53 65-53 65 23.75 65 53z" fill="#fdffe9"/>
 <path d="m97.64 84.98c2.82 3.88 3 9.3 1.14 13.72a22.44 22.44 0 0 1-9.7 10.3 31.48 31.48 0 0 1-17.83 4.07c-4.43-0.32-9.26-2-11.29-5.92a10.87 10.87 0 0 1 0.17-9.27 26.77 26.77 0 0 1 5.75-7.61c4.32-4.35 9.23-8.43 15.14-10s13.01-0.25 16.62 4.71z" fill="#766e7a"/>
 <path d="m123.36 84.98c-2.82 3.88-3 9.3-1.14 13.72a22.44 22.44 0 0 0 9.7 10.3 31.48 31.48 0 0 0 17.83 4.07c4.43-0.32 9.26-2 11.29-5.92a10.87 10.87 0 0 0-0.17-9.27 26.77 26.77 0 0 0-5.75-7.61c-4.32-4.35-9.23-8.43-15.14-10s-13.01-0.25-16.62 4.71z" fill="#766e7a"/>
 <path d="m158.56 119.7a16.68 16.68 0 0 0-13.13-0.12c-2.11 0.89-4.22 2.55-4.38 4.84a4.87 4.87 0 0 0 1.79 3.88 9.3 9.3 0 0 0 4 1.88 18.06 18.06 0 0 0 11.4-0.92c2.2-1 4.45-2.8 4.28-5.19-0.18-2.06-2.08-3.57-3.96-4.37z" fill="#f399c0"/>
 <path d="m76.02 119.7a16.68 16.68 0 0 0-13.13-0.12c-2.11 0.89-4.22 2.55-4.38 4.84a4.89 4.89 0 0 0 1.78 3.88 9.41 9.41 0 0 0 4 1.88 18.09 18.09 0 0 0 11.41-0.92c2.2-1 4.45-2.8 4.28-5.19-0.18-2.06-2.08-3.57-3.96-4.37z" fill="#f399c0"/>
 <path d="m131.96 96.27c-0.53 0.51 0.55 0.72 0.55 0.72 6.71-2.63 11.29 1.27 17.3 4.63-1.01-5.21-11.63-11.18-17.85-5.35z" fill="#171717"/>
 <path d="m89.02 96.32c-6.18-5.86-16.81 0-17.85 5.25 6-3.32 10.61-7.2 17.3-4.54 0.03 0 1.08-0.2 0.55-0.71z" fill="#171717"/>
 <path d="m118.73 116.21a4 4 0 0 0-2.74-1.52 6.48 6.48 0 0 0-0.77-0.07h-2.11l-6.15 0.09h-1.27a4.83 4.83 0 0 0-1.15 0.16 3.9 3.9 0 0 0-2.32 1.53 2.67 2.67 0 0 0 0.14 3.24l4.87 6.08a3.16 3.16 0 0 0 0.62 0.59 3.37 3.37 0 0 0 0.61 0.36l0.16 0.1a5.2 5.2 0 0 0 1.78 0.39h0.24a4.29 4.29 0 0 0 3.38-1.56l1.42-1.89 3.25-4.33a2.66 2.66 0 0 0 0.04-3.17z" fill="#171717"/>
 <path d="m120.5 138.07a10.7 10.7 0 0 1-1.85-0.14c-4.41-0.76-9.12-4.72-9-11.63a0.78 0.78 0 0 1 0.75-0.73 0.75 0.75 0 0 1 0.74 0.75c-0.08 6 4 9.49 7.79 10.14a7 7 0 0 0 8.17-4.86 0.74473 0.74473 0 0 1 1.41 0.48 8.37 8.37 0 0 1-8.01 5.99z" fill="#171717"/>
 <path d="m100.71 138.38a8.39 8.39 0 0 1-8.16-5.75 0.74204 0.74204 0 0 1 1.39-0.52 7.05 7.05 0 0 0 8.32 4.61c3.78-0.77 7.74-4.35 7.48-10.38a0.74 0.74 0 0 1 0.71-0.77 0.72 0.72 0 0 1 0.77 0.71c0.3 6.9-4.28 11-8.67 11.89a9.89 9.89 0 0 1-1.84 0.21z" fill="#171717"/>
 <path d="m110.5 221a110.5 110.5 0 1 1 110.5-110.5 110.63 110.63 0 0 1-110.5 110.5zm0-220a109.5 109.5 0 1 0 109.5 109.5 109.62 109.62 0 0 0-109.5-109.5z" fill="#fff"/>
</svg>
