<svg width="220mm" height="220mm" version="1.1" viewBox="0 0 220 220" xmlns="http://www.w3.org/2000/svg">
 <circle cx="110" cy="110" r="110" stroke="var(--color-background-border)" strokeWidth='1' fill="var(--color-background)"/>
 <path d="m164.57 164.73q1.17 1.71 2.36 3.68-1.19-1.96-2.36-3.68z" fill="#019678"/>
 <path d="m162.31 161.54 1 1.43z" fill="#019678"/>
 <path d="m47.65 181.62c-0.35 1-0.68 2-1 3.1 0.35-1.06 0.65-2.09 1-3.1z" fill="#019678"/>
 <path d="m58.35 163.06c-0.68 0.83-1.36 1.71-2.06 2.65 0.71-0.94 1.38-1.82 2.06-2.65z" fill="#019678"/>
 <path d="m45.85 188.31q0.33-1.74 0.78-3.39-0.45 1.65-0.78 3.39z" fill="#019678"/>
 <path d="m172.6 180.94c-0.37-1.2-0.78-2.36-1.22-3.48-0.58-1.5-1.22-2.9-1.89-4.26-0.82-1.69-1.68-3.3-2.56-4.78-6.91 6.45-18.7 10-23.6 19.74-7.12-14.15-28.87-15.26-28.87-31.21h8.87c0 11.05 15.07 11.82 20 21.62 4.16-8.25 15.45-10.12 18.93-17.08l0.05 0.06-0.05-0.06-1.11-1.48-0.71-0.92c-0.61-0.79-1.16-1.51-1.63-2.14a9.84 9.84 0 0 1-1.65-2.67c-1.36-4.94 4-54.16-47.18-54.16s-43.31 49.22-44.67 54.16a9.33 9.33 0 0 1-1.8 2.67c-0.63 0.75-1.39 1.62-2.23 2.6l-1.19 1.4-0.21 0.24c-0.44 0.52-0.88 1.06-1.35 1.64-0.06 0.07-0.12 0.16-0.18 0.24a2.23 2.23 0 0 1 0.19-0.24c4.17 5.9 14.25 8.05 18.13 15.74 4.93-9.8 20-10.57 20-21.62h8.87c0 15.95-21.75 17.06-28.87 31.21-4.71-9.35-15.8-13-22.78-19-0.55 0.84-1.09 1.71-1.63 2.62l-0.1 0.17c-0.54 0.92-1.06 1.87-1.57 2.85-0.47 0.9-0.91 1.85-1.34 2.81-0.12 0.27-0.24 0.55-0.35 0.83-0.31 0.73-0.6 1.46-0.88 2.22-0.08 0.21-0.17 0.4-0.25 0.62s-0.07 0.23-0.11 0.35c0-0.12 0.09-0.23 0.13-0.34 8.92 8.14 24.43 12.41 24.43 25.66a14.47 14.47 0 0 1-1.2 5.92 107.38 107.38 0 0 0 14.2 4.3 14.5 14.5 0 0 1-4.09-10.22c0-15.94 22.48-18.89 28.88-31.21 6.4 12.32 28.88 15.27 28.88 31.21a14.5 14.5 0 0 1-4.09 10.22 107.38 107.38 0 0 0 14.2-4.3 14.47 14.47 0 0 1-1.2-5.92c-0.01-13.45 15.95-17.65 24.8-26.01z" fill="#019678"/>
 <path d="m45.81 188.58a2.51 2.51 0 0 1 0-0.27l-0.06 0.25c-0.19 1-0.34 2-0.46 3.09v0.42c-0.12 1.07-0.2 2.16-0.24 3.28v0.1 3.12 0.18a110 110 0 0 0 18 10.73 10.72 10.72 0 0 0 0.3-2.54c-0.02-9.49-11.49-12.34-17.54-18.36z" fill="#019678"/>
 <path d="m110 185.33c-4.43 8.53-20 10.57-20 21.61 0 6.4 5.06 9.35 10.27 12.61 3.21 0.28 6.45 0.45 9.73 0.45s6.52-0.17 9.73-0.45c5.27-3.26 10.27-6.21 10.27-12.61 0-11.04-15.56-13.08-20-21.61z" fill="#019678"/>
 <path d="m175 195.28c0-1.11-0.09-2.19-0.18-3.25 0-0.19 0-0.38-0.05-0.56-0.1-1-0.22-2.06-0.38-3.06-6 6.14-17.7 9-17.7 18.53a10.72 10.72 0 0 0 0.3 2.54 110.44 110.44 0 0 0 18-10.71v-0.24c0.05-1.08 0.07-2.15 0-3.19 0.01-0.02 0.01-0.04 0.01-0.06z" fill="#019678"/>
 <path d="m105.54 156.94h-8.87c0 11.05-15.07 11.82-20 21.62-3.88-7.7-14-9.84-18.14-15.74-0.73 0.9-1.48 1.86-2.24 2.89l-0.1 0.13c-0.76 1-1.54 2.13-2.3 3.29 7 6 18.07 9.66 22.78 19 7.12-14.13 28.87-15.24 28.87-31.19z" fill="#36b1a7"/>
 <path d="m166.93 168.41q-1.19-2-2.36-3.68l-0.07-0.11c-0.35-0.52-0.71-1-1.06-1.52l-0.09-0.13c-0.37-0.52-0.73-1-1.09-1.49-3.48 7-14.77 8.83-18.93 17.08-4.93-9.8-20-10.57-20-21.62h-8.87c0 15.95 21.75 17.06 28.87 31.21 4.9-9.72 16.67-13.29 23.6-19.74z" fill="#36b1a7"/>
 <path d="m47.76 181.27c-0.39 1.11-0.75 2.27-1.08 3.45 0 0.06 0 0.13-0.05 0.2-0.32 1.18-0.61 2.39-0.84 3.64 6 6 17.54 8.88 17.54 18.38a10.72 10.72 0 0 1-0.3 2.54c2.6 1.23 5.27 2.36 8 3.38a14.47 14.47 0 0 0 1.2-5.92c-0.02-13.26-15.55-17.53-24.47-25.67z" fill="#36b1a7"/>
 <path d="m110 175.73c-6.4 12.32-28.88 15.27-28.88 31.21a14.5 14.5 0 0 0 4.09 10.22 109.65 109.65 0 0 0 15.06 2.39c-5.21-3.26-10.27-6.21-10.27-12.61 0-11 15.57-13.08 20-21.61 4.44 8.53 20 10.57 20 21.61 0 6.4-5.05 9.35-10.27 12.61a109.65 109.65 0 0 0 15.06-2.39 14.5 14.5 0 0 0 4.09-10.22c0-15.94-22.48-18.89-28.88-31.21z" fill="#36b1a7"/>
 <path d="m174.37 188.41c-0.2-1.29-0.46-2.54-0.74-3.75a0.94 0.94 0 0 1 0-0.16c-0.29-1.22-0.62-2.41-1-3.56-8.85 8.36-24.81 12.56-24.81 26a14.47 14.47 0 0 0 1.2 5.92c2.71-1 5.38-2.15 8-3.38a10.72 10.72 0 0 1-0.3-2.54c-0.05-9.58 11.65-12.39 17.65-18.53z" fill="#36b1a7"/>
 <path d="m70.21 26.84c23.92-8.44 26.6 56.86 24.44 62.82s-54.93-52.08-24.44-62.82z" fill="#fdffe9"/>
 <path d="m72.66 37.93c9.85-2.94 16.5 28 12.57 30s-25.13-26.25-12.57-30z" fill="#f072ab"/>
 <path d="m149.79 26.84c-23.92-8.44-26.6 56.86-24.44 62.82s54.93-52.08 24.44-62.82z" fill="#fdffe9"/>
 <path d="m147.34 37.93c-9.85-2.94-16.5 28-12.57 30s25.13-26.25 12.57-30z" fill="#f072ab"/>
 <path d="m163.44 127c0 29.52-23.93 49.44-53.44 49.44s-53.44-19.93-53.44-49.44 23.93-47.43 53.44-47.43 53.44 17.91 53.44 47.43z" fill="#fdffe9"/>
 <path d="m120.34 150.27a9.38 9.38 0 0 1-1.38-0.11c-5.06-0.8-10.09-6.12-9.88-14.75a0.9 0.9 0 0 1 0.87-0.83 0.85 0.85 0 0 1 0.83 0.87c-0.18 7.65 4.11 12.34 8.45 13 3.7 0.59 6.8-1.73 8.08-6a0.85103 0.85103 0 1 1 1.63 0.49c-1.37 4.58-4.66 7.33-8.6 7.33z" fill="#171717"/>
 <path d="m99.66 150.27c-3.94 0-7.23-2.75-8.6-7.33a0.85103 0.85103 0 1 1 1.63-0.49c1.29 4.3 4.37 6.6 8.08 6 4.33-0.69 8.63-5.38 8.45-13a0.85 0.85 0 0 1 1.7 0c0.21 8.63-4.82 14-9.89 14.75a9.14 9.14 0 0 1-1.37 0.07z" fill="#171717"/>
 <ellipse cx="138.06" cy="128.42" rx="8.59" ry="7" fill="#ffb0d2"/>
 <ellipse cx="81.94" cy="128.42" rx="8.59" ry="7" fill="#ffb0d2"/>
 <path d="m143.67 117.43a1 1 0 0 1-1-1 7.42 7.42 0 0 0-14.83 0 1 1 0 0 1-2 0 9.42 9.42 0 0 1 18.83 0 1 1 0 0 1-1 1z" fill="#171717"/>
 <path d="m93.16 117.43a1 1 0 0 1-1-1 7.42 7.42 0 0 0-14.83 0 1 1 0 0 1-2 0 9.42 9.42 0 0 1 18.83 0 1 1 0 0 1-1 1z" fill="#171717"/>
 <path d="m122.81 136.84a1.03 1.03 0 0 0 0-2.06 1.03 1.03 0 0 0 0 2.06z" fill="#f399c0"/>
 <path d="m126.77 139.24a1.03 1.03 0 0 0 0-2.06 1.03 1.03 0 0 0 0 2.06z" fill="#f399c0"/>
 <path d="m119.42 139.24a1.03 1.03 0 0 0 0-2.06 1.03 1.03 0 0 0 0 2.06z" fill="#f399c0"/>
 <path d="m122.81 141.76a1.03 1.03 0 0 0 0-2.06 1.03 1.03 0 0 0 0 2.06z" fill="#f399c0"/>
 <path d="m96.62 136.84a1.03 1.03 0 0 0 0-2.06 1.03 1.03 0 0 0 0 2.06z" fill="#f399c0"/>
 <path d="m100.58 139.24a1.03 1.03 0 0 0 0-2.06 1.03 1.03 0 0 0 0 2.06z" fill="#f399c0"/>
 <path d="m93.23 139.24a1.03 1.03 0 0 0 0-2.06 1.03 1.03 0 0 0 0 2.06z" fill="#f399c0"/>
 <path d="m96.62 141.76a1.03 1.03 0 0 0 0-2.06 1.03 1.03 0 0 0 0 2.06z" fill="#f399c0"/>
 <path d="m127.81 133.68 24.2-4.41-23.9 5.83a0.72 0.72 0 0 1-0.88-0.53 0.73 0.73 0 0 1 0.54-0.88z" fill="#f399c0"/>
 <path d="m128.39 141 20.74 6.29-21.13-4.91a0.72 0.72 0 0 1-0.54-0.87 0.72 0.72 0 0 1 0.87-0.54z" fill="#f399c0"/>
 <path d="m128 137.38 37 0.58-37 0.88a0.73 0.73 0 1 1 0-1.45z" fill="#f399c0"/>
 <path d="m91.89 135.1-23.89-5.83 24.2 4.41a0.72 0.72 0 0 1 0.59 0.84 0.73 0.73 0 0 1-0.85 0.59z" fill="#f399c0"/>
 <path d="m92 142.38-21.12 4.89 20.73-6.27a0.73 0.73 0 1 1 0.42 1.39z" fill="#f399c0"/>
 <path d="m92 138.84-37-0.84 37-0.58a0.73 0.73 0 0 1 0.74 0.72 0.73 0.73 0 0 1-0.71 0.74z" fill="#f399c0"/>
 <path d="m109.86 140.47c4.07-3 6.14-4.69 7.47-6.93 1.88-3.16 0.81-5.87-1.5-7a4.38 4.38 0 0 0-5.8 2 4.41 4.41 0 0 0-5.76-2.16c-2.33 1-3.48 3.7-1.69 6.91 1.27 2.32 3.29 4.07 7.28 7.18z" fill="#f072ab" fill-rule="evenodd"/>
</svg>
