<svg width="220mm" height="220mm" version="1.1" viewBox="0 0 220 220" xmlns="http://www.w3.org/2000/svg">
 <circle cx="110" cy="110" r="110" stroke="var(--color-background-border)" strokeWidth='1' fill="var(--color-background)"/>
 <path d="m88.48 186.82a60.91 60.91 0 0 0-32.35-29.75c-23.55-9.21-9.12-45.63-17.33-49.24s-57.09 30-10.46 77.07c41.61 42 62.11 17.4 62.11 17.4z" fill="#737077"/>
 <path d="m12 129.32a43.1 43.1 0 0 1 7.56-11.1 82.14 82.14 0 0 0 22.09 5.54 90.6 90.6 0 0 0 0.52 12.75 109.69 109.69 0 0 1-15-2.47 111.16 111.16 0 0 1-15.17-4.72z" fill="#b7b9bd"/>
 <path d="m16.62 167.85c-0.5 0.06-1 0.09-1.51 0.14a50.94 50.94 0 0 1-5.46-13.24 82 82 0 0 0 35.52-7.67 19.71 19.71 0 0 0 9.57 9.36 96.8 96.8 0 0 1-20.38 8 111.65 111.65 0 0 1-17.74 3.41z" fill="#b7b9bd"/>
 <path d="m37.91 193.71c-3.06-2.55-6.24-5.44-9.57-8.8-1.12-1.14-2.17-2.26-3.19-3.38a81.77 81.77 0 0 0 46.45-15.53 62.57 62.57 0 0 1 9 8.74c-7.47 6.41-16.71 10.87-25.82 14.24a111.88 111.88 0 0 1-16.87 4.73z" fill="#b7b9bd"/>
 <path d="m73 133c22.54 10.54 41.64 18.39 65.89 13a131.32 131.32 0 0 0 19.37-5.88 190.73 190.73 0 0 1 24.38 52.44 109.89 109.89 0 0 1-140 4.37 272.76 272.76 0 0 1 23.69-58.25c0.04-0.06 6.67-5.62 6.67-5.68z" fill="#837f87"/>
 <path d="m45.61 187.12c43.49 7.3 91.18-1.06 135.87 1.75 0.39 1.23 0.8 2.46 1.16 3.7a110.45 110.45 0 0 1-15.32 11.3c-37.72-1.08-77.16 4.26-114.11 0.32a110.83 110.83 0 0 1-10.56-7.25c0.92-3.29 1.92-6.56 2.96-9.82z" fill="#171717"/>
 <path d="m66.34 138.69c0-0.07 6.64-5.63 6.66-5.69 9.22 4.31 17.86 8.15 26.52 10.84a274.2 274.2 0 0 1-34.82-2.07c0.55-1.03 1.08-2.06 1.64-3.08z" fill="#171717"/>
 <path d="m51 171.87q3-7.65 6.35-15.11c35.68 5.3 74 0.65 111.14 0.6q4 7.63 7.29 15.61c-41.41-1.2-84.85 5.33-124.78-1.1z" fill="#171717"/>
 <path d="m158.26 140.13c0.43 0.64 0.84 1.31 1.26 2l-7.32 0.21c2.04-0.72 4.06-1.43 6.06-2.21z" fill="#171717"/>
 <path d="m167.32 203.87a109.91 109.91 0 0 1-114.11 0.32c36.95 3.94 76.39-1.4 114.11-0.32z" fill="#3e3e3f"/>
 <path d="m57.31 156.76q3.47-7.61 7.39-15a274.2 274.2 0 0 0 34.82 2.07c12.51 3.89 25 5.35 39.37 2.17a128 128 0 0 0 13.31-3.71l7.32-0.21q4.83 7.43 8.93 15.27c-37.11 0.06-75.45 4.71-111.14-0.59z" fill="#3e3e3f"/>
 <path d="m45.61 187.12q2.45-7.71 5.35-15.25c40 6.43 83.41-0.1 124.78 1.1 2.15 5.2 4 10.51 5.74 15.9-44.69-2.81-92.38 5.55-135.87-1.75z" fill="#3e3e3f"/>
 <path d="m95.12 56.13c4.46 11.34 2.26 22.82-4.91 25.64s-16.6-4.09-21.06-15.43-2.26-22.83 4.91-25.65 16.6 4.09 21.06 15.44z" fill="#837f87"/>
 <path d="m94.09 65c3.91 9.9 2.77 19.62-2.54 21.7s-12.79-4.26-16.7-14.17-2.54-19.7 2.55-21.7 12.78 4.27 16.69 14.17z" fill="#b7b9bd"/>
 <path d="m151.66 67.17c-8.39 8.83-10.67 20.3-5.09 25.61s16.92 2.45 25.32-6.38 10.68-20.3 5.09-25.61-16.92-2.45-25.32 6.38z" fill="#837f87"/>
 <path d="m149.56 74.34c-7.35 7.7-9.95 17.14-5.81 21.06s13.45 0.86 20.79-6.85 10-17.14 5.81-21.06-13.45-0.86-20.79 6.85z" fill="#b7b9bd"/>
 <path d="m44.32 100.34c-4.34 4.39 2.83 12 6.54 17.21 9 12.54 24.92 21.63 32.87 25.58 2.37 1.19 4 1.91 4.58 2.13 9.35 3.76 24.62 9.14 45 6.71a102.39 102.39 0 0 0 32.12-9.65 79.11 79.11 0 0 0 7.41-4c4.79-2.92 16.1-5.45 13.34-10.45-6.87-12.42-12.7-42.78-36.67-61.6a52.53 52.53 0 0 0-22.92-10.09 56.9 56.9 0 0 0-28.12 1.44c-29.51 9.14-46.77 39.85-53.88 42.69-0.13 0.02-0.22-0.03-0.27 0.03z" fill="#fdffe9"/>
 <path d="m98.42 57.61a90.93 90.93 0 0 1 9.73 26.68c2.85 14.37 4.3 29.32 2 45a26.16 26.16 0 0 1 4.68 0.4c4-17 9.22-31.76 17.51-44.8a64.86 64.86 0 0 1 17.16-18.61 52.53 52.53 0 0 0-22.92-10.09 56.9 56.9 0 0 0-28.16 1.42z" fill="#837f87"/>
 <path d="m131.14 125.4a78 78 0 0 0 2.12 26.6 102.39 102.39 0 0 0 32.12-9.65 79.11 79.11 0 0 0 7.41-4 71.93 71.93 0 0 0-7.18-18.06c-4.09-7.1-10.93-16.14-19.16-17.89-11.79-2.55-14.52 14.43-15.31 23z" fill="#837f87"/>
 <path d="m50.86 117.55c9 12.54 24.92 21.63 32.87 25.58a78.93 78.93 0 0 0 12.5-24.55c2.48-8.24 6.34-25-5.52-27.11-8.29-1.47-18 4.33-24.49 9.37a74.54 74.54 0 0 0-15.36 16.71z" fill="#837f87"/>
 <path d="m138.69 131.69c-0.66 3.38 2.33 6.82 6.66 7.66s8.4-1.21 9.06-4.59-2.32-6.81-6.66-7.66-8.4 1.21-9.06 4.59z" fill="#f399c0"/>
 <path d="m70.92 118.46c-0.66 3.38 2.32 6.81 6.66 7.65s8.39-1.2 9-4.59-2.32-6.81-6.66-7.65-8.34 1.2-9 4.59z" fill="#f399c0"/>
 <path d="m107.69 122.26a3.13 3.13 0 0 1 2.3-0.79 4.34 4.34 0 0 1 0.61 0.06l1.61 0.31 4.7 0.92 1 0.19a4 4 0 0 1 0.85 0.28 3 3 0 0 1 1.57 1.49 2.08 2.08 0 0 1-0.55 2.46l-4.56 4a2.8 2.8 0 0 1-1.08 0.56h-0.13a4 4 0 0 1-1.42 0.06h-0.19a3.3 3.3 0 0 1-2.37-1.66l-0.83-1.64-1.9-3.77a2.07 2.07 0 0 1 0.39-2.47z" fill="#171717"/>
 <path d="m102.59 138.63a7.48 7.48 0 0 0 1.44 0.14 8.67 8.67 0 0 0 8.52-7.66 0.63 0.63 0 0 0-0.48-0.67 0.6 0.6 0 0 0-0.67 0.48 7.54 7.54 0 0 1-7.36 6.7 5.49 5.49 0 0 1-5.59-4.85 0.58125 0.58125 0 0 0-1.15 0.17 6.55 6.55 0 0 0 5.29 5.69z" fill="#171717"/>
 <path d="m117.7 141.58a6.53 6.53 0 0 0 7-3.28 0.58054 0.58054 0 0 0-1-0.59 5.48 5.48 0 0 1-7 2.39 7.56 7.56 0 0 1-4.31-9 0.57 0.57 0 0 0-0.43-0.69 0.57 0.57 0 0 0-0.69 0.44 8.68 8.68 0 0 0 5 10.3 8.4 8.4 0 0 0 1.43 0.43z" fill="#171717"/>
 <path d="m90.13 105c-4.54-5.12-13.47-1.13-14.66 3 5-2.24 9-5 14.17-2.43 0-0.06 0.88-0.14 0.49-0.57z" fill="#171717"/>
 <path d="m87.58 97.29c0.31 0 0.56 0.18 0.54 0.33l-0.55 5.71c0 0.15-0.27 0.25-0.59 0.22-0.31 0-0.55-0.18-0.54-0.32l0.55-5.72c0-0.15 0.28-0.25 0.59-0.22zm-5 0.32c0.31 0 0.58 0.05 0.6 0.2l0.65 5.7c0 0.15-0.22 0.3-0.53 0.34-0.32 0-0.58-0.06-0.6-0.21l-0.65-5.7c0-0.15 0.22-0.3 0.53-0.33zm-5.35 1.33c0.29-0.13 0.57-0.13 0.63 0l2.43 5.21c0.07 0.13-0.11 0.35-0.4 0.48-0.28 0.14-0.56 0.13-0.63 0l-2.43-5.2c-0.06-0.14 0.12-0.35 0.4-0.49z" fill="#171717" fill-rule="evenodd"/>
 <path d="m141.86 114.84c6.23-2.84 12.78 4.42 12.22 8.65-3.72-4.1-6.2-8.24-12-8 0.02 0.04-0.75-0.39-0.22-0.65z" fill="#171717"/>
 <path d="m147.31 108.85c0.3 0.1 0.5 0.29 0.45 0.43l-1.76 5.45c-0.05 0.14-0.33 0.18-0.63 0.08-0.29-0.1-0.5-0.3-0.45-0.44l1.81-5.45c0.05-0.14 0.33-0.17 0.63-0.07zm4.46 2.31c0.27 0.16 0.43 0.4 0.35 0.52l-2.9 5c-0.08 0.12-0.36 0.1-0.63-0.06s-0.43-0.39-0.35-0.52l2.91-4.95c0.07-0.13 0.35-0.1 0.62 0.05zm4.35 3.39c0.21 0.24 0.28 0.51 0.17 0.61l-4.29 3.77c-0.11 0.09-0.37 0-0.57-0.25-0.21-0.24-0.28-0.51-0.17-0.61l4.33-3.77c0.11-0.1 0.37 0 0.57 0.25z" fill="#171717" fill-rule="evenodd"/>
 <path d="m136.33 69.77a0.29 0.29 0 0 0 0.26-0.08 16.13 16.13 0 0 0 1.75-2.31c0.3-0.45 0.61-0.92 0.94-1.35a0.3 0.3 0 0 0-0.06-0.4 0.28 0.28 0 0 0-0.4 0.05c-0.34 0.45-0.66 0.93-1 1.38a16 16 0 0 1-1.68 2.24 0.28 0.28 0 0 0 0 0.4 0.27 0.27 0 0 0 0.19 0.07z" fill="#b7b9bd"/>
 <path d="m133.44 68.63a0.28 0.28 0 0 0 0.31-0.16c0.14-0.29 0.27-0.58 0.4-0.88a26.71 26.71 0 0 1 1.51-3 0.27 0.27 0 0 0-0.09-0.39 0.28 0.28 0 0 0-0.39 0.09 24.15 24.15 0 0 0-1.55 3c-0.13 0.29-0.26 0.58-0.4 0.87a0.3 0.3 0 0 0 0.14 0.38z" fill="#b7b9bd"/>
 <path d="m130.47 67.86a0.3 0.3 0 0 0 0.33-0.19c0.13-0.4 0.25-0.84 0.36-1.29a8.91 8.91 0 0 1 1-2.64 0.28 0.28 0 0 0-0.08-0.39 0.29 0.29 0 0 0-0.4 0.08 9.66 9.66 0 0 0-1 2.81c-0.11 0.43-0.21 0.86-0.34 1.25a0.28 0.28 0 0 0 0.18 0.36z" fill="#b7b9bd"/>
 <path d="m126.53 66.6a0.28 0.28 0 0 0 0.31-0.15 13.43 13.43 0 0 0 0.89-2.56c0.16-0.57 0.32-1.17 0.54-1.73a0.28 0.28 0 0 0-0.17-0.37 0.29 0.29 0 0 0-0.37 0.16c-0.22 0.6-0.39 1.2-0.55 1.79a13.75 13.75 0 0 1-0.85 2.46 0.28 0.28 0 0 0 0.13 0.38z" fill="#b7b9bd"/>
 <path d="m123 65.78a0.25 0.25 0 0 0 0.32-0.2c0.2-1.37 0.4-2.71 0.68-4a0.28 0.28 0 0 0-0.21-0.34 0.3 0.3 0 0 0-0.34 0.22c-0.28 1.32-0.48 2.67-0.68 4a0.32 0.32 0 0 0 0.23 0.32z" fill="#b7b9bd"/>
 <path d="m118.76 65a0.27 0.27 0 0 0 0.29-0.27v-0.93a10.82 10.82 0 0 1 0.31-3.19 0.27 0.27 0 0 0-0.19-0.35 0.28 0.28 0 0 0-0.36 0.18 11.4 11.4 0 0 0-0.33 3.36v0.91a0.29 0.29 0 0 0 0.28 0.29z" fill="#b7b9bd"/>
 <path d="m113.83 65.55a0.29 0.29 0 0 0 0.3-0.28v-1.74a11.28 11.28 0 0 1 0.1-3 0.29 0.29 0 0 0-0.22-0.34 0.27 0.27 0 0 0-0.34 0.22 12 12 0 0 0-0.12 3.18c0 0.59 0.06 1.15 0.05 1.69a0.27 0.27 0 0 0 0.23 0.27z" fill="#b7b9bd"/>
 <path d="m109.48 64.14h0.1a0.27 0.27 0 0 0 0.23-0.33c0-0.27-0.09-0.54-0.13-0.82a13.84 13.84 0 0 0-0.65-2.76 0.3 0.3 0 0 0-0.37-0.17 0.29 0.29 0 0 0-0.17 0.37 13.81 13.81 0 0 1 0.62 2.65c0 0.28 0.09 0.56 0.14 0.83a0.28 0.28 0 0 0 0.23 0.23z" fill="#b7b9bd"/>
 <path d="m137.31 64.74a0.28 0.28 0 0 0 0.27-0.09c0.13-0.13 0.25-0.28 0.38-0.42a11 11 0 0 1 1.3-1.34 0.28 0.28 0 0 0 0-0.4 0.29 0.29 0 0 0-0.4 0 11.49 11.49 0 0 0-1.38 1.41c-0.12 0.14-0.24 0.28-0.37 0.41a0.3 0.3 0 0 0 0 0.41 0.31 0.31 0 0 0 0.2 0.02z" fill="#b7b9bd"/>
 <path d="m133.48 63.41a0.28 0.28 0 0 0 0.31-0.13 7.33 7.33 0 0 0 1-2.34 0.27 0.27 0 0 0-0.23-0.32 0.28 0.28 0 0 0-0.33 0.23 7.06 7.06 0 0 1-0.89 2.14 0.29 0.29 0 0 0 0.1 0.39z" fill="#b7b9bd"/>
 <path d="m130 62.25a0.28 0.28 0 0 0 0.33-0.21l0.1-0.41a5.6 5.6 0 0 1 1-2.53 0.28364 0.28364 0 1 0-0.43-0.37 6.05 6.05 0 0 0-1.15 2.77l-0.1 0.41a0.29 0.29 0 0 0 0.22 0.34z" fill="#b7b9bd"/>
 <path d="m125.28 61.52a0.29 0.29 0 0 0 0.34-0.22 12.94 12.94 0 0 1 0.88-2.57 0.29 0.29 0 0 0-0.15-0.38 0.28 0.28 0 0 0-0.37 0.15 13.49 13.49 0 0 0-0.93 2.69 0.29 0.29 0 0 0 0.23 0.33z" fill="#b7b9bd"/>
 <path d="m121.09 60a0.3 0.3 0 0 0 0.34-0.22l0.09-0.46c0.16-0.73 0.32-1.48 0.54-2.3a0.28 0.28 0 0 0-0.2-0.35 0.27 0.27 0 0 0-0.35 0.2c-0.23 0.84-0.39 1.6-0.55 2.33l-0.09 0.46a0.28 0.28 0 0 0 0.22 0.34z" fill="#b7b9bd"/>
 <path d="m116.52 60.49a0.28 0.28 0 0 0 0.3-0.27v-1.07a9.27 9.27 0 0 1 0.12-2 0.28 0.28 0 0 0-0.22-0.33 0.28 0.28 0 0 0-0.33 0.22 9.29 9.29 0 0 0-0.14 2.17q0 0.54 0 1.05a0.28 0.28 0 0 0 0.27 0.23z" fill="#b7b9bd"/>
 <path d="m111.71 59.65a0.28 0.28 0 0 0 0.33-0.22 6.83 6.83 0 0 0 0.12-1.41 5.6 5.6 0 0 1 0.14-1.43 0.28 0.28 0 0 0-0.2-0.35 0.28 0.28 0 0 0-0.35 0.2 5.59 5.59 0 0 0-0.16 1.57 6.74 6.74 0 0 1-0.11 1.29 0.28 0.28 0 0 0 0.22 0.34z" fill="#b7b9bd"/>
 <path d="m106.42 61.32h0.05a0.28 0.28 0 0 0 0.29-0.28 7.2 7.2 0 0 0-0.42-2.22c-0.07-0.23-0.14-0.46-0.2-0.69a0.29 0.29 0 0 0-0.56 0.15c0.06 0.23 0.14 0.46 0.21 0.71a6.89 6.89 0 0 1 0.4 2 0.28 0.28 0 0 0 0.23 0.33z" fill="#b7b9bd"/>
 <path d="m140.29 67a0.27 0.27 0 0 0 0.26-0.09c0.25-0.26 0.48-0.55 0.71-0.84a7.73 7.73 0 0 1 1.25-1.35 0.28 0.28 0 0 0 0-0.4 0.28 0.28 0 0 0-0.4-0.05 7.77 7.77 0 0 0-1.35 1.45c-0.22 0.28-0.45 0.56-0.68 0.81a0.28 0.28 0 0 0 0 0.4 0.27 0.27 0 0 0 0.21 0.07z" fill="#b7b9bd"/>
 <path d="m136.19 74a0.28 0.28 0 0 0 0.31-0.15c0.1-0.19 0.19-0.41 0.28-0.63a2.8 2.8 0 0 1 0.8-1.26 0.29 0.29 0 0 0 0.07-0.4 0.29 0.29 0 0 0-0.4-0.07 3.25 3.25 0 0 0-1 1.52c-0.08 0.2-0.17 0.4-0.26 0.58a0.29 0.29 0 0 0 0.12 0.39z" fill="#b7b9bd"/>
 <path d="m132 73.81a0.28 0.28 0 0 0 0.33-0.22 4 4 0 0 1 0.83-2 0.28 0.28 0 0 0 0-0.4 0.3 0.3 0 0 0-0.41 0 4.31 4.31 0 0 0-1 2.29 0.29 0.29 0 0 0 0.23 0.34z" fill="#b7b9bd"/>
 <path d="m129 74.53a0.3 0.3 0 0 0 0.33-0.18c0.21-0.57 0.45-1.12 0.69-1.67s0.57-1.33 0.81-2a0.28 0.28 0 0 0-0.18-0.36 0.27 0.27 0 0 0-0.36 0.17c-0.24 0.67-0.52 1.33-0.8 2s-0.49 1.13-0.7 1.7a0.29 0.29 0 0 0 0.17 0.37z" fill="#b7b9bd"/>
 <path d="m129 79.67a0.3 0.3 0 0 0 0.32-0.16 7.4 7.4 0 0 1 1.71-2.56 0.28 0.28 0 0 0 0-0.4 0.3 0.3 0 0 0-0.41 0 8 8 0 0 0-1.85 2.75 0.29 0.29 0 0 0 0.14 0.38z" fill="#b7b9bd"/>
 <path d="m126.53 72.6a0.29 0.29 0 0 0 0.33-0.2c0-0.19 0.11-0.39 0.16-0.59a9.05 9.05 0 0 1 0.88-2.33 0.29 0.29 0 0 0-0.1-0.39 0.3 0.3 0 0 0-0.4 0.1 9.49 9.49 0 0 0-0.93 2.47c-0.06 0.19-0.11 0.39-0.16 0.58a0.27 0.27 0 0 0 0.19 0.35z" fill="#b7b9bd"/>
 <path d="m125.67 79.49a0.28 0.28 0 0 0 0.29-0.12 11.92 11.92 0 0 0 1.07-2.05l0.05-0.1a0.28 0.28 0 0 0-0.15-0.37 0.29 0.29 0 0 0-0.38 0.14v0.1a12.3 12.3 0 0 1-1 2 0.29 0.29 0 0 0 0.07 0.4 0.21 0.21 0 0 0 0.05 0z" fill="#b7b9bd"/>
 <path d="m123.94 73.35a0.27 0.27 0 0 0 0.33-0.2c0.42-1.43 0.83-2.87 1.24-4.31a0.29 0.29 0 0 0-0.56-0.15c-0.4 1.44-0.81 2.87-1.23 4.3a0.3 0.3 0 0 0 0.2 0.36z" fill="#b7b9bd"/>
 <path d="m123.13 77.55a0.29 0.29 0 0 0 0.32-0.2l0.18-0.55a10.06 10.06 0 0 1 1-2.4 0.29 0.29 0 0 0-0.1-0.39 0.28 0.28 0 0 0-0.39 0.1 11.06 11.06 0 0 0-1 2.52l-0.17 0.55a0.28 0.28 0 0 0 0.18 0.36z" fill="#b7b9bd"/>
 <path d="m120.74 70.31h0.07a0.27 0.27 0 0 0 0.27-0.29 10.78 10.78 0 0 1 0.3-2.52l0.09-0.43a0.29 0.29 0 0 0-0.23-0.34 0.28 0.28 0 0 0-0.33 0.23l-0.09 0.43a10.67 10.67 0 0 0-0.31 2.65 0.29 0.29 0 0 0 0.23 0.27z" fill="#b7b9bd"/>
 <path d="m119.65 76.87a0.29 0.29 0 0 0 0.34-0.23l0.76-3.91a0.28 0.28 0 0 0-0.22-0.33 0.29 0.29 0 0 0-0.34 0.22l-0.76 3.91a0.29 0.29 0 0 0 0.22 0.34z" fill="#b7b9bd"/>
 <path d="m116.79 70.6a0.28 0.28 0 0 0 0.33-0.23 6.53 6.53 0 0 0 0-1.82 5.35 5.35 0 0 1 0-1.83 0.27 0.27 0 0 0-0.2-0.34 0.3 0.3 0 0 0-0.35 0.2 5.74 5.74 0 0 0 0 2 6.22 6.22 0 0 1 0 1.67 0.28 0.28 0 0 0 0.22 0.35z" fill="#b7b9bd"/>
 <path d="m116.52 76a0.3 0.3 0 0 0 0.33-0.21 13.18 13.18 0 0 0 0.29-2 15.22 15.22 0 0 1 0.2-1.53 0.29 0.29 0 0 0-0.23-0.34 0.28 0.28 0 0 0-0.33 0.23c-0.1 0.52-0.16 1.06-0.21 1.59a14.42 14.42 0 0 1-0.27 1.88 0.28 0.28 0 0 0 0.2 0.34z" fill="#b7b9bd"/>
 <path d="m112.94 73.33a0.29 0.29 0 0 0 0.34-0.21 6.09 6.09 0 0 0-0.17-2.42 8.58 8.58 0 0 1-0.2-1.22 0.3 0.3 0 0 0-0.31-0.27 0.29 0.29 0 0 0-0.27 0.31 11.27 11.27 0 0 0 0.21 1.3 5.51 5.51 0 0 1 0.18 2.17 0.28 0.28 0 0 0 0.22 0.34z" fill="#b7b9bd"/>
 <path d="m111.8 66.72h0.07a0.29 0.29 0 0 0 0.27-0.3 4.57 4.57 0 0 0-0.43-1.48c-0.09-0.22-0.18-0.44-0.25-0.66a0.29 0.29 0 0 0-0.36-0.18 0.28 0.28 0 0 0-0.19 0.36c0.08 0.23 0.17 0.47 0.27 0.7a4.21 4.21 0 0 1 0.39 1.29 0.27 0.27 0 0 0 0.23 0.27z" fill="#b7b9bd"/>
 <path d="m109.88 75.05h0.06a0.28 0.28 0 0 0 0.28-0.29 12.7 12.7 0 0 0-0.3-2.13c0-0.24-0.09-0.47-0.13-0.7a0.29 0.29 0 0 0-0.57 0.09c0 0.24 0.09 0.48 0.14 0.72a12.89 12.89 0 0 1 0.29 2 0.27 0.27 0 0 0 0.23 0.31z" fill="#b7b9bd"/>
 <path d="m109.73 69.8h0.11a0.27 0.27 0 0 0 0.23-0.33 13 13 0 0 0-0.78-2.62 0.29 0.29 0 1 0-0.53 0.22 12.41 12.41 0 0 1 0.75 2.51 0.28 0.28 0 0 0 0.22 0.22z" fill="#b7b9bd"/>
 <path d="m112 80.88a0.28 0.28 0 0 0 0.3-0.27c0.05-1.16 0.05-2.33 0.06-3.47v-0.88a0.29 0.29 0 0 0-0.58 0v0.88c0 1.13 0 2.3-0.07 3.45a0.3 0.3 0 0 0 0.29 0.29z" fill="#b7b9bd"/>
 <path d="m114.07 80.52a0.28 0.28 0 0 0 0.3-0.27 19.82 19.82 0 0 1 0.35-3.27 0.28 0.28 0 0 0-0.22-0.34 0.3 0.3 0 0 0-0.34 0.22 20.07 20.07 0 0 0-0.36 3.36 0.28 0.28 0 0 0 0.27 0.3z" fill="#b7b9bd"/>
 <path d="m125.18 86a0.29 0.29 0 0 0 0.33-0.19c0.06-0.19 0.13-0.42 0.19-0.66a4.35 4.35 0 0 1 1.2-2.38 0.2843 0.2843 0 0 0-0.32-0.47 4.66 4.66 0 0 0-1.43 2.7c-0.06 0.23-0.12 0.44-0.19 0.64a0.29 0.29 0 0 0 0.19 0.36z" fill="#b7b9bd"/>
 <path d="m122.49 83.8a0.27 0.27 0 0 0 0.32-0.18c0.17-0.46 0.33-0.94 0.48-1.41s0.4-1.24 0.64-1.84a0.28 0.28 0 0 0-0.16-0.37 0.28 0.28 0 0 0-0.37 0.16c-0.25 0.61-0.45 1.25-0.66 1.87s-0.3 0.94-0.47 1.4a0.28 0.28 0 0 0 0.17 0.36z" fill="#b7b9bd"/>
 <path d="m120.09 83.14a0.28 0.28 0 0 0 0.33-0.22l0.82-4.2a0.29 0.29 0 0 0-0.56-0.11l-0.82 4.2a0.28 0.28 0 0 0 0.23 0.33z" fill="#b7b9bd"/>
 <path d="m117.64 82.18a0.28 0.28 0 0 0 0.32-0.25c0-0.19 0-0.4 0.06-0.62a4.84 4.84 0 0 1 0.6-2.39 0.29 0.29 0 0 0-0.06-0.4 0.3 0.3 0 0 0-0.4 0.06 5.24 5.24 0 0 0-0.71 2.68c0 0.21 0 0.42-0.06 0.61a0.29 0.29 0 0 0 0.25 0.31z" fill="#b7b9bd"/>
 <path d="m114.2 85.86a0.28 0.28 0 0 0 0.33-0.22l0.77-3.92a0.29026 0.29026 0 0 0-0.57-0.11l-0.76 3.92a0.28 0.28 0 0 0 0.23 0.33z" fill="#b7b9bd"/>
 <path d="m111.86 86.86a0.28 0.28 0 0 0 0.29-0.28q0-0.46 0-0.93a9.54 9.54 0 0 1 0.18-2.45 0.29 0.29 0 0 0-0.21-0.35 0.3 0.3 0 0 0-0.35 0.21 10.32 10.32 0 0 0-0.19 2.59v0.92a0.3 0.3 0 0 0 0.28 0.29z" fill="#b7b9bd"/>
 <path d="m121.52 90.77a0.27 0.27 0 0 0 0.32-0.19c0-0.14 0.1-0.31 0.15-0.48 0.26-0.85 0.58-1.9 1.33-2.22a0.2843 0.2843 0 1 0-0.23-0.52c-1 0.42-1.35 1.61-1.64 2.58-0.05 0.16-0.1 0.32-0.15 0.46a0.28 0.28 0 0 0 0.18 0.36z" fill="#b7b9bd"/>
 <path d="m119.79 90.63a0.28 0.28 0 0 0 0.33-0.21 29.43 29.43 0 0 1 1.08-3.53 0.29 0.29 0 0 0-0.16-0.37 0.29 0.29 0 0 0-0.38 0.17 30 30 0 0 0-1.09 3.59 0.29 0.29 0 0 0 0.21 0.35z" fill="#b7b9bd"/>
 <path d="m117.92 88.72a0.28 0.28 0 0 0 0.31-0.25v-0.55a5.51 5.51 0 0 1 0.64-2.64 0.28 0.28 0 0 0 0-0.4 0.29 0.29 0 0 0-0.41 0.05 5.75 5.75 0 0 0-0.76 2.94v0.54a0.29 0.29 0 0 0 0.22 0.31z" fill="#b7b9bd"/>
 <path d="m115.67 90.79a0.29 0.29 0 0 0 0.34-0.22l0.71-3.64a0.29026 0.29026 0 0 0-0.57-0.11l-0.71 3.64a0.28 0.28 0 0 0 0.23 0.33z" fill="#b7b9bd"/>
 <path d="m118.35 97.51a0.3 0.3 0 0 0 0.31-0.15 13.58 13.58 0 0 0 1.32-3.7 0.28 0.28 0 0 0-0.23-0.33 0.29 0.29 0 0 0-0.34 0.22 12.63 12.63 0 0 1-1.26 3.54 0.29 0.29 0 0 0 0.12 0.39z" fill="#b7b9bd"/>
 <path d="m117 97.53a0.29 0.29 0 0 0 0.33-0.19 12.62 12.62 0 0 0 0.37-1.59 9.19 9.19 0 0 1 0.5-1.89 0.29 0.29 0 0 0-0.15-0.38 0.3 0.3 0 0 0-0.38 0.15 9.55 9.55 0 0 0-0.53 2 14.44 14.44 0 0 1-0.35 1.51 0.28 0.28 0 0 0 0.18 0.36z" fill="#b7b9bd"/>
 <path d="m114.44 98.09a0.28 0.28 0 0 0 0.33-0.21 13.06 13.06 0 0 0 0.22-2.23v-0.48a0.3 0.3 0 0 0-0.28-0.3 0.28 0.28 0 0 0-0.3 0.27v0.49a11.45 11.45 0 0 1-0.2 2.12 0.29 0.29 0 0 0 0.22 0.34z" fill="#b7b9bd"/>
 <path d="m113.3 92.94a0.29 0.29 0 0 0 0.33-0.19 9.37 9.37 0 0 0 0.3-2.8v-0.8a0.27 0.27 0 0 0-0.28-0.29 0.27 0.27 0 0 0-0.29 0.27v0.82a9 9 0 0 1-0.28 2.62 0.3 0.3 0 0 0 0.19 0.36z" fill="#b7b9bd"/>
 <path d="m112.56 98.21a0.29 0.29 0 0 0 0.34-0.22 11.83 11.83 0 0 0 0.17-1.66 10.51 10.51 0 0 1 0.2-1.74 0.28 0.28 0 0 0-0.21-0.34 0.27 0.27 0 0 0-0.35 0.21 10.16 10.16 0 0 0-0.21 1.83 12.06 12.06 0 0 1-0.16 1.59 0.28 0.28 0 0 0 0.22 0.33z" fill="#b7b9bd"/>
 <path d="m116.58 104.61a0.29 0.29 0 0 0 0.32-0.2c0.09-0.26 0.17-0.55 0.25-0.85a6.91 6.91 0 0 1 1.07-2.56 0.28425 0.28425 0 1 0-0.44-0.36 7.29 7.29 0 0 0-1.18 2.77c-0.08 0.29-0.16 0.57-0.24 0.83a0.28 0.28 0 0 0 0.18 0.36z" fill="#b7b9bd"/>
 <path d="m123.07 93.78a0.27 0.27 0 0 0 0.32-0.17c0.17-0.43 0.35-0.85 0.53-1.28a24.26 24.26 0 0 0 1-2.7 0.27 0.27 0 0 0-0.19-0.35 0.28 0.28 0 0 0-0.36 0.19 25.6 25.6 0 0 1-1 2.64c-0.18 0.43-0.36 0.86-0.53 1.29a0.28 0.28 0 0 0 0.16 0.37z" fill="#b7b9bd"/>
 <path d="m120.88 98a0.27 0.27 0 0 0 0.32-0.17 7.82 7.82 0 0 0 0.3-0.86 3.91 3.91 0 0 1 1-1.86 0.28425 0.28425 0 1 0-0.36-0.44 4.42 4.42 0 0 0-1.14 2.13 7 7 0 0 1-0.28 0.81 0.28 0.28 0 0 0 0.16 0.37z" fill="#b7b9bd"/>
 <path d="m115 104.5a0.28 0.28 0 0 0 0.33-0.23c0.06-0.31 0.11-0.65 0.16-1a6.83 6.83 0 0 1 0.6-2.43 0.29 0.29 0 0 0-0.5-0.28 7.34 7.34 0 0 0-0.67 2.63c-0.05 0.34-0.09 0.67-0.15 1a0.28 0.28 0 0 0 0.23 0.31z" fill="#b7b9bd"/>
 <path d="m112.49 105.55a0.28 0.28 0 0 0 0.33-0.23 21 21 0 0 0 0.3-2.58c0.06-0.68 0.11-1.38 0.22-2.06a0.29 0.29 0 0 0-0.24-0.33 0.29 0.29 0 0 0-0.33 0.24c-0.11 0.7-0.16 1.41-0.22 2.1a22 22 0 0 1-0.29 2.53 0.28 0.28 0 0 0 0.23 0.33z" fill="#b7b9bd"/>
 <path d="m116 110.88a0.28 0.28 0 0 0 0.33-0.19l0.13-0.45a26.41 26.41 0 0 1 1-3.07 0.29 0.29 0 0 0-0.46-0.17 28.12 28.12 0 0 0-1.06 3.13l-0.13 0.44a0.3 0.3 0 0 0 0.19 0.36z" fill="#b7b9bd"/>
 <path d="m115.06 108.37a0.31 0.31 0 0 0 0.34-0.22c0.11-0.6 0.26-1.2 0.4-1.77l0.18-0.72a0.29 0.29 0 0 0-0.56-0.13l-0.17 0.71c-0.15 0.58-0.3 1.19-0.42 1.8a0.29 0.29 0 0 0 0.23 0.33z" fill="#b7b9bd"/>
 <path d="m113.29 113a0.29 0.29 0 0 0 0.32-0.17 16.33 16.33 0 0 0 0.84-3.28 0.29 0.29 0 0 0-0.23-0.33 0.27 0.27 0 0 0-0.33 0.23 16.7 16.7 0 0 1-0.81 3.16 0.28 0.28 0 0 0 0.16 0.37z" fill="#b7b9bd"/>
 <path d="m112.11 111a0.29 0.29 0 0 0 0.34-0.22q0.13-0.64 0.3-1.29c0.15-0.65 0.3-1.3 0.43-2a0.28 0.28 0 0 0-0.22-0.33 0.29 0.29 0 0 0-0.34 0.22c-0.13 0.65-0.28 1.29-0.43 1.94-0.1 0.43-0.21 0.86-0.3 1.3a0.28 0.28 0 0 0 0.22 0.34z" fill="#b7b9bd"/>
 <path d="m111.3 115.67a0.28 0.28 0 0 0 0.33-0.22 9.74 9.74 0 0 0 0.18-2.45 0.28 0.28 0 0 0-0.29-0.28 0.28 0.28 0 0 0-0.28 0.29 9.47 9.47 0 0 1-0.17 2.31 0.28 0.28 0 0 0 0.22 0.34z" fill="#b7b9bd"/>
 <path d="m113.72 116.72a0.3 0.3 0 0 0 0.34-0.22 6.57 6.57 0 0 1 1-2.48 0.29 0.29 0 0 0-0.06-0.4 0.3 0.3 0 0 0-0.4 0.05 7.65 7.65 0 0 0-1.14 2.71 0.28 0.28 0 0 0 0.21 0.34z" fill="#b7b9bd"/>
 <path d="m115.09 117.18a0.29 0.29 0 0 0 0.33-0.18c0.14-0.38 0.33-0.76 0.51-1.13l0.31-0.62a0.29 0.29 0 0 0-0.14-0.38 0.29 0.29 0 0 0-0.38 0.14c-0.09 0.2-0.2 0.4-0.3 0.6a12.75 12.75 0 0 0-0.54 1.19 0.28 0.28 0 0 0 0.17 0.37z" fill="#b7b9bd"/>
 <path d="m119.22 105a0.3 0.3 0 0 0 0.33-0.19c0.13-0.38 0.27-0.75 0.41-1.13a30.54 30.54 0 0 0 1-3 0.29 0.29 0 0 0-0.21-0.34 0.28 0.28 0 0 0-0.35 0.2 26.94 26.94 0 0 1-1 2.92l-0.42 1.14a0.3 0.3 0 0 0 0.18 0.37z" fill="#b7b9bd"/>
 <path d="m117 112.72a0.27 0.27 0 0 0 0.32-0.18c0.08-0.23 0.15-0.47 0.23-0.7a11.8 11.8 0 0 1 1.09-2.66 0.28 0.28 0 0 0-0.09-0.39 0.3 0.3 0 0 0-0.4 0.09 12.54 12.54 0 0 0-1.15 2.78c-0.07 0.24-0.14 0.47-0.22 0.69a0.3 0.3 0 0 0 0.18 0.37z" fill="#b7b9bd"/>
 <path d="m132.29 78a0.29 0.29 0 0 0 0.32-0.16 7.17 7.17 0 0 1 0.35-0.67 6.14 6.14 0 0 0 0.75-1.91 0.3 0.3 0 0 0-0.25-0.32 0.28 0.28 0 0 0-0.32 0.25 5.49 5.49 0 0 1-0.69 1.71c-0.13 0.24-0.26 0.47-0.36 0.7a0.29 0.29 0 0 0 0.14 0.38z" fill="#b7b9bd"/>
 <path d="m129 83.52a0.29 0.29 0 0 0 0.34-0.23 6.66 6.66 0 0 1 0.81-2.25 0.28469 0.28469 0 0 0-0.49-0.29 7.37 7.37 0 0 0-0.89 2.44 0.29 0.29 0 0 0 0.23 0.33z" fill="#b7b9bd"/>
 <path d="m126.7 88.69a0.3 0.3 0 0 0 0.31-0.16 9.72 9.72 0 0 0 0.38-1 8.23 8.23 0 0 1 0.53-1.25 0.28218 0.28218 0 1 0-0.49-0.28 7.87 7.87 0 0 0-0.58 1.34c-0.11 0.31-0.22 0.62-0.36 0.92a0.29 0.29 0 0 0 0.14 0.38z" fill="#b7b9bd"/>
 <path d="m122.14 100.57a0.3 0.3 0 0 0 0.33-0.21c0-0.19 0.1-0.4 0.15-0.61a4.9 4.9 0 0 1 0.82-2.07 0.28 0.28 0 0 0 0-0.4 0.28 0.28 0 0 0-0.4 0 5.29 5.29 0 0 0-1 2.32c0 0.2-0.09 0.4-0.14 0.59a0.27 0.27 0 0 0 0.2 0.35z" fill="#b7b9bd"/>
</svg>
