<svg width="220mm" height="220mm" version="1.1" viewBox="0 0 220 220" xmlns="http://www.w3.org/2000/svg">
 <circle cx="110" cy="110" r="110" stroke="var(--color-background-border)" strokeWidth='1' fill="var(--color-background)"/>
 <path d="m168.31 168.45a76.59 76.59 0 0 0-7.11-13.45h-9.2l-11 26.46-11-26.46h-40l-11 26.46-11-26.46h-9.49a65.8 65.8 0 0 0-7.4 12.14l7.89 18.86-7.17 17.32a108.79 108.79 0 0 0 18.14 9.12l9.07-21.9 10.96 26.46-0.44 1.07a109.63 109.63 0 0 0 41 0l-0.56-1.07 11-26.46 9.07 21.9a109.56 109.56 0 0 0 18.14-9.12l-7.21-17.32zm-58.31 44-11-26.45 11-26.46 11 26.46z" fill="#584e8a"/>
 <path d="m51.15 167.14a144.5 144.5 0 0 0-9.69 28.86 108.77 108.77 0 0 0 10.33 7.32l7.21-17.32z" fill="#ec1b34"/>
 <polygon transform="translate(-59,-619)" points="127.04 774 138 800.46 148.96 774" fill="#ec1b34"/>
 <path d="m79 190.54-9.07 21.9a109.92 109.92 0 0 0 19.59 5.63l0.48-1.07z" fill="#ec1b34"/>
 <polygon transform="translate(-59,-619)" points="169 778.54 158.04 805 169 831.46 179.96 805" fill="#ec1b34"/>
 <polygon transform="translate(-59,-619)" points="189.04 774 200 800.46 210.96 774" fill="#ec1b34"/>
 <path d="m130 217 0.44 1.07a109.92 109.92 0 0 0 19.59-5.63l-9.03-21.9z" fill="#ec1b34"/>
 <path d="m161 186 7.17 17.32q4.65-2.91 9-6.25a184.28 184.28 0 0 0-8.88-28.62z" fill="#ec1b34"/>
 <path d="m91.4 72.54c1.21-9.65 2.22-29.68-4.34-35.75-1.09-1-3-2.23-6.8-1.32-3.27 0.79-5.22 2.32-6.25 4.83-3.52 8.62 4.62 25.77 9.19 33.69z" fill="#f072ab"/>
 <path d="m81.12 39.13c2.61-0.62 3.38-0.09 3.83 0.32 4.44 4.11 4.73 19 3.55 30.41l-3.6 0.71c-5.24-9.57-10.3-22.81-7.85-28.79 0.44-1.06 1.3-2 4-2.63h0.09zm-1.69-6.58c-22.47 5.31 2.18 45.12 2.18 45.12l12.67-2.29s7.55-48.12-14.72-42.86z" fill="#584e8a"/>
 <path d="m138.15 74.34c4.67-7.87 13-24.93 9.61-33.57-1-2.52-2.93-4.08-6.08-4.89a8.93 8.93 0 0 0-4.28-0.19c-8.79 2.07-8.87 24.53-7.43 37.09z" fill="#f072ab"/>
 <path d="m138.14 38.81a6 6 0 0 1 2.74 0.18c2.68 0.69 3.47 1.88 3.89 3 2.38 6-2.88 19.32-8.24 28.81l-3.58-0.68a110.12 110.12 0 0 1-0.37-14.55c0.58-11.51 3.35-16.2 5.56-16.72zm-11.06 36.69 12.65 2.41s25.11-39.37 2.75-45.14a12 12 0 0 0-5.82-0.21c-15.22 3.6-9.58 42.94-9.58 42.94z" fill="#584e8a"/>
 <path d="m110.32 53.31c54.58 0.34 49.92 79.3 51 87.39 2.22 17.32-0.44 21.24-51.28 20.92s-53.69-6.39-50.76-23.85c1.29-7.91-3.54-84.77 51.04-84.46z" fill="#584e8a"/>
 <path d="m53.53 147.69c0 20.31 42.19 26.63 56.47 26.63s56.47-4.32 56.47-26.63c0-34.75-42.19-17.37-56.47-17.37s-56.47-17.38-56.47 17.37z" fill="#98a5d4"/>
 <path d="m74.29 135.67a14.47 14.47 0 0 0 3.3 9.18c3.13 3.92 8.13 6.8 14 8.73a63.25 63.25 0 0 0 19.37 2.9c8.65 0 17.22-1.6 23.73-5a22.76 22.76 0 0 0 7.95-6.47 15.43 15.43 0 0 0 3.07-9.36h-1.93a13.49 13.49 0 0 1-2.68 8.19c-2.58 3.5-6.94 6.2-12.26 8a56.82 56.82 0 0 1-17.84 2.68c-8.72 0-17.53-1.7-24.06-4.95a22.87 22.87 0 0 1-7.81-6 12.53 12.53 0 0 1-2.87-8z"/>
 <path d="m85.82 132.7a5.62 5.62 0 0 0-1.26-11.09 5.9 5.9 0 0 0-1.33 0.15 5.62 5.62 0 0 0 1.26 11.09 5.9 5.9 0 0 0 1.33-0.15z"/>
 <path d="m83.6 123.32a3.79 3.79 0 0 1 1-0.1 4 4 0 0 1 0.9 7.92 4.32 4.32 0 0 1-0.95 0.1 4 4 0 0 1-2.83-1.19 4 4 0 0 1 1.93-6.73zm-6.3 3.86a7.23 7.23 0 0 0 7.18 7.27 6.9 6.9 0 0 0 1.71-0.19 7.23 7.23 0 0 0-1.62-14.26 7.41 7.41 0 0 0-1.71 0.2 7.22 7.22 0 0 0-5.56 6.98z" fill="#98a5d4"/>
 <path d="m136.77 133.06a5.61 5.61 0 0 0-1.26-11.06 4.94 4.94 0 0 0-1.33 0.15 5.62 5.62 0 0 0 1.26 11.08 5.9 5.9 0 0 0 1.33-0.17z"/>
 <path d="m134.55 123.69a3.74 3.74 0 0 1 0.95-0.11 4 4 0 0 1 0.9 7.92 4.33 4.33 0 0 1-1 0.11 4 4 0 0 1-4-4 4 4 0 0 1 3.09-3.88zm-6.3 3.86a7.23 7.23 0 0 0 7.18 7.27 7.41 7.41 0 0 0 1.71-0.19 7.23 7.23 0 0 0-1.62-14.26 8 8 0 0 0-1.71 0.19 7.23 7.23 0 0 0-5.56 6.99z" fill="#98a5d4"/>
 <path d="m94.1 123.68c0-14.29 12.48-49.39 15.9-49.39s15.9 35.1 15.9 49.39c0 11.92-8 15.55-15.9 15.55s-15.9-3.63-15.9-15.55z" fill="#f4f0df" fill-rule="evenodd"/>
 <ellipse cx="144.35" cy="137.8" rx="5.99" ry="4.66" fill="#ffa7ca"/>
 <ellipse cx="75.9" cy="137.8" rx="5.99" ry="4.66" fill="#ffa7ca"/>
 <path d="m129 94c5.16-5.74 15.2-1.17 16.52 3.45-5.69-2.57-10.12-5.73-16-2.84 0-0.02-0.99-0.13-0.52-0.61z" fill="#171717"/>
 <path d="m131.9 85.33c0.35 0 0.65 0.08 0.67 0.25l0.57 6.45c0 0.16-0.26 0.33-0.61 0.36-0.35 0-0.65-0.08-0.66-0.25l-0.58-6.45c0-0.16 0.26-0.33 0.61-0.36zm5.66 0.39c0.35 0 0.62 0.22 0.6 0.38l-0.78 6.43c0 0.16-0.32 0.27-0.67 0.22-0.35 0-0.62-0.21-0.6-0.38l0.78-6.42c0-0.17 0.32-0.27 0.67-0.23zm6 1.55c0.32 0.15 0.52 0.4 0.45 0.55l-2.78 5.84c-0.07 0.15-0.39 0.16-0.71 0-0.32-0.15-0.52-0.39-0.45-0.55l2.78-5.85c0.07-0.14 0.39-0.15 0.71 0z" fill="#171717" fill-rule="evenodd"/>
 <path d="m91 94c-5.16-5.74-15.2-1.17-16.52 3.45 5.69-2.57 10.12-5.73 16-2.84 0-0.02 0.99-0.13 0.52-0.61z" fill="#171717"/>
 <path d="m88.1 85.33c0.35 0 0.62 0.2 0.61 0.36l-0.58 6.45c0 0.17-0.31 0.28-0.66 0.25-0.35 0-0.63-0.2-0.61-0.36l0.57-6.45c0-0.17 0.32-0.28 0.67-0.25zm-5.66 0.39c0.35 0 0.65 0.06 0.67 0.23l0.78 6.42c0 0.17-0.25 0.34-0.6 0.38-0.35 0-0.65-0.06-0.67-0.22l-0.78-6.43c0-0.16 0.25-0.34 0.6-0.38zm-6 1.55c0.32-0.16 0.64-0.15 0.71 0l2.78 5.85c0.07 0.16-0.13 0.4-0.45 0.55-0.32 0.16-0.64 0.15-0.71 0l-2.77-5.85c-0.07-0.15 0.13-0.4 0.45-0.55z" fill="#171717" fill-rule="evenodd"/>
</svg>
