<svg width="220mm" height="220mm" version="1.1" viewBox="0 0 220 220" xmlns="http://www.w3.org/2000/svg">
 <circle cx="110" cy="110" r="110" stroke="var(--color-background-border)" strokeWidth='1' fill="var(--color-background)"/>
 <path d="m168.83 171.73a23 23 0 0 0-16 39.58c1.11-0.47 2.21-0.95 3.3-1.45a19.73 19.73 0 1 1 31.28-21.73c0.86-0.85 1.69-1.73 2.53-2.61a23 23 0 0 0-21.11-13.79z" fill="#ffa7ca"/>
 <circle transform="rotate(-67.5)" cx="-84.16" cy="155.26" r="11.27" fill="#ffa7ca"/>
 <path d="m112.62 106.65-2.43 0.23a1.92 1.92 0 0 0 2.43-0.23z" fill="#ffa7ca"/>
 <path d="m111.23 167.12a2 2 0 1 0 2 2 2 2 0 0 0-2-2z" fill="#ffa7ca"/>
 <path d="m107 107.2-2.25 0.22a1.86 1.86 0 0 0 2.25-0.22z" fill="#ffa7ca"/>
 <path d="m116.43 166.66a2.0304 2.0304 0 1 0 0.7 4 2.0304 2.0304 0 0 0-0.7-4z" fill="#ffa7ca"/>
 <path d="m101 109a2 2 0 0 0 1.21-1.34l-3.64 0.38a2 2 0 0 0 2.43 0.96z" fill="#ffa7ca"/>
 <path d="m121.48 165.31a2 2 0 1 0 2.57 1.2 2 2 0 0 0-2.57-1.2z" fill="#ffa7ca"/>
 <path d="m96.79 108.25-3.32 0.37a2 2 0 0 0 0 1.87 2.0069 2.0069 0 1 0 3.48-2 1.43 1.43 0 0 0-0.16-0.24z" fill="#ffa7ca"/>
 <path d="m126.21 163.11a2 2 0 0 0-0.74 2.74 2 2 0 1 0 0.74-2.74z" fill="#ffa7ca"/>
 <path d="m89.39 111.14a2 2 0 1 0 2.84 0.25 2 2 0 0 0-2.84-0.25z" fill="#ffa7ca"/>
 <path d="m130.48 160.11a2 2 0 1 0 2.84 0.25 2 2 0 0 0-2.84-0.25z" fill="#ffa7ca"/>
 <path d="m88.29 117.91a2 2 0 1 0-2.84 0.25 2 2 0 0 0 2.84-0.25z" fill="#ffa7ca"/>
 <path d="m134.18 156.42a2.0121 2.0121 0 0 0 3.08 2.59 2.0121 2.0121 0 1 0-3.08-2.59z" fill="#ffa7ca"/>
 <path d="m82.55 122.93a2 2 0 1 0-0.74-2.75 2 2 0 0 0 0.74 2.75z" fill="#ffa7ca"/>
 <path d="m139.92 151.41a2 2 0 1 0 0.73 2.75 2 2 0 0 0-0.73-2.75z" fill="#ffa7ca"/>
 <path d="m80.51 128.12a2 2 0 1 0-1.2-2.57 2 2 0 0 0 1.2 2.57z" fill="#ffa7ca"/>
 <path d="m142 146.21a2 2 0 1 0 1.2 2.58 2 2 0 0 0-1.2-2.58z" fill="#ffa7ca"/>
 <path d="m79.41 133.6a2 2 0 1 0-1.64-2.33 2 2 0 0 0 1.64 2.33z" fill="#ffa7ca"/>
 <path d="m143.06 140.74a2 2 0 1 0 1.63 2.33 2 2 0 0 0-1.63-2.33z" fill="#ffa7ca"/>
 <path d="m79.27 139.18a2 2 0 1 0-2-2 2 2 0 0 0 2 2z" fill="#ffa7ca"/>
 <path d="m143.2 135.16a2 2 0 1 0 2 2 2 2 0 0 0-2-2z" fill="#ffa7ca"/>
 <path d="m81.74 142.37a2 2 0 1 0-1.63 2.33 2 2 0 0 0 1.63-2.33z" fill="#ffa7ca"/>
 <path d="m140.73 132a2 2 0 1 0 1.63-2.33 2 2 0 0 0-1.63 2.33z" fill="#ffa7ca"/>
 <path d="m83.09 147.41a2 2 0 1 0-1.2 2.58 2 2 0 0 0 1.2-2.58z" fill="#ffa7ca"/>
 <path d="m139.38 126.92a2 2 0 1 0 1.2-2.58 2 2 0 0 0-1.2 2.58z" fill="#ffa7ca"/>
 <path d="m85.29 152.14a2.0069 2.0069 0 0 0-3.48 2 2.0069 2.0069 0 1 0 3.48-2z" fill="#ffa7ca"/>
 <path d="m137.17 122.19a2 2 0 1 0 0.74-2.75 2 2 0 0 0-0.74 2.75z" fill="#ffa7ca"/>
 <path d="m88.29 156.42a2 2 0 1 0-0.25 2.83 2 2 0 0 0 0.25-2.83z" fill="#ffa7ca"/>
 <path d="m134.18 117.91a2 2 0 1 0 0.25-2.83 2 2 0 0 0-0.25 2.83z" fill="#ffa7ca"/>
 <path d="m89.15 160.36a2 2 0 1 0 2.83-0.25 2 2 0 0 0-2.83 0.25z" fill="#ffa7ca"/>
 <path d="m133.32 114a2 2 0 1 0-2.84 0.25 2 2 0 0 0 2.84-0.25z" fill="#ffa7ca"/>
 <path d="m96.26 163.11a2 2 0 1 0 0.73 2.74 2 2 0 0 0-0.73-2.74z" fill="#ffa7ca"/>
 <path d="m126.21 111.23a2 2 0 1 0-0.74-2.75 2 2 0 0 0 0.74 2.75z" fill="#ffa7ca"/>
 <path d="m101 165.31a2 2 0 1 0 1.2 2.58 2 2 0 0 0-1.2-2.58z" fill="#ffa7ca"/>
 <path d="m121.47 109a2 2 0 0 0 2.58-1.2 2 2 0 0 0-0.51-2.15l-3 0.26a1.91 1.91 0 0 0 0.88 3.09z" fill="#ffa7ca"/>
 <path d="m106 166.66a2 2 0 1 0 1.63 2.33 2 2 0 0 0-1.63-2.33z" fill="#ffa7ca"/>
 <path d="m116.43 107.67a2 2 0 0 0 2.31-1.58l-3.79 0.34a2 2 0 0 0 1.48 1.24z" fill="#ffa7ca"/>
 <path d="m53.63 171.73a23 23 0 0 0-20.32 12.2 48.32 48.32 0 0 0 0.09 5c0.36 0.35 0.74 0.68 1.11 1a19.73 19.73 0 1 1 30.94 20.61q1.69 0.76 3.42 1.47a23 23 0 0 0-15.24-40.29z" fill="#ffa7ca"/>
 <path d="m111.23 218.39a2 2 0 0 0-1.93 1.61h0.7c1.05 0 2.1-0.05 3.14-0.08a2 2 0 0 0-1.91-1.53z" fill="#ffa7ca"/>
 <path d="m105.33 218.91a2 2 0 0 0-1.34 0.92c1.14 0.06 2.29 0.08 3.43 0.11a2 2 0 0 0-2.09-1.03z" fill="#ffa7ca"/>
 <path d="m115.06 219.86c1.1-0.05 2.19-0.13 3.28-0.21a1.92 1.92 0 0 0-1.21-0.74 2 2 0 0 0-2.07 0.95z" fill="#ffa7ca"/>
 <path d="m168.83 175a19.73 19.73 0 0 0-12.71 34.83c2.62-1.21 5.19-2.53 7.69-3.94a12.23 12.23 0 1 1 17.22-12c2.19-1.86 4.33-3.79 6.37-5.81a19.72 19.72 0 0 0-18.57-13.08z" fill="#ec1b34"/>
 <circle cx="168.83" cy="194.77" r="6.04" fill="#ec1b34"/>
 <path d="m190.29 177.81c-0.08-0.44-0.14-0.87-0.22-1.32-2.86-15.8-10.91-35-16.63-47.33-0.2-0.45-0.4-0.87-0.6-1.3-1.63-3.47-3-6.31-4-8.26s-1.5-2.93-1.5-2.93l-8.75-6.28-1.64-1.17-7.73-5.54s-2.95 0.19-7.79 0.56a2.68 2.68 0 0 1-4.41 2.2 2.69 2.69 0 0 1-0.94-1.8c-3.67 0.29-7.92 0.63-12.53 1a2 2 0 0 1 0.51 2.15 2 2 0 1 1-3.46-1.89l-1.85 0.16a2 2 0 0 1-3.79 0.34l-2.33 0.22a1.92 1.92 0 0 1-2.43 0.23l-3.23 0.32a1.86 1.86 0 0 1-2.25 0.22l-2.51 0.26a2 2 0 0 1-3.64 0.38l-1.77 0.19a1.43 1.43 0 0 1 0.2 0.23 2.0069 2.0069 0 1 1-3.48 2 2 2 0 0 1 0-1.87c-4.29 0.49-8.48 1-12.42 1.55a2.78 2.78 0 0 1-0.54 1.22 2.71 2.71 0 0 1-3.8 0.33 2.75 2.75 0 0 1-0.66-0.83c-4.93 0.75-9.3 1.53-12.74 2.34l-1.06 0.25c-4.94 1.24-7.67 2.54-6.92 3.85 0 0-0.64 1.16-1.7 3.18s-2.35 4.6-3.91 7.88c-0.21 0.43-0.42 0.88-0.63 1.33-5.33 11.39-12.51 28.91-15 45.09l-0.18 1.34a72.8 72.8 0 0 0-0.64 7.78 23 23 0 1 1 35.55 28.11c1.38 0.56 2.77 1.1 4.18 1.61l0.89 0.29a109.54 109.54 0 0 0 30.06 5.93 2 2 0 0 1 1.34-0.92 2 2 0 0 1 2.09 1h1.88a2 2 0 0 1 3.84-0.06c0.64 0 1.29 0 1.92-0.06a2 2 0 0 1 2.07-0.95 1.92 1.92 0 0 1 1.21 0.74 110.07 110.07 0 0 0 13.46-1.84 2.67 2.67 0 1 1 3.16-1.16 2.78 2.78 0 0 1-0.53 0.6 109.59 109.59 0 0 0 13.41-4l0.88-0.32c1.38-0.52 2.74-1.07 4.1-1.65a23 23 0 1 1 37.11-25.79c0.36-0.39 0.75-0.77 1.11-1.16a61.22 61.22 0 0 0-0.76-6.45zm-86-1.15a2.7 2.7 0 1 1-3.12 2.19 2.69 2.69 0 0 1 3.1-2.19zm-0.57-8.37a2 2 0 1 1 1.63 2.33 2 2 0 0 1-1.65-2.33zm7.53 9a2.7 2.7 0 1 1-2.69 2.7 2.69 2.69 0 0 1 2.67-2.72zm-2-8.14a2 2 0 1 1 2 2 2 2 0 0 1-2.03-2.02zm7.91 1.49a2 2 0 1 1 1.63-2.32 2 2 0 0 1-1.66 2.3zm4.19 8.23a2.7 2.7 0 1 1-3.12-2.19 2.7 2.7 0 0 1 3.09 2.17zm31.05-29.58a2.7 2.7 0 1 1-3.45 1.61 2.7 2.7 0 0 1 3.42-1.63zm-1.64-5.14a2.69 2.69 0 1 1 2.18 3.12 2.69 2.69 0 0 1-2.21-3.14zm-1.08 12.1a2.7 2.7 0 1 1-3.69 1 2.7 2.7 0 0 1 3.66-1.02zm-3.9 6.38a2.69 2.69 0 1 1-3.78 0.37 2.7 2.7 0 0 1 3.75-0.39zm-5.31 9.37a2.69 2.69 0 1 1 0.34-3.8 2.69 2.69 0 0 1-0.34 3.8zm1.89-27.32a2 2 0 1 1 2.33-1.63 2 2 0 0 1-2.33 1.65zm0.83-5.52a2 2 0 1 1 2-2 2 2 0 0 1-2 2.02zm-0.13-5.58a2 2 0 1 1 1.63-2.33 2 2 0 0 1-1.63 2.35zm-1.06-5.46a2 2 0 1 1 1.21-2.57 2 2 0 0 1-1.21 2.57zm-2.57 19.29a2 2 0 1 1 1.2 2.58 2 2 0 0 1-1.25-2.58zm0.54 4a2 2 0 1 1-2.75 0.73 2 2 0 0 1 2.7-0.73zm-2.97 4.76a2.0121 2.0121 0 1 1-2.59 3.08 2.0121 2.0121 0 0 1 2.59-3.08zm-2 16.72a2.69 2.69 0 1 1-3.67-1 2.67 2.67 0 0 1 3.67 1zm-53.3-4.67a2.69 2.69 0 1 1 0.3 3.78 2.68 2.68 0 0 1-0.34-3.78zm5.84 4.66a2.69 2.69 0 1 1 1 3.68 2.69 2.69 0 0 1-1.04-3.68zm4.73-9.94a2 2 0 1 1-0.25-2.83 2 2 0 0 1 0.21 2.83zm-4.27-3.69a2 2 0 1 1 0.25-2.83 2 2 0 0 1-0.25 2.83zm-3.48-4.36a2 2 0 0 1-2.75-0.74 2 2 0 1 1 2.75 0.74zm-2.67-4.9a2 2 0 1 1 1.2-2.58 2 2 0 0 1-1.16 2.59zm-1.78-5.29a2 2 0 1 1 1.63-2.33 2 2 0 0 1-1.59 2.33zm0.4 18.25a2.69 2.69 0 1 1-3.8-0.34 2.69 2.69 0 0 1 3.84 0.39zm-5-2a2.7 2.7 0 1 1 1-3.68 2.71 2.71 0 0 1-0.95 3.63zm-3.58-6.57a2.69 2.69 0 1 1 1.6-3.45 2.7 2.7 0 0 1-1.55 3.4zm-2.39-7.08a2.69 2.69 0 1 1 2.18-3.12 2.7 2.7 0 0 1-2.13 3.07zm84.5-7.44a2.7 2.7 0 1 1 2.7-2.69 2.7 2.7 0 0 1-2.7 2.69zm2-10.59a2.7 2.7 0 1 1-3.12-2.19 2.71 2.71 0 0 1 3.12 2.19zm-2-7.66a2.69 2.69 0 1 1-3.45-1.61 2.69 2.69 0 0 1 3.45 1.61zm-3.35-7.19a2.69 2.69 0 1 1-3.68-1 2.69 2.69 0 0 1 3.66 1zm-8.34-6.83a2.69 2.69 0 1 1-0.34 3.79 2.68 2.68 0 0 1 0.32-3.79zm-1.63 12.59a2 2 0 1 1-2.75-0.74 2 2 0 0 1 2.73 0.74zm-3.4-4.85a2 2 0 1 1-2.83-0.25 2 2 0 0 1 2.81 0.25zm-7-3.94a2 2 0 1 1 0.24 2.83 2 2 0 0 1-0.28-2.83zm0.24 48.72a2.0121 2.0121 0 1 1 2.59 3.08 2.0121 2.0121 0 0 1-2.59-3.08zm-5-51.63a2 2 0 1 1 0.74 2.75 2 2 0 0 1-0.79-2.75zm0.74 54.63a2 2 0 1 1-0.74 2.74 2 2 0 0 1 0.69-2.74zm2.19 13.35a2.69 2.69 0 1 1-3.45-1.6 2.7 2.7 0 0 1 3.4 1.6zm-4.35-10a2 2 0 1 1-2.57-1.2 2 2 0 0 1 2.52 1.25zm-12.87-40.56a11.27 11.27 0 1 1-11.23 11.27 11.28 11.28 0 0 1 11.23-11.27zm-12.82 40.61a2 2 0 1 1 1.2 2.58 2 2 0 0 1-1.2-2.58zm-0.9 8.34a2.69 2.69 0 1 1-3.45 1.61 2.69 2.69 0 0 1 3.45-1.61zm-4-11a2 2 0 1 1 0.74 2.75 2 2 0 0 1-0.74-2.76zm-4.12-52.7a2.0121 2.0121 0 1 1 2.59 3.08 2.0121 2.0121 0 0 1-2.59-3.08zm-4.18 4.19a2 2 0 1 1 0.24 2.83 2 2 0 0 1-0.24-2.84zm-3.4 4.85a2 2 0 1 1 0.74 2.75 2 2 0 0 1-0.74-2.76zm-2.5 5.37a2 2 0 1 1 1.2 2.57 2 2 0 0 1-1.2-2.58zm0.79 4.09a2 2 0 1 1-2.33 1.63 2 2 0 0 1 2.33-1.64zm-0.83 5.52a2 2 0 1 1-2 2 2 2 0 0 1 2-2.01zm-7.44-20.74a2.69 2.69 0 1 1 1 3.68 2.7 2.7 0 0 1-1-3.69zm-3.35 7.19a2.69 2.69 0 1 1 1.61 3.45 2.7 2.7 0 0 1-1.61-3.46zm-2.05 7.66a2.69 2.69 0 1 1 2.18 3.12 2.69 2.69 0 0 1-2.18-3.13zm2 5.2a2.7 2.7 0 1 1-2.69 2.7 2.68 2.68 0 0 1 2.69-2.71zm22.75 83.16a2.69 2.69 0 1 1 1-3.67 2.68 2.68 0 0 1-1 3.66zm6.33-2.95a2.69 2.69 0 1 1 1.61-3.45 2.69 2.69 0 0 1-1.61 3.44zm6.76-1.81a2.7 2.7 0 1 1 2.18-3.12 2.69 2.69 0 0 1-2.18 3.11zm7-0.61a2.7 2.7 0 1 1 2.69-2.69 2.68 2.68 0 0 1-2.73 2.68zm10.09-1.58a2.7 2.7 0 1 1-2.19-3.12 2.7 2.7 0 0 1 2.15 3.11zm7.08 2.39a2.69 2.69 0 1 1-1.61-3.46 2.7 2.7 0 0 1 1.57 3.45z" fill="#ec1b34"/>
 <path d="m53.63 175a19.74 19.74 0 0 0-19.12 14.91q2.65 2.51 5.46 4.83c0.5 0.41 1 0.82 1.48 1.22 0-0.4-0.06-0.81-0.06-1.22a12.24 12.24 0 1 1 15.81 11.71c2.68 1.47 5.44 2.82 8.25 4.07a19.72 19.72 0 0 0-11.82-35.52z" fill="#ec1b34"/>
 <path d="m59.67 194.77a6 6 0 1 0-6 6 6 6 0 0 0 6-6z" fill="#ec1b34"/>
 <path d="m168.83 182.53a12.23 12.23 0 0 0-5 23.39c1.7-0.95 3.38-1.95 5-3a109.92 109.92 0 0 0 11.22-8.15l1-0.83a12.23 12.23 0 0 0-12.22-11.41zm0 18.28a6 6 0 1 1 6-6 6 6 0 0 1-6 6z" fill="#fbae17"/>
 <path d="m111.23 177.27a2.7 2.7 0 1 0 2.69 2.7 2.69 2.69 0 0 0-2.69-2.7z" fill="#fbae17"/>
 <path d="m118.2 176.66a2.7 2.7 0 1 0 3.12 2.19 2.7 2.7 0 0 0-3.12-2.19z" fill="#fbae17"/>
 <path d="m125 174.86a2.69 2.69 0 1 0 3.45 1.6 2.68 2.68 0 0 0-3.45-1.6z" fill="#fbae17"/>
 <path d="m131.29 171.9a2.69 2.69 0 1 0 3.67 1 2.7 2.7 0 0 0-3.67-1z" fill="#fbae17"/>
 <path d="m137 167.89a2.69 2.69 0 1 0 3.8 0.33 2.68 2.68 0 0 0-3.8-0.33z" fill="#fbae17"/>
 <path d="m80.51 111.39a2.78 2.78 0 0 0 0.54-1.22l-5 0.72a2.75 2.75 0 0 0 0.66 0.83 2.71 2.71 0 0 0 3.8-0.33z" fill="#fbae17"/>
 <path d="m142 163a2.69 2.69 0 1 0 3.79-0.34 2.68 2.68 0 0 0-3.79 0.34z" fill="#fbae17"/>
 <path d="m72.82 118.1a2.69 2.69 0 1 0-1-3.68 2.7 2.7 0 0 0 1 3.68z" fill="#fbae17"/>
 <path d="m149.65 156.23a2.7 2.7 0 1 0 1 3.68 2.71 2.71 0 0 0-1-3.68z" fill="#fbae17"/>
 <path d="m70.09 125.06a2.69 2.69 0 1 0-1.61-3.45 2.69 2.69 0 0 0 1.61 3.45z" fill="#fbae17"/>
 <path d="m152.37 149.27a2.7 2.7 0 1 0 1.61 3.46 2.7 2.7 0 0 0-1.61-3.46z" fill="#fbae17"/>
 <path d="m68.61 132.39a2.7 2.7 0 1 0-2.18-3.12 2.7 2.7 0 0 0 2.18 3.12z" fill="#fbae17"/>
 <path d="m153.85 142a2.69 2.69 0 1 0 2.18 3.12 2.69 2.69 0 0 0-2.18-3.12z" fill="#fbae17"/>
 <path d="m68.43 139.86a2.7 2.7 0 1 0-2.69-2.69 2.69 2.69 0 0 0 2.69 2.69z" fill="#fbae17"/>
 <path d="m154 134.47a2.7 2.7 0 1 0 2.69 2.7 2.7 2.7 0 0 0-2.69-2.7z" fill="#fbae17"/>
 <path d="m69.55 147.25a2.69 2.69 0 1 0-3.12-2.18 2.69 2.69 0 0 0 3.12 2.18z" fill="#fbae17"/>
 <path d="m152.92 127.08a2.7 2.7 0 1 0 3.12 2.19 2.69 2.69 0 0 0-3.12-2.19z" fill="#fbae17"/>
 <path d="m73.54 150.88a2.69 2.69 0 1 0-1.6 3.45 2.68 2.68 0 0 0 1.6-3.45z" fill="#fbae17"/>
 <path d="m148.92 123.45a2.69 2.69 0 1 0 1.61-3.45 2.69 2.69 0 0 0-1.61 3.45z" fill="#fbae17"/>
 <path d="m76.5 157.22a2.69 2.69 0 1 0-1 3.68 2.7 2.7 0 0 0 1-3.68z" fill="#fbae17"/>
 <path d="m146 117.11a2.69 2.69 0 1 0 1-3.68 2.7 2.7 0 0 0-1 3.68z" fill="#fbae17"/>
 <path d="m80.51 163a2.69 2.69 0 1 0-0.33 3.79 2.7 2.7 0 0 0 0.33-3.79z" fill="#fbae17"/>
 <path d="m142 111.38a2.69 2.69 0 1 0 0.34-3.79 2.71 2.71 0 0 0-0.34 3.79z" fill="#fbae17"/>
 <path d="m81.66 168.22a2.69 2.69 0 1 0 3.79-0.33 2.68 2.68 0 0 0-3.79 0.33z" fill="#fbae17"/>
 <path d="m140.81 106.11a2.72 2.72 0 0 0 0.61-1.87l-5.35 0.4a2.69 2.69 0 0 0 4.74 1.47z" fill="#fbae17"/>
 <path d="m88.49 176.56a2.69 2.69 0 1 0-1-3.68 2.68 2.68 0 0 0 1 3.68z" fill="#fbae17"/>
 <path d="m95.67 179.91a2.69 2.69 0 1 0-1.61-3.45 2.69 2.69 0 0 0 1.61 3.45z" fill="#fbae17"/>
 <path d="m103.33 182a2.7 2.7 0 1 0-2.18-3.12 2.7 2.7 0 0 0 2.18 3.12z" fill="#fbae17"/>
 <path d="m53.63 182.53a12.24 12.24 0 0 0-12.24 12.24c0 0.41 0 0.82 0.06 1.22a111.57 111.57 0 0 0 12.18 8.46c1.18 0.7 2.37 1.37 3.57 2a12.24 12.24 0 0 0-3.57-24zm0 18.28a6 6 0 1 1 6-6 6 6 0 0 1-6 6z" fill="#fbae17"/>
 <path d="m111.23 206.87a2.7 2.7 0 1 0 2.69 2.7 2.69 2.69 0 0 0-2.69-2.7z" fill="#fbae17"/>
 <path d="m103.33 207.56a2.7 2.7 0 1 0 3.12 2.19 2.69 2.69 0 0 0-3.12-2.19z" fill="#fbae17"/>
 <path d="m95.67 209.62a2.69 2.69 0 1 0 3.45 1.61 2.69 2.69 0 0 0-3.45-1.61z" fill="#fbae17"/>
 <path d="m88.48 213a2.69 2.69 0 1 0 3.68 1 2.7 2.7 0 0 0-3.68-1z" fill="#fbae17"/>
 <path d="m134 213a2.71 2.71 0 1 0-2.18 4.85c0.88-0.18 1.76-0.36 2.63-0.56a2.78 2.78 0 0 0 0.53-0.6 2.7 2.7 0 0 0-0.98-3.69z" fill="#fbae17"/>
 <path d="m126.79 209.61a2.7 2.7 0 1 0 1.61 3.46 2.7 2.7 0 0 0-1.61-3.46z" fill="#fbae17"/>
 <path d="m119.13 207.56a2.7 2.7 0 1 0 2.19 3.12 2.69 2.69 0 0 0-2.19-3.12z" fill="#fbae17"/>
 <path d="m69.42 68a44.45 44.45 0 0 0-2.28-8.23c-1.12-2.83-2.26-5.74-4.27-8.07-1.77-1.91-4.62-2.17-7-1.73-4.82 0.94-9.07 3.78-12.55 7.15a25.9 25.9 0 0 0-6.77 10.71c-0.67 2.38-0.84 5.13 0.5 7.32a12.74 12.74 0 0 0 4.19 3.3 45.4 45.4 0 0 0 15.08 5.06z" fill="#fdffe9"/>
 <path d="m57.7 59.1a9.28 9.28 0 0 0-6.21 1.2 13.22 13.22 0 0 0-5.7 6 5.59 5.59 0 0 0-0.11 4.79 12.59 12.59 0 0 0 3.55 3.1c3 1.87 6.32 3.64 9.94 3.6 1.61 0.13 2.56-1.3 3.55-2.31 0.92-2.13 0.65-4.57 0.27-6.8a25.34 25.34 0 0 0-2.48-7.37 4 4 0 0 0-2.81-2.21z" fill="#d1cfbf" opacity=".8"/>
 <path d="m163.43 84.77a45.36 45.36 0 0 0 15.19-4.7 12.63 12.63 0 0 0 4.27-3.2c1.4-2.15 1.29-4.91 0.68-7.31a26 26 0 0 0-6.52-10.86c-3.4-3.46-7.57-6.4-12.36-7.45-2.42-0.5-5.28-0.3-7.09 1.56a27.53 27.53 0 0 0-4.46 8 44.2 44.2 0 0 0-2.47 8.17z" fill="#fdffe9"/>
 <path d="m159.73 62.47a25.32 25.32 0 0 0-2.65 7.31c-0.44 2.21-0.76 4.64 0.1 6.8 1 1 1.89 2.49 3.5 2.39 3.61 0.13 7-1.56 10-3.36a12.46 12.46 0 0 0 3.63-3 5.56 5.56 0 0 0 0-4.78 13.21 13.21 0 0 0-5.55-6.11 9.28 9.28 0 0 0-6.19-1.35 4 4 0 0 0-2.84 2.1z" fill="#d1cfbf" opacity=".8"/>
 <path d="m156 136c18.68-12.45 21.92-40.86 7.25-59.43l-3-3.78c-25.89-32.77-73-33.49-99.81-1.52l-3.23 3.85c-19.06 22.69-10.13 50 4.79 59.88 29.75 19.7 65.16 20.22 94 1z" fill="#fdffe9"/>
 <path d="m108.59 128.78c-12.92-0.11-14.48-10.84-14.48-18.84v-12.1a14.48 14.48 0 0 1 14.48-14.48 14.48 14.48 0 0 1 14.48 14.48v12.1c0 8-3.74 18.06-14.48 18.84z" fill="#d1cfbf" opacity=".8"/>
 <path d="m109.9 106.07 0.08-5.2h-1.79l-0.08 5.21c0.3 0 0.57 0.07 0.89 0.07s0.59-0.07 0.9-0.08z" fill="#393229"/>
 <path d="m119.19 109.55a0.89 0.89 0 0 0-0.93 0.85l-0.14 3.64a9.88 9.88 0 0 1-3.95 7.58 9.25 9.25 0 0 1-4.59 1.79l0.06-3.82 0.26-17.09c-0.31 0-0.59 0.06-0.9 0.06s-0.59-0.05-0.89-0.07l-0.31 20.95h-0.37a9.37 9.37 0 0 1-4.52-1.81 10.27 10.27 0 0 1-1.22-1.07 10.07 10.07 0 0 1-2.77-7.41l0.11-2.68a0.89 0.89 0 0 0-0.85-0.93 0.93 0.93 0 0 0-0.93 0.86l-0.11 2.67a12 12 0 0 0 3.15 8.59 1.47 1.47 0 0 0 0.1 0.13 11.3 11.3 0 0 0 7 3.48c0.34 0 0.69 0.06 1 0.07h0.11 0.48a11.13 11.13 0 0 0 7.85-3.71 11.83 11.83 0 0 0 3-7.45l0.14-3.64a0.88 0.88 0 0 0-0.78-0.99z" fill="#171717"/>
 <path d="m103.86 87.82c-9.19 4.16-8.2 17.51 4.25 18.23h1.79c4.92-0.27 7.57-2.92 8.36-6.22 1.66-6.83-4.63-16.42-14.4-12.01z" fill="#171717"/>
 <path d="m152.69 99.09c-0.06-3.41-4.49-6.11-9.91-6s-9.75 2.93-9.69 6.34 4.49 6.11 9.9 6 9.75-2.93 9.7-6.34z" fill="#f399c0"/>
 <path d="m83.72 99.17c-0.15-3.41-4.64-6-10.05-5.8s-9.68 3.14-9.55 6.55 4.64 6 10.05 5.8 9.68-3.14 9.55-6.55z" fill="#f399c0"/>
 <path d="m135.47 89c-3.3-0.82-5.79-3.29-6-6.25l-0.15-1.95a1 1 0 0 1 0.87-1 0.94 0.94 0 0 1 1 0.87l0.14 1.94c0.19 2.59 3.06 4.74 6.38 4.8a6.56 6.56 0 0 0 4.91-1.86 3.84 3.84 0 0 0 1.11-3l-0.1-1.43a0.94 0.94 0 0 1 1.87-0.14l0.11 1.43a5.78 5.78 0 0 1-1.63 4.42 8.4 8.4 0 0 1-6.3 2.45 9.51 9.51 0 0 1-2.21-0.28z" fill="#171717"/>
 <path d="m80.51 89.23c-3.3-0.82-5.78-3.29-6-6.26l-0.14-1.94a0.94 0.94 0 0 1 1.87-0.13l0.14 1.94c0.2 2.59 3.06 4.75 6.39 4.8a6.57 6.57 0 0 0 4.9-1.86 3.89 3.89 0 0 0 1.12-3l-0.11-1.43a0.9426 0.9426 0 1 1 1.88-0.14l0.1 1.43a5.81 5.81 0 0 1-1.62 4.42 8.43 8.43 0 0 1-6.3 2.45 10.8 10.8 0 0 1-2.23-0.28z" fill="#171717"/>
</svg>
