<svg width="220mm" height="220mm" version="1.1" viewBox="0 0 220 220" xmlns="http://www.w3.org/2000/svg">
 <circle cx="110" cy="110" r="110" stroke="var(--color-background-border)" strokeWidth='1' fill="var(--color-background)"/>
 <path d="m82 216.37v-0.31a13.64 13.64 0 0 1-1.57-0.1z" fill="#c6bcb6"/>
 <path d="m75.94 214.61a14.59 14.59 0 0 1-7.94-13.09 14.79 14.79 0 0 1-2.93 8.87 107.22 107.22 0 0 0 10.87 4.22z" fill="#c6bcb6"/>
 <path d="m96 201.52a14.28 14.28 0 0 1-14 14.54v0.32a110.33 110.33 0 0 0 27.47 3.62 15 15 0 0 0 0.53-3.93 14.28 14.28 0 0 1-14-14.55z" fill="#c6bcb6"/>
 <path d="m110 216.06a15 15 0 0 0 0.53 3.93 110.33 110.33 0 0 0 27.47-3.61v-0.32a14.28 14.28 0 0 1-14-14.54 14.28 14.28 0 0 1-14 14.54z" fill="#c6bcb6"/>
 <path d="m144.06 214.61a109.58 109.58 0 0 0 10.87-4.21 14.85 14.85 0 0 1-2.93-8.88 14.59 14.59 0 0 1-7.94 13.09z" fill="#c6bcb6"/>
 <path d="m139.59 216a13.85 13.85 0 0 1-1.59 0.1v0.31z" fill="#c6bcb6"/>
 <path d="m46.1 199.51 0.45 0.31a14.6 14.6 0 0 0 7.45-12.82 13.53 13.53 0 0 1-4.64-0.84c-1.28 4.52-2.36 9.01-3.26 13.35z" fill="#c6bcb6"/>
 <path d="m68 172.43a14.28 14.28 0 0 1-14 14.57 14 14 0 1 0 28 0 14.28 14.28 0 0 1-14-14.57z" fill="#c6bcb6"/>
 <path d="m110 187a14.28 14.28 0 0 1-14-14.55 14.28 14.28 0 0 1-14 14.55 14 14 0 1 0 28 0z" fill="#c6bcb6"/>
 <path d="m124 172.43a14.28 14.28 0 0 1-14 14.57 14 14 0 1 0 28 0 14.28 14.28 0 0 1-14-14.57z" fill="#c6bcb6"/>
 <path d="m152 172.43a14.28 14.28 0 0 1-14 14.57 14 14 0 1 0 28 0 14.28 14.28 0 0 1-14-14.57z" fill="#c6bcb6"/>
 <path d="m170.26 186.29a13.72 13.72 0 0 1-4.26 0.71 14.6 14.6 0 0 0 7.45 12.84l0.22-0.15c-0.92-4.37-2.09-8.86-3.41-13.4z" fill="#c6bcb6"/>
 <path d="m82 157.89a14.28 14.28 0 0 1-14-14.53 14.55 14.55 0 0 1-8.66 13.43c-1.1 2.83-2.2 5.73-3.27 8.69a13.87 13.87 0 0 0 11.93 6.95 14.27 14.27 0 0 0 14-14.54z" fill="#c6bcb6"/>
 <path d="m110 157.89a14.28 14.28 0 0 1-14-14.53 14.28 14.28 0 0 1-14 14.53 14 14 0 1 0 28 0z" fill="#c6bcb6"/>
 <path d="m124 143.36a14.28 14.28 0 0 1-14 14.53 14 14 0 1 0 28 0 14.28 14.28 0 0 1-14-14.53z" fill="#c6bcb6"/>
 <path d="m138 157.89a14.27 14.27 0 0 0 14 14.54 13.82 13.82 0 0 0 11.52-6.29c-1.24-3.34-2.51-6.62-3.78-9.79a14.6 14.6 0 0 1-7.74-13 14.28 14.28 0 0 1-14 14.54z" fill="#c6bcb6"/>
 <path d="m82 128.81a13.63 13.63 0 0 1-9.12-3.52c-2 4.15-4.79 10.33-7.93 17.71a13.4 13.4 0 0 0 3.05 0.36c7.73 0 14-6.52 14-14.55z" fill="#c6bcb6"/>
 <path d="m96 143.36c7.73 0 14-6.52 14-14.55a14 14 0 0 1-13-9.1h-2a14 14 0 0 1-13 9.11c0 8.02 6.27 14.54 14 14.54z" fill="#c6bcb6"/>
 <path d="m124 143.36c7.73 0 14-6.52 14-14.55a14 14 0 0 1-12.92-8.92h-2.16a14 14 0 0 1-12.92 8.92c0 8.03 6.27 14.55 14 14.55z" fill="#c6bcb6"/>
 <path d="m152 143.36a12.47 12.47 0 0 0 2.22-0.21c-3.1-7.12-5.9-13.12-7.87-17.22a13.62 13.62 0 0 1-8.35 2.88c0 8.03 6.27 14.55 14 14.55z" fill="#c6bcb6"/>
 <path d="m82 216.38v-0.32 0.31z" fill="#fdffe9"/>
 <path d="m110 220h0.53a15 15 0 0 1-0.53-3.93 15 15 0 0 1-0.53 3.93z" fill="#fdffe9"/>
 <path d="m138 216.37v-0.31 0.32z" fill="#fdffe9"/>
 <path d="m54 187a14.6 14.6 0 0 1-7.45 12.84 110.55 110.55 0 0 0 18.52 10.57 14.79 14.79 0 0 0 2.93-8.87 14.28 14.28 0 0 1-14-14.54z" fill="#fdffe9"/>
 <path d="m82 187a14.28 14.28 0 0 1-14 14.54 14.59 14.59 0 0 0 7.94 13.09c1.48 0.48 3 0.93 4.49 1.35a13.64 13.64 0 0 0 1.57 0.1 14.28 14.28 0 0 0 14-14.54 14.28 14.28 0 0 1-14-14.54z" fill="#fdffe9"/>
 <path d="m110 187a14.28 14.28 0 0 1-14 14.54 14 14 0 1 0 28 0 14.28 14.28 0 0 1-14-14.54z" fill="#fdffe9"/>
 <path d="m138 187a14.28 14.28 0 0 1-14 14.54 14.28 14.28 0 0 0 14 14.54 13.85 13.85 0 0 0 1.59-0.1q2.25-0.63 4.47-1.35a14.59 14.59 0 0 0 7.94-13.11 14.28 14.28 0 0 1-14-14.52z" fill="#fdffe9"/>
 <path d="m166 187a14.28 14.28 0 0 1-14 14.54 14.85 14.85 0 0 0 2.93 8.88 110.6 110.6 0 0 0 18.52-10.58 14.6 14.6 0 0 1-7.45-12.84z" fill="#fdffe9"/>
 <path d="m68 172.43a13.87 13.87 0 0 1-11.93-6.95c-2.45 6.76-4.77 13.77-6.71 20.66a13.53 13.53 0 0 0 4.64 0.86 14.28 14.28 0 0 0 14-14.57z" fill="#fdffe9"/>
 <path d="m82 187a14.28 14.28 0 0 0 14-14.55 14.27 14.27 0 0 1-14-14.54 14.27 14.27 0 0 1-14 14.54 14.28 14.28 0 0 0 14 14.55z" fill="#fdffe9"/>
 <path d="m110 157.89a14.27 14.27 0 0 1-14 14.54 14 14 0 1 0 28 0 14.27 14.27 0 0 1-14-14.54z" fill="#fdffe9"/>
 <path d="m124 172.43a14 14 0 1 0 28 0 14.27 14.27 0 0 1-14-14.54 14.27 14.27 0 0 1-14 14.54z" fill="#fdffe9"/>
 <path d="m166 187a13.72 13.72 0 0 0 4.26-0.69c-2-6.73-4.29-13.56-6.74-20.15a13.82 13.82 0 0 1-11.52 6.27 14.28 14.28 0 0 0 14 14.57z" fill="#fdffe9"/>
 <path d="m59.34 156.79a14.55 14.55 0 0 0 8.66-13.43 13.4 13.4 0 0 1-3-0.36c-1.85 4.25-3.76 8.9-5.66 13.79z" fill="#fdffe9"/>
 <path d="m96 143.36c-7.73 0-14-6.52-14-14.55 0 8-6.27 14.55-14 14.55a14 14 0 1 0 28 0z" fill="#fdffe9"/>
 <path d="m110 157.89a14.28 14.28 0 0 0 14-14.53c-7.73 0-14-6.52-14-14.55 0 8-6.27 14.55-14 14.55a14.28 14.28 0 0 0 14 14.53z" fill="#fdffe9"/>
 <path d="m138 157.89a14.28 14.28 0 0 0 14-14.53c-7.73 0-14-6.52-14-14.55 0 8-6.27 14.55-14 14.55a14.28 14.28 0 0 0 14 14.53z" fill="#fdffe9"/>
 <path d="m159.74 156.35c-1.87-4.68-3.74-9.12-5.52-13.2a12.47 12.47 0 0 1-2.22 0.21 14.6 14.6 0 0 0 7.74 12.99z" fill="#fdffe9"/>
 <path d="m95 119.7-19.35-0.12s-1.05 2.09-2.75 5.71a13.63 13.63 0 0 0 9.12 3.52 14 14 0 0 0 12.98-9.11z" fill="#fdffe9"/>
 <path d="m122.92 119.87-25.9-0.16a13.81 13.81 0 0 0 25.9 0.16z" fill="#fdffe9"/>
 <path d="m143.44 120-18.36-0.11a14 14 0 0 0 12.92 8.92 13.62 13.62 0 0 0 8.35-2.88c-1.8-3.76-2.91-5.93-2.91-5.93z" fill="#fdffe9"/>
 <path d="m76.18 77.27c-9.44-0.3-19.36-1.27-28.21 1.64s-18.08 7.36-22.76 15.58c-1.16 2-2 4.62-0.81 6.62 1 1.71 3.2 2.31 5.17 2.64a46.21 46.21 0 0 0 43.72-17.64z" fill="#6b4241"/>
 <path d="m36.58 104.33a39.33 39.33 0 0 1-6.35-0.52c-2-0.34-2.38-0.74-2.41-0.78a4.63 4.63 0 0 1 0.87-2.56c3.35-5.88 9.35-8.74 20.52-9.76 7.79-0.71 20.48-2.48 20.48-2.48a42.38 42.38 0 0 1-33.1 16.1z" fill="#855351"/>
 <path d="m143.82 77.27c9.44-0.3 19.36-1.27 28.21 1.64s18.08 7.36 22.76 15.58c1.16 2 2 4.62 0.81 6.62-1 1.71-3.2 2.31-5.17 2.64a46.21 46.21 0 0 1-43.72-17.64z" fill="#6b4241"/>
 <path d="m183.42 104.33a39.33 39.33 0 0 0 6.35-0.52c2-0.34 2.38-0.74 2.41-0.78a4.63 4.63 0 0 0-0.87-2.56c-3.35-5.88-9.35-8.74-20.52-9.76-7.79-0.71-20.48-2.48-20.48-2.48a42.38 42.38 0 0 0 33.1 16.1z" fill="#855351"/>
 <path d="M 107.67,168.87 C 160,170 186,48 108.24,49.37 32,50.72 58,170 107.67,168.87 Z" fill="#6b4241"/>
 <path d="m94.58 85.62a0.37 0.37 0 0 1-0.31-0.17 20.81 20.81 0 0 1-1.61-3.33c-0.27-0.64-0.54-1.3-0.84-1.93a0.35 0.35 0 0 1 0.17-0.48 0.36 0.36 0 0 1 0.49 0.16c0.31 0.65 0.59 1.32 0.86 2a20.29 20.29 0 0 0 1.55 3.22 0.37 0.37 0 0 1-0.31 0.56z" fill="#945c5a"/>
 <path d="m98.49 84.89a0.36 0.36 0 0 1-0.35-0.27c-0.1-0.4-0.19-0.8-0.29-1.2a30.42 30.42 0 0 0-1.16-4.1 0.37 0.37 0 0 1 0.69-0.26 32.83 32.83 0 0 1 1.19 4.2c0.09 0.39 0.18 0.79 0.28 1.18a0.35 0.35 0 0 1-0.27 0.44z" fill="#945c5a"/>
 <path d="m102.4 84.66a0.37 0.37 0 0 1-0.36-0.32c-0.07-0.54-0.1-1.11-0.14-1.7a11.48 11.48 0 0 0-0.56-3.55 0.36 0.36 0 0 1 0.2-0.47 0.37 0.37 0 0 1 0.48 0.2 12 12 0 0 1 0.61 3.78c0 0.57 0.07 1.13 0.13 1.65a0.36 0.36 0 0 1-0.31 0.41z" fill="#945c5a"/>
 <path d="m107.65 84.06a0.36 0.36 0 0 1-0.35-0.27 18 18 0 0 1-0.49-3.43 22.71 22.71 0 0 0-0.24-2.3 0.36 0.36 0 0 1 0.3-0.42 0.35 0.35 0 0 1 0.42 0.29c0.14 0.8 0.2 1.61 0.26 2.38a16.41 16.41 0 0 0 0.46 3.29 0.37 0.37 0 0 1-0.26 0.45z" fill="#945c5a"/>
 <path d="m112.29 83.91a0.33 0.33 0 0 1-0.35-0.34c0.08-1.76 0.16-3.5 0.13-5.2a0.37 0.37 0 0 1 0.36-0.37 0.36 0.36 0 0 1 0.36 0.36c0 1.72-0.05 3.47-0.12 5.16a0.42 0.42 0 0 1-0.38 0.39z" fill="#945c5a"/>
 <path d="m117.79 84h-0.06a0.36 0.36 0 0 1-0.3-0.42c0.07-0.38 0.14-0.77 0.22-1.16a14 14 0 0 0 0.4-4.07 0.37 0.37 0 1 1 0.73-0.08 15 15 0 0 1-0.41 4.29c-0.08 0.39-0.15 0.77-0.22 1.14a0.37 0.37 0 0 1-0.36 0.3z" fill="#945c5a"/>
 <path d="m123.83 85.88h-0.05a0.37 0.37 0 0 1-0.31-0.41c0.12-0.71 0.31-1.46 0.49-2.17a15 15 0 0 0 0.62-3.83 0.35 0.35 0 0 1 0.35-0.37 0.35 0.35 0 0 1 0.38 0.35 15.18 15.18 0 0 1-0.64 4c-0.19 0.74-0.36 1.43-0.47 2.11a0.38 0.38 0 0 1-0.37 0.32z" fill="#945c5a"/>
 <path d="m129.64 85.19a0.28 0.28 0 0 1-0.13 0 0.35 0.35 0 0 1-0.21-0.47c0.13-0.32 0.25-0.66 0.37-1a17.6 17.6 0 0 1 1.5-3.31 0.37 0.37 0 0 1 0.5-0.12 0.36 0.36 0 0 1 0.12 0.5 16.88 16.88 0 0 0-1.43 3.18c-0.13 0.34-0.25 0.68-0.38 1a0.38 0.38 0 0 1-0.34 0.22z" fill="#945c5a"/>
 <path d="m94.59 79.07a0.38 0.38 0 0 1-0.31-0.18l-0.36-0.62a14.78 14.78 0 0 0-1.31-2 0.36235 0.36235 0 1 1 0.56-0.46 13.91 13.91 0 0 1 1.38 2.11l0.36 0.61a0.36 0.36 0 0 1-0.13 0.5 0.41 0.41 0 0 1-0.19 0.04z" fill="#945c5a"/>
 <path d="m99.72 78.35a0.36 0.36 0 0 1-0.34-0.25 9.55 9.55 0 0 1-0.63-3.16 0.37 0.37 0 0 1 0.74 0 8.92 8.92 0 0 0 0.58 2.91 0.36 0.36 0 0 1-0.23 0.46z" fill="#945c5a"/>
 <path d="m104.37 77.75a0.37 0.37 0 0 1-0.37-0.35v-0.54a7.27 7.27 0 0 0-0.65-3.42 0.34 0.34 0 0 1 0.13-0.49 0.36 0.36 0 0 1 0.5 0.12 7.83 7.83 0 0 1 0.75 3.76v0.54a0.36 0.36 0 0 1-0.35 0.38z" fill="#945c5a"/>
 <path d="m110.47 78a0.36 0.36 0 0 1-0.36-0.36 16.13 16.13 0 0 0-0.48-3.44 0.37 0.37 0 0 1 0.28-0.44 0.36 0.36 0 0 1 0.44 0.28 17.38 17.38 0 0 1 0.49 3.6 0.36 0.36 0 0 1-0.37 0.36z" fill="#945c5a"/>
 <path d="m116.09 77.16a0.36 0.36 0 0 1-0.36-0.36v-0.6c0-1 0-1.93-0.11-3a0.37 0.37 0 0 1 0.34-0.39 0.35 0.35 0 0 1 0.39 0.34c0.08 1.11 0.1 2.1 0.11 3.06v0.6a0.37 0.37 0 0 1-0.36 0.37z" fill="#945c5a"/>
 <path d="m121.71 78.87h-0.06a0.35 0.35 0 0 1-0.3-0.41c0.07-0.45 0.16-0.9 0.26-1.35a11.68 11.68 0 0 0 0.35-2.59 0.37 0.37 0 0 1 0.36-0.37 0.36 0.36 0 0 1 0.36 0.35 11.68 11.68 0 0 1-0.37 2.76c-0.09 0.44-0.18 0.88-0.25 1.31a0.37 0.37 0 0 1-0.35 0.3z" fill="#945c5a"/>
 <path d="m128 79a0.36 0.36 0 0 1-0.36-0.36 8 8 0 0 1 0.2-1.79 7.18 7.18 0 0 0 0.16-1.85 0.38 0.38 0 0 1 0.34-0.4 0.36 0.36 0 0 1 0.39 0.34 7.46 7.46 0 0 1-0.18 2 7.81 7.81 0 0 0-0.19 1.65 0.37 0.37 0 0 1-0.36 0.37z" fill="#945c5a"/>
 <path d="m134.16 82.41h-0.06a0.36 0.36 0 0 1-0.3-0.42 9.42 9.42 0 0 1 1.08-2.67c0.15-0.28 0.29-0.55 0.42-0.82a0.37 0.37 0 0 1 0.49-0.17 0.36 0.36 0 0 1 0.17 0.48c-0.13 0.28-0.28 0.56-0.43 0.85a8.65 8.65 0 0 0-1 2.45 0.37 0.37 0 0 1-0.37 0.3z" fill="#945c5a"/>
 <path d="m90.31 81.12a0.37 0.37 0 0 1-0.31-0.12c-0.24-0.39-0.45-0.81-0.67-1.23a9.94 9.94 0 0 0-1.24-2 0.36 0.36 0 0 1 0-0.51 0.37 0.37 0 0 1 0.52 0 10.5 10.5 0 0 1 1.34 2.15c0.21 0.4 0.42 0.81 0.65 1.18a0.37 0.37 0 0 1-0.12 0.5 0.46 0.46 0 0 1-0.17 0.03z" fill="#945c5a"/>
 <path d="m93.72 91a0.35 0.35 0 0 1-0.35-0.26c-0.08-0.27-0.14-0.57-0.2-0.86a3.43 3.43 0 0 0-0.69-1.78 0.37 0.37 0 0 1 0-0.52 0.35 0.35 0 0 1 0.51 0 4.11 4.11 0 0 1 0.88 2.14c0.05 0.27 0.11 0.54 0.18 0.8a0.36 0.36 0 0 1-0.25 0.45z" fill="#945c5a"/>
 <path d="m99 91.75a0.37 0.37 0 0 1-0.37-0.36 5.06 5.06 0 0 0-0.53-2.71 0.35 0.35 0 0 1 0.09-0.5 0.37 0.37 0 0 1 0.51 0.08 5.57 5.57 0 0 1 0.67 3.12 0.37 0.37 0 0 1-0.36 0.37z" fill="#945c5a"/>
 <path d="m102.63 93.39a0.37 0.37 0 0 1-0.36-0.3c-0.12-0.76-0.29-1.51-0.45-2.27s-0.39-1.8-0.52-2.72a0.37 0.37 0 0 1 0.31-0.41 0.37 0.37 0 0 1 0.42 0.31c0.12 0.89 0.32 1.8 0.51 2.67s0.33 1.53 0.45 2.3a0.36 0.36 0 0 1-0.3 0.42z" fill="#945c5a"/>
 <path d="m101.28 99.82a0.38 0.38 0 0 1-0.36-0.28 9.5 9.5 0 0 0-1.51-3.62 0.36 0.36 0 0 1 0.06-0.51 0.37 0.37 0 0 1 0.52 0.06 10.19 10.19 0 0 1 1.64 3.9 0.36 0.36 0 0 1-0.27 0.44z" fill="#945c5a"/>
 <path d="m106.18 91.58a0.37 0.37 0 0 1-0.37-0.33l-0.06-0.78a11.46 11.46 0 0 0-0.52-3.13 0.37 0.37 0 1 1 0.69-0.25 11.92 11.92 0 0 1 0.56 3.33l0.06 0.76a0.37 0.37 0 0 1-0.33 0.4z" fill="#945c5a"/>
 <path d="m105.55 100.43a0.36 0.36 0 0 1-0.33-0.22 14.91 14.91 0 0 1-0.84-2.84v-0.13a0.37 0.37 0 0 1 0.28-0.44 0.37 0.37 0 0 1 0.44 0.28v0.13a15.14 15.14 0 0 0 0.8 2.71 0.37 0.37 0 0 1-0.19 0.48z" fill="#945c5a"/>
 <path d="m109.23 93.16a0.37 0.37 0 0 1-0.37-0.33c-0.16-1.9-0.33-3.8-0.48-5.71a0.37 0.37 0 0 1 0.34-0.39 0.35 0.35 0 0 1 0.39 0.34c0.16 1.9 0.31 3.8 0.48 5.69a0.37 0.37 0 0 1-0.33 0.4z" fill="#945c5a"/>
 <path d="m109.22 98.62a0.37 0.37 0 0 1-0.36-0.32l-0.09-0.74a13.64 13.64 0 0 0-0.62-3.25 0.36 0.36 0 0 1 0.22-0.46 0.37 0.37 0 0 1 0.47 0.22 14.36 14.36 0 0 1 0.66 3.41l0.08 0.73a0.37 0.37 0 0 1-0.32 0.41z" fill="#945c5a"/>
 <path d="m114 90.14h-0.09a0.37 0.37 0 0 1-0.27-0.44 13.38 13.38 0 0 0 0.24-3.23v-0.57a0.37 0.37 0 0 1 0.73 0v0.56a13.42 13.42 0 0 1-0.26 3.4 0.37 0.37 0 0 1-0.35 0.28z" fill="#945c5a"/>
 <path d="m113.74 98.63a0.38 0.38 0 0 1-0.37-0.37v-5.09a0.37 0.37 0 1 1 0.73 0v5.09a0.38 0.38 0 0 1-0.36 0.37z" fill="#945c5a"/>
 <path d="m118.88 91.48a0.38 0.38 0 0 1-0.37-0.37 8.24 8.24 0 0 1 0.45-2.29 6.86 6.86 0 0 0 0.42-2.3 0.36 0.36 0 0 1 0.34-0.38 0.38 0.38 0 0 1 0.39 0.35 7.33 7.33 0 0 1-0.45 2.54 7.38 7.38 0 0 0-0.41 2.08 0.38 0.38 0 0 1-0.37 0.37z" fill="#945c5a"/>
 <path d="m117.89 98.27a0.36 0.36 0 0 1-0.36-0.35 16.43 16.43 0 0 1 0.12-2.53c0.06-0.65 0.13-1.33 0.13-2a0.37 0.37 0 1 1 0.73 0c0 0.68-0.07 1.37-0.13 2a16.62 16.62 0 0 0-0.12 2.43 0.37 0.37 0 0 1-0.35 0.38z" fill="#945c5a"/>
 <path d="m123 95.85a0.36 0.36 0 0 1-0.36-0.35 7.52 7.52 0 0 1 0.81-3 12.07 12.07 0 0 0 0.55-1.5 0.37 0.37 0 0 1 0.45-0.26 0.36 0.36 0 0 1 0.26 0.45 13.48 13.48 0 0 1-0.59 1.58 7.15 7.15 0 0 0-0.75 2.68 0.36 0.36 0 0 1-0.36 0.37z" fill="#945c5a"/>
 <path d="m126.09 87.85h-0.09a0.37 0.37 0 0 1-0.26-0.44 5.71 5.71 0 0 1 0.9-1.75c0.17-0.25 0.34-0.51 0.48-0.76a0.36473 0.36473 0 1 1 0.64 0.35c-0.15 0.27-0.33 0.54-0.51 0.82a5 5 0 0 0-0.8 1.51 0.36 0.36 0 0 1-0.36 0.27z" fill="#945c5a"/>
 <path d="m126.44 98.77h-0.08a0.37 0.37 0 0 1-0.28-0.44 16.89 16.89 0 0 1 0.9-2.59c0.12-0.29 0.24-0.57 0.34-0.85a0.38 0.38 0 0 1 0.48-0.21 0.36 0.36 0 0 1 0.21 0.47c-0.11 0.29-0.23 0.57-0.35 0.86a16.57 16.57 0 0 0-0.86 2.48 0.37 0.37 0 0 1-0.36 0.28z" fill="#945c5a"/>
 <path d="m127.92 92.22a0.37 0.37 0 0 1-0.34-0.5 16.46 16.46 0 0 1 1.62-3.09 0.37 0.37 0 0 1 0.51-0.11 0.36 0.36 0 0 1 0.1 0.51 15.66 15.66 0 0 0-1.55 3 0.38 0.38 0 0 1-0.34 0.19z" fill="#945c5a"/>
 <path d="m122.4 105.55a0.36 0.36 0 0 1-0.31-0.41c0.22-1.47 0.5-2.94 0.77-4.37l0.21-1.1a0.35 0.35 0 0 1 0.43-0.29 0.36 0.36 0 0 1 0.3 0.42l-0.22 1.11c-0.27 1.42-0.54 2.88-0.77 4.33a0.36 0.36 0 0 1-0.41 0.31z" fill="#945c5a"/>
 <path d="m119.84 104.58h-0.06a0.36 0.36 0 0 1-0.31-0.41 23.62 23.62 0 0 0 0.37-4.18 0.37 0.37 0 0 1 0.36-0.37 0.36 0.36 0 0 1 0.38 0.35 24.93 24.93 0 0 1-0.38 4.31 0.37 0.37 0 0 1-0.36 0.3z" fill="#945c5a"/>
 <path d="m104.56 108.68a0.37 0.37 0 0 1-0.36-0.32c0-0.27-0.06-0.56-0.08-0.88-0.09-1.15-0.2-2.58-0.91-3.28a0.36 0.36 0 0 1 0-0.51 0.37 0.37 0 0 1 0.52 0c0.9 0.89 1 2.47 1.12 3.73 0 0.31 0 0.59 0.08 0.85a0.36 0.36 0 0 1-0.32 0.4z" fill="#945c5a"/>
 <path d="m108.47 106.62a0.37 0.37 0 0 1-0.36-0.3c-0.1-0.63-0.17-1.26-0.25-1.9-0.1-0.81-0.2-1.65-0.35-2.46a0.36 0.36 0 0 1 0.29-0.43 0.37 0.37 0 0 1 0.43 0.29c0.16 0.84 0.26 1.69 0.36 2.52 0.07 0.62 0.15 1.24 0.25 1.86a0.37 0.37 0 0 1-0.31 0.42z" fill="#945c5a"/>
 <path d="m111.65 106.38a0.37 0.37 0 0 1-0.37-0.36v-5.46a0.37 0.37 0 0 1 0.37-0.36 0.36 0.36 0 0 1 0.36 0.36v5.44a0.37 0.37 0 0 1-0.36 0.38z" fill="#945c5a"/>
 <path d="m115 105.78a0.37 0.37 0 0 1-0.34-0.39c0-0.25 0.05-0.52 0.08-0.8a6.1 6.1 0 0 0-0.16-3.14 0.37 0.37 0 0 1 0.67-0.31 6.68 6.68 0 0 1 0.22 3.53c0 0.27-0.06 0.53-0.07 0.78a0.37 0.37 0 0 1-0.4 0.33z" fill="#945c5a"/>
 <path d="m118.36 111.25a0.38 0.38 0 0 1-0.37-0.37v-5.09a0.37 0.37 0 0 1 0.74 0v5.09a0.38 0.38 0 0 1-0.37 0.37z" fill="#945c5a"/>
 <path d="m121 113.07a0.36 0.36 0 0 1-0.3-0.42c0.07-0.39 0.15-0.78 0.23-1.17a12.22 12.22 0 0 0 0.39-3.11 0.37 0.37 0 0 1 0.73 0 13.43 13.43 0 0 1-0.4 3.3c-0.08 0.38-0.16 0.77-0.23 1.15a0.37 0.37 0 0 1-0.42 0.25z" fill="#945c5a"/>
 <path d="m108 115.6a0.37 0.37 0 0 1-0.36-0.32c0-0.2-0.05-0.41-0.07-0.64-0.12-1.13-0.26-2.53-1.11-3.11a0.36335 0.36335 0 1 1 0.41-0.6c1.14 0.77 1.3 2.36 1.43 3.64 0 0.22 0 0.42 0.06 0.62a0.35 0.35 0 0 1-0.31 0.4z" fill="#945c5a"/>
 <path d="m110.17 115.84a0.36 0.36 0 0 1-0.37-0.34 36.72 36.72 0 0 0-0.47-4.69 0.35 0.35 0 0 1 0.29-0.42 0.37 0.37 0 0 1 0.43 0.29 36.7 36.7 0 0 1 0.48 4.78 0.36 0.36 0 0 1-0.35 0.38z" fill="#945c5a"/>
 <path d="m113 113.91a0.37 0.37 0 0 1-0.33-0.4c0-0.22 0-0.45 0.07-0.7a6.9 6.9 0 0 0-0.15-3.47 0.36449 0.36449 0 0 1 0.65-0.33 7.33 7.33 0 0 1 0.23 3.88c0 0.24-0.05 0.47-0.07 0.69a0.37 0.37 0 0 1-0.4 0.33z" fill="#945c5a"/>
 <path d="m115.3 117.06a0.36 0.36 0 0 1-0.37-0.36v-4.7a0.37 0.37 0 1 1 0.73 0v4.73a0.36 0.36 0 0 1-0.36 0.33z" fill="#945c5a"/>
 <path d="m110.28 124.82a0.38 0.38 0 0 1-0.36-0.26 17.28 17.28 0 0 1-0.73-5 0.36 0.36 0 0 1 0.36-0.36 0.36 0.36 0 0 1 0.37 0.36 16.2 16.2 0 0 0 0.71 4.75 0.36 0.36 0 0 1-0.25 0.45z" fill="#945c5a"/>
 <path d="m112 125.19a0.38 0.38 0 0 1-0.37-0.32 16.13 16.13 0 0 1-0.07-2.08 11.31 11.31 0 0 0-0.16-2.5 0.36 0.36 0 0 1 0.28-0.43 0.36 0.36 0 0 1 0.44 0.27 12 12 0 0 1 0.17 2.67 16.38 16.38 0 0 0 0.07 2 0.35 0.35 0 0 1-0.32 0.4z" fill="#945c5a"/>
 <path d="m115 126.52a0.37 0.37 0 0 1-0.37-0.35 15.91 15.91 0 0 1 0.28-2.85l0.1-0.61a0.36418 0.36418 0 1 1 0.72 0.11l-0.09 0.61a14.86 14.86 0 0 0-0.28 2.72 0.35 0.35 0 0 1-0.35 0.37z" fill="#945c5a"/>
 <path d="m117.73 120.34a0.36 0.36 0 0 1-0.36-0.32 12.07 12.07 0 0 1 0.31-3.58c0.07-0.34 0.13-0.68 0.19-1a0.36497 0.36497 0 1 1 0.72 0.12c0 0.33-0.12 0.68-0.18 1a11.19 11.19 0 0 0-0.31 3.37 0.36 0.36 0 0 1-0.32 0.4z" fill="#945c5a"/>
 <path d="m117.36 127.13a0.36 0.36 0 0 1-0.37-0.36 16.69 16.69 0 0 1 0.19-2.13 12.22 12.22 0 0 0 0.18-2.22 0.37 0.37 0 0 1 0.35-0.38 0.35 0.35 0 0 1 0.39 0.35 13.23 13.23 0 0 1-0.19 2.35 15.48 15.48 0 0 0-0.19 2 0.36 0.36 0 0 1-0.36 0.36z" fill="#945c5a"/>
 <path d="m110.75 134.16a0.37 0.37 0 0 1-0.36-0.32c0-0.36-0.07-0.74-0.1-1.13a9 9 0 0 0-0.71-3.47 0.37 0.37 0 0 1 0.15-0.5 0.38 0.38 0 0 1 0.5 0.15 9.53 9.53 0 0 1 0.79 3.77c0 0.38 0.05 0.75 0.09 1.09a0.37 0.37 0 0 1-0.32 0.41z" fill="#945c5a"/>
 <path d="m105.28 119a0.36 0.36 0 0 1-0.36-0.3c-0.11-0.58-0.23-1.15-0.35-1.73a33.74 33.74 0 0 1-0.63-3.64 0.38 0.38 0 0 1 0.33-0.4 0.35 0.35 0 0 1 0.4 0.33 33.12 33.12 0 0 0 0.62 3.56c0.12 0.59 0.24 1.17 0.35 1.75a0.36 0.36 0 0 1-0.3 0.42z" fill="#945c5a"/>
 <path d="m107 124.81a0.36 0.36 0 0 1-0.36-0.29c-0.07-0.35-0.12-0.74-0.16-1.15a5 5 0 0 0-0.74-2.57 0.36 0.36 0 0 1 0.06-0.51 0.36 0.36 0 0 1 0.51 0.05 5.66 5.66 0 0 1 0.9 2.95c0 0.38 0.08 0.76 0.15 1.09a0.37 0.37 0 0 1-0.29 0.43z" fill="#945c5a"/>
 <path d="m112.7 134.4a0.36 0.36 0 0 1-0.36-0.36c0-0.41 0-0.85 0.06-1.3a9 9 0 0 0-0.16-3.2 0.35 0.35 0 0 1 0.23-0.45 0.37 0.37 0 0 1 0.47 0.23 9.71 9.71 0 0 1 0.19 3.46c0 0.44-0.06 0.87-0.06 1.26a0.36 0.36 0 0 1-0.37 0.36z" fill="#945c5a"/>
 <path d="m115.63 136.35a0.37 0.37 0 0 1-0.36-0.37 27.88 27.88 0 0 1 0.26-3.32c0.1-0.86 0.2-1.75 0.23-2.63a0.37 0.37 0 0 1 0.74 0c0 0.9-0.15 1.81-0.25 2.69a28.7 28.7 0 0 0-0.25 3.28 0.37 0.37 0 0 1-0.37 0.35z" fill="#945c5a"/>
 <path d="m109.88 142.16a0.36 0.36 0 0 1-0.36-0.33l-0.06-0.58a33.5 33.5 0 0 0-0.54-4.11 0.36 0.36 0 0 1 0.28-0.43 0.37 0.37 0 0 1 0.44 0.28 33.39 33.39 0 0 1 0.55 4.19l0.06 0.58a0.37 0.37 0 0 1-0.33 0.4z" fill="#945c5a"/>
 <path d="m111.72 139.25a0.4 0.4 0 0 1-0.37-0.36c0-0.78 0-1.56-0.07-2.32v-0.94a0.37 0.37 0 1 1 0.73 0v0.94c0 0.76 0.08 1.55 0.08 2.35a0.37 0.37 0 0 1-0.37 0.33z" fill="#945c5a"/>
 <path d="m112.81 145.44a0.36 0.36 0 0 1-0.36-0.3 21.36 21.36 0 0 1-0.25-4.31 0.39 0.39 0 0 1 0.38-0.36 0.37 0.37 0 0 1 0.36 0.37 19.85 19.85 0 0 0 0.23 4.17 0.35 0.35 0 0 1-0.29 0.42z" fill="#945c5a"/>
 <path d="m114.77 143.26a0.37 0.37 0 0 1-0.37-0.35v-1.7c0-0.85-0.06-1.7-0.07-2.56a0.37 0.37 0 0 1 0.37-0.36 0.37 0.37 0 0 1 0.37 0.36c0 0.85 0 1.69 0.06 2.53 0 0.57 0 1.14 0.05 1.71a0.35 0.35 0 0 1-0.35 0.37z" fill="#945c5a"/>
 <path d="m114.63 149.33a0.36 0.36 0 0 1-0.36-0.36 12.74 12.74 0 0 1 0.38-3.11 0.35 0.35 0 0 1 0.43-0.28 0.36 0.36 0 0 1 0.29 0.43 12 12 0 0 0-0.37 2.99 0.37 0.37 0 0 1-0.35 0.38z" fill="#945c5a"/>
 <path d="m111.34 150.05a0.37 0.37 0 0 1-0.37-0.36 8.41 8.41 0 0 0-0.69-3.36 0.36 0.36 0 0 1 0.16-0.49 0.38 0.38 0 0 1 0.5 0.16 9.77 9.77 0 0 1 0.76 3.67 0.36 0.36 0 0 1-0.35 0.38z" fill="#945c5a"/>
 <path d="m109.5 150.29a0.37 0.37 0 0 1-0.36-0.31 14.34 14.34 0 0 0-0.37-1.54c-0.08-0.29-0.16-0.57-0.23-0.86a0.37 0.37 0 1 1 0.71-0.17c0.07 0.28 0.15 0.56 0.23 0.83a14.87 14.87 0 0 1 0.39 1.63 0.36 0.36 0 0 1-0.31 0.41z" fill="#945c5a"/>
 <path d="m107.33 134a0.36 0.36 0 0 1-0.36-0.31l-0.24-1.52a35 35 0 0 1-0.49-4 0.37 0.37 0 0 1 0.35-0.39 0.36 0.36 0 0 1 0.38 0.35c0.07 1.29 0.28 2.61 0.48 3.89 0.09 0.51 0.17 1 0.24 1.54a0.36 0.36 0 0 1-0.31 0.41z" fill="#945c5a"/>
 <path d="m108.17 144.22a0.38 0.38 0 0 1-0.37-0.31c0-0.31-0.07-0.62-0.11-0.94a14.65 14.65 0 0 0-0.71-3.59 0.36 0.36 0 0 1 0.21-0.47 0.35 0.35 0 0 1 0.47 0.21 15.58 15.58 0 0 1 0.76 3.77c0 0.31 0.07 0.62 0.11 0.92a0.36 0.36 0 0 1-0.31 0.41z" fill="#945c5a"/>
 <path d="m97.62 96.9a0.36 0.36 0 0 1-0.36-0.28c-0.07-0.3-0.17-0.61-0.26-0.93a7.17 7.17 0 0 1-0.47-2.57 0.37 0.37 0 0 1 0.73 0 6.74 6.74 0 0 0 0.44 2.32c0.1 0.33 0.2 0.66 0.27 1a0.36 0.36 0 0 1-0.27 0.44z" fill="#945c5a"/>
 <path d="m100.42 104.67a0.37 0.37 0 0 1-0.36-0.37 8.51 8.51 0 0 0-0.47-3 0.36 0.36 0 0 1 0.24-0.46 0.35 0.35 0 0 1 0.46 0.23 9.41 9.41 0 0 1 0.5 3.27 0.36 0.36 0 0 1-0.37 0.33z" fill="#945c5a"/>
 <path d="m102 111.71a0.37 0.37 0 0 1-0.35-0.28 12.49 12.49 0 0 1-0.24-1.31 10.47 10.47 0 0 0-0.36-1.7 0.36 0.36 0 0 1 0.23-0.46 0.37 0.37 0 0 1 0.46 0.23 9.86 9.86 0 0 1 0.39 1.82c0.06 0.42 0.13 0.84 0.23 1.25a0.36 0.36 0 0 1-0.27 0.44z" fill="#945c5a"/>
 <path d="m104.77 127.72a0.36 0.36 0 0 1-0.36-0.34v-0.8a6.34 6.34 0 0 0-0.52-2.8 0.36 0.36 0 0 1 0.14-0.5 0.37 0.37 0 0 1 0.5 0.13 6.81 6.81 0 0 1 0.61 3.14v0.78a0.37 0.37 0 0 1-0.34 0.39z" fill="#945c5a"/>
 <rect x="79" y="131.05" width="62" height="44" rx="22" ry="22" fill="#855351"/>
 <path d="m101.88 144.92a2.44 2.44 0 1 1-2.52-2.35 2.44 2.44 0 0 1 2.52 2.35z" fill="#492d2c"/>
 <path d="m123 144.23a2.44 2.44 0 1 1-2.52-2.36 2.44 2.44 0 0 1 2.52 2.36z" fill="#492d2c"/>
 <path d="m80.56 66.57a13 13 0 0 1-7.35 4c0.2-1.4-0.74-4.71 1.14-8.83-9 5-18.58 2.86-17.28-10.72 1.38-14.47 19.67-12.13 21.08-11.67 2.6 0.86 4-1.46-0.31-2.6s-22.3-4.82-30 14 9.41 34.11 23.86 30.58a26.69 26.69 0 0 0 6.73-2.7 27.25 27.25 0 0 1 2.13-12.06z" fill="#fdffe9"/>
 <path d="m172 50.2c-7.89-18.77-25.82-14.93-30.16-13.76s-2.87 3.49-0.27 2.61c1.39-0.47 19.66-3 21.17 11.48 1.53 14.63-9.66 16.07-19.28 9.59 1.56 4.12 1.08 7.17 1.28 8.54a13 13 0 0 1-7.35-4 27 27 0 0 1 2.14 12.39 27.78 27.78 0 0 0 8.88 3.92c14.5 3.42 31.5-11.97 23.59-30.77z" fill="#fdffe9"/>
 <path d="m148.74 74c-0.21-1.53 0.32-4.93-1.43-9.52a21.39 21.39 0 0 0-1.41-3c-1.79-3.16-5-6-9.06-8.39-6.9-4-16.4-6.57-26.3-6.77h-1.33c-9 0-18.33 2.07-26.14 6.86a37.84 37.84 0 0 0-11.22 10.42 16.29 16.29 0 0 0-1.58 2.73c-2.1 4.59-1 8.29-1.27 9.84 1.67-0.41 5.41-1.18 8.19-4.44a30.32 30.32 0 0 0-2.41 13.45c0.54 8.88 5.37 14.78 8.4 14.74-2.48-3.67 2.57-8.29 5.92-10.1a17.36 17.36 0 0 0 7.39-8.13c4.75 11.51 14.93 16.69 18.16 15.16-4.14-2.25-2.11-8.38-0.1-11.33a12.49 12.49 0 0 0 0.91-1.6 1.74 1.74 0 0 1-0.09 1.21c3-0.86 6.11-4 5.3-6.92a17.65 17.65 0 0 0 8 9.51c3.35 1.81 8.4 6.43 5.92 10.1 3 0 7.73-5.7 8.37-14.37a30.11 30.11 0 0 0-2.38-13.82 14.55 14.55 0 0 0 8.16 4.37z" fill="#492d2c"/>
 <path d="m91 156.75a18 18 0 0 0 4.33 2.81 34.24 34.24 0 0 0 4.74 2.05 31.74 31.74 0 0 0 10 1.9 27.06 27.06 0 0 0 10-1.67 28.44 28.44 0 0 0 4.63-2.21 41.83 41.83 0 0 0 4.34-2.88 26.78 26.78 0 0 1-8.53 6.17 24.5 24.5 0 0 1-5.1 1.65 26.67 26.67 0 0 1-5.41 0.43 27.75 27.75 0 0 1-10.38-2.33c-3.18-1.43-6.4-3.18-8.62-5.92z" fill="#171717"/>
 <ellipse cx="134" cy="119.39" rx="6" ry="4.67" fill="#f399c0"/>
 <ellipse cx="86" cy="119.39" rx="6" ry="4.67" fill="#f399c0"/>
 <path d="m77.9 109.89c2.44-6.52 12.37-6 15-2.54-5.62-0.29-10.38-1.48-14.34 2.87 0 0-0.87 0.24-0.66-0.33z" fill="#171717"/>
 <path d="m77.51 101.67c0.29-0.14 0.57-0.15 0.64 0l2.61 5.22c0.06 0.13-0.11 0.36-0.4 0.51-0.28 0.14-0.57 0.14-0.64 0l-2.6-5.23c-0.07-0.13 0.11-0.36 0.39-0.5zm4.88-1.54c0.31-0.08 0.59 0 0.62 0.12l1.47 5.65c0 0.15-0.18 0.33-0.49 0.41s-0.59 0-0.63-0.12l-1.46-5.65c0-0.14 0.18-0.33 0.49-0.41zm5.56-0.69c0.32 0 0.57 0.17 0.56 0.32l-0.41 5.82c0 0.15-0.28 0.26-0.59 0.23-0.32 0-0.57-0.16-0.56-0.31l0.4-5.83c0-0.14 0.28-0.25 0.6-0.23z" fill="#171717" fill-rule="evenodd"/>
 <path d="m142.1 109.89c-2.44-6.52-12.37-6-15-2.54 5.62-0.29 10.38-1.48 14.34 2.87 0 0 0.87 0.24 0.66-0.33z" fill="#171717"/>
 <path d="m142.49 101.67c0.28 0.14 0.46 0.37 0.39 0.5l-2.6 5.23c-0.07 0.13-0.36 0.13-0.64 0-0.29-0.15-0.46-0.38-0.4-0.51l2.61-5.22c0.07-0.14 0.35-0.13 0.64 0zm-4.88-1.54c0.31 0.08 0.53 0.27 0.49 0.41l-1.46 5.65c0 0.15-0.32 0.2-0.63 0.12s-0.53-0.26-0.49-0.41l1.47-5.65c0-0.15 0.31-0.2 0.62-0.12zm-5.56-0.69c0.32 0 0.58 0.09 0.6 0.23l0.4 5.83c0 0.15-0.24 0.29-0.56 0.31-0.31 0-0.58-0.08-0.59-0.23l-0.41-5.82c0-0.15 0.24-0.29 0.56-0.32z" fill="#171717" fill-rule="evenodd"/>
</svg>
